# This file uses centimeters as units for non-parametric coordinates.

mtllib Base_05_B.mtl
g default
v 287.000000 -158.934006 -396.899994
v 287.000000 -105.000000 -396.899994
v 287.000000 -56.000000 -396.899994
v 287.000000 0.000000 -396.899994
v 287.000000 0.000031 69.000000
v 287.000000 -8.000030 69.000000
v 287.000000 -81.000000 69.000000
v 287.000000 -130.000000 69.000000
v 287.000000 -303.977997 69.000000
v 666.315979 0.000000 69.000000
v 346.000000 -8.000000 69.000000
v 346.000000 0.000000 69.000000
v 479.000000 0.000015 69.000000
v 354.300995 -105.000000 -396.899994
v 442.000000 -34.719501 -396.899994
v 485.324005 0.000000 -396.899994
v 442.000000 0.000000 -396.899994
vt 0.028754 0.159744
vt 0.130990 0.159744
vt 0.028754 0.261981
vt 0.028754 0.319489
vt 0.130990 0.319489
vt 0.028754 0.421725
vt 0.028754 0.479233
vt 0.130990 0.479233
vt 0.028754 0.581470
vt 0.028754 0.638978
vt 0.130990 0.638978
vt 0.028754 0.741214
vt 0.028754 0.798722
vt 0.130990 0.798722
vt 0.028754 0.900958
vt 0.188498 0.159744
vt 0.290735 0.159744
vt 0.188498 0.261981
vt 0.348243 0.159744
vt 0.450479 0.159744
vt 0.348243 0.261981
vt 0.507987 0.159744
vt 0.610224 0.159744
vt 0.507987 0.261981
vt 0.667732 0.159744
vt 0.769968 0.159744
vt 0.667732 0.261981
vt 0.827476 0.159744
vt 0.929712 0.159744
vt 0.827476 0.261981
vt 0.188498 0.319489
vt 0.290735 0.319489
vt 0.188498 0.421725
vt 0.188498 0.479233
vt 0.290735 0.479233
vt 0.188498 0.581470
vt 0.188498 0.638978
vt 0.290735 0.638978
vt 0.188498 0.741214
vt 0.014377 0.014377
vt 0.116613 0.014377
vt 0.116613 0.116613
vt 0.014377 0.116613
vt 0.188498 0.798722
vt 0.290735 0.798722
vt 0.188498 0.900958
vt 0.348243 0.319489
vt 0.450479 0.319489
vt 0.348243 0.421725
vt 0.507987 0.319489
vt 0.610224 0.319489
vt 0.507987 0.421725
vt 0.667732 0.319489
vt 0.769968 0.319489
vt 0.667732 0.421725
vt 0.827476 0.319489
vt 0.929712 0.319489
vt 0.827476 0.421725
vt 0.348243 0.479233
vt 0.450479 0.479233
vt 0.348243 0.581470
vt 0.348243 0.638978
vt 0.450479 0.638978
vt 0.348243 0.741214
vt 0.348243 0.798722
vt 0.450479 0.798722
vt 0.348243 0.900958
vt 0.507987 0.479233
vt 0.610224 0.479233
vt 0.507987 0.581470
vt 0.667732 0.479233
vt 0.769968 0.479233
vt 0.667732 0.581470
vt 0.827476 0.479233
vt 0.929712 0.479233
vt 0.827476 0.581470
vt 0.507987 0.638978
vt 0.610224 0.638978
vt 0.507987 0.741214
vt 0.507987 0.798722
vt 0.610224 0.798722
vt 0.507987 0.900958
vt 0.667732 0.638978
vt 0.769968 0.638978
vt 0.667732 0.741214
vt 0.827476 0.638978
vt 0.929712 0.638978
vt 0.827476 0.741214
vn -1.000000 0.000000 0.000000
vn -1.000000 0.000000 0.000000
vn -1.000000 0.000000 0.000000
vn -1.000000 0.000000 0.000000
vn -1.000000 0.000000 0.000000
vn -1.000000 0.000000 0.000000
vn -1.000000 0.000000 0.000000
vn -1.000000 0.000000 0.000000
vn -1.000000 0.000000 0.000000
vn -1.000000 0.000000 0.000000
vn -1.000000 0.000000 0.000000
vn -1.000000 0.000000 0.000000
vn -1.000000 0.000000 0.000000
vn -1.000000 0.000000 0.000000
vn -1.000000 0.000000 0.000000
vn -1.000000 0.000000 0.000000
vn -1.000000 0.000000 0.000000
vn -1.000000 0.000000 0.000000
vn -1.000000 0.000000 0.000000
vn -1.000000 0.000000 0.000000
vn -1.000000 0.000000 0.000000
vn -0.000000 0.000000 1.000000
vn -0.000000 0.000000 1.000000
vn -0.000000 0.000000 1.000000
vn 0.000000 0.000000 1.000000
vn 0.000000 0.000000 1.000000
vn 0.000000 0.000000 1.000000
vn 0.000000 0.000000 1.000000
vn 0.000000 0.000000 1.000000
vn 0.000000 0.000000 1.000000
vn 0.000000 0.000000 1.000000
vn 0.000000 0.000000 1.000000
vn 0.000000 0.000000 1.000000
vn -0.000000 0.000000 1.000000
vn -0.000000 0.000000 1.000000
vn -0.000000 0.000000 1.000000
vn 0.000000 0.000000 1.000000
vn 0.000000 0.000000 1.000000
vn 0.000000 0.000000 1.000000
vn 0.000000 0.000000 1.000000
vn 0.000000 0.000000 1.000000
vn 0.000000 0.000000 1.000000
vn 0.000000 0.000000 1.000000
vn 0.000000 0.000000 -1.000000
vn 0.000000 0.000000 -1.000000
vn 0.000000 0.000000 -1.000000
vn 0.000000 0.000000 -1.000000
vn 0.000000 0.000000 -1.000000
vn 0.000000 0.000000 -1.000000
vn 0.000001 0.000000 -1.000000
vn 0.000001 0.000000 -1.000000
vn 0.000001 0.000000 -1.000000
vn -0.000000 0.000000 -1.000000
vn -0.000000 0.000000 -1.000000
vn -0.000000 0.000000 -1.000000
vn 0.000000 0.000000 -1.000000
vn 0.000000 0.000000 -1.000000
vn 0.000000 0.000000 -1.000000
vn 0.000000 0.000000 -1.000000
vn 0.000000 0.000000 -1.000000
vn 0.000000 0.000000 -1.000000
vn 0.607679 -0.758286 -0.236070
vn 0.607679 -0.758286 -0.236070
vn 0.607679 -0.758286 -0.236070
vn 0.607682 -0.758284 -0.236067
vn 0.607682 -0.758284 -0.236067
vn 0.607682 -0.758284 -0.236067
vn 0.607678 -0.758286 -0.236070
vn 0.607678 -0.758286 -0.236070
vn 0.607678 -0.758286 -0.236070
vn 0.607679 -0.758286 -0.236069
vn 0.607679 -0.758286 -0.236069
vn 0.607679 -0.758286 -0.236069
vn 0.000000 1.000000 -0.000000
vn 0.000000 1.000000 -0.000000
vn 0.000000 1.000000 -0.000000
vn 0.000001 1.000000 -0.000000
vn 0.000001 1.000000 -0.000000
vn 0.000001 1.000000 -0.000000
vn 0.000000 1.000000 0.000000
vn 0.000000 1.000000 0.000000
vn 0.000000 1.000000 0.000000
vn 0.000000 1.000000 -0.000000
vn 0.000000 1.000000 -0.000000
vn 0.000000 1.000000 -0.000000
vn -0.000000 1.000000 -0.000000
vn -0.000000 1.000000 -0.000000
vn -0.000000 1.000000 -0.000000
s off
g polySurface340_0
usemtl lambert13SG
f 9/1/1 8/3/2 1/2/3
f 1/4/4 8/6/5 2/5/6
f 8/7/7 7/9/8 2/8/9
f 2/10/10 7/12/11 3/11/12
f 7/13/13 6/15/14 3/14/15
f 4/16/16 3/18/17 5/17/18
f 3/19/19 6/21/20 5/20/21
f 10/22/22 13/24/23 9/23/24
f 9/25/25 13/27/26 8/26/27
f 8/28/28 13/30/29 7/29/30
f 6/31/31 7/33/32 11/32/33
f 12/34/34 11/36/35 13/35/36
f 7/37/37 13/39/38 11/38/39
f 6/40/40 11/43/41 12/42/42 5/41/43
f 16/44/44 15/46/45 17/45/46
f 4/47/47 17/49/48 3/48/49
f 17/50/50 15/52/51 3/51/52
f 15/53/53 14/55/54 3/54/55
f 3/56/56 14/58/57 2/57/58
f 2/59/59 14/61/60 1/60/61
f 10/62/62 9/64/63 16/63/64
f 16/65/65 9/67/66 15/66/67
f 15/68/68 9/70/69 14/69/70
f 9/71/71 1/73/72 14/72/73
f 10/74/74 16/76/75 13/75/76
f 5/77/77 12/79/78 4/78/79
f 4/80/80 12/82/81 17/81/82
f 16/83/83 17/85/84 13/84/85
f 13/86/86 17/88/87 12/87/88
