# This file uses centimeters as units for non-parametric coordinates.

mtllib Base_20_B.mtl
g default
v 51.999802 -81.000000 125.000000
v 231.000000 -81.000000 125.000000
v 52.000000 -130.000000 174.000000
v 52.000000 -130.000000 125.000000
v 231.000000 -130.000000 174.000000
v 231.000000 -81.000000 174.000000
v 51.999802 -81.000000 174.000000
v 231.000000 -130.000000 125.000000
vt 0.044665 0.044665
vt 0.203474 0.044665
vt 0.044665 0.203474
vt 0.292804 0.044665
vt 0.451613 0.044665
vt 0.292804 0.203474
vt 0.540943 0.044665
vt 0.699752 0.044665
vt 0.540943 0.203474
vt 0.789082 0.044665
vt 0.947891 0.044665
vt 0.789082 0.203474
vt 0.044665 0.292804
vt 0.203474 0.292804
vt 0.044665 0.451613
vt 0.044665 0.540943
vt 0.203474 0.540943
vt 0.044665 0.699752
vt 0.044665 0.789082
vt 0.203474 0.789082
vt 0.044665 0.947891
vt 0.292804 0.292804
vt 0.451613 0.292804
vt 0.292804 0.451613
vt 0.540943 0.292804
vt 0.699752 0.292804
vt 0.540943 0.451613
vt 0.789082 0.292804
vt 0.947891 0.292804
vt 0.789082 0.451613
vt 0.292804 0.540943
vt 0.451613 0.540943
vt 0.292804 0.699752
vt 0.292804 0.789082
vt 0.451613 0.789082
vt 0.292804 0.947891
vn 0.000000 0.000000 -1.000000
vn 0.000000 0.000000 -1.000000
vn 0.000000 0.000000 -1.000000
vn 0.000000 0.000000 -1.000000
vn 0.000000 0.000000 -1.000000
vn 0.000000 0.000000 -1.000000
vn -1.000000 -0.000004 0.000000
vn -1.000000 -0.000004 0.000000
vn -1.000000 -0.000004 0.000000
vn -1.000000 -0.000004 0.000000
vn -1.000000 -0.000004 0.000000
vn -1.000000 -0.000004 0.000000
vn 0.000000 0.000000 1.000000
vn 0.000000 0.000000 1.000000
vn 0.000000 0.000000 1.000000
vn 0.000000 0.000000 1.000000
vn 0.000000 0.000000 1.000000
vn 0.000000 0.000000 1.000000
vn 0.000000 1.000000 0.000000
vn 0.000000 1.000000 0.000000
vn 0.000000 1.000000 0.000000
vn 0.000000 1.000000 0.000000
vn 0.000000 1.000000 0.000000
vn 0.000000 1.000000 0.000000
vn 1.000000 0.000000 0.000000
vn 1.000000 0.000000 0.000000
vn 1.000000 0.000000 0.000000
vn 1.000000 0.000000 0.000000
vn 1.000000 0.000000 0.000000
vn 1.000000 0.000000 0.000000
vn 0.000000 -1.000000 0.000000
vn 0.000000 -1.000000 0.000000
vn 0.000000 -1.000000 0.000000
vn 0.000000 -1.000000 0.000000
vn 0.000000 -1.000000 0.000000
vn 0.000000 -1.000000 0.000000
s off
g polySurface445_0
usemtl lambert39SG
f 2/1/1 8/3/2 1/2/3
f 8/4/4 4/6/5 1/5/6
f 3/7/7 7/9/8 4/8/9
f 7/10/10 1/12/11 4/11/12
f 6/13/13 7/15/14 5/14/15
f 7/16/16 3/18/17 5/17/18
f 6/19/19 2/21/20 7/20/21
f 2/22/22 1/24/23 7/23/24
f 2/25/25 6/27/26 8/26/27
f 6/28/28 5/30/29 8/29/30
f 5/31/31 3/33/32 8/32/33
f 3/34/34 4/36/35 8/35/36
