# This file uses centimeters as units for non-parametric coordinates.

mtllib Base_12_B.mtl
g default
v 51.948304 -56.000000 -111.997002
v 51.948304 -56.000000 69.000000
v 219.948304 -56.000000 69.000000
v 219.948304 -56.000000 -111.997002
v 219.948304 0.000000 69.000000
v 51.948304 0.000000 69.000000
v 219.948304 0.000000 -111.997002
v 51.948304 0.000000 -111.997002
vt 0.044665 0.044665
vt 0.203474 0.044665
vt 0.044665 0.203474
vt 0.292804 0.044665
vt 0.451613 0.044665
vt 0.292804 0.203474
vt 0.540943 0.044665
vt 0.699752 0.044665
vt 0.540943 0.203474
vt 0.789082 0.044665
vt 0.947891 0.044665
vt 0.789082 0.203474
vt 0.044665 0.292804
vt 0.203474 0.292804
vt 0.044665 0.451613
vt 0.044665 0.540943
vt 0.203474 0.540943
vt 0.044665 0.699752
vt 0.044665 0.789082
vt 0.203474 0.789082
vt 0.044665 0.947891
vt 0.292804 0.292804
vt 0.451613 0.292804
vt 0.292804 0.451613
vt 0.540943 0.292804
vt 0.699752 0.292804
vt 0.540943 0.451613
vt 0.789082 0.292804
vt 0.947891 0.292804
vt 0.789082 0.451613
vt 0.292804 0.540943
vt 0.451613 0.540943
vt 0.292804 0.699752
vt 0.292804 0.789082
vt 0.451613 0.789082
vt 0.292804 0.947891
vn 0.000000 -1.000000 0.000000
vn 0.000000 -1.000000 0.000000
vn 0.000000 -1.000000 0.000000
vn 0.000000 -1.000000 0.000000
vn 0.000000 -1.000000 0.000000
vn 0.000000 -1.000000 0.000000
vn 0.000000 0.000000 1.000000
vn 0.000000 0.000000 1.000000
vn 0.000000 0.000000 1.000000
vn 0.000000 0.000000 1.000000
vn 0.000000 0.000000 1.000000
vn 0.000000 0.000000 1.000000
vn 0.000000 0.000000 -1.000000
vn 0.000000 0.000000 -1.000000
vn 0.000000 0.000000 -1.000000
vn 0.000000 0.000000 -1.000000
vn 0.000000 0.000000 -1.000000
vn 0.000000 0.000000 -1.000000
vn 1.000000 0.000000 0.000000
vn 1.000000 0.000000 0.000000
vn 1.000000 0.000000 0.000000
vn 1.000000 0.000000 0.000000
vn 1.000000 0.000000 0.000000
vn 1.000000 0.000000 0.000000
vn 0.000000 1.000000 0.000000
vn 0.000000 1.000000 0.000000
vn 0.000000 1.000000 0.000000
vn 0.000000 1.000000 0.000000
vn 0.000000 1.000000 0.000000
vn 0.000000 1.000000 0.000000
vn -1.000000 0.000000 0.000000
vn -1.000000 0.000000 0.000000
vn -1.000000 0.000000 0.000000
vn -1.000000 0.000000 0.000000
vn -1.000000 0.000000 0.000000
vn -1.000000 0.000000 0.000000
s off
g polySurface355_0 group1533
usemtl lambert40SG
f 1/1/1 4/3/2 2/2/3
f 4/4/4 3/6/5 2/5/6
f 5/7/7 6/9/8 3/8/9
f 6/10/10 2/12/11 3/11/12
f 1/13/13 8/15/14 4/14/15
f 8/16/16 7/18/17 4/17/18
f 4/19/19 7/21/20 3/20/21
f 7/22/22 5/24/23 3/23/24
f 5/25/25 7/27/26 6/26/27
f 7/28/28 8/30/29 6/29/30
f 6/31/31 8/33/32 2/32/33
f 8/34/34 1/36/35 2/35/36
