# This file uses centimeters as units for non-parametric coordinates.

mtllib Base_13_D.mtl
g default
v 569.848991 -81.000000 772.781006
v 707.106689 -81.000000 772.781006
v 707.052391 -81.000000 649.781006
v 707.027695 -81.000000 593.781006
v 698.848991 -81.000000 593.781006
v 698.848991 -81.000000 502.781006
v 706.987488 -81.000000 502.781006
v 706.962891 -81.000000 446.781006
v 642.903984 -81.000000 446.781006
v 642.903984 -81.000000 446.835999
v 642.848991 -81.000000 446.835999
v 642.848991 -81.000000 593.781006
v 642.848991 -81.000000 649.781006
v 569.848991 -81.000000 649.781006
v 706.886192 -81.000000 272.671997
v 194.817009 -81.000000 772.781006
v 513.848991 -81.000000 772.781006
v 513.848991 -81.000000 649.781006
v 513.848991 -81.000000 593.781006
v 707.106995 0.000000 772.781006
v 93.741997 0.000000 772.781006
v 706.842995 0.000000 174.000000
vt 0.119332 0.119332
vt 0.195704 0.119332
vt 0.119332 0.195704
vt 0.238663 0.119332
vt 0.315036 0.119332
vt 0.238663 0.195704
vt 0.357995 0.119332
vt 0.434368 0.119332
vt 0.357995 0.195704
vt 0.477327 0.119332
vt 0.553699 0.119332
vt 0.477327 0.195704
vt 0.596659 0.119332
vt 0.673031 0.119332
vt 0.596659 0.195704
vt 0.715990 0.119332
vt 0.792363 0.119332
vt 0.715990 0.195704
vt 0.835322 0.119332
vt 0.911695 0.119332
vt 0.835322 0.195704
vt 0.119332 0.238663
vt 0.195704 0.238663
vt 0.119332 0.315036
vt 0.119332 0.357995
vt 0.195704 0.357995
vt 0.119332 0.434368
vt 0.119332 0.477327
vt 0.195704 0.477327
vt 0.119332 0.553699
vt 0.119332 0.596659
vt 0.195704 0.596659
vt 0.119332 0.673031
vt 0.119332 0.715990
vt 0.195704 0.715990
vt 0.119332 0.792363
vt 0.119332 0.835322
vt 0.195704 0.835322
vt 0.119332 0.911695
vt 0.238663 0.238663
vt 0.391408 0.238663
vt 0.238663 0.391408
vt 0.434368 0.238663
vt 0.510740 0.238663
vt 0.434368 0.315036
vt 0.553699 0.238663
vt 0.630072 0.238663
vt 0.553699 0.315036
vt 0.673031 0.238663
vt 0.749403 0.238663
vt 0.673031 0.315036
vt 0.792363 0.238663
vt 0.868735 0.238663
vt 0.792363 0.315036
vt 0.238663 0.434368
vt 0.315036 0.434368
vt 0.238663 0.510740
vt 0.238663 0.553699
vt 0.315036 0.553699
vt 0.238663 0.630072
vt 0.010740 0.010740
vt 0.087112 0.010740
vt 0.087112 0.087112
vt 0.010740 0.087112
vt 0.357995 0.434368
vt 0.510740 0.434368
vt 0.357995 0.587112
vt 0.087112 0.108592
vt 0.087112 0.261337
vt 0.010740 0.261337
vt 0.010740 0.108592
vt 0.238663 0.673031
vt 0.315036 0.673031
vt 0.238663 0.749403
vt 0.238663 0.792363
vt 0.315036 0.792363
vt 0.238663 0.868735
vt 0.357995 0.630072
vt 0.434368 0.630072
vt 0.357995 0.706444
vt 0.357995 0.749403
vt 0.434368 0.749403
vt 0.357995 0.825776
vt 0.357995 0.868735
vt 0.434368 0.868735
vt 0.357995 0.945107
vt 0.553699 0.434368
vt 0.706444 0.434368
vt 0.553699 0.587112
vt 0.749403 0.434368
vt 0.825776 0.434368
vt 0.749403 0.510740
vt 0.868735 0.434368
vt 0.945107 0.434368
vt 0.868735 0.510740
vt 0.553699 0.630072
vt 0.630072 0.630072
vt 0.553699 0.706444
vt 0.553699 0.749403
vt 0.630072 0.749403
vt 0.553699 0.825776
vt 0.553699 0.868735
vt 0.630072 0.868735
vt 0.553699 0.945107
vt 0.673031 0.630072
vt 0.825776 0.630072
vt 0.673031 0.782816
vt 0.868735 0.630072
vt 0.945107 0.630072
vt 0.868735 0.706444
vt 0.673031 0.825776
vt 0.749403 0.825776
vt 0.673031 0.902148
vt 0.792363 0.825776
vt 0.868735 0.825776
vt 0.792363 0.902148
vn 0.000000 -1.000000 0.000000
vn 0.000000 -1.000000 0.000000
vn 0.000000 -1.000000 0.000000
vn 0.000000 -1.000000 0.000000
vn 0.000000 -1.000000 0.000000
vn 0.000000 -1.000000 0.000000
vn 0.000000 -1.000000 0.000000
vn 0.000000 -1.000000 0.000000
vn 0.000000 -1.000000 0.000000
vn 0.000000 -1.000000 -0.000000
vn 0.000000 -1.000000 -0.000000
vn 0.000000 -1.000000 -0.000000
vn 0.000000 -1.000000 -0.000001
vn 0.000000 -1.000000 -0.000001
vn 0.000000 -1.000000 -0.000001
vn 0.000000 -1.000000 0.000000
vn 0.000000 -1.000000 0.000000
vn 0.000000 -1.000000 0.000000
vn 0.000000 -1.000000 0.000000
vn 0.000000 -1.000000 0.000000
vn 0.000000 -1.000000 0.000000
vn 0.000000 -1.000000 0.000000
vn 0.000000 -1.000000 0.000000
vn 0.000000 -1.000000 0.000000
vn 0.000000 -1.000000 0.000000
vn 0.000000 -1.000000 0.000000
vn 0.000000 -1.000000 0.000000
vn 0.000000 -1.000000 0.000000
vn 0.000000 -1.000000 0.000000
vn 0.000000 -1.000000 0.000000
vn 0.000000 -1.000000 0.000000
vn 0.000000 -1.000000 0.000000
vn 0.000000 -1.000000 0.000000
vn 0.000000 -1.000000 0.000000
vn 0.000000 -1.000000 0.000000
vn 0.000000 -1.000000 0.000000
vn 0.000000 -1.000000 0.000000
vn 0.000000 -1.000000 0.000000
vn 0.000000 -1.000000 0.000000
vn 0.000000 -1.000000 0.000000
vn 0.000000 -1.000000 0.000000
vn 0.000000 -1.000000 0.000000
vn 0.000000 -1.000000 0.000000
vn 0.000000 -1.000000 0.000000
vn 0.000000 -1.000000 0.000000
vn 0.000000 -1.000000 0.000000
vn 0.000000 -1.000000 0.000000
vn 0.000000 -1.000000 0.000000
vn 0.000000 -1.000000 0.000000
vn 0.000000 -1.000000 0.000000
vn 0.000000 -1.000000 0.000000
vn 0.000000 -0.999999 0.001163
vn 0.000000 -0.999999 0.001163
vn 0.000000 -0.000000 0.000000
vn 0.000000 -1.000000 0.000000
vn 0.000000 -1.000000 0.000000
vn 0.000000 -1.000000 0.000000
vn 0.000000 -1.000000 0.000000
vn 0.000000 -1.000000 0.000000
vn 0.000000 -1.000000 0.000000
vn 0.000000 -1.000000 -0.000000
vn 0.000000 -1.000000 -0.000000
vn 0.000000 -1.000000 -0.000000
vn 0.000000 -1.000000 -0.000000
vn 0.000000 1.000000 0.000000
vn 0.000000 1.000000 0.000000
vn 0.000000 1.000000 0.000000
vn -0.526644 -0.657167 -0.539239
vn -0.526644 -0.657167 -0.539239
vn -0.526644 -0.657167 -0.539239
vn -0.526644 -0.657167 -0.539239
vn 0.000000 -1.000000 0.000000
vn 0.000000 -1.000000 0.000000
vn 0.000000 -1.000000 0.000000
vn 0.000000 -1.000000 0.000000
vn 0.000000 -1.000000 0.000000
vn 0.000000 -1.000000 0.000000
vn 0.000000 -1.000000 0.000000
vn 0.000000 -1.000000 0.000000
vn 0.000000 -1.000000 0.000000
vn 0.000000 -1.000000 0.000000
vn 0.000000 -1.000000 0.000000
vn 0.000000 -1.000000 0.000000
vn 0.000000 -1.000000 0.000000
vn 0.000000 -1.000000 0.000000
vn 0.000000 -1.000000 0.000000
vn 1.000000 -0.000004 -0.000441
vn 1.000000 -0.000004 -0.000441
vn 1.000000 -0.000004 -0.000441
vn 1.000000 -0.000006 -0.000441
vn 1.000000 -0.000006 -0.000441
vn 1.000000 -0.000006 -0.000441
vn 1.000000 -0.000011 -0.000439
vn 1.000000 -0.000011 -0.000439
vn 1.000000 -0.000011 -0.000439
vn 1.000000 -0.000002 -0.000442
vn 1.000000 -0.000002 -0.000442
vn 1.000000 -0.000002 -0.000442
vn 1.000000 -0.000005 -0.000441
vn 1.000000 -0.000005 -0.000441
vn 1.000000 -0.000005 -0.000441
vn 1.000000 -0.000004 -0.000441
vn 1.000000 -0.000004 -0.000441
vn 1.000000 -0.000004 -0.000441
vn -0.000000 0.000000 1.000000
vn -0.000000 0.000000 1.000000
vn -0.000000 0.000000 1.000000
vn -0.000000 0.000000 1.000000
vn -0.000000 0.000000 1.000000
vn -0.000000 0.000000 1.000000
vn -0.000000 0.000000 1.000000
vn -0.000000 0.000000 1.000000
vn -0.000000 0.000000 1.000000
vn -0.000000 0.000000 1.000000
vn -0.000000 0.000000 1.000000
vn -0.000000 0.000000 1.000000
s off
g polySurface370_2
usemtl initialShadingGroup
f 1/1/1 14/3/2 2/2/3
f 14/4/4 13/6/5 2/5/6
f 2/7/7 13/9/8 3/8/9
f 3/10/10 13/12/11 4/11/12
f 4/13/13 13/15/14 5/14/15
f 13/16/16 12/18/17 5/17/18
f 5/19/19 12/21/20 6/20/21
f 12/22/22 11/24/23 6/23/24
f 11/25/25 10/27/26 6/26/27
f 7/28/28 6/30/29 8/29/30
f 9/31/31 8/33/32 10/32/33
f 6/34/34 10/36/35 8/35/36
f 8/37/37 9/39/38 15/38/39
f 15/40/40 9/42/41 16/41/42
f 17/43/43 16/45/44 18/44/45
f 12/46/46 19/48/47 11/47/48
f 10/49/49 11/51/50 9/50/51
f 9/52/52 11/54/53 16/53/54
f 11/55/55 19/57/56 16/56/57
f 16/58/58 19/60/59 18/59/60
f 4/61/61 5/64/62 6/63/63 7/62/64
f 20/65/65 22/67/66 21/66/67
f 16/68/68 21/71/69 22/70/70 15/69/71
f 17/72/72 18/74/73 1/73/74
f 1/75/75 18/77/76 14/76/77
f 13/78/78 14/80/79 12/79/80
f 12/81/81 14/83/82 19/82/83
f 14/84/84 18/86/85 19/85/86
f 22/87/87 20/89/88 15/88/89
f 15/90/90 20/92/91 8/91/92
f 8/93/93 20/95/94 7/94/95
f 7/96/96 20/98/97 4/97/98
f 4/99/99 20/101/100 3/100/101
f 3/102/102 20/104/103 2/103/104
f 21/105/105 16/107/106 20/106/107
f 16/108/108 17/110/109 20/109/110
f 17/111/111 1/113/112 20/112/113
f 2/114/114 20/116/115 1/115/116
