# This file uses centimeters as units for non-parametric coordinates.

mtllib Bridge_01_F.mtl
g default
v 95.363297 -137.094986 500.000000
v 95.363297 -137.094986 444.000000
v 95.363258 -130.000000 444.000000
v 95.363297 -130.000000 500.000000
v -95.363190 -130.000000 500.000000
v -95.363319 -130.000000 444.000000
v -95.363297 -137.094986 444.000000
v -95.363297 -137.094986 500.000000
vt 0.641414 0.081343
vt 0.752242 0.081343
vt 0.752242 0.061817
vt 0.641414 0.061817
vt 0.358586 0.061817
vt 0.247758 0.061817
vt 0.247758 0.081343
vt 0.358586 0.081343
vt 0.275263 0.250000
vt 0.275263 0.000000
vt 0.224737 0.000000
vt 0.224737 0.250000
vt 0.775263 0.250000
vt 0.775263 0.000000
vt 0.724737 0.000000
vt 0.724737 0.250000
vt 0.625000 0.849737
vt 0.375000 0.849737
vt 0.375000 0.900263
vt 0.625000 0.900263
vt 0.625000 0.349737
vt 0.375000 0.349737
vt 0.375000 0.400263
vt 0.625000 0.400263
vn 0.577350 -0.577350 0.577350
vn 0.577350 -0.577350 -0.577350
vn 0.577350 0.577350 -0.577350
vn 0.577350 0.577350 0.577350
vn -0.577330 0.577360 0.577360
vn -0.577360 0.577360 -0.577330
vn -0.577360 -0.577330 -0.577360
vn -0.577360 -0.577330 0.577360
s 1
g Bridge_01_group81FBXASC032Bridge_01_group83FBXASC032Bridge_01_polySurface142FBXASC032Br
usemtl lambert10SG
f 1/4/1 2/3/2 3/2/3 4/1/4
f 5/8/5 6/7/6 7/6/7 8/5/8
f 5/12/5 8/11/8 1/10/1 4/9/4
f 3/16/3 2/15/2 7/14/7 6/13/6
f 2/20/2 1/19/1 8/18/8 7/17/7
f 6/24/6 5/23/5 4/22/4 3/21/3
