# This file uses centimeters as units for non-parametric coordinates.

mtllib ERail_07.mtl
g ERail_07_default1
v 104.910561 -0.153884 763.102539
v 95.333504 -0.117406 772.779053
v 102.781487 19.495605 763.102539
v 96.396538 19.532084 770.065063
v 115.350235 19.495605 750.239502
v 97.462578 19.495605 750.239502
v 117.479309 -0.153884 750.239502
v 95.333504 -0.153884 750.239502
vt 0.375000 0.000000
vt 0.625000 0.000000
vt 0.625000 0.250000
vt 0.375000 0.250000
vt 0.625000 0.500000
vt 0.375000 0.500000
vt 0.625000 0.750000
vt 0.375000 0.750000
vt 0.625000 1.000000
vt 0.375000 1.000000
vt 0.875000 0.000000
vt 0.875000 0.250000
vt 0.125000 0.000000
vt 0.125000 0.250000
vn 0.709640 0.058586 0.702125
vn 0.715307 0.063223 0.695945
vn 0.723317 0.069860 0.686973
vn 0.715307 0.063223 0.695945
vn 0.734883 0.079627 0.673503
vn 0.723317 0.069860 0.686973
vn 0.003938 0.999991 -0.001628
vn 0.001856 0.999998 -0.000768
vn 0.000645 1.000000 -0.000267
vn 0.001856 0.999998 -0.000768
vn 0.000000 1.000000 0.000000
vn 0.000645 1.000000 -0.000267
vn 0.000000 0.000000 -1.000000
vn 0.000000 0.000000 -1.000000
vn 0.000000 0.000000 -1.000000
vn 0.000000 0.000000 -1.000000
vn 0.000000 0.000000 -1.000000
vn 0.000000 0.000000 -1.000000
vn 0.000000 -1.000000 0.000000
vn -0.001043 -0.999999 0.000777
vn -0.000745 -1.000000 0.000554
vn -0.001043 -0.999999 0.000777
vn -0.002174 -0.999996 0.001618
vn -0.000745 -1.000000 0.000554
vn -0.998541 0.054009 -0.000087
vn -0.996763 0.077026 -0.023038
vn -0.996524 0.079352 -0.025360
vn -0.996763 0.077026 -0.023038
vn -0.992753 0.107568 -0.053579
vn -0.996524 0.079352 -0.025360
vn 0.713103 0.077267 0.696788
vn 0.713103 0.077267 0.696788
vn 0.713103 0.077267 0.696788
vn 0.713103 0.077267 0.696788
vn 0.713104 0.077267 0.696788
vn 0.713103 0.077267 0.696788
s off
g ERail_07_group56 ERail_07_polySurface24 ERail_07_polySurface103 ERail_07_polySurface1 group223
usemtl ERail_07_initialShadingGroup
f 2/2/1 1/1/2 4/3/3
f 1/1/4 3/4/5 4/3/6
f 4/3/7 3/4/8 6/5/9
f 3/4/10 5/6/11 6/5/12
f 5/6/13 7/8/14 6/5/15
f 7/8/16 8/7/17 6/5/18
f 7/8/19 1/10/20 8/7/21
f 1/10/22 2/9/23 8/7/24
f 2/2/25 4/3/26 8/11/27
f 4/3/28 6/12/29 8/11/30
f 7/13/31 5/14/32 1/1/33
f 5/14/34 3/4/35 1/1/36
