# This file uses centimeters as units for non-parametric coordinates.

mtllib Float_01_C.mtl
g Float_03_default1
v -342.226379 88.004562 -838.226379
v -429.773621 88.004562 -838.226379
v -429.773621 88.004562 -925.773621
v -342.226379 88.004562 -925.773621
v -386.000000 65.995438 -882.000000
vt 0.500000 0.000000
vt 0.250000 0.250000
vt 0.500000 0.500000
vt 0.750000 0.250000
vt 0.250000 0.500000
vt 0.375000 0.500000
vt 0.500000 0.500000
vt 0.625000 0.500000
vt 0.750000 0.500000
vt 0.500000 1.000000
vn 0.000000 1.000000 0.000000
vn 0.000000 1.000000 0.000000
vn 0.000000 1.000000 0.000000
vn 0.000000 1.000000 0.000000
vn 0.000000 -0.893426 0.449210
vn 0.000000 -0.893426 0.449210
vn 0.000000 -0.893426 0.449210
vn -0.449210 -0.893426 0.000000
vn -0.449210 -0.893426 0.000000
vn -0.449210 -0.893426 0.000000
vn 0.000000 -0.893426 -0.449210
vn 0.000000 -0.893426 -0.449210
vn 0.000000 -0.893426 -0.449210
vn 0.449209 -0.893427 0.000000
vn 0.449209 -0.893427 0.000000
vn 0.449209 -0.893427 0.000000
s off
g Float_03_group124 Float_03_pPyramid22 Float_03_polySurface1 group1306
usemtl lambert6SG
f 1/1/1 4/4/2 3/3/3 2/2/4
f 1/5/5 2/6/6 5/10/7
f 2/6/8 3/7/9 5/10/10
f 3/7/11 4/8/12 5/10/13
f 4/8/14 1/9/15 5/10/16
