# This file uses centimeters as units for non-parametric coordinates.

mtllib Float_01_H.mtl
g Float_05_Float_05_default1
v 406.226379 26.004562 -619.226379
v 493.773621 26.004562 -619.226379
v 493.773621 26.004562 -706.773621
v 406.226379 26.004562 -706.773621
v 450.000000 3.995438 -663.000000
vt 0.500000 0.000000
vt 0.250000 0.250000
vt 0.500000 0.500000
vt 0.750000 0.250000
vt 0.250000 0.500000
vt 0.375000 0.500000
vt 0.500000 0.500000
vt 0.625000 0.500000
vt 0.750000 0.500000
vt 0.500000 1.000000
vn 0.000000 1.000000 0.000000
vn 0.000000 1.000000 0.000000
vn 0.000000 1.000000 0.000000
vn 0.000000 1.000000 0.000000
vn 0.000000 -0.893426 0.449210
vn 0.000000 -0.893426 0.449210
vn 0.000000 -0.893426 0.449210
vn 0.449210 -0.893426 0.000000
vn 0.449210 -0.893426 0.000000
vn 0.449210 -0.893426 0.000000
vn 0.000000 -0.893426 -0.449210
vn 0.000000 -0.893426 -0.449210
vn 0.000000 -0.893426 -0.449210
vn -0.449209 -0.893427 0.000000
vn -0.449209 -0.893427 0.000000
vn -0.449209 -0.893427 0.000000
s off
g Float_05_Float_05_group125 Float_05_Float_05_pPyramid24 Float_05_Float_05_polySurface1 Float_05_group235 Float_05_polySurface1 group1308
usemtl Float_05_initialShadingGroup2
f 1/1/1 2/2/2 3/3/3 4/4/4
f 1/5/5 5/10/6 2/6/7
f 2/6/8 5/10/9 3/7/10
f 3/7/11 5/10/12 4/8/13
f 4/8/14 5/10/15 1/9/16
