# This file uses centimeters as units for non-parametric coordinates.

mtllib Metal_01_H.mtl
g default
v -437.323639 49.000004 69.000008
v -437.323639 86.235054 69.000000
v -437.323639 100.000000 69.000000
v -346.000000 49.000011 69.000000
v -412.675293 49.000004 69.000000
v -346.000000 100.000000 69.000000
v -346.000000 81.000000 69.000000
v -346.000000 74.666656 69.000000
v -346.000000 49.000008 88.250000
v -346.000000 49.000011 79.531174
v -346.000000 49.000008 100.999985
v -346.000000 100.000000 125.000000
v -346.000000 49.000000 125.000000
v -346.000000 49.000000 122.044937
v -437.323639 49.000008 125.000015
v -437.323639 56.940666 125.000015
v -437.323639 49.000011 122.044945
v -437.323639 86.710083 125.000000
v -437.323639 49.000015 79.531174
v -437.323639 100.000000 125.000000
v -360.218994 49.000000 125.000000
vt 0.390669 0.012250
vt 0.390669 0.021559
vt 0.390669 0.025000
vt 0.413500 0.012250
vt 0.396831 0.012250
vt 0.413500 0.025000
vt 0.413500 0.020250
vt 0.413500 0.018667
vt 0.390669 0.025000
vt 0.186000 0.012250
vt 0.186000 0.018667
vt 0.190813 0.012250
vt 0.188633 0.012250
vt 0.186000 0.018667
vt 0.186000 0.020250
vt 0.194000 0.012250
vt 0.190812 0.012250
vt 0.186000 0.020250
vt 0.186000 0.025000
vt 0.200000 0.025000
vt 0.200000 0.012250
vt 0.199261 0.012250
vt 0.194000 0.012250
vt 0.677769 0.122500
vt 0.677769 0.142352
vt 0.687500 0.122500
vt 0.677769 0.142352
vt 0.677769 0.216775
vt 0.827500 0.122500
vt 0.862180 0.250000
vt 0.862180 0.215588
vt 0.677769 0.216775
vt 0.677769 0.250000
vt 0.862180 0.215588
vt 0.862180 0.122500
vt 0.625000 0.386949
vt 0.625000 0.349737
vt 0.573729 0.349737
vt 0.498754 0.349737
vt 0.375000 0.349737
vt 0.375000 0.386949
vt 0.387500 0.487180
vt 0.625000 0.487180
vt 0.625000 0.302769
vt 0.387500 0.302769
vt 0.409945 0.907223
vt 0.390669 0.907223
vt 0.390669 0.906250
vt 0.413500 0.906250
vt 0.413643 0.907223
vt 0.409945 0.907223
vt 0.413500 0.906250
vt 0.396831 0.888782
vt 0.414171 0.888782
vt 0.413500 0.892250
vt 0.390669 0.888782
vt 0.396831 0.888782
vt 0.390669 0.892250
vt 0.413500 0.737750
vt 0.390669 0.725000
vt 0.390669 0.728323
vt 0.390669 0.735765
vt 0.390669 0.737750
vt 0.409945 0.737750
vt 0.413500 0.725000
vt 0.390669 0.725000
vt 0.413500 0.737750
vn 0.000000 0.000000 -1.000000
vn 0.000000 0.000000 -1.000000
vn 0.000000 0.000000 -1.000000
vn 0.000000 0.000000 -1.000000
vn 0.000000 0.000000 -1.000000
vn 0.000000 0.000000 -1.000000
vn 0.000000 0.000000 -1.000000
vn 0.000000 0.000000 -1.000000
vn 0.000000 0.000000 -1.000000
vn 0.000000 0.000000 -1.000000
vn 1.000000 0.000000 0.000000
vn 1.000000 0.000000 0.000000
vn 1.000000 0.000000 0.000000
vn 1.000000 0.000000 0.000000
vn 1.000000 0.000002 0.000000
vn 1.000000 0.000002 0.000000
vn 1.000000 0.000002 0.000000
vn 1.000000 0.000002 0.000000
vn 1.000000 0.000000 0.000000
vn 1.000000 0.000000 0.000000
vn 1.000000 0.000000 0.000000
vn 1.000000 0.000000 0.000000
vn 1.000000 0.000000 0.000000
vn 1.000000 0.000000 0.000000
vn -1.000000 0.000000 0.000000
vn -1.000000 0.000000 0.000000
vn -1.000000 0.000000 0.000000
vn -1.000000 0.000002 0.000000
vn -1.000000 0.000002 0.000000
vn -1.000000 0.000002 0.000000
vn -1.000000 0.000002 0.000000
vn -1.000000 0.000000 0.000000
vn -1.000000 0.000000 0.000000
vn -1.000000 0.000000 0.000000
vn -1.000000 0.000000 0.000000
vn -1.000000 0.000000 0.000000
vn -1.000000 0.000000 0.000000
vn -1.000000 0.000000 0.000000
vn -1.000000 0.000000 0.000000
vn 0.000000 -1.000000 0.000000
vn 0.000000 -1.000000 0.000000
vn 0.000000 -1.000000 0.000000
vn 0.000000 -1.000000 0.000000
vn 0.000000 -1.000000 0.000000
vn 0.000000 -1.000000 0.000000
vn 0.000000 1.000000 0.000000
vn 0.000000 1.000000 0.000000
vn 0.000000 1.000000 0.000000
vn 0.000000 1.000000 0.000000
vn 0.000000 -1.000000 -0.000001
vn 0.000000 -1.000000 -0.000001
vn 0.000000 -1.000000 -0.000001
vn 0.000000 -1.000000 -0.000001
vn 0.000000 -1.000000 0.000000
vn 0.000000 -1.000000 0.000000
vn 0.000000 -1.000000 0.000000
vn 0.000000 -1.000000 0.000000
vn 0.000000 -1.000000 0.000000
vn 0.000000 -1.000000 0.000000
vn 0.000000 -1.000000 0.000002
vn 0.000000 -1.000000 0.000002
vn 0.000000 -1.000000 0.000002
vn 0.000000 -1.000000 0.000002
vn 0.000000 0.000000 1.000000
vn 0.000000 0.000000 1.000000
vn 0.000000 0.000000 1.000000
vn 0.000000 0.000000 1.000000
vn 0.000000 0.000000 1.000000
vn 0.000000 0.000000 1.000000
vn 0.000000 0.000000 1.000000
vn 0.000000 0.000000 1.000000
vn 0.000000 0.000000 1.000000
s off
g Top_02:polySurface5
usemtl lambert3SG
f 1/1/1 2/2/2 3/3/3 4/4/4 5/5/5
f 6/6/6 7/7/7 8/8/8 4/4/9 3/9/10
f 4/10/11 8/11/12 9/12/13 10/13/14
f 8/14/15 7/15/16 11/16/17 9/17/18
f 7/18/19 6/19/20 12/20/21 13/21/22 14/22/23 11/23/24
f 15/24/25 16/25/26 17/26/27
f 16/27/28 18/28/29 19/29/30 17/26/31
f 3/30/32 2/31/33 19/29/34 18/32/35 20/33/36
f 2/34/37 1/35/38 19/29/39
f 19/36/40 10/37/41 9/38/42 11/39/43 14/40/44 17/41/45
f 6/42/46 3/43/47 20/44/48 12/45/49
f 21/46/50 15/47/51 17/48/52 14/49/53
f 13/50/54 21/51/55 14/52/56
f 5/53/57 4/54/58 10/55/59
f 1/56/60 5/57/61 10/55/62 19/58/63
f 13/59/64 20/60/65 18/61/66 16/62/67 15/63/68 21/64/69
f 12/65/70 20/66/71 13/67/72
