# This file uses centimeters as units for non-parametric coordinates.

mtllib Metal_01_M.mtl
g default
v 438.000000 49.000015 69.000000
v 438.000000 100.000000 69.000000
v 338.000000 100.000000 69.000000
v 338.000000 0.000000 69.000000
v 346.000000 0.000011 69.000000
v 346.000000 49.000011 69.000000
v 438.000000 0.000000 69.000000
v 338.000000 100.000000 50.000000
v 438.000000 100.000000 50.000000
v 438.000000 0.000000 50.000000
v 338.000000 0.000000 50.000000
vt 0.609500 0.012250
vt 0.609500 0.025000
vt 0.586500 0.012250
vt 0.584500 0.000000
vt 0.586500 0.000000
vt 0.584500 0.025000
vt 0.761949 0.250000
vt 0.724737 0.250000
vt 0.724737 0.181522
vt 0.761949 0.181522
vt 0.375000 0.500000
vt 0.625000 0.500000
vt 0.625000 0.750000
vt 0.375000 0.750000
vt 0.375000 0.452500
vt 0.625000 0.452500
vt 0.827500 0.250000
vt 0.827500 0.122500
vt 0.875000 0.250000
vt 0.875000 0.000000
vt 0.827500 0.000000
vt 0.375000 0.797500
vt 0.396691 0.797500
vt 0.625000 0.797500
vt 0.172500 0.000000
vt 0.172500 0.250000
vt 0.125000 0.250000
vt 0.125000 0.000000
vn 0.000000 0.000000 1.000000
vn 0.000000 0.000000 1.000000
vn 0.000000 0.000000 1.000000
vn 0.000000 0.000000 1.000000
vn 0.000000 0.000000 1.000000
vn 0.000000 0.000000 1.000000
vn 0.000000 0.000000 1.000000
vn 0.000000 0.000000 1.000000
vn 0.000000 0.000000 1.000000
vn 0.000000 0.000000 1.000000
vn 0.000000 0.000000 1.000000
vn 0.000000 0.000000 1.000000
vn 0.000000 0.000000 1.000000
vn 0.000000 0.000000 1.000000
vn 0.000000 0.000000 1.000000
vn 0.000000 0.000000 1.000000
vn 0.000000 0.000000 -1.000000
vn 0.000000 0.000000 -1.000000
vn 0.000000 0.000000 -1.000000
vn 0.000000 0.000000 -1.000000
vn 0.000000 1.000000 0.000000
vn 0.000000 1.000000 0.000000
vn 0.000000 1.000000 0.000000
vn 0.000000 1.000000 0.000000
vn 1.000000 0.000000 0.000000
vn 1.000000 0.000000 0.000000
vn 1.000000 0.000000 0.000000
vn 1.000000 0.000000 0.000000
vn 1.000000 0.000000 0.000000
vn 1.000000 0.000000 0.000000
vn 1.000000 0.000000 0.000000
vn 1.000000 0.000000 0.000000
vn 1.000000 0.000000 0.000000
vn 0.000001 -1.000000 0.000000
vn 0.000000 -1.000000 0.000001
vn 0.000000 -1.000000 0.000001
vn 0.000000 -1.000000 0.000001
vn 0.000000 -1.000000 0.000000
vn 0.000000 -1.000000 0.000001
vn 0.000000 -1.000000 0.000001
vn 0.000000 -1.000000 0.000000
vn 0.000000 -1.000000 0.000000
vn -1.000000 0.000000 0.000000
vn -1.000000 0.000000 0.000000
vn -1.000000 0.000000 0.000000
vn -1.000000 0.000000 0.000000
s off
g Climbable_08_polySurface308 group1292
usemtl lambert3SG
f 1/1/1 2/2/2 6/3/3
f 4/4/4 5/5/5 3/6/6
f 5/5/7 6/3/8 3/6/9
f 2/2/10 3/6/11 6/3/12
f 1/7/13 6/8/14 5/9/15 7/10/16
f 8/11/17 9/12/18 10/13/19 11/14/20
f 3/15/21 2/16/22 9/12/23 8/11/24
f 2/17/25 1/18/26 9/19/27
f 9/19/28 1/18/29 10/20/30
f 1/18/31 7/21/32 10/20/33
f 4/22/34 11/14/35 5/23/36
f 11/14/37 10/13/38 5/23/39
f 5/23/40 10/13/41 7/24/42
f 4/25/43 3/26/44 8/27/45 11/28/46
