# This file uses centimeters as units for non-parametric coordinates.

mtllib Metal_01_N.mtl
g default
v 346.000000 0.000000 69.000015
v 338.000000 100.000000 69.000000
v 346.000000 49.000011 69.000000
v 346.000000 100.000000 69.000000
v 339.519989 0.000000 69.000000
v 338.000000 0.000000 69.000000
v 340.026672 0.000000 69.000000
v 338.000000 0.000000 125.000000
v 338.000000 100.000000 125.000000
v 346.000000 100.000000 125.000000
v 346.000000 69.135796 125.000000
v 346.000000 49.000000 125.000000
v 346.000000 0.000000 125.000000
v 344.000000 0.000000 125.000000
vt 0.814000 0.000000
vt 0.800000 0.000000
vt 0.625000 0.825000
vt 0.625000 0.811000
vt 0.584500 0.725000
vt 0.584500 0.750000
vt 0.586500 0.737750
vt 0.586500 0.750000
vt 0.586000 0.750000
vt 0.586500 0.737750
vt 0.584500 0.750000
vt 0.586500 0.725000
vt 0.586500 0.732716
vt 0.586500 0.737750
vt 0.624500 0.825000
vt 0.623000 0.825000
vt 0.624500 0.825000
vt 0.800000 0.017284
vt 0.800000 0.012250
vt 0.800000 0.017284
vt 0.800000 0.025000
vt 0.395000 0.312500
vt 0.375000 0.312500
vt 0.312500 0.250000
vt 0.312500 0.000000
vt 0.584500 0.025000
vt 0.586500 0.012250
vt 0.586500 -0.000000
vt 0.586500 0.012250
vt 0.586500 0.025000
vt 0.585007 -0.000000
vt 0.586500 -0.000000
vt 0.584500 0.000000
vt 0.584880 -0.000000
vt 0.172500 0.000000
vt 0.172500 0.250000
vt 0.375000 0.452500
vt 0.395000 0.452500
vt 0.814000 0.025000
vt 0.814000 0.012250
vt 0.623380 0.811000
vt 0.623000 0.811000
vt 0.623507 0.811000
vt 0.623380 0.811000
vt 0.623507 0.811000
vn -0.000002 -0.000000 -1.000000
vn -0.000002 -0.000000 -1.000000
vn -0.000002 -0.000000 -1.000000
vn 0.000000 0.000000 -1.000000
vn 0.000000 0.000000 -1.000000
vn 0.000000 0.000000 -1.000000
vn 0.000002 0.000000 -1.000000
vn 0.000002 0.000000 -1.000000
vn 0.000002 0.000000 -1.000000
vn 0.000002 0.000000 -1.000000
vn 0.000002 0.000000 -1.000000
vn -1.000000 0.000000 0.000000
vn -1.000000 0.000000 0.000000
vn -1.000000 0.000000 0.000000
vn -1.000000 0.000000 0.000000
vn 0.000000 1.000000 0.000000
vn 0.000000 1.000000 0.000000
vn 0.000000 1.000000 0.000000
vn 0.000000 1.000000 0.000000
vn 1.000000 -0.000000 0.000000
vn 1.000000 -0.000000 0.000000
vn 1.000000 -0.000000 0.000000
vn 1.000000 -0.000000 0.000000
vn 1.000000 -0.000000 0.000000
vn 1.000000 0.000000 0.000000
vn 1.000000 0.000000 0.000000
vn 1.000000 0.000000 0.000000
vn 1.000000 0.000000 0.000000
vn 0.000000 -1.000000 0.000000
vn 0.000000 -1.000000 0.000000
vn 0.000000 -1.000000 0.000000
vn 0.000000 -1.000000 0.000000
vn 0.000000 -1.000000 0.000000
vn 0.000000 -1.000000 0.000000
vn 0.000000 -1.000000 0.000000
vn 0.000000 -1.000000 0.000000
vn 0.000000 -1.000000 0.000000
vn 0.000000 -1.000000 0.000000
vn 0.000000 -1.000000 0.000000
vn 0.000000 0.000000 1.000000
vn 0.000000 0.000000 1.000000
vn 0.000000 0.000000 1.000000
vn 0.000000 0.000000 1.000000
vn 0.000000 0.000000 1.000000
vn 0.000000 0.000000 1.000000
vn 0.000000 0.000000 1.000000
vn 0.000000 0.000000 1.000000
vn 0.000000 0.000000 1.000000
vn 0.000000 0.000000 1.000000
vn 0.000000 0.000000 1.000000
s off
g polySurface450
usemtl lambert3SG
f 1/28/1 2/26/2 3/27/3
f 4/30/4 3/29/5 2/26/6
f 5/34/7 6/33/8 2/26/9 1/32/10 7/31/11
f 2/36/12 6/35/13 8/25/14 9/24/15
f 4/38/16 2/37/17 9/23/18 10/22/19
f 3/40/20 4/39/21 10/21/22 11/20/23 1/1/24
f 12/19/25 13/2/26 1/1/27 11/18/28
f 6/42/29 5/41/30 14/17/31 8/16/32
f 5/44/33 7/43/34 13/3/35 14/15/36
f 7/45/37 1/4/38 13/3/39
f 9/5/40 12/14/41 11/13/42 10/12/43
f 8/11/44 12/10/45 9/5/46
f 14/9/47 13/8/48 12/7/49 8/6/50
