# This file uses centimeters as units for non-parametric coordinates.

mtllib Rail_39.mtl
g Rail_41_default1
v -629.372184 2.170861 233.403240
v -637.857474 2.170861 241.888531
v -630.521415 17.170860 234.552502
v -636.708182 17.170860 240.739269
v -647.491996 17.170860 217.581951
v -653.678763 17.170860 223.768719
v -646.342704 2.170861 216.432690
v -654.827994 2.170861 224.917950
vt 0.375000 0.000000
vt 0.625000 0.000000
vt 0.625000 0.250000
vt 0.375000 0.250000
vt 0.625000 0.500000
vt 0.375000 0.500000
vt 0.625000 0.750000
vt 0.375000 0.750000
vt 0.625000 1.000000
vt 0.375000 1.000000
vt 0.875000 0.000000
vt 0.875000 0.250000
vt 0.125000 0.000000
vt 0.125000 0.250000
vn 0.707107 0.000000 0.707107
vn 0.707107 0.000000 0.707107
vn 0.707107 0.000000 0.707107
vn 0.707107 0.000000 0.707107
vn 0.000000 1.000000 0.000000
vn 0.000000 1.000000 0.000000
vn 0.000000 1.000000 0.000000
vn 0.000000 1.000000 0.000000
vn -0.707107 0.000000 -0.707107
vn -0.707107 0.000000 -0.707107
vn -0.707107 0.000000 -0.707107
vn -0.707107 0.000000 -0.707107
vn 0.000000 -1.000000 0.000000
vn 0.000000 -1.000000 0.000000
vn 0.000000 -1.000000 0.000000
vn 0.000000 -1.000000 0.000000
vn -0.702992 0.107722 0.702992
vn -0.702992 0.107722 0.702992
vn -0.702992 0.107722 0.702992
vn -0.702992 0.107722 0.702992
vn 0.702992 0.107722 -0.702992
vn 0.702992 0.107722 -0.702992
vn 0.702992 0.107722 -0.702992
vn 0.702992 0.107722 -0.702992
s off
g Rail_41_group90 Rail_41_polySurface24 Rail_41_polySurface153 Rail_41_polySurface1 group412
usemtl Rail_41_initialShadingGroup
f 1/1/1 3/4/2 4/3/3 2/2/4
f 3/4/5 5/6/6 6/5/7 4/3/8
f 5/6/9 7/8/10 8/7/11 6/5/12
f 7/8/13 1/10/14 2/9/15 8/7/16
f 2/2/17 4/3/18 6/12/19 8/11/20
f 7/13/21 5/14/22 3/4/23 1/1/24
