# This file uses centimeters as units for non-parametric coordinates.

mtllib Rail_21.mtl
g default
v -60.540053 2.170861 -1448.939005
v -71.743018 2.170861 -1453.239420
v -62.057396 17.170861 -1449.521458
v -70.225676 17.170861 -1452.656967
v -70.658227 17.170861 -1427.115528
v -78.826507 17.170861 -1430.251037
v -69.140884 2.170861 -1426.533074
v -80.343849 2.170861 -1430.833490
vt 0.375000 0.000000
vt 0.625000 0.000000
vt 0.625000 0.250000
vt 0.375000 0.250000
vt 0.625000 0.500000
vt 0.375000 0.500000
vt 0.625000 0.750000
vt 0.375000 0.750000
vt 0.625000 1.000000
vt 0.375000 1.000000
vt 0.875000 0.000000
vt 0.875000 0.250000
vt 0.125000 0.000000
vt 0.125000 0.250000
vn 0.358368 0.000000 -0.933581
vn 0.358368 0.000000 -0.933581
vn 0.358368 0.000000 -0.933581
vn 0.358368 0.000000 -0.933581
vn 0.000000 1.000000 -0.000000
vn 0.000000 1.000000 -0.000000
vn 0.000000 1.000000 -0.000000
vn 0.000000 1.000000 -0.000000
vn -0.358368 0.000000 0.933581
vn -0.358368 0.000000 0.933581
vn -0.358368 0.000000 0.933581
vn -0.358368 0.000000 0.933581
vn 0.000000 -1.000000 0.000000
vn 0.000000 -1.000000 0.000000
vn 0.000000 -1.000000 0.000000
vn 0.000000 -1.000000 0.000000
vn -0.928148 0.107722 -0.356283
vn -0.928148 0.107722 -0.356283
vn -0.928148 0.107722 -0.356283
vn -0.928148 0.107722 -0.356283
vn 0.928148 0.107722 0.356283
vn 0.928148 0.107722 0.356283
vn 0.928148 0.107722 0.356283
vn 0.928148 0.107722 0.356283
s off
g polySurface147 group96 group93 group89 group90 polySurface24
usemtl initialShadingGroup
f 1/1/1 2/2/2 4/3/3 3/4/4
f 3/4/5 4/3/6 6/5/7 5/6/8
f 5/6/9 6/5/10 8/7/11 7/8/12
f 7/8/13 8/7/14 2/9/15 1/10/16
f 2/2/17 8/11/18 6/12/19 4/3/20
f 7/13/21 1/1/22 3/4/23 5/14/24
