# This file uses centimeters as units for non-parametric coordinates.

mtllib Pad_Trap.mtl
g default
v -6.045147 1.515098 6.045143
v 6.045147 1.515098 6.045143
v -6.045147 1.515098 -6.045147
v 6.045147 1.515098 -6.045147
v 0.000000 1.515098 6.045143
v 0.000000 1.515098 -6.045147
v 6.045147 1.515098 0.000000
v -6.045147 1.515098 0.000000
v 0.000000 0.167550 6.045143
v 6.045147 0.167550 0.000000
v 0.000000 0.167550 0.000000
v -6.045147 0.167550 0.000000
v 0.000000 0.167550 -6.045147
v 0.000000 0.015098 -12.000000
v 12.000000 0.015098 -0.000005
v 0.000000 0.015098 12.000000
v -12.000000 0.015098 0.000000
v -12.000000 0.015098 -6.000000
v -6.000000 0.015098 -12.000000
v -12.000000 0.015098 6.000000
v -6.000000 0.015098 12.000000
v 6.000000 0.015098 -12.000000
v 12.000000 0.015098 -6.000002
v 6.000000 0.015098 12.000000
v 12.000000 0.015098 5.999998
v 9.503110 0.644053 9.503108
v 9.022573 0.765098 -9.022573
v -9.022573 0.765098 -9.022573
v -9.022573 0.765098 9.022572
vt 0.375000 0.250000
vt 0.625000 0.250000
vt 0.375000 0.500000
vt 0.625000 0.500000
vt 0.875000 0.250000
vt 0.125000 0.250000
vt 0.500000 0.250000
vt 0.500000 0.500000
vt 0.625000 0.375000
vt 0.500000 0.375000
vt 0.750000 0.250000
vt 0.250000 0.250000
vt 0.375000 0.375000
vt 0.500000 0.250000
vt 0.625000 0.375000
vt 0.375000 0.375000
vt 0.500000 0.500000
vt 0.500000 0.750000
vt 0.625000 0.875000
vt 0.750000 0.000000
vt 0.500000 0.000000
vt 0.500000 1.000000
vt 0.250000 0.000000
vt 0.375000 0.875000
vt 0.187500 0.000000
vt 0.375000 0.812500
vt 0.437500 0.750000
vt 0.312500 0.000000
vt 0.375000 0.937500
vt 0.437500 0.000000
vt 0.437500 1.000000
vt 0.562500 0.750000
vt 0.812500 0.000000
vt 0.625000 0.812500
vt 0.562500 0.000000
vt 0.562500 1.000000
vt 0.687500 0.000000
vt 0.625000 0.937500
vt 0.625000 0.104826
vt 0.625000 0.625000
vt 0.875000 0.125000
vt 0.125000 0.125000
vt 0.375000 0.625000
vt 0.375000 0.125000
vt 0.000000 0.000000
vt 0.673477 0.000000
vt 0.336739 1.000000
vt 0.000000 0.000000
vt 0.565684 0.000000
vt 0.282842 1.000000
vt 0.000000 0.000000
vt 0.565684 0.000000
vt 0.282842 1.000000
vt 0.000000 0.000000
vt 0.565684 0.000000
vt 0.282842 1.000000
vn 0.000000 1.000000 0.000000
vn 0.000000 1.000000 0.000000
vn 0.000000 1.000000 0.000000
vn 0.000000 1.000000 0.000000
vn 0.000000 1.000000 0.000000
vn 0.000000 1.000000 0.000000
vn 0.000000 1.000000 0.000000
vn 0.000000 1.000000 0.000000
vn 0.000000 1.000000 0.000000
vn 0.000000 1.000000 0.000000
vn 0.000000 1.000000 0.000000
vn 0.000000 1.000000 0.000000
vn 0.707107 0.000000 0.707107
vn 0.707107 0.000000 0.707107
vn 0.707107 0.000000 0.707107
vn 0.707107 0.000000 0.707107
vn -0.707107 0.000000 0.707107
vn -0.707107 0.000000 0.707107
vn -0.707107 0.000000 0.707107
vn -0.707107 0.000000 0.707107
vn 0.000000 1.000000 0.000000
vn 0.000000 1.000000 0.000000
vn 0.000000 1.000000 0.000000
vn 0.000000 1.000000 0.000000
vn 0.000000 1.000000 0.000000
vn 0.000000 1.000000 0.000000
vn 0.000000 0.969709 -0.244265
vn 0.000000 0.969709 -0.244265
vn 0.000000 0.969709 -0.244265
vn 0.000000 0.969709 -0.244265
vn 0.000000 0.969709 -0.244265
vn 0.000000 0.969709 -0.244265
vn 0.000000 0.969709 -0.244265
vn 0.244265 0.969709 0.000000
vn 0.244265 0.969709 0.000000
vn 0.244265 0.969709 0.000000
vn 0.244265 0.969709 0.000000
vn 0.244265 0.969709 0.000000
vn 0.244265 0.969709 0.000000
vn 0.244265 0.969709 0.000000
vn 0.244265 0.969709 0.000000
vn 0.244265 0.969709 0.000000
vn 0.244265 0.969709 0.000000
vn 0.244265 0.969709 0.000000
vn 0.244265 0.969709 0.000000
vn 0.244265 0.969709 0.000000
vn 0.244265 0.969709 0.000000
vn 0.000000 0.969709 0.244265
vn 0.000000 0.969709 0.244265
vn 0.000000 0.969709 0.244265
vn -0.244265 0.969709 0.000000
vn -0.244265 0.969709 0.000000
vn -0.244265 0.969709 0.000000
vn -0.244265 0.969709 0.000000
vn -0.244265 0.969709 -0.000000
vn -0.244265 0.969709 -0.000000
vn -0.244265 0.969709 -0.000000
vn 0.000000 0.969709 -0.244265
vn 0.000000 0.969709 -0.244265
vn 0.000000 0.969709 -0.244265
vn 0.000000 0.969709 -0.244265
vn 0.000000 0.969709 -0.244265
vn 0.000000 0.969709 -0.244265
vn 0.000000 0.969709 -0.244265
vn 0.000000 1.000000 0.000000
vn 0.000000 1.000000 0.000000
vn 0.000000 1.000000 0.000000
vn 0.707107 0.000000 -0.707107
vn 0.707107 0.000000 -0.707107
vn 0.707107 0.000000 -0.707107
vn 0.707107 0.000000 -0.707107
vn -0.707107 0.000000 -0.707107
vn -0.707107 0.000000 -0.707107
vn -0.707107 0.000000 -0.707107
vn -0.707107 0.000000 -0.707107
vn 0.000000 1.000000 0.000000
vn 0.000000 1.000000 0.000000
vn 0.000000 1.000000 0.000000
vn 0.000000 0.969709 0.244265
vn 0.000000 0.969709 0.244265
vn 0.000000 0.969709 0.244265
vn 0.000000 0.969709 0.244265
vn -0.244265 0.969709 0.000000
vn -0.244265 0.969709 0.000000
vn -0.244265 0.969709 0.000000
vn 0.000000 0.969709 0.244265
vn 0.000000 0.969709 0.244265
vn 0.000000 0.969709 0.244265
vn -0.244265 0.969709 0.000000
vn -0.244265 0.969709 0.000000
vn -0.244265 0.969709 0.000000
vn -0.244265 0.969709 0.000000
vn 0.000000 0.969709 0.244265
vn 0.000000 0.969709 0.244265
vn 0.000000 0.969709 0.244265
vn 0.000000 0.969709 0.244265
vn 0.000000 -1.000000 0.000000
vn 0.000000 -1.000000 0.000000
vn 0.000000 -1.000000 0.000000
vn 0.000000 -1.000000 0.000000
vn 0.000000 -1.000000 0.000000
vn 0.000000 -1.000000 0.000000
vn 0.000000 -1.000000 0.000000
vn 0.000000 -1.000000 0.000000
vn 0.000000 -1.000000 0.000000
vn 0.000000 -1.000000 0.000000
vn 0.000000 -1.000000 0.000000
vn 0.000000 -1.000000 0.000000
vn 0.468322 -0.749233 0.468322
vn 0.468322 -0.749233 0.468321
vn 0.468322 -0.749233 0.468322
vn -0.706467 -0.042525 0.706467
vn -0.706467 -0.042525 0.706467
vn -0.706467 -0.042525 0.706467
vn -0.706467 -0.042526 -0.706467
vn -0.706467 -0.042526 -0.706467
vn -0.706467 -0.042526 -0.706467
vn 0.706467 -0.042525 -0.706467
vn 0.706467 -0.042525 -0.706467
vn 0.706467 -0.042525 -0.706467
s off
g pCube51 group38
usemtl initialShadingGroup
f 10/15/1 13/17/2 11/10/3
f 13/17/4 12/16/5 11/10/6
f 12/16/7 9/14/8 11/10/9
f 9/14/10 10/15/11 11/10/12
f 13/17/13 6/8/14 8/13/15 12/16/16
f 13/17/17 10/15/18 7/9/19 6/8/20
f 6/8/21 7/9/22 4/4/23
f 8/13/24 6/8/25 3/3/26
f 4/4/27 22/32/28 14/18/29 6/8/30
f 27/40/31 22/32/32 4/4/33
f 23/33/34 27/41/35 4/5/36
f 4/5/37 7/11/38 15/20/39 23/33/40
f 2/2/41 25/37/42 15/20/43 7/11/44
f 26/39/45 25/37/46 2/2/47
f 24/35/48 26/39/49 2/2/50
f 18/25/51 17/23/52 8/12/53 3/6/54
f 28/42/55 18/25/56 3/6/57
f 19/27/58 28/43/59 3/3/60
f 14/18/61 19/27/62 3/3/63 6/8/64
f 5/7/65 8/13/66 1/1/67
f 9/14/68 12/16/69 8/13/70 5/7/71
f 5/7/72 7/9/73 10/15/74 9/14/75
f 7/9/76 5/7/77 2/2/78
f 1/1/79 21/30/80 16/21/81 5/7/82
f 20/28/83 29/44/84 1/1/85
f 29/44/86 21/30/87 1/1/88
f 1/1/89 8/12/90 17/23/91 20/28/92
f 2/2/93 5/7/94 16/21/95 24/35/96
f 15/19/97 25/38/98 24/36/99 16/22/100 21/31/101 20/29/102 17/24/103 18/26/104 19/27/105 14/18/106 22/32/107 23/34/108
f 24/45/109 25/46/110 26/47/111
f 20/48/112 21/49/113 29/50/114
f 19/51/115 18/52/116 28/53/117
f 23/54/118 22/55/119 27/56/120
g default
v 4.017142 3.817848 4.017142
v -4.017142 3.817848 -4.017142
v -4.017142 3.817848 4.017142
v 4.017142 3.817848 -4.017142
v 2.008571 3.817848 6.025713
v -2.008571 3.817848 2.008571
v -6.025713 3.817848 -2.008571
v 6.025713 3.817848 2.008571
v -2.008571 3.817848 -6.025713
v 2.008571 3.817848 -2.008571
v -4.017142 3.817848 0.000001
v -6.025713 3.817848 2.008571
v 2.008571 3.817848 -6.025713
v 0.000001 3.817848 -4.017141
v -2.008570 3.817848 -2.008570
v -2.008571 3.817848 6.025713
v -0.000000 3.817848 4.017142
v 6.025713 3.817848 -2.008571
v 4.017142 3.817848 0.000000
v 2.008571 3.817848 2.008571
v 4.017142 3.533794 4.017142
v 6.025713 3.533794 2.008571
v 2.008571 3.533794 6.025713
v 4.017142 3.533794 -4.017142
v 2.008571 3.533794 -6.025713
v 6.025713 3.533794 -2.008571
v -4.017142 3.533794 -4.017142
v -6.025713 3.533794 -2.008571
v -2.008571 3.533794 -6.025713
v -4.017142 3.533794 4.017142
v -6.025713 3.533794 2.008571
v -2.008571 3.533794 6.025713
v -4.017142 3.533794 0.000000
v -2.008571 3.533794 2.008571
v 0.000000 3.533794 4.017142
v -2.008571 3.533794 -2.008571
v 2.008571 3.533794 2.008571
v 0.000000 3.533794 -4.017142
v 2.008571 3.533794 -2.008571
v 4.017142 3.533794 -0.000001
vt 0.500000 0.250000
vt 0.500000 0.500000
vt 0.375000 0.375000
vt 0.750000 0.250000
vt 0.250000 0.250000
vt 0.625000 0.375000
vt 0.437500 0.250000
vt 0.437500 0.375000
vt 0.437500 0.500000
vt 0.562500 0.250000
vt 0.562500 0.500000
vt 0.562500 0.375000
vt 0.375000 0.437500
vt 0.437500 0.437500
vt 0.812500 0.250000
vt 0.187500 0.250000
vt 0.500000 0.437500
vt 0.562500 0.437500
vt 0.625000 0.437500
vt 0.375000 0.312500
vt 0.437500 0.312500
vt 0.687500 0.250000
vt 0.312500 0.250000
vt 0.500000 0.312500
vt 0.562500 0.312500
vt 0.625000 0.312500
vt 0.500000 1.000000
vt 0.500000 0.000000
vt 0.562500 1.000000
vt 0.562500 0.000000
vt 0.437500 1.000000
vt 0.437500 0.000000
vt 0.750000 0.000000
vt 0.625000 0.875000
vt 0.625000 0.812500
vt 0.812500 0.000000
vt 0.687500 0.000000
vt 0.625000 0.937500
vt 0.500000 0.750000
vt 0.437500 0.750000
vt 0.562500 0.750000
vt 0.250000 0.000000
vt 0.375000 0.875000
vt 0.187500 0.000000
vt 0.375000 0.812500
vt 0.375000 0.937500
vt 0.312500 0.000000
vt 0.437500 0.812500
vt 0.437500 0.875000
vt 0.437500 0.937500
vt 0.500000 0.812500
vt 0.500000 0.937500
vt 0.562500 0.812500
vt 0.562500 0.875000
vt 0.562500 0.937500
vt 0.000000 1.000000
vt 0.200000 1.000000
vt 0.200000 0.000000
vt 0.000000 0.000000
vt 0.000000 0.000000
vt 0.200000 0.000000
vt 0.200000 1.000000
vt 0.000000 1.000000
vt 0.000000 0.000000
vt 0.200000 0.000000
vt 0.200000 1.000000
vt 0.000000 1.000000
vt 0.000000 0.000000
vt 0.200000 0.000000
vt 0.200000 1.000000
vt 0.000000 1.000000
vt 0.000000 0.000000
vt 0.200000 0.000000
vt 0.200000 1.000000
vt 0.000000 1.000000
vt 0.000000 0.000000
vt 0.200000 0.000000
vt 0.200000 1.000000
vt 0.000000 1.000000
vt 0.000000 0.000000
vt 0.200000 0.000000
vt 0.200000 1.000000
vt 0.000000 1.000000
vt 0.000000 1.000000
vt 0.200000 1.000000
vt 0.200000 0.000000
vt 0.000000 0.000000
vn 0.000000 1.000000 0.000000
vn 0.000000 1.000000 0.000000
vn 0.000000 1.000000 0.000000
vn 0.000000 1.000000 0.000000
vn 0.000000 1.000000 0.000000
vn 0.000000 1.000000 0.000000
vn 0.000000 1.000000 0.000000
vn 0.000000 1.000000 0.000000
vn 0.000000 1.000000 0.000000
vn 0.000000 1.000000 0.000000
vn 0.000000 1.000000 0.000000
vn 0.000000 1.000000 0.000000
vn 0.000000 1.000000 0.000000
vn 0.000000 1.000000 0.000000
vn 0.000000 1.000000 0.000000
vn 0.000000 1.000000 0.000000
vn 0.000000 1.000000 0.000000
vn 0.000000 1.000000 0.000000
vn 0.000000 1.000000 0.000000
vn 0.000000 1.000000 0.000000
vn 0.000000 1.000000 0.000000
vn 0.000000 1.000000 0.000000
vn 0.000000 1.000000 0.000000
vn 0.000000 1.000000 0.000000
vn 0.000000 1.000000 0.000000
vn 0.000000 1.000000 0.000000
vn 0.000000 1.000000 0.000000
vn 0.000000 1.000000 0.000000
vn 0.000000 1.000000 0.000000
vn 0.000000 1.000000 0.000000
vn 0.000000 1.000000 0.000000
vn 0.000000 1.000000 0.000000
vn 0.000000 1.000000 0.000000
vn 0.000000 -1.000000 0.000000
vn 0.000000 -1.000000 0.000000
vn 0.000000 -1.000000 0.000000
vn -0.707107 0.000000 -0.707107
vn -0.707107 0.000000 -0.707107
vn -0.707107 0.000000 -0.707107
vn -0.707107 0.000000 -0.707107
vn -0.707107 0.000000 -0.707107
vn -0.707107 0.000000 -0.707107
vn -0.707107 0.000000 -0.707107
vn -0.707107 0.000000 -0.707107
vn 0.000000 -1.000000 0.000000
vn 0.000000 -1.000000 0.000000
vn 0.000000 -1.000000 0.000000
vn 0.000000 -1.000000 0.000000
vn 0.000000 -1.000000 0.000000
vn 0.000000 -1.000000 0.000000
vn 0.000000 -1.000000 0.000000
vn 0.000000 -1.000000 0.000000
vn 0.000000 -1.000000 0.000000
vn 0.000000 -1.000000 0.000000
vn 0.000000 -1.000000 0.000000
vn 0.000000 1.000000 0.000000
vn 0.000000 1.000000 0.000000
vn 0.000000 1.000000 0.000000
vn 0.000000 1.000000 0.000000
vn 0.000000 1.000000 0.000000
vn 0.000000 1.000000 0.000000
vn 0.000000 1.000000 0.000000
vn 0.000000 -1.000000 0.000000
vn 0.000000 -1.000000 0.000000
vn 0.000000 -1.000000 0.000000
vn 0.000000 1.000000 0.000000
vn 0.000000 1.000000 0.000000
vn 0.000000 1.000000 0.000000
vn 0.000000 1.000000 0.000000
vn -0.707107 0.000000 0.707107
vn -0.707107 0.000000 0.707107
vn -0.707107 0.000000 0.707107
vn -0.707107 0.000000 0.707107
vn -0.707107 0.000000 0.707107
vn -0.707107 0.000000 0.707107
vn -0.707107 0.000000 0.707107
vn -0.707107 0.000000 0.707107
vn 0.000000 -1.000000 0.000000
vn 0.000000 -1.000000 0.000000
vn 0.000000 -1.000000 0.000000
vn 0.000000 -1.000000 0.000000
vn 0.000000 -1.000000 0.000000
vn 0.000000 -1.000000 0.000000
vn 0.000000 -1.000000 0.000000
vn 0.000000 -1.000000 0.000000
vn 0.707107 0.000000 -0.707107
vn 0.707107 0.000000 -0.707107
vn 0.707107 0.000000 -0.707107
vn 0.707107 0.000000 -0.707107
vn 0.000000 -1.000000 0.000000
vn 0.000000 -1.000000 0.000000
vn 0.000000 -1.000000 0.000000
vn 0.000000 -1.000000 0.000000
vn 0.707107 0.000000 -0.707107
vn 0.707107 0.000000 -0.707107
vn 0.707107 0.000000 -0.707107
vn 0.707107 0.000000 -0.707107
vn 0.000000 -1.000000 0.000000
vn 0.000000 -1.000000 0.000000
vn 0.000000 -1.000000 0.000000
vn 0.000000 -1.000000 0.000000
vn 0.707107 0.000000 0.707107
vn 0.707107 0.000000 0.707107
vn 0.707107 0.000000 0.707107
vn 0.707107 0.000000 0.707107
vn 0.707107 0.000000 0.707107
vn 0.707107 0.000000 0.707107
vn 0.707107 0.000000 0.707107
vn 0.707107 0.000000 0.707107
vn 0.000000 -1.000000 0.000000
vn 0.000000 -1.000000 0.000000
vn 0.000000 -1.000000 0.000000
vn 0.000000 -1.000000 0.000000
vn 0.000000 -1.000000 0.000000
vn 0.000000 -1.000000 0.000000
vn 0.000000 -1.000000 0.000000
vn 0.000000 -1.000000 0.000000
vn 0.000000 -1.000000 0.000000
vn 0.000000 -1.000000 0.000000
vn 0.000000 -1.000000 0.000000
vn -1.000000 0.000000 0.000000
vn -1.000000 0.000000 0.000000
vn -1.000000 0.000000 0.000000
vn -1.000000 0.000000 0.000000
vn 0.000000 0.000000 -1.000000
vn 0.000000 0.000000 -1.000000
vn 0.000000 0.000000 -1.000000
vn 0.000000 0.000000 -1.000000
vn 1.000000 0.000000 0.000000
vn 1.000000 0.000000 0.000000
vn 1.000000 0.000000 0.000000
vn 1.000000 0.000000 0.000000
vn 0.000000 0.000000 1.000000
vn 0.000000 0.000000 1.000000
vn 0.000000 0.000000 1.000000
vn 0.000000 0.000000 1.000000
vn 0.707107 -0.000003 0.707107
vn 0.707107 -0.000003 0.707107
vn 0.707107 -0.000003 0.707107
vn 0.707107 -0.000003 0.707107
vn 0.707107 -0.000001 0.707107
vn 0.707107 -0.000001 0.707107
vn 0.707107 -0.000001 0.707107
vn 0.707107 -0.000001 0.707107
vn 0.707107 0.000002 -0.707107
vn 0.707107 0.000002 -0.707107
vn 0.707107 0.000002 -0.707107
vn 0.707107 0.000002 -0.707107
vn 0.707107 0.000002 -0.707107
vn 0.707107 0.000002 -0.707107
vn 0.707107 0.000002 -0.707107
vn 0.707107 0.000002 -0.707107
vn -0.707107 0.000001 0.707107
vn -0.707107 0.000001 0.707107
vn -0.707107 0.000001 0.707107
vn -0.707107 0.000001 0.707107
vn -0.707107 0.000001 0.707107
vn -0.707107 0.000001 0.707107
vn -0.707107 0.000001 0.707107
vn -0.707107 0.000001 0.707107
vn -0.707107 0.000001 -0.707107
vn -0.707107 0.000001 -0.707107
vn -0.707107 0.000001 -0.707107
vn -0.707107 0.000001 -0.707107
vn -0.707107 -0.000000 -0.707107
vn -0.707107 -0.000000 -0.707107
vn -0.707107 -0.000000 -0.707107
vn -0.707107 -0.000000 -0.707107
s off
g group38 pCube52
usemtl initialShadingGroup
f 33/62/121 39/68/122 48/81/123 47/82/124
f 42/75/125 43/74/126 39/68/127 33/62/128
f 32/59/129 45/76/130 46/77/131 35/64/132
f 32/59/133 35/64/134 40/70/135 41/69/136
f 36/65/137 41/69/138 40/70/139
f 31/58/140 44/73/141 43/74/142 38/67/143
f 42/75/144 38/67/145 43/74/146
f 37/66/147 47/82/148 48/81/149
f 40/70/150 44/73/151 31/58/152 36/65/153
f 58/97/154 54/91/155 67/109/156
f 57/96/157 36/65/158 31/58/159 56/95/160
f 38/67/161 58/97/162 56/95/163 31/58/164
f 65/107/165 62/104/166 57/96/167 56/95/168
f 65/107/169 56/95/170 58/97/171 67/109/172
f 60/101/173 57/96/174 62/104/175
f 34/63/176 30/57/177 49/80/178 46/77/179
f 45/76/180 34/63/181 46/77/182
f 52/87/183 61/102/184 64/106/185
f 49/80/186 30/57/187 37/66/188 48/81/189
f 59/98/190 61/103/191 45/79/192 32/61/193
f 60/100/194 59/98/195 32/61/196 41/72/197
f 63/105/198 59/99/199 60/101/200 62/104/201
f 64/106/202 61/102/203 59/99/204 63/105/205
f 55/93/206 53/89/207 33/60/208 47/78/209
f 55/94/210 69/111/211 68/110/212 53/90/213
f 54/92/214 42/71/215 33/60/216 53/89/217
f 54/91/218 53/90/219 68/110/220 67/109/221
f 52/88/222 50/84/223 30/57/224 34/63/225
f 51/86/226 37/66/227 30/57/228 50/84/229
f 52/87/230 64/106/231 66/108/232 50/83/233
f 66/108/234 69/111/235 51/85/236 50/83/237
f 55/94/238 51/85/239 69/111/240
f 41/69/241 36/65/242 57/96/243 60/100/244
f 42/71/245 54/91/246 58/97/247 38/67/248
f 47/82/249 37/66/250 51/85/251 55/93/252
f 45/79/253 61/102/254 52/88/255 34/63/256
f 43/112/257 44/113/258 65/114/259 67/115/260
f 62/116/261 65/117/262 44/118/263 40/119/264
f 63/120/265 62/121/266 40/122/267 35/123/268
f 64/124/269 63/125/270 35/126/271 46/127/272
f 68/128/273 69/129/274 48/130/275 39/131/276
f 67/132/277 68/133/278 39/134/279 43/135/280
f 49/136/281 48/137/282 69/138/283 66/139/284
f 66/140/285 64/141/286 46/142/287 49/143/288
