# This file uses centimeters as units for non-parametric coordinates.

mtllib Stun_Trap.mtl
g default
v 5.999997 0.020931 -4.000000
v 6.000001 0.020931 -6.000000
v 4.000001 0.020931 -6.000000
v 5.000001 1.435144 -5.000000
vt 0.250000 0.250000
vt 0.500000 0.500000
vt 0.750000 0.250000
vt 0.375000 0.500000
vt 0.500000 0.500000
vt 0.625000 0.500000
vt 0.500000 1.000000
vt 0.000000 0.500000
vt 1.000000 0.500000
vt 0.500000 0.000000
vn 0.816499 0.577347 0.000002
vn 0.816499 0.577347 0.000002
vn 0.816499 0.577347 0.000002
vn 0.000000 0.577350 -0.816497
vn 0.000000 0.577350 -0.816497
vn 0.000000 0.577350 -0.816497
vn 0.000000 -1.000000 0.000000
vn 0.000000 -1.000000 0.000000
vn 0.000000 -1.000000 0.000000
vn -0.707108 0.000004 0.707106
vn -0.707108 0.000004 0.707106
vn -0.707108 0.000004 0.707106
s off
g pPyramid13 group51 group50 group40 group37
usemtl initialShadingGroup
f 1/4/1 2/5/2 4/7/3
f 2/5/4 3/6/5 4/7/6
f 1/1/7 3/3/8 2/2/9
f 3/8/10 1/9/11 4/10/12
g default
v 3.999997 0.020931 6.000000
v 6.000001 0.020931 6.000000
v 6.000001 0.020931 4.000000
v 5.000001 1.435144 5.000000
vt 0.250000 0.250000
vt 0.500000 0.500000
vt 0.750000 0.250000
vt 0.375000 0.500000
vt 0.500000 0.500000
vt 0.625000 0.500000
vt 0.500000 1.000000
vt 0.000000 0.500000
vt 1.000000 0.500000
vt 0.500000 0.000000
vn 0.000000 0.577351 0.816496
vn 0.000000 0.577351 0.816496
vn 0.000000 0.577351 0.816496
vn 0.816497 0.577350 0.000000
vn 0.816497 0.577350 0.000000
vn 0.816497 0.577350 0.000000
vn 0.000000 -1.000000 0.000000
vn 0.000000 -1.000000 0.000000
vn 0.000000 -1.000000 0.000000
vn -0.707106 0.000002 -0.707108
vn -0.707106 0.000002 -0.707108
vn -0.707106 0.000002 -0.707108
s off
g group51 group50 group40 group37 pPyramid14
usemtl initialShadingGroup
f 5/14/13 6/15/14 8/17/15
f 6/15/16 7/16/17 8/17/18
f 5/11/19 7/13/20 6/12/21
f 7/18/22 5/19/23 8/20/24
g default
v -3.999999 0.020931 -6.000000
v -5.999999 0.020931 -6.000000
v -6.000001 0.020931 -4.000000
v -5.000001 1.435144 -5.000000
vt 0.250000 0.250000
vt 0.500000 0.500000
vt 0.750000 0.250000
vt 0.375000 0.500000
vt 0.500000 0.500000
vt 0.625000 0.500000
vt 0.500000 1.000000
vt 0.000000 0.500000
vt 1.000000 0.500000
vt 0.500000 0.000000
vn 0.000000 0.577350 -0.816497
vn 0.000000 0.577350 -0.816497
vn 0.000000 0.577350 -0.816497
vn -0.816497 0.577349 -0.000001
vn -0.816497 0.577349 -0.000001
vn -0.816497 0.577349 -0.000001
vn 0.000000 -1.000000 0.000000
vn 0.000000 -1.000000 0.000000
vn 0.000000 -1.000000 0.000000
vn 0.707107 0.000001 0.707107
vn 0.707107 0.000001 0.707107
vn 0.707107 0.000001 0.707107
s off
g group51 group50 group40 group37 pPyramid15
usemtl initialShadingGroup
f 9/24/25 10/25/26 12/27/27
f 10/25/28 11/26/29 12/27/30
f 9/21/31 11/23/32 10/22/33
f 11/28/34 9/29/35 12/30/36
g default
v -5.999999 0.020931 4.000000
v -6.000001 0.020931 6.000000
v -4.000001 0.020931 6.000000
v -5.000001 1.435144 5.000000
vt 0.250000 0.250000
vt 0.500000 0.500000
vt 0.750000 0.250000
vt 0.375000 0.500000
vt 0.500000 0.500000
vt 0.625000 0.500000
vt 0.500000 1.000000
vt 0.000000 0.500000
vt 1.000000 0.500000
vt 0.500000 0.000000
vn -0.816497 0.577350 -0.000001
vn -0.816497 0.577350 -0.000001
vn -0.816497 0.577350 -0.000001
vn 0.000000 0.577350 0.816497
vn 0.000000 0.577350 0.816497
vn 0.000000 0.577350 0.816497
vn 0.000000 -1.000000 0.000000
vn 0.000000 -1.000000 0.000000
vn 0.000000 -1.000000 0.000000
vn 0.707107 0.000001 -0.707107
vn 0.707107 0.000001 -0.707107
vn 0.707107 0.000001 -0.707107
s off
g group51 group50 group40 group37 pPyramid16
usemtl initialShadingGroup
f 13/34/37 14/35/38 16/37/39
f 14/35/40 15/36/41 16/37/42
f 13/31/43 15/33/44 14/32/45
f 15/38/46 13/39/47 16/40/48
