# This file uses centimeters as units for non-parametric coordinates.

mtllib Caltrop_07.mtl
g Caltrop_07_default1
v -431.205627 0.513197 -253.205627
v -414.794373 0.513197 -253.205627
v -435.000000 8.789767 -257.000000
v -411.000000 8.789767 -257.000000
v -435.000000 8.789767 -233.000000
v -411.000000 8.789767 -233.000000
v -431.205627 0.513197 -236.794373
v -414.794373 0.513197 -236.794373
v -435.000000 22.441221 -257.000000
v -411.000000 22.441221 -257.000000
v -411.000000 22.441221 -233.000000
v -435.000000 22.441221 -233.000000
v -430.897888 37.766582 -252.897888
v -415.102112 37.766582 -252.897888
v -415.102112 37.766582 -237.102112
v -430.897888 37.766582 -237.102112
v -423.037018 47.538944 -245.037018
v -422.962982 47.538944 -245.037018
v -422.962982 47.538944 -244.962982
v -423.037018 47.538944 -244.962982
vt 0.375000 0.000000
vt 0.625000 0.000000
vt 0.375000 0.250000
vt 0.625000 0.250000
vt 0.375000 0.500000
vt 0.625000 0.500000
vt 0.375000 0.750000
vt 0.625000 0.750000
vt 0.375000 1.000000
vt 0.625000 1.000000
vt 0.875000 0.000000
vt 0.875000 0.250000
vt 0.125000 0.000000
vt 0.125000 0.250000
vt 0.375000 0.250000
vt 0.625000 0.250000
vt 0.625000 0.500000
vt 0.375000 0.500000
vt 0.375000 0.250000
vt 0.625000 0.250000
vt 0.625000 0.500000
vt 0.375000 0.500000
vt 0.375000 0.250000
vt 0.625000 0.250000
vt 0.625000 0.500000
vt 0.375000 0.500000
vn 0.000000 -0.416741 -0.909025
vn 0.000000 -0.416740 -0.909026
vn 0.000000 -0.416740 -0.909026
vn 0.000000 -0.416741 -0.909025
vn 0.000000 1.000000 0.000000
vn 0.000000 1.000000 0.000000
vn 0.000000 1.000000 0.000000
vn 0.000000 1.000000 0.000000
vn 0.000000 -0.416740 0.909026
vn 0.000000 -0.416741 0.909025
vn 0.000000 -0.416741 0.909025
vn 0.000000 -0.416740 0.909026
vn 0.000000 -1.000000 0.000000
vn 0.000000 -1.000000 0.000000
vn 0.000000 -1.000000 0.000000
vn 0.000000 -1.000000 0.000000
vn 0.909025 -0.416741 0.000000
vn 0.909025 -0.416741 0.000000
vn 0.909025 -0.416741 0.000000
vn 0.909025 -0.416741 0.000000
vn -0.909025 -0.416741 0.000000
vn -0.909025 -0.416741 0.000000
vn -0.909025 -0.416741 0.000000
vn -0.909025 -0.416741 0.000000
vn 0.000000 0.000000 -1.000000
vn 0.000000 0.000000 -1.000000
vn 0.000000 0.000000 -1.000000
vn 0.000000 0.000000 -1.000000
vn 1.000000 0.000000 0.000000
vn 1.000000 0.000000 0.000000
vn 1.000000 0.000000 0.000000
vn 1.000000 0.000000 0.000000
vn 0.000000 0.000000 1.000000
vn 0.000000 0.000000 1.000000
vn 0.000000 0.000000 1.000000
vn 0.000000 0.000000 1.000000
vn -1.000000 0.000000 -0.000000
vn -1.000000 0.000000 -0.000000
vn -1.000000 0.000000 -0.000000
vn -1.000000 0.000000 -0.000000
vn 0.000000 0.258566 -0.965994
vn 0.000000 0.258566 -0.965994
vn 0.000000 0.258566 -0.965994
vn 0.000000 0.258566 -0.965994
vn 0.965994 0.258566 0.000000
vn 0.965994 0.258566 0.000000
vn 0.965994 0.258566 0.000000
vn 0.965994 0.258566 0.000000
vn 0.000000 0.258566 0.965994
vn 0.000000 0.258566 0.965994
vn 0.000000 0.258566 0.965994
vn 0.000000 0.258566 0.965994
vn -0.965994 0.258566 -0.000000
vn -0.965994 0.258566 -0.000000
vn -0.965994 0.258566 -0.000000
vn -0.965994 0.258566 -0.000000
vn 0.000000 0.626783 -0.779194
vn 0.000000 0.626783 -0.779194
vn 0.000000 0.626783 -0.779194
vn 0.000000 0.626783 -0.779194
vn 0.779194 0.626783 0.000000
vn 0.779194 0.626783 0.000000
vn 0.779194 0.626783 0.000000
vn 0.779194 0.626783 0.000000
vn 0.000000 0.626783 0.779194
vn 0.000000 0.626783 0.779194
vn 0.000000 0.626783 0.779194
vn 0.000000 0.626783 0.779194
vn -0.779194 0.626783 -0.000000
vn -0.779194 0.626783 -0.000000
vn -0.779194 0.626783 -0.000000
vn -0.779194 0.626783 -0.000000
s off
g Caltrop_07_group132 Caltrop_07_pCube163 Caltrop_07_polySurface1 group321
usemtl Caltrop_07_initialShadingGroup
f 1/1/1 3/3/2 4/4/3 2/2/4
f 17/23/5 20/26/6 19/25/7 18/24/8
f 5/5/9 7/7/10 8/8/11 6/6/12
f 7/7/13 1/9/14 2/10/15 8/8/16
f 2/2/17 4/4/18 6/12/19 8/11/20
f 7/13/21 5/14/22 3/3/23 1/1/24
f 3/3/25 9/15/26 10/16/27 4/4/28
f 4/4/29 10/16/30 11/17/31 6/6/32
f 6/6/33 11/17/34 12/18/35 5/5/36
f 5/5/37 12/18/38 9/15/39 3/3/40
f 9/15/41 13/19/42 14/20/43 10/16/44
f 10/16/45 14/20/46 15/21/47 11/17/48
f 11/17/49 15/21/50 16/22/51 12/18/52
f 12/18/53 16/22/54 13/19/55 9/15/56
f 13/19/57 17/23/58 18/24/59 14/20/60
f 14/20/61 18/24/62 19/25/63 15/21/64
f 15/21/65 19/25/66 20/26/67 16/22/68
f 16/22/69 20/26/70 17/23/71 13/19/72
g default
v -431.205627 0.513197 -253.205627
v -414.794373 0.513197 -253.205627
v -435.000000 8.789767 -257.000000
v -411.000000 8.789767 -257.000000
v -435.000000 8.789767 -233.000000
v -411.000000 8.789767 -233.000000
v -431.205627 0.513197 -236.794373
v -414.794373 0.513197 -236.794373
v -435.000000 22.441221 -257.000000
v -411.000000 22.441221 -257.000000
v -411.000000 22.441221 -233.000000
v -435.000000 22.441221 -233.000000
v -430.897888 37.766582 -252.897888
v -415.102112 37.766582 -252.897888
v -415.102112 37.766582 -237.102112
v -430.897888 37.766582 -237.102112
v -423.037018 47.538944 -245.037018
v -422.962982 47.538944 -245.037018
v -422.962982 47.538944 -244.962982
v -423.037018 47.538944 -244.962982
vt 0.375000 0.000000
vt 0.625000 0.000000
vt 0.375000 0.250000
vt 0.625000 0.250000
vt 0.375000 0.500000
vt 0.625000 0.500000
vt 0.375000 0.750000
vt 0.625000 0.750000
vt 0.375000 1.000000
vt 0.625000 1.000000
vt 0.875000 0.000000
vt 0.875000 0.250000
vt 0.125000 0.000000
vt 0.125000 0.250000
vt 0.375000 0.250000
vt 0.625000 0.250000
vt 0.625000 0.500000
vt 0.375000 0.500000
vt 0.375000 0.250000
vt 0.625000 0.250000
vt 0.625000 0.500000
vt 0.375000 0.500000
vt 0.375000 0.250000
vt 0.625000 0.250000
vt 0.625000 0.500000
vt 0.375000 0.500000
vn 0.000000 -0.416741 -0.909025
vn 0.000000 -0.416740 -0.909026
vn 0.000000 -0.416740 -0.909026
vn 0.000000 -0.416741 -0.909025
vn 0.000000 1.000000 0.000000
vn 0.000000 1.000000 0.000000
vn 0.000000 1.000000 0.000000
vn 0.000000 1.000000 0.000000
vn 0.000000 -0.416740 0.909026
vn 0.000000 -0.416741 0.909025
vn 0.000000 -0.416741 0.909025
vn 0.000000 -0.416740 0.909026
vn 0.000000 -1.000000 0.000000
vn 0.000000 -1.000000 0.000000
vn 0.000000 -1.000000 0.000000
vn 0.000000 -1.000000 0.000000
vn 0.909025 -0.416741 0.000000
vn 0.909025 -0.416741 0.000000
vn 0.909025 -0.416741 0.000000
vn 0.909025 -0.416741 0.000000
vn -0.909025 -0.416741 0.000000
vn -0.909025 -0.416741 0.000000
vn -0.909025 -0.416741 0.000000
vn -0.909025 -0.416741 0.000000
vn 0.000000 0.000000 -1.000000
vn 0.000000 0.000000 -1.000000
vn 0.000000 0.000000 -1.000000
vn 0.000000 0.000000 -1.000000
vn 1.000000 0.000000 0.000000
vn 1.000000 0.000000 0.000000
vn 1.000000 0.000000 0.000000
vn 1.000000 0.000000 0.000000
vn 0.000000 0.000000 1.000000
vn 0.000000 0.000000 1.000000
vn 0.000000 0.000000 1.000000
vn 0.000000 0.000000 1.000000
vn -1.000000 0.000000 -0.000000
vn -1.000000 0.000000 -0.000000
vn -1.000000 0.000000 -0.000000
vn -1.000000 0.000000 -0.000000
vn 0.000000 0.258566 -0.965994
vn 0.000000 0.258566 -0.965994
vn 0.000000 0.258566 -0.965994
vn 0.000000 0.258566 -0.965994
vn 0.965994 0.258566 0.000000
vn 0.965994 0.258566 0.000000
vn 0.965994 0.258566 0.000000
vn 0.965994 0.258566 0.000000
vn 0.000000 0.258566 0.965994
vn 0.000000 0.258566 0.965994
vn 0.000000 0.258566 0.965994
vn 0.000000 0.258566 0.965994
vn -0.965994 0.258566 -0.000000
vn -0.965994 0.258566 -0.000000
vn -0.965994 0.258566 -0.000000
vn -0.965994 0.258566 -0.000000
vn 0.000000 0.626783 -0.779194
vn 0.000000 0.626783 -0.779194
vn 0.000000 0.626783 -0.779194
vn 0.000000 0.626783 -0.779194
vn 0.779194 0.626783 0.000000
vn 0.779194 0.626783 0.000000
vn 0.779194 0.626783 0.000000
vn 0.779194 0.626783 0.000000
vn 0.000000 0.626783 0.779194
vn 0.000000 0.626783 0.779194
vn 0.000000 0.626783 0.779194
vn 0.000000 0.626783 0.779194
vn -0.779194 0.626783 -0.000000
vn -0.779194 0.626783 -0.000000
vn -0.779194 0.626783 -0.000000
vn -0.779194 0.626783 -0.000000
s off
g Caltrop_07_polySurface1 group321
f 21/27/73 23/29/74 24/30/75 22/28/76
f 37/49/77 40/52/78 39/51/79 38/50/80
f 25/31/81 27/33/82 28/34/83 26/32/84
f 27/33/85 21/35/86 22/36/87 28/34/88
f 22/28/89 24/30/90 26/38/91 28/37/92
f 27/39/93 25/40/94 23/29/95 21/27/96
f 23/29/97 29/41/98 30/42/99 24/30/100
f 24/30/101 30/42/102 31/43/103 26/32/104
f 26/32/105 31/43/106 32/44/107 25/31/108
f 25/31/109 32/44/110 29/41/111 23/29/112
f 29/41/113 33/45/114 34/46/115 30/42/116
f 30/42/117 34/46/118 35/47/119 31/43/120
f 31/43/121 35/47/122 36/48/123 32/44/124
f 32/44/125 36/48/126 33/45/127 29/41/128
f 33/45/129 37/49/130 38/50/131 34/46/132
f 34/46/133 38/50/134 39/51/135 35/47/136
f 35/47/137 39/51/138 40/52/139 36/48/140
f 36/48/141 40/52/142 37/49/143 33/45/144
