# This file uses centimeters as units for non-parametric coordinates.

mtllib Climbable_03.mtl
g default
v -346.000000 0.000000 69.000000
v -337.323639 0.000000 69.000000
v -337.323639 100.000000 69.000000
v -437.323639 100.000000 69.000000
v -437.323639 49.000015 69.000000
v -346.000000 49.000011 69.000000
v -337.323639 100.000000 50.000000
v -337.323639 0.000000 50.000000
v -437.323639 0.000000 50.000000
v -437.323639 100.000000 50.000000
v -437.323639 0.000000 69.000000
vt 0.375000 0.500000
vt 0.625000 0.500000
vt 0.375000 0.750000
vt 0.625000 0.750000
vt 0.875000 0.000000
vt 0.875000 0.250000
vt 0.125000 0.000000
vt 0.125000 0.250000
vt 0.724737 0.250000
vt 0.761949 0.250000
vt 0.724737 0.181522
vt 0.761949 0.181522
vt 0.827500 0.122500
vt 0.827500 0.000000
vt 0.625000 0.797500
vt 0.396691 0.797500
vt 0.413500 0.012250
vt 0.390669 0.012250
vt 0.390669 0.025000
vt 0.415669 0.025000
vt 0.415669 0.000000
vt 0.413500 0.000000
vt 0.827500 0.250000
vt 0.375000 0.452500
vt 0.625000 0.452500
vt 0.172500 0.000000
vt 0.172500 0.250000
vt 0.375000 0.797500
vn 0.000000 0.000000 1.000000
vn 0.000000 0.000000 1.000000
vn 0.000000 0.000000 1.000000
vn 0.000000 0.000000 1.000000
vn 0.000000 0.000000 1.000000
vn 0.000000 0.000000 1.000000
vn 0.000000 0.000000 -1.000000
vn 0.000000 0.000000 -1.000000
vn 0.000000 0.000000 -1.000000
vn 0.000000 0.000000 -1.000000
vn 0.000000 0.000000 1.000000
vn 0.000000 0.000000 1.000000
vn 0.000000 0.000000 1.000000
vn 0.000000 0.000000 1.000000
vn -1.000000 0.000000 0.000000
vn -1.000000 0.000000 0.000000
vn -1.000000 0.000000 0.000000
vn -1.000000 0.000000 0.000000
vn -1.000000 0.000000 0.000000
vn 0.000000 1.000000 0.000000
vn 0.000000 1.000000 0.000000
vn 0.000000 1.000000 0.000000
vn 0.000000 1.000000 0.000000
vn 1.000000 0.000000 0.000000
vn 1.000000 0.000000 0.000000
vn 1.000000 0.000000 0.000000
vn 1.000000 0.000000 0.000000
vn 0.000000 -1.000000 0.000000
vn 0.000000 -1.000000 0.000000
vn 0.000000 -1.000000 0.000000
vn 0.000000 -1.000000 0.000000
vn 0.000000 -1.000000 0.000000
s 1
g polySurface305
usemtl initialShadingGroup
f 1/22/1 2/21/2 6/17/3
f 2/21/2 3/20/4 6/17/3
f 3/20/4 4/19/5 6/17/3
f 4/19/5 5/18/6 6/17/3
s off
f 7/1/7 8/3/8 9/4/9 10/2/10
f 11/12/11 1/11/12 6/9/13 5/10/14
s 2
f 4/23/15 10/6/16 5/13/17
f 10/6/16 9/5/18 5/13/17
f 5/13/17 9/5/18 11/14/19
s off
f 4/25/20 3/24/21 7/1/22 10/2/23
f 3/27/24 2/26/25 8/7/26 7/8/27
s 3
f 2/28/28 1/16/29 8/3/30
f 8/3/30 1/16/29 9/4/31
f 1/16/29 11/15/32 9/4/31
