# This file uses centimeters as units for non-parametric coordinates.

mtllib Floor_13.mtl
g default
v 287.000000 -130.000000 125.000000
v 287.000000 -321.587585 125.000015
v 287.000000 -336.850586 174.000000
v 287.000000 -130.000000 173.999878
v 287.000000 -130.000000 168.000000
v 287.000000 -80.999985 173.999878
v 287.000000 -80.999985 168.000000
v 479.000000 -167.637863 125.000015
v 479.000000 -129.890121 125.000000
v 479.000000 -126.000000 125.000000
v 479.000000 -81.000000 125.000000
v 479.000000 -81.000000 174.000000
v 479.000000 -182.900864 174.000000
v 355.000000 -81.000000 125.000000
v 461.000000 -129.890121 125.000000
v 355.000000 -129.890121 125.000000
v 355.000000 -126.000000 125.000000
v 287.000000 -81.000000 125.000000
v 287.000000 -126.000000 125.000000
vt 0.775263 0.250000
vt 0.775263 0.000000
vt 0.724737 0.250000
vt 0.724737 0.000000
vt 0.224737 0.000000
vt 0.275263 0.000000
vt 0.758421 0.000000
vt 0.727087 0.250000
vt 0.727087 0.000000
vt 0.337250 0.054527
vt 0.349500 0.041275
vt 0.584676 0.661296
vt 0.492583 0.109758
vt 0.436250 0.750000
vt 0.453250 0.750000
vt 0.484250 0.750000
vt 0.484250 0.762250
vt 0.436250 0.762250
vt 0.436250 0.760750
vt 0.476583 0.114167
vt 0.476583 0.118250
vt 0.492583 0.118250
vt 0.758421 0.250000
vt 0.224737 0.068324
vt 0.275263 0.068324
vt 0.349500 0.066750
vt 0.337250 0.066750
vt 0.620000 0.239591
vt 0.620000 0.249027
vt 0.615500 0.249027
vt 0.589000 0.249027
vt 0.589000 0.250000
vt 0.589000 0.261250
vt 0.572000 0.261250
vt 0.572000 0.250000
vt 0.572000 0.249000
vt 0.758421 0.020408
vt 0.584676 0.647836
vt 0.275263 0.005436
vt 0.232071 0.000000
vt 0.224737 0.005436
vt 0.337250 0.055500
vt 0.337250 0.045091
vt 0.296500 0.112250
vt 0.298000 0.112250
vt 0.298000 0.060537
vt 0.285750 0.064353
vt 0.285750 0.112250
vt 0.476583 0.096929
vt 0.550735 0.783600
vt 0.550735 0.797060
vt 0.572000 0.201103
vn -1.000000 0.000000 0.000000
vn -1.000000 0.000000 0.000000
vn -1.000000 0.000000 0.000000
vn -1.000000 0.000000 0.000000
vn -1.000000 0.000000 0.000000
vn -1.000000 0.000000 0.000000
vn -1.000000 0.000000 0.000000
vn -1.000000 0.000000 0.000000
vn -1.000000 0.000000 0.000000
vn 1.000000 0.000000 0.000000
vn 1.000000 0.000000 0.000000
vn 1.000000 0.000000 0.000000
vn 1.000000 0.000000 0.000000
vn 1.000000 0.000000 0.000000
vn 1.000000 0.000000 0.000000
vn 0.000000 0.000000 -1.000000
vn 0.000000 0.000000 -1.000000
vn 0.000000 0.000000 -1.000000
vn 0.000000 0.000000 -1.000000
vn 0.000000 0.000000 -1.000000
vn 0.000000 0.000000 -1.000000
vn 0.000000 0.000000 -1.000000
vn 0.000000 1.000000 0.000000
vn 0.000000 1.000000 0.000000
vn 0.000000 1.000000 -0.000000
vn 0.000000 1.000000 -0.000000
vn 0.000000 1.000000 -0.000001
vn 0.000000 1.000000 -0.000000
vn -1.000000 0.000000 0.000000
vn -1.000000 0.000000 0.000000
vn -1.000000 0.000000 0.000000
vn -1.000000 0.000000 0.000000
vn -1.000000 0.000000 0.000000
vn -0.000001 0.000001 1.000000
vn -0.000001 0.000000 1.000000
vn -0.000001 0.000000 1.000000
vn -0.000001 0.000000 1.000000
vn -0.000001 0.000000 1.000000
vn 0.607869 -0.758110 -0.236144
vn 0.607869 -0.758110 -0.236144
vn 0.607869 -0.758110 -0.236144
vn 0.607869 -0.758110 -0.236144
vn 0.000000 -0.000000 -1.000000
vn 0.000000 -0.000000 -1.000000
vn 0.000000 -0.000000 -1.000000
vn -0.000000 -0.000000 -1.000000
vn 0.000000 0.000000 -1.000000
vn 0.000000 0.000000 -1.000000
vn 0.000000 0.000000 -1.000000
vn 0.000000 0.000000 -1.000000
vn 0.000000 0.000000 -1.000000
vn 0.000000 0.000000 -1.000000
s 1
g polySurface393
usemtl initialShadingGroup
f 3/46/1 4/45/2 2/47/3
f 4/45/2 5/44/4 2/47/3
f 1/48/5 2/47/3 5/44/4
s off
f 6/8/6 7/3/7 5/4/8 4/9/9
s 2
f 13/11/10 8/43/11 12/26/12
f 8/43/11 9/10/13 12/26/12
f 9/10/13 10/42/14 12/26/12
f 10/42/14 11/27/15 12/26/12
s 3
f 14/25/16 11/24/17 17/39/18
f 9/5/19 15/40/20 10/41/21
f 16/6/22 17/39/18 15/40/20
f 10/41/21 15/40/20 11/24/17
f 11/24/17 15/40/20 17/39/18
s 5
f 6/18/23 12/17/24 7/19/25
f 12/17/24 11/16/26 7/19/25
f 11/16/26 14/15/27 7/19/25
f 7/19/25 14/15/27 18/14/28
s 6
f 7/1/29 18/23/30 5/2/31
f 1/7/32 5/2/31 19/37/33
f 18/23/30 19/37/33 5/2/31
s 7
f 3/49/34 13/13/35 4/20/36
f 13/13/35 12/22/37 4/20/36
f 4/20/36 12/22/37 6/21/38
s off
f 3/51/39 2/50/40 8/38/41 13/12/42
s 8
f 2/52/43 1/36/44 8/28/45
f 8/28/45 1/36/44 9/29/46
f 9/29/46 1/36/44 15/30/47
f 15/30/47 1/36/44 16/31/48
f 1/36/44 19/35/49 16/31/48
f 16/31/48 19/35/49 17/32/50
f 19/35/49 18/34/51 17/32/50
f 18/34/51 14/33/52 17/32/50
