# This file uses centimeters as units for non-parametric coordinates.

mtllib Rail_87.mtl
g Rail_87_default1
v 660.080200 2.170861 90.498680
v 671.283142 2.170861 86.198265
v 661.597534 17.170860 89.916222
v 669.765808 17.170860 86.780716
v 670.198364 17.170860 112.322159
v 678.366638 17.170860 109.186646
v 668.681030 2.170861 112.904610
v 679.883972 2.170861 108.604195
vt 0.375000 0.000000
vt 0.625000 0.000000
vt 0.625000 0.250000
vt 0.375000 0.250000
vt 0.625000 0.500000
vt 0.375000 0.500000
vt 0.625000 0.750000
vt 0.375000 0.750000
vt 0.625000 1.000000
vt 0.375000 1.000000
vt 0.875000 0.000000
vt 0.875000 0.250000
vt 0.125000 0.000000
vt 0.125000 0.250000
vn -0.358368 0.000000 -0.933580
vn -0.358368 0.000000 -0.933580
vn -0.358368 0.000000 -0.933580
vn -0.358368 0.000000 -0.933580
vn 0.000000 1.000000 0.000000
vn 0.000000 1.000000 0.000000
vn 0.000000 1.000000 0.000000
vn 0.000000 1.000000 0.000000
vn 0.358368 0.000000 0.933580
vn 0.358368 0.000000 0.933580
vn 0.358368 0.000000 0.933580
vn 0.358368 0.000000 0.933580
vn 0.000000 -1.000000 0.000000
vn 0.000000 -1.000000 0.000000
vn 0.000000 -1.000000 0.000000
vn 0.000000 -1.000000 0.000000
vn 0.928148 0.107722 -0.356283
vn 0.928148 0.107722 -0.356283
vn 0.928148 0.107722 -0.356283
vn 0.928148 0.107722 -0.356283
vn -0.928148 0.107722 0.356283
vn -0.928148 0.107722 0.356283
vn -0.928148 0.107722 0.356283
vn -0.928148 0.107722 0.356283
s off
g Rail_87_group89 Rail_87_group91 Rail_87_group94 Rail_87_polySurface24 Rail_87_polySurface149 Rail_87_polySurface1 group466
usemtl Rail_87_initialShadingGroup
f 1/1/1 3/4/2 4/3/3 2/2/4
f 3/4/5 5/6/6 6/5/7 4/3/8
f 5/6/9 7/8/10 8/7/11 6/5/12
f 7/8/13 1/10/14 2/9/15 8/7/16
f 2/2/17 4/3/18 6/12/19 8/11/20
f 7/13/21 5/14/22 3/4/23 1/1/24
g default
v 660.080200 2.170861 90.498680
v 671.283142 2.170861 86.198265
v 661.597534 17.170860 89.916222
v 669.765808 17.170860 86.780716
v 670.198364 17.170860 112.322159
v 678.366638 17.170860 109.186646
v 668.681030 2.170861 112.904610
v 679.883972 2.170861 108.604195
vt 0.375000 0.000000
vt 0.625000 0.000000
vt 0.625000 0.250000
vt 0.375000 0.250000
vt 0.625000 0.500000
vt 0.375000 0.500000
vt 0.625000 0.750000
vt 0.375000 0.750000
vt 0.625000 1.000000
vt 0.375000 1.000000
vt 0.875000 0.000000
vt 0.875000 0.250000
vt 0.125000 0.000000
vt 0.125000 0.250000
vn -0.358368 0.000000 -0.933580
vn -0.358368 0.000000 -0.933580
vn -0.358368 0.000000 -0.933580
vn -0.358368 0.000000 -0.933580
vn 0.000000 1.000000 0.000000
vn 0.000000 1.000000 0.000000
vn 0.000000 1.000000 0.000000
vn 0.000000 1.000000 0.000000
vn 0.358368 0.000000 0.933580
vn 0.358368 0.000000 0.933580
vn 0.358368 0.000000 0.933580
vn 0.358368 0.000000 0.933580
vn 0.000000 -1.000000 0.000000
vn 0.000000 -1.000000 0.000000
vn 0.000000 -1.000000 0.000000
vn 0.000000 -1.000000 0.000000
vn 0.928148 0.107722 -0.356283
vn 0.928148 0.107722 -0.356283
vn 0.928148 0.107722 -0.356283
vn 0.928148 0.107722 -0.356283
vn -0.928148 0.107722 0.356283
vn -0.928148 0.107722 0.356283
vn -0.928148 0.107722 0.356283
vn -0.928148 0.107722 0.356283
s off
g Rail_87_polySurface1 group466
f 9/15/25 11/18/26 12/17/27 10/16/28
f 11/18/29 13/20/30 14/19/31 12/17/32
f 13/20/33 15/22/34 16/21/35 14/19/36
f 15/22/37 9/24/38 10/23/39 16/21/40
f 10/16/41 12/17/42 14/26/43 16/25/44
f 15/27/45 13/28/46 11/18/47 9/15/48
