# This file uses centimeters as units for non-parametric coordinates.

mtllib Rail_80.mtl
g default
v 585.550143 2.170861 277.105533
v 594.035425 2.170861 285.590815
v 586.699399 17.170861 278.254790
v 592.886168 17.170861 284.441559
v 603.669962 17.170861 261.284227
v 609.856731 17.170861 267.470996
v 602.520706 2.170861 260.134971
v 611.005987 2.170861 268.620252
vt 0.375000 0.000000
vt 0.625000 0.000000
vt 0.625000 0.250000
vt 0.375000 0.250000
vt 0.625000 0.500000
vt 0.375000 0.500000
vt 0.625000 0.750000
vt 0.375000 0.750000
vt 0.625000 1.000000
vt 0.375000 1.000000
vt 0.875000 0.000000
vt 0.875000 0.250000
vt 0.125000 0.000000
vt 0.125000 0.250000
vn -0.707107 0.000000 0.707107
vn -0.707107 0.000000 0.707107
vn -0.707107 0.000000 0.707107
vn -0.707107 0.000000 0.707107
vn 0.000000 1.000000 0.000000
vn 0.000000 1.000000 0.000000
vn 0.000000 1.000000 0.000000
vn 0.000000 1.000000 0.000000
vn 0.707107 0.000000 -0.707107
vn 0.707107 0.000000 -0.707107
vn 0.707107 0.000000 -0.707107
vn 0.707107 0.000000 -0.707107
vn 0.000000 -1.000000 0.000000
vn 0.000000 -1.000000 0.000000
vn 0.000000 -1.000000 0.000000
vn 0.000000 -1.000000 0.000000
vn 0.702992 0.107722 0.702992
vn 0.702992 0.107722 0.702992
vn 0.702992 0.107722 0.702992
vn 0.702992 0.107722 0.702992
vn -0.702992 0.107722 -0.702992
vn -0.702992 0.107722 -0.702992
vn -0.702992 0.107722 -0.702992
vn -0.702992 0.107722 -0.702992
s off
g polySurface153 group91 polySurface24
usemtl initialShadingGroup
f 1/1/1 2/2/2 4/3/3 3/4/4
f 3/4/5 4/3/6 6/5/7 5/6/8
f 5/6/9 6/5/10 8/7/11 7/8/12
f 7/8/13 8/7/14 2/9/15 1/10/16
f 2/2/17 8/11/18 6/12/19 4/3/20
f 7/13/21 1/1/22 3/4/23 5/14/24
