# This file uses centimeters as units for non-parametric coordinates.

mtllib Wedge_02.mtl
g Wedge_02_default1
v 0.000001 0.000000 -1207.074951
v 0.000001 105.000000 -1207.074951
v 84.000000 0.000000 -1207.074951
v 84.000000 105.000000 -1207.074951
v 0.000001 0.000000 -1377.074951
v 0.000001 105.000000 -1377.074951
vt 0.375000 0.000000
vt 0.625000 0.000000
vt 0.375000 0.250000
vt 0.625000 0.250000
vt 0.375000 0.750000
vt 0.625000 0.750000
vt 0.375000 1.000000
vt 0.625000 1.000000
vt 0.875000 0.000000
vt 0.125000 0.000000
vn 0.000000 0.000000 1.000000
vn 0.000000 0.000000 1.000000
vn 0.000000 0.000000 1.000000
vn 0.000000 0.000000 1.000000
vn -1.000000 0.000000 -0.000000
vn -1.000000 0.000000 -0.000000
vn -1.000000 0.000000 -0.000000
vn -1.000000 0.000000 -0.000000
vn 0.000000 1.000000 0.000000
vn 0.000000 1.000000 0.000000
vn 0.000000 1.000000 0.000000
vn 0.896527 0.000000 -0.442990
vn 0.896527 0.000000 -0.442990
vn 0.896527 0.000000 -0.442990
vn 0.896527 0.000000 -0.442990
vn 0.000000 -1.000000 0.000000
vn 0.000000 -1.000000 0.000000
vn 0.000000 -1.000000 0.000000
s off
g Wedge_02_group105 Wedge_02_group106 Wedge_02_pCube131 Wedge_02_polySurface1 group270
usemtl Wedge_02_initialShadingGroup
f 4/4/1 2/2/2 1/1/3 3/3/4
f 2/8/5 6/6/6 5/5/7 1/7/8
f 6/9/9 2/2/10 4/4/11
f 5/10/12 6/6/13 4/4/14 3/3/15
f 3/3/16 1/1/17 5/10/18
g default
v 0.000001 0.000000 -1207.074951
v 0.000001 105.000000 -1207.074951
v 84.000000 0.000000 -1207.074951
v 84.000000 105.000000 -1207.074951
v 0.000001 0.000000 -1377.074951
v 0.000001 105.000000 -1377.074951
vt 0.375000 0.000000
vt 0.625000 0.000000
vt 0.375000 0.250000
vt 0.625000 0.250000
vt 0.375000 0.750000
vt 0.625000 0.750000
vt 0.375000 1.000000
vt 0.625000 1.000000
vt 0.875000 0.000000
vt 0.125000 0.000000
vn 0.000000 0.000000 1.000000
vn 0.000000 0.000000 1.000000
vn 0.000000 0.000000 1.000000
vn 0.000000 0.000000 1.000000
vn -1.000000 0.000000 -0.000000
vn -1.000000 0.000000 -0.000000
vn -1.000000 0.000000 -0.000000
vn -1.000000 0.000000 -0.000000
vn 0.000000 1.000000 0.000000
vn 0.000000 1.000000 0.000000
vn 0.000000 1.000000 0.000000
vn 0.896527 0.000000 -0.442990
vn 0.896527 0.000000 -0.442990
vn 0.896527 0.000000 -0.442990
vn 0.896527 0.000000 -0.442990
vn 0.000000 -1.000000 0.000000
vn 0.000000 -1.000000 0.000000
vn 0.000000 -1.000000 0.000000
s off
g Wedge_02_polySurface1 group270
f 10/14/19 8/12/20 7/11/21 9/13/22
f 8/18/23 12/16/24 11/15/25 7/17/26
f 12/19/27 8/12/28 10/14/29
f 11/20/30 12/16/31 10/14/32 9/13/33
f 9/13/34 7/11/35 11/20/36
