# This file uses centimeters as units for non-parametric coordinates.

mtllib Base_05.mtl
g default
v -231.000000 -105.000000 -302.000000
v -220.000000 -105.000000 -302.000000
v -220.000000 -105.000000 -341.000000
v -231.000000 -105.000000 -341.000000
v 231.000000 -105.000000 -302.000000
v 220.000000 -105.000000 -302.000031
v -287.000000 -105.000000 -302.000000
v -287.000000 -130.000000 -302.000000
v -287.000000 -188.478500 -302.000000
v -69.229111 -362.996857 -302.000000
v 70.469467 -362.200043 -302.000000
v 287.000000 -188.581207 -302.000000
v 287.000000 -130.000000 -302.000000
v 231.000000 -130.000000 -302.000000
v 231.000000 -105.000000 -341.000000
v 220.000000 -105.000000 -341.000000
v -287.000000 -158.934174 -396.900024
v -287.000000 -105.000000 -396.900024
v 287.000000 -105.000000 -396.900024
v 287.000000 -159.020752 -396.900024
v 65.494324 -336.628784 -396.900024
v -64.341553 -337.369324 -396.900024
v 287.000000 -105.000000 -302.000000
v 287.000000 -105.000000 -341.000000
v -287.000000 -105.000000 -341.000000
vt 0.641414 0.061817
vt 0.641414 0.068414
vt 0.752242 0.068414
vt 0.441250 1.013975
vt 0.441250 1.023725
vt 0.427250 1.023725
vt 0.427250 1.013975
vt 0.441250 1.000000
vt 0.599250 1.013975
vt 0.596500 1.013975
vt 0.596500 1.023725
vt 0.582500 1.023725
vt 0.582500 1.013975
vt 0.582500 1.000000
vt 0.557250 0.188250
vt 0.413750 0.188250
vt 0.469415 0.130158
vt 0.501874 0.130343
vt 0.686352 0.000000
vt 0.682828 0.069985
vt 0.511578 0.796865
vt 0.488626 0.797680
vt 0.282250 0.090750
vt 0.282250 0.097000
vt 0.272500 0.097000
vt 0.258525 0.097000
vt 0.258525 0.083495
vt 0.557250 0.174745
vt 0.550735 0.640236
vt 0.752242 0.061817
vt 0.741475 0.084266
vt 0.741475 0.097750
vt 0.727500 0.097750
vt 0.717750 0.097750
vt 0.717750 0.091500
vt 0.449265 0.640236
vt 0.413750 0.174766
vt 0.442500 0.259750
vt 0.445250 0.259750
vt 0.445250 0.250000
vt 0.442500 0.250000
vt 0.558000 0.243750
vt 0.572000 0.243750
vt 0.572000 0.229105
vt 0.517867 0.185700
vt 0.482943 0.185501
vt 0.428500 0.229130
vt 0.428500 0.243750
vt 0.428500 0.250000
vt 0.442500 0.250000
vt 0.445250 0.250000
vt 0.555250 0.250000
vt 0.558000 0.250000
vt 0.555250 0.259750
vt 0.558000 0.259750
vt 0.558000 0.250000
vt 0.555250 0.250000
vt 0.282250 0.076105
vt 0.512458 0.819415
vt 0.550735 0.666305
vt 0.734698 0.075301
vt 0.738490 0.000000
vt 0.449265 0.666305
vt 0.487762 0.820292
vt 0.717750 0.076880
vt 0.709250 1.013975
vt 0.709250 1.023725
vt 0.599250 1.023725
vn 0.000000 1.000000 0.000000
vn 0.000000 1.000000 0.000000
vn 0.000000 1.000000 0.000000
vn 0.000000 1.000000 0.000000
vn 0.000000 0.000000 1.000000
vn 0.000000 0.000001 1.000000
vn -0.000000 0.000000 1.000000
vn 0.000000 0.000000 1.000000
vn 0.000000 0.000000 1.000000
vn 0.000000 0.000000 1.000000
vn 0.000000 0.000000 1.000000
vn -0.000000 0.000000 1.000000
vn 0.000000 0.000000 1.000000
vn -0.000000 0.000000 1.000000
vn 0.000000 0.000000 1.000000
vn -0.000000 0.000000 1.000000
vn 0.000000 1.000000 0.000000
vn 0.000000 1.000000 0.000000
vn 0.000000 1.000000 0.000000
vn 0.000000 1.000000 0.000000
vn 0.000000 0.000000 -1.000000
vn 0.000000 0.000000 -1.000000
vn 0.000000 0.000000 -1.000000
vn 0.000000 0.000000 -1.000000
vn 0.000000 0.000000 -1.000000
vn 0.000000 0.000000 -1.000000
vn 0.000000 0.000000 1.000000
vn 0.000000 0.000000 1.000000
vn 0.000000 0.000000 1.000000
vn 0.000000 0.000000 1.000000
vn 1.000000 0.000000 0.000000
vn 1.000000 0.000000 0.000000
vn 1.000000 0.000000 0.000000
vn 1.000000 0.000000 0.000000
vn 1.000000 0.000000 0.000000
vn 1.000000 0.000000 0.000000
vn 0.607869 -0.758110 -0.236144
vn 0.607869 -0.758110 -0.236144
vn 0.607869 -0.758110 -0.236144
vn 0.607869 -0.758110 -0.236144
vn 0.005507 -0.965474 -0.260441
vn 0.005507 -0.965474 -0.260441
vn 0.005507 -0.965474 -0.260441
vn 0.005507 -0.965474 -0.260441
vn -0.607679 -0.758286 -0.236070
vn -0.607679 -0.758286 -0.236070
vn -0.607679 -0.758286 -0.236070
vn -0.607679 -0.758286 -0.236070
vn -1.000000 0.000000 0.000000
vn -1.000000 0.000000 0.000000
vn -1.000000 0.000000 0.000000
vn -1.000000 0.000000 0.000000
vn -1.000000 0.000000 0.000000
vn -1.000000 0.000000 0.000000
vn 0.000000 1.000000 0.000000
vn 0.000000 1.000000 0.000000
vn 0.000000 1.000000 0.000000
vn 0.000000 1.000000 0.000000
vn 0.000000 1.000000 0.000000
vn 0.000000 1.000000 0.000000
vn 0.000000 1.000000 0.000000
vn 0.000000 1.000000 0.000000
vn 0.000000 1.000000 0.000000
vn 0.000000 1.000000 0.000000
vn 0.000000 1.000000 0.000000
vn 0.000000 1.000000 0.000000
vn 0.000000 1.000000 0.000000
vn 0.000000 1.000000 0.000000
s off
g polySurface379
usemtl initialShadingGroup
f 1/41/1 2/40/2 3/39/3 4/38/4
s 1
f 5/53/5 6/52/6 14/42/7
f 7/49/8 8/48/9 1/50/10
f 13/43/11 14/42/7 12/44/12
f 12/44/12 14/42/7 11/45/13
f 6/52/6 2/51/14 14/42/7
f 14/42/7 2/51/14 11/45/13
f 11/45/13 2/51/14 10/46/15
f 8/48/9 9/47/16 1/50/10
f 10/46/15 2/51/14 9/47/16
f 2/51/14 1/50/10 9/47/16
s off
f 6/57/17 5/56/18 15/55/19 16/54/20
s 4
f 18/16/21 19/15/22 17/37/23
f 17/37/23 19/15/22 22/17/24
f 22/17/24 19/15/22 21/18/25
f 19/15/22 20/28/26 21/18/25
s off
f 13/30/27 23/3/28 5/2/29 14/1/30
s 5
f 12/58/31 20/27/32 13/23/33
f 20/27/32 19/26/34 13/23/33
f 19/26/34 24/25/35 13/23/33
f 13/23/33 24/25/35 23/24/36
s off
f 12/60/37 11/59/38 21/21/39 20/29/40
f 11/62/41 10/61/42 22/20/43 21/19/44
f 10/64/45 9/63/46 17/36/47 22/22/48
s 6
f 9/65/49 8/35/50 17/31/51
f 17/31/51 8/35/50 18/32/52
f 18/32/52 8/35/50 25/33/53
f 8/35/50 7/34/54 25/33/53
s 7
f 2/68/55 6/67/56 3/9/57
f 6/67/56 16/66/58 3/9/57
f 5/6/59 23/5/60 15/7/61
f 23/5/60 24/4/62 15/7/61
f 24/4/62 19/8/63 15/7/61
f 19/8/63 18/14/64 15/7/61
f 15/7/61 18/14/64 16/66/58
f 7/12/65 1/11/66 25/13/67
f 1/11/66 4/10/68 25/13/67
f 25/13/67 4/10/68 18/14/64
f 16/66/58 18/14/64 3/9/57
f 18/14/64 4/10/68 3/9/57
