# This file uses centimeters as units for non-parametric coordinates.

mtllib BRail_42.mtl
g BRail_42_default1
v -620.989990 -0.153884 239.142578
v -632.105469 -0.153884 250.258011
v -622.495483 19.495605 240.648071
v -630.599976 19.495605 248.752518
v -631.581848 19.495605 231.561691
v -639.686340 19.495605 239.666153
v -630.076416 -0.153884 230.056213
v -641.191833 -0.153884 241.171646
vt 0.375000 0.000000
vt 0.625000 0.000000
vt 0.625000 0.250000
vt 0.375000 0.250000
vt 0.625000 0.500000
vt 0.375000 0.500000
vt 0.625000 0.750000
vt 0.375000 0.750000
vt 0.625000 1.000000
vt 0.375000 1.000000
vt 0.875000 0.000000
vt 0.875000 0.250000
vt 0.125000 0.000000
vt 0.125000 0.250000
vn 0.707107 0.000000 0.707107
vn 0.707107 0.000000 0.707107
vn 0.707107 0.000000 0.707107
vn 0.707107 0.000000 0.707107
vn 0.000000 1.000000 0.000000
vn 0.000000 1.000000 0.000000
vn 0.000000 1.000000 0.000000
vn 0.000000 1.000000 0.000000
vn -0.707107 0.000000 -0.707107
vn -0.707107 0.000000 -0.707107
vn -0.707107 0.000000 -0.707107
vn -0.707107 0.000000 -0.707107
vn 0.000000 -1.000000 0.000000
vn 0.000000 -1.000000 0.000000
vn 0.000000 -1.000000 0.000000
vn 0.000000 -1.000000 0.000000
vn -0.702992 0.107722 0.702992
vn -0.702992 0.107722 0.702992
vn -0.702992 0.107722 0.702992
vn -0.702992 0.107722 0.702992
vn 0.702992 0.107722 -0.702992
vn 0.702992 0.107722 -0.702992
vn 0.702992 0.107722 -0.702992
vn 0.702992 0.107722 -0.702992
s off
g BRail_42_group90 BRail_42_polySurface24 BRail_42_polySurface150 BRail_42_polySurface1 group51
usemtl BRail_42_initialShadingGroup
f 1/1/1 3/4/2 4/3/3 2/2/4
f 3/4/5 5/6/6 6/5/7 4/3/8
f 5/6/9 7/8/10 8/7/11 6/5/12
f 7/8/13 1/10/14 2/9/15 8/7/16
f 2/2/17 4/3/18 6/12/19 8/11/20
f 7/13/21 5/14/22 3/4/23 1/1/24
g default
v -620.989990 -0.153884 239.142578
v -632.105469 -0.153884 250.258011
v -622.495483 19.495605 240.648071
v -630.599976 19.495605 248.752518
v -631.581848 19.495605 231.561691
v -639.686340 19.495605 239.666153
v -630.076416 -0.153884 230.056213
v -641.191833 -0.153884 241.171646
vt 0.375000 0.000000
vt 0.625000 0.000000
vt 0.625000 0.250000
vt 0.375000 0.250000
vt 0.625000 0.500000
vt 0.375000 0.500000
vt 0.625000 0.750000
vt 0.375000 0.750000
vt 0.625000 1.000000
vt 0.375000 1.000000
vt 0.875000 0.000000
vt 0.875000 0.250000
vt 0.125000 0.000000
vt 0.125000 0.250000
vn 0.707107 0.000000 0.707107
vn 0.707107 0.000000 0.707107
vn 0.707107 0.000000 0.707107
vn 0.707107 0.000000 0.707107
vn 0.000000 1.000000 0.000000
vn 0.000000 1.000000 0.000000
vn 0.000000 1.000000 0.000000
vn 0.000000 1.000000 0.000000
vn -0.707107 0.000000 -0.707107
vn -0.707107 0.000000 -0.707107
vn -0.707107 0.000000 -0.707107
vn -0.707107 0.000000 -0.707107
vn 0.000000 -1.000000 0.000000
vn 0.000000 -1.000000 0.000000
vn 0.000000 -1.000000 0.000000
vn 0.000000 -1.000000 0.000000
vn -0.702992 0.107722 0.702992
vn -0.702992 0.107722 0.702992
vn -0.702992 0.107722 0.702992
vn -0.702992 0.107722 0.702992
vn 0.702992 0.107722 -0.702992
vn 0.702992 0.107722 -0.702992
vn 0.702992 0.107722 -0.702992
vn 0.702992 0.107722 -0.702992
s off
g BRail_42_polySurface1 group51
f 9/15/25 11/18/26 12/17/27 10/16/28
f 11/18/29 13/20/30 14/19/31 12/17/32
f 13/20/33 15/22/34 16/21/35 14/19/36
f 15/22/37 9/24/38 10/23/39 16/21/40
f 10/16/41 12/17/42 14/26/43 16/25/44
f 15/27/45 13/28/46 11/18/47 9/15/48
