# This file uses centimeters as units for non-parametric coordinates.

mtllib Rail_42.mtl
g Rail_42_default1
v -564.022278 2.170861 298.740479
v -572.507568 2.170861 307.225769
v -565.171509 17.170860 299.889740
v -571.358276 17.170860 306.076508
v -582.142090 17.170860 282.919189
v -588.328857 17.170860 289.105957
v -580.992798 2.170861 281.769928
v -589.478088 2.170861 290.255188
vt 0.375000 0.000000
vt 0.625000 0.000000
vt 0.625000 0.250000
vt 0.375000 0.250000
vt 0.625000 0.500000
vt 0.375000 0.500000
vt 0.625000 0.750000
vt 0.375000 0.750000
vt 0.625000 1.000000
vt 0.375000 1.000000
vt 0.875000 0.000000
vt 0.875000 0.250000
vt 0.125000 0.000000
vt 0.125000 0.250000
vn 0.707107 0.000000 0.707107
vn 0.707107 0.000000 0.707107
vn 0.707107 0.000000 0.707107
vn 0.707107 0.000000 0.707107
vn 0.000000 1.000000 0.000000
vn 0.000000 1.000000 0.000000
vn 0.000000 1.000000 0.000000
vn 0.000000 1.000000 0.000000
vn -0.707107 0.000000 -0.707107
vn -0.707107 0.000000 -0.707107
vn -0.707107 0.000000 -0.707107
vn -0.707107 0.000000 -0.707107
vn 0.000000 -1.000000 0.000000
vn 0.000000 -1.000000 0.000000
vn 0.000000 -1.000000 0.000000
vn 0.000000 -1.000000 0.000000
vn -0.702992 0.107722 0.702992
vn -0.702992 0.107722 0.702992
vn -0.702992 0.107722 0.702992
vn -0.702992 0.107722 0.702992
vn 0.702992 0.107722 -0.702992
vn 0.702992 0.107722 -0.702992
vn 0.702992 0.107722 -0.702992
vn 0.702992 0.107722 -0.702992
s off
g Rail_42_group90 Rail_42_polySurface24 Rail_42_polySurface155 Rail_42_polySurface1 group413
usemtl Rail_42_initialShadingGroup
f 1/1/1 3/4/2 4/3/3 2/2/4
f 3/4/5 5/6/6 6/5/7 4/3/8
f 5/6/9 7/8/10 8/7/11 6/5/12
f 7/8/13 1/10/14 2/9/15 8/7/16
f 2/2/17 4/3/18 6/12/19 8/11/20
f 7/13/21 5/14/22 3/4/23 1/1/24
g default
v -564.022278 2.170861 298.740479
v -572.507568 2.170861 307.225769
v -565.171509 17.170860 299.889740
v -571.358276 17.170860 306.076508
v -582.142090 17.170860 282.919189
v -588.328857 17.170860 289.105957
v -580.992798 2.170861 281.769928
v -589.478088 2.170861 290.255188
vt 0.375000 0.000000
vt 0.625000 0.000000
vt 0.625000 0.250000
vt 0.375000 0.250000
vt 0.625000 0.500000
vt 0.375000 0.500000
vt 0.625000 0.750000
vt 0.375000 0.750000
vt 0.625000 1.000000
vt 0.375000 1.000000
vt 0.875000 0.000000
vt 0.875000 0.250000
vt 0.125000 0.000000
vt 0.125000 0.250000
vn 0.707107 0.000000 0.707107
vn 0.707107 0.000000 0.707107
vn 0.707107 0.000000 0.707107
vn 0.707107 0.000000 0.707107
vn 0.000000 1.000000 0.000000
vn 0.000000 1.000000 0.000000
vn 0.000000 1.000000 0.000000
vn 0.000000 1.000000 0.000000
vn -0.707107 0.000000 -0.707107
vn -0.707107 0.000000 -0.707107
vn -0.707107 0.000000 -0.707107
vn -0.707107 0.000000 -0.707107
vn 0.000000 -1.000000 0.000000
vn 0.000000 -1.000000 0.000000
vn 0.000000 -1.000000 0.000000
vn 0.000000 -1.000000 0.000000
vn -0.702992 0.107722 0.702992
vn -0.702992 0.107722 0.702992
vn -0.702992 0.107722 0.702992
vn -0.702992 0.107722 0.702992
vn 0.702992 0.107722 -0.702992
vn 0.702992 0.107722 -0.702992
vn 0.702992 0.107722 -0.702992
vn 0.702992 0.107722 -0.702992
s off
g Rail_42_polySurface1 group413
f 9/15/25 11/18/26 12/17/27 10/16/28
f 11/18/29 13/20/30 14/19/31 12/17/32
f 13/20/33 15/22/34 16/21/35 14/19/36
f 15/22/37 9/24/38 10/23/39 16/21/40
f 10/16/41 12/17/42 14/26/43 16/25/44
f 15/27/45 13/28/46 11/18/47 9/15/48
