# This file uses centimeters as units for non-parametric coordinates.

mtllib Rail_102.mtl
g default
v 221.975444 2.170861 -532.131510
v 233.975444 2.170861 -532.131510
v 223.600737 17.170861 -532.131510
v 232.350150 17.170861 -532.131510
v 223.600737 17.170861 -556.131510
v 232.350150 17.170861 -556.131510
v 221.975444 2.170861 -556.131510
v 233.975444 2.170861 -556.131510
vt 0.375000 0.000000
vt 0.625000 0.000000
vt 0.625000 0.250000
vt 0.375000 0.250000
vt 0.625000 0.500000
vt 0.375000 0.500000
vt 0.625000 0.750000
vt 0.375000 0.750000
vt 0.625000 1.000000
vt 0.375000 1.000000
vt 0.875000 0.000000
vt 0.875000 0.250000
vt 0.125000 0.000000
vt 0.125000 0.250000
vn 0.000000 0.000000 1.000000
vn 0.000000 0.000000 1.000000
vn 0.000000 0.000000 1.000000
vn 0.000000 0.000000 1.000000
vn 0.000000 1.000000 0.000000
vn 0.000000 1.000000 0.000000
vn 0.000000 1.000000 0.000000
vn 0.000000 1.000000 0.000000
vn 0.000000 0.000000 -1.000000
vn 0.000000 0.000000 -1.000000
vn 0.000000 0.000000 -1.000000
vn 0.000000 0.000000 -1.000000
vn 0.000000 -1.000000 0.000000
vn 0.000000 -1.000000 0.000000
vn 0.000000 -1.000000 0.000000
vn 0.000000 -1.000000 0.000000
vn 0.994181 0.107722 0.000000
vn 0.994181 0.107722 0.000000
vn 0.994181 0.107722 0.000000
vn 0.994181 0.107722 0.000000
vn -0.994181 0.107722 0.000000
vn -0.994181 0.107722 0.000000
vn -0.994181 0.107722 0.000000
vn -0.994181 0.107722 0.000000
s off
g polySurface190 group103 polySurface24
usemtl initialShadingGroup
f 1/1/1 2/2/2 4/3/3 3/4/4
f 3/4/5 4/3/6 6/5/7 5/6/8
f 5/6/9 6/5/10 8/7/11 7/8/12
f 7/8/13 8/7/14 2/9/15 1/10/16
f 2/2/17 8/11/18 6/12/19 4/3/20
f 7/13/21 1/1/22 3/4/23 5/14/24
