# This file uses centimeters as units for non-parametric coordinates.

mtllib Rail_06.mtl
g Rail_06_default1
v 82.833916 2.170861 -1392.886841
v 94.036880 2.170861 -1397.187256
v 84.351257 17.170860 -1393.469360
v 92.519539 17.170860 -1396.604858
v 92.952087 17.170860 -1371.063354
v 101.120369 17.170860 -1374.198853
v 91.434746 2.170861 -1370.480957
v 102.637711 2.170861 -1374.781372
vt 0.375000 0.000000
vt 0.625000 0.000000
vt 0.625000 0.250000
vt 0.375000 0.250000
vt 0.625000 0.500000
vt 0.375000 0.500000
vt 0.625000 0.750000
vt 0.375000 0.750000
vt 0.625000 1.000000
vt 0.375000 1.000000
vt 0.875000 0.000000
vt 0.875000 0.250000
vt 0.125000 0.000000
vt 0.125000 0.250000
vn -0.358368 0.000000 -0.933580
vn -0.358368 0.000000 -0.933580
vn -0.358368 0.000000 -0.933580
vn -0.358368 0.000000 -0.933580
vn 0.000000 1.000000 0.000000
vn 0.000000 1.000000 0.000000
vn 0.000000 1.000000 0.000000
vn 0.000000 1.000000 0.000000
vn 0.358368 0.000000 0.933580
vn 0.358368 0.000000 0.933580
vn 0.358368 0.000000 0.933580
vn 0.358368 0.000000 0.933580
vn 0.000000 -1.000000 0.000000
vn 0.000000 -1.000000 0.000000
vn 0.000000 -1.000000 0.000000
vn 0.000000 -1.000000 0.000000
vn 0.928148 0.107722 -0.356283
vn 0.928148 0.107722 -0.356283
vn 0.928148 0.107722 -0.356283
vn 0.928148 0.107722 -0.356283
vn -0.928148 0.107722 0.356283
vn -0.928148 0.107722 0.356283
vn -0.928148 0.107722 0.356283
vn -0.928148 0.107722 0.356283
s off
g Rail_06_group89 Rail_06_group91 Rail_06_group95 Rail_06_polySurface24 Rail_06_polySurface274 Rail_06_polySurface1 group372
usemtl Rail_06_initialShadingGroup
f 1/1/1 3/4/2 4/3/3 2/2/4
f 3/4/5 5/6/6 6/5/7 4/3/8
f 5/6/9 7/8/10 8/7/11 6/5/12
f 7/8/13 1/10/14 2/9/15 8/7/16
f 2/2/17 4/3/18 6/12/19 8/11/20
f 7/13/21 5/14/22 3/4/23 1/1/24
g default
v 82.833916 2.170861 -1392.886841
v 94.036880 2.170861 -1397.187256
v 84.351257 17.170860 -1393.469360
v 92.519539 17.170860 -1396.604858
v 92.952087 17.170860 -1371.063354
v 101.120369 17.170860 -1374.198853
v 91.434746 2.170861 -1370.480957
v 102.637711 2.170861 -1374.781372
vt 0.375000 0.000000
vt 0.625000 0.000000
vt 0.625000 0.250000
vt 0.375000 0.250000
vt 0.625000 0.500000
vt 0.375000 0.500000
vt 0.625000 0.750000
vt 0.375000 0.750000
vt 0.625000 1.000000
vt 0.375000 1.000000
vt 0.875000 0.000000
vt 0.875000 0.250000
vt 0.125000 0.000000
vt 0.125000 0.250000
vn -0.358368 0.000000 -0.933580
vn -0.358368 0.000000 -0.933580
vn -0.358368 0.000000 -0.933580
vn -0.358368 0.000000 -0.933580
vn 0.000000 1.000000 0.000000
vn 0.000000 1.000000 0.000000
vn 0.000000 1.000000 0.000000
vn 0.000000 1.000000 0.000000
vn 0.358368 0.000000 0.933580
vn 0.358368 0.000000 0.933580
vn 0.358368 0.000000 0.933580
vn 0.358368 0.000000 0.933580
vn 0.000000 -1.000000 0.000000
vn 0.000000 -1.000000 0.000000
vn 0.000000 -1.000000 0.000000
vn 0.000000 -1.000000 0.000000
vn 0.928148 0.107722 -0.356283
vn 0.928148 0.107722 -0.356283
vn 0.928148 0.107722 -0.356283
vn 0.928148 0.107722 -0.356283
vn -0.928148 0.107722 0.356283
vn -0.928148 0.107722 0.356283
vn -0.928148 0.107722 0.356283
vn -0.928148 0.107722 0.356283
s off
g Rail_06_polySurface1 group372
f 9/15/25 11/18/26 12/17/27 10/16/28
f 11/18/29 13/20/30 14/19/31 12/17/32
f 13/20/33 15/22/34 16/21/35 14/19/36
f 15/22/37 9/24/38 10/23/39 16/21/40
f 10/16/41 12/17/42 14/26/43 16/25/44
f 15/27/45 13/28/46 11/18/47 9/15/48
