# This file uses centimeters as units for non-parametric coordinates.

mtllib Rail_82.mtl
g default
v 629.390764 2.170861 233.264913
v 637.876045 2.170861 241.750194
v 630.540020 17.170861 234.414169
v 636.726789 17.170861 240.600938
v 647.510583 17.170861 217.443606
v 653.697352 17.170861 223.630375
v 646.361326 2.170861 216.294350
v 654.846608 2.170861 224.779632
vt 0.375000 0.000000
vt 0.625000 0.000000
vt 0.625000 0.250000
vt 0.375000 0.250000
vt 0.625000 0.500000
vt 0.375000 0.500000
vt 0.625000 0.750000
vt 0.375000 0.750000
vt 0.625000 1.000000
vt 0.375000 1.000000
vt 0.875000 0.000000
vt 0.875000 0.250000
vt 0.125000 0.000000
vt 0.125000 0.250000
vn -0.707107 0.000000 0.707107
vn -0.707107 0.000000 0.707107
vn -0.707107 0.000000 0.707107
vn -0.707107 0.000000 0.707107
vn 0.000000 1.000000 0.000000
vn 0.000000 1.000000 0.000000
vn 0.000000 1.000000 0.000000
vn 0.000000 1.000000 0.000000
vn 0.707107 0.000000 -0.707107
vn 0.707107 0.000000 -0.707107
vn 0.707107 0.000000 -0.707107
vn 0.707107 0.000000 -0.707107
vn 0.000000 -1.000000 0.000000
vn 0.000000 -1.000000 0.000000
vn 0.000000 -1.000000 0.000000
vn 0.000000 -1.000000 0.000000
vn 0.702992 0.107722 0.702992
vn 0.702992 0.107722 0.702992
vn 0.702992 0.107722 0.702992
vn 0.702992 0.107722 0.702992
vn -0.702992 0.107722 -0.702992
vn -0.702992 0.107722 -0.702992
vn -0.702992 0.107722 -0.702992
vn -0.702992 0.107722 -0.702992
s off
g polySurface149 group91 polySurface24
usemtl initialShadingGroup
f 1/1/1 2/2/2 4/3/3 3/4/4
f 3/4/5 4/3/6 6/5/7 5/6/8
f 5/6/9 6/5/10 8/7/11 7/8/12
f 7/8/13 8/7/14 2/9/15 1/10/16
f 2/2/17 8/11/18 6/12/19 4/3/20
f 7/13/21 1/1/22 3/4/23 5/14/24
