# This file uses centimeters as units for non-parametric coordinates.

mtllib Ramp_12.mtl
g Ramp_12_default1
v 231.000000 -135.000000 -302.000000
v 287.000000 -135.000000 -302.000000
v 231.000000 -105.000000 -302.000000
v 287.000000 -105.000000 -302.000000
v 231.000000 -135.142853 -254.000000
v 287.000000 -135.142853 -254.000000
vt 0.375000 0.000000
vt 0.625000 0.000000
vt 0.375000 0.250000
vt 0.625000 0.250000
vt 0.375000 0.750000
vt 0.625000 0.750000
vt 0.375000 1.000000
vt 0.625000 1.000000
vt 0.875000 0.000000
vt 0.125000 0.000000
vn -0.000000 0.000000 -1.000000
vn -0.000000 0.000000 -1.000000
vn -0.000000 0.000000 -1.000000
vn -0.000000 0.000000 -1.000000
vn 0.000000 -0.999996 -0.002976
vn 0.000000 -0.999996 -0.002976
vn 0.000000 -0.999996 -0.002976
vn 0.000000 -0.999996 -0.002976
vn 1.000000 0.000000 0.000000
vn 1.000000 0.000000 0.000000
vn 1.000000 0.000000 0.000000
vn 0.000000 0.846864 0.531810
vn 0.000000 0.846864 0.531810
vn 0.000000 0.846864 0.531810
vn 0.000000 0.846864 0.531810
vn -1.000000 0.000000 -0.000000
vn -1.000000 0.000000 -0.000000
vn -1.000000 0.000000 -0.000000
s off
g Ramp_12_group114 Ramp_12_pCube132 Ramp_12_polySurface1 group310
usemtl Ramp_12_initialShadingGroup
f 4/4/1 2/2/2 1/1/3 3/3/4
f 2/8/5 6/6/6 5/5/7 1/7/8
f 6/9/9 2/2/10 4/4/11
f 5/10/12 6/6/13 4/4/14 3/3/15
f 3/3/16 1/1/17 5/10/18
