# This file uses centimeters as units for non-parametric coordinates.

mtllib UD_Ramp_02.mtl
g UD_Ramp_02_default1
v -359.323639 49.000000 69.117584
v -359.323639 49.000000 125.117577
v -438.027618 49.000000 125.117577
v -438.027618 49.000000 69.117577
v -359.323639 -0.239915 69.117577
v -359.323639 -0.239915 125.117577
vt 0.571760 0.461832
vt 0.571760 0.321832
vt 0.375000 0.321832
vt 0.375000 0.461832
vt 0.163168 0.250000
vt 0.303168 0.250000
vt 0.303168 0.126900
vt 0.163168 0.126900
vt 0.730896 0.144104
vt 0.730897 0.041520
vt 0.833376 0.041624
vt 0.269104 0.144104
vt 0.625000 0.461793
vt 0.625000 0.666751
vt 0.166624 0.041624
vt 0.269104 0.144104
vt 0.166624 0.041624
vt 0.269104 0.041520
vn 0.000000 1.000000 0.000000
vn 0.000000 1.000000 0.000000
vn 0.000000 1.000000 0.000000
vn 0.000000 1.000000 0.000000
vn 1.000000 0.000000 0.000000
vn 1.000000 0.000000 0.000000
vn 1.000000 0.000000 0.000000
vn 1.000000 0.000000 0.000000
vn 0.000000 0.000000 1.000000
vn 0.000000 0.000000 1.000000
vn 0.000000 0.000000 1.000000
vn -0.530386 -0.847757 0.000000
vn -0.530386 -0.847757 0.000000
vn -0.530386 -0.847757 0.000000
vn -0.530386 -0.847757 0.000000
vn 0.000000 0.000000 -1.000000
vn 0.000000 0.000000 -1.000000
vn 0.000000 0.000000 -1.000000
s off
g UD_Ramp_02_group123 UD_Ramp_02_polySurface246 UD_Ramp_02_polySurface1 group274
usemtl UD_Ramp_02_initialShadingGroup
f 1/4/1 4/1/2 3/2/3 2/3/4
f 5/8/5 1/5/6 2/6/7 6/7/8
f 3/11/9 6/9/10 2/10/11
f 4/15/12 5/12/13 6/13/14 3/14/15
f 1/18/16 5/16/17 4/17/18
