# This file uses centimeters as units for non-parametric coordinates.

mtllib skybox.mtl
g default
v -5000.261205 -4997.593242 5000.163211
v 4999.738795 -4997.593242 5000.163211
v -5000.261205 5002.406758 5000.163211
v 4999.738795 5002.406758 5000.163211
v -5000.261205 5002.406758 -4999.836789
v 4999.738795 5002.406758 -4999.836789
v -5000.261205 -4997.593242 -4999.836789
v 4999.738795 -4997.593242 -4999.836789
vt 0.002172 0.630867
vt 0.002172 0.380867
vt 0.252172 0.630867
vt 0.252172 0.380867
vt 0.502172 0.630867
vt 0.502172 0.380867
vt 0.752172 0.630867
vt 0.752172 0.380867
vt 1.002172 0.630867
vt 1.002172 0.380867
vt 0.002172 0.130867
vt 0.252172 0.130867
vt 0.002172 0.880867
vt 0.252172 0.880867
vn 0.000000 0.000000 1.000000
vn 0.000000 0.000000 1.000000
vn 0.000000 0.000000 1.000000
vn 0.000000 0.000000 1.000000
vn 0.000000 1.000000 0.000000
vn 0.000000 1.000000 0.000000
vn 0.000000 1.000000 0.000000
vn 0.000000 1.000000 0.000000
vn 0.000000 0.000000 -1.000000
vn 0.000000 0.000000 -1.000000
vn 0.000000 0.000000 -1.000000
vn 0.000000 0.000000 -1.000000
vn 0.000000 -1.000000 0.000000
vn 0.000000 -1.000000 0.000000
vn 0.000000 -1.000000 0.000000
vn 0.000000 -1.000000 0.000000
vn 1.000000 0.000000 0.000000
vn 1.000000 0.000000 0.000000
vn 1.000000 0.000000 0.000000
vn 1.000000 0.000000 0.000000
vn -1.000000 0.000000 0.000000
vn -1.000000 0.000000 0.000000
vn -1.000000 0.000000 0.000000
vn -1.000000 0.000000 0.000000
s off
g pCube1
usemtl lambert2SG
f 1/1/1 2/2/2 4/4/3 3/3/4
f 3/3/5 4/4/6 6/6/7 5/5/8
f 5/5/9 6/6/10 8/8/11 7/7/12
f 7/7/13 8/8/14 2/10/15 1/9/16
f 2/2/17 8/11/18 6/12/19 4/4/20
f 7/13/21 1/1/22 3/3/23 5/14/24