# This file uses centimeters as units for non-parametric coordinates.

mtllib BRail_17.mtl
g default
v -10.847881 -0.153884 -1573.201915
v -25.523382 -0.153884 -1578.835312
v -12.835547 19.495606 -1573.964909
v -23.535717 19.495606 -1578.072319
v -17.440599 19.495606 -1561.968337
v -28.140769 19.495606 -1566.075748
v -15.452934 -0.153884 -1561.205344
v -30.128434 -0.153884 -1566.838741
vt 0.375000 0.000000
vt 0.625000 0.000000
vt 0.625000 0.250000
vt 0.375000 0.250000
vt 0.625000 0.500000
vt 0.375000 0.500000
vt 0.625000 0.750000
vt 0.375000 0.750000
vt 0.625000 1.000000
vt 0.375000 1.000000
vt 0.875000 0.000000
vt 0.875000 0.250000
vt 0.125000 0.000000
vt 0.125000 0.250000
vn 0.358368 0.000000 -0.933581
vn 0.358368 0.000000 -0.933581
vn 0.358368 0.000000 -0.933580
vn 0.358368 0.000000 -0.933580
vn 0.000000 1.000000 -0.000000
vn 0.000000 1.000000 -0.000000
vn 0.000000 1.000000 -0.000000
vn 0.000000 1.000000 -0.000000
vn -0.358368 0.000000 0.933580
vn -0.358368 0.000000 0.933580
vn -0.358368 0.000000 0.933581
vn -0.358368 0.000000 0.933581
vn 0.000000 -1.000000 0.000000
vn 0.000000 -1.000000 0.000000
vn 0.000000 -1.000000 0.000000
vn 0.000000 -1.000000 0.000000
vn -0.928148 0.107722 -0.356283
vn -0.928148 0.107722 -0.356283
vn -0.928148 0.107722 -0.356283
vn -0.928148 0.107722 -0.356283
vn 0.928148 0.107722 0.356283
vn 0.928148 0.107722 0.356283
vn 0.928148 0.107722 0.356283
vn 0.928148 0.107722 0.356283
s off
g polySurface156 group96 group93 group89 group90 polySurface24
usemtl initialShadingGroup
f 1/1/1 2/2/2 4/3/3 3/4/4
f 3/4/5 4/3/6 6/5/7 5/6/8
f 5/6/9 6/5/10 8/7/11 7/8/12
f 7/8/13 8/7/14 2/9/15 1/10/16
f 2/2/17 8/11/18 6/12/19 4/3/20
f 7/13/21 1/1/22 3/4/23 5/14/24
