# This file uses centimeters as units for non-parametric coordinates.

mtllib BRail_41.mtl
g BRail_41_default1
v -642.944946 -0.153884 217.187637
v -654.060425 -0.153884 228.303055
v -644.450439 19.495605 218.693115
v -652.554932 19.495605 226.797577
v -653.536804 19.495605 209.606750
v -661.641296 19.495605 217.711197
v -652.031311 -0.153884 208.101257
v -663.146790 -0.153884 219.216690
vt 0.375000 0.000000
vt 0.625000 0.000000
vt 0.625000 0.250000
vt 0.375000 0.250000
vt 0.625000 0.500000
vt 0.375000 0.500000
vt 0.625000 0.750000
vt 0.375000 0.750000
vt 0.625000 1.000000
vt 0.375000 1.000000
vt 0.875000 0.000000
vt 0.875000 0.250000
vt 0.125000 0.000000
vt 0.125000 0.250000
vn 0.707107 0.000000 0.707107
vn 0.707107 0.000000 0.707107
vn 0.707107 0.000000 0.707107
vn 0.707107 0.000000 0.707107
vn 0.000000 1.000000 0.000000
vn 0.000000 1.000000 0.000000
vn 0.000000 1.000000 0.000000
vn 0.000000 1.000000 0.000000
vn -0.707107 0.000000 -0.707107
vn -0.707107 0.000000 -0.707107
vn -0.707107 0.000000 -0.707107
vn -0.707107 0.000000 -0.707107
vn 0.000000 -1.000000 0.000000
vn 0.000000 -1.000000 0.000000
vn 0.000000 -1.000000 0.000000
vn 0.000000 -1.000000 0.000000
vn -0.702992 0.107722 0.702992
vn -0.702992 0.107722 0.702992
vn -0.702992 0.107722 0.702992
vn -0.702992 0.107722 0.702992
vn 0.702992 0.107722 -0.702992
vn 0.702992 0.107722 -0.702992
vn 0.702992 0.107722 -0.702992
vn 0.702992 0.107722 -0.702992
s off
g BRail_41_group90 BRail_41_polySurface24 BRail_41_polySurface148 BRail_41_polySurface1 group50
usemtl BRail_41_initialShadingGroup
f 1/1/1 3/4/2 4/3/3 2/2/4
f 3/4/5 5/6/6 6/5/7 4/3/8
f 5/6/9 7/8/10 8/7/11 6/5/12
f 7/8/13 1/10/14 2/9/15 8/7/16
f 2/2/17 4/3/18 6/12/19 8/11/20
f 7/13/21 5/14/22 3/4/23 1/1/24
g default
v -642.944946 -0.153884 217.187637
v -654.060425 -0.153884 228.303055
v -644.450439 19.495605 218.693115
v -652.554932 19.495605 226.797577
v -653.536804 19.495605 209.606750
v -661.641296 19.495605 217.711197
v -652.031311 -0.153884 208.101257
v -663.146790 -0.153884 219.216690
vt 0.375000 0.000000
vt 0.625000 0.000000
vt 0.625000 0.250000
vt 0.375000 0.250000
vt 0.625000 0.500000
vt 0.375000 0.500000
vt 0.625000 0.750000
vt 0.375000 0.750000
vt 0.625000 1.000000
vt 0.375000 1.000000
vt 0.875000 0.000000
vt 0.875000 0.250000
vt 0.125000 0.000000
vt 0.125000 0.250000
vn 0.707107 0.000000 0.707107
vn 0.707107 0.000000 0.707107
vn 0.707107 0.000000 0.707107
vn 0.707107 0.000000 0.707107
vn 0.000000 1.000000 0.000000
vn 0.000000 1.000000 0.000000
vn 0.000000 1.000000 0.000000
vn 0.000000 1.000000 0.000000
vn -0.707107 0.000000 -0.707107
vn -0.707107 0.000000 -0.707107
vn -0.707107 0.000000 -0.707107
vn -0.707107 0.000000 -0.707107
vn 0.000000 -1.000000 0.000000
vn 0.000000 -1.000000 0.000000
vn 0.000000 -1.000000 0.000000
vn 0.000000 -1.000000 0.000000
vn -0.702992 0.107722 0.702992
vn -0.702992 0.107722 0.702992
vn -0.702992 0.107722 0.702992
vn -0.702992 0.107722 0.702992
vn 0.702992 0.107722 -0.702992
vn 0.702992 0.107722 -0.702992
vn 0.702992 0.107722 -0.702992
vn 0.702992 0.107722 -0.702992
s off
g BRail_41_polySurface1 group50
f 9/15/25 11/18/26 12/17/27 10/16/28
f 11/18/29 13/20/30 14/19/31 12/17/32
f 13/20/33 15/22/34 16/21/35 14/19/36
f 15/22/37 9/24/38 10/23/39 16/21/40
f 10/16/41 12/17/42 14/26/43 16/25/44
f 15/27/45 13/28/46 11/18/47 9/15/48
