# This file uses centimeters as units for non-parametric coordinates.

mtllib Exterior_01.mtl
g default
v -569.848663 -80.999985 772.780640
v -707.106323 -80.999992 772.780640
v -707.052032 -80.999985 649.780640
v -707.027344 -80.999985 593.780640
v -698.848663 -80.999985 593.780640
v -698.848663 -80.999985 502.780640
v -706.987213 -80.999985 502.780640
v -706.962524 -80.999985 446.780640
v -642.904083 -80.999985 446.780640
v -642.904083 -80.999985 446.835938
v -642.848663 -80.999985 446.835938
v -642.848663 -80.999985 593.780640
v -642.848663 -80.999985 649.780640
v -569.848663 -80.999985 649.780640
v -706.885864 -81.000000 272.672119
v -194.816986 -80.999992 772.780640
v -513.848663 -80.999985 772.780640
v -513.848663 -80.999985 649.780640
v -513.848663 -80.999985 593.780640
v -707.106689 0.000000 772.780640
v -93.741974 0.000000 772.780640
v -706.842712 0.000000 174.000000
vt 0.572000 0.757250
vt 0.606314 0.757250
vt 0.572000 0.788000
vt 0.590250 0.788000
vt 0.606301 0.788000
vt 0.606295 0.802000
vt 0.604250 0.802000
vt 0.590250 0.802000
vt 0.604250 0.824750
vt 0.590250 0.838736
vt 0.590264 0.838736
vt 0.606285 0.824750
vt 0.606278 0.838750
vt 0.590264 0.838750
vt 0.606278 0.838750
vt 0.606259 0.882277
vt 0.590264 0.838750
vt 0.478242 0.757250
vt 0.558000 0.757250
vt 0.558000 0.788000
vt 0.590250 0.802000
vt 0.590250 0.838736
vt 0.558000 0.802000
vt 0.590264 0.838736
vt 0.606295 0.802000
vt 0.606285 0.824750
vt 0.604250 0.824750
vt 0.604250 0.802000
vt 0.466857 0.250000
vt 0.250000 0.250000
vt 0.465934 0.034066
vt 0.392868 0.571471
vt 0.302693 0.571471
vt 0.267033 0.500000
vt 0.375000 0.500000
vt 0.625000 0.520509
vt 0.375000 0.520509
vt 0.625000 0.568686
vt 0.375000 0.568686
vt 0.049107 0.568686
vt 0.049108 0.590620
vt 0.625000 0.590620
vt 0.000000 0.000000
vt 0.164788 0.000000
vt 0.706132 0.455532
vt 0.382107 0.113861
vt 0.448147 0.156464
vt 0.555462 0.225694
vt 0.621502 0.268296
vt 0.754558 0.380466
vt 0.446723 0.625000
vt 0.600064 0.625000
vt 0.471992 0.645250
vt 0.551750 0.645250
vt 0.565750 0.645250
vt 0.600064 0.645250
vn 0.000000 -1.000000 0.000000
vn 0.000000 -1.000000 0.000000
vn 0.000000 -1.000000 0.000000
vn 0.000000 -1.000000 0.000000
vn 0.000000 -1.000000 0.000000
vn 0.000000 -1.000000 0.000000
vn 0.000000 -1.000000 0.000000
vn 0.000000 -1.000000 0.000000
vn 0.000000 -1.000000 0.000000
vn 0.000000 -1.000000 0.000000
vn 0.000000 -1.000000 0.000000
vn 0.000000 -1.000000 0.000000
vn 0.000000 -1.000000 0.000000
vn 0.000000 -1.000000 0.000000
vn 0.000000 -1.000000 0.000000
vn 0.000000 -1.000000 0.000000
vn 0.000000 -1.000000 0.000000
vn 0.000000 -1.000000 0.000000
vn 0.000000 -1.000000 0.000000
vn 0.000000 -1.000000 0.000000
vn 0.000000 -1.000000 0.000000
vn 0.000000 -1.000000 0.000000
vn 0.000000 -1.000000 0.000000
vn 0.000000 -1.000000 0.000000
vn 0.000000 -1.000000 0.000000
vn 0.000000 -1.000000 0.000000
vn 0.000000 -1.000000 0.000000
vn 0.000000 -1.000000 0.000000
vn 0.000000 -1.000000 0.000000
vn 0.000000 -1.000000 0.000000
vn 0.000000 -1.000000 0.000000
vn 0.000000 -1.000000 0.000000
vn 0.000000 -1.000000 0.000000
vn 0.000000 -1.000000 0.000000
vn 0.000000 -1.000000 0.000000
vn 0.000000 -1.000000 0.000000
vn 0.000000 -1.000000 0.000000
vn 0.000000 -1.000000 0.000000
vn 0.000000 -1.000000 0.000000
vn 0.000000 -1.000000 0.000000
vn 0.000000 -1.000000 0.000000
vn 0.000000 -1.000000 0.000000
vn 0.000000 -1.000000 0.000000
vn 0.000000 -1.000000 0.000000
vn 0.000000 -1.000000 0.000000
vn 0.000000 -1.000000 0.000000
vn 0.000000 -1.000000 0.000000
vn 0.000000 -1.000000 0.000000
vn 0.000000 -1.000000 0.000000
vn 0.000000 -1.000000 0.000000
vn 0.000000 -1.000000 0.000000
vn 0.000000 -1.000000 0.000000
vn 0.000000 -1.000000 0.000000
vn 0.000000 -1.000000 0.000000
vn 0.000000 -1.000000 0.000000
vn 0.000000 -1.000000 0.000000
vn 0.000000 -1.000000 0.000000
vn 0.000000 -1.000000 0.000000
vn 0.000000 -1.000000 0.000000
vn 0.000000 -1.000000 0.000000
vn 0.000000 -1.000000 0.000000
vn 0.000000 -1.000000 0.000000
vn 0.000000 -1.000000 0.000000
vn 0.000000 -1.000000 0.000000
vn 0.000000 1.000000 -0.000000
vn 0.000000 1.000000 -0.000000
vn 0.000000 1.000000 -0.000000
vn 0.526644 -0.657167 -0.539239
vn 0.526644 -0.657167 -0.539239
vn 0.526644 -0.657167 -0.539239
vn 0.526644 -0.657167 -0.539239
vn 0.000000 -1.000000 0.000000
vn 0.000000 -1.000000 0.000000
vn 0.000000 -1.000000 0.000000
vn 0.000000 -1.000000 0.000000
vn 0.000000 -1.000000 0.000000
vn 0.000000 -1.000000 0.000000
vn 0.000000 -1.000000 0.000000
vn 0.000000 -1.000000 0.000000
vn 0.000000 -1.000000 0.000000
vn 0.000000 -1.000000 0.000000
vn 0.000000 -1.000000 0.000000
vn 0.000000 -1.000000 0.000000
vn 0.000000 -1.000000 0.000000
vn 0.000000 -1.000000 0.000000
vn 0.000000 -1.000000 0.000000
vn -1.000000 -0.000004 -0.000441
vn -1.000000 -0.000004 -0.000441
vn -1.000000 -0.000005 -0.000441
vn -1.000000 -0.000004 -0.000441
vn -1.000000 -0.000008 -0.000440
vn -1.000000 -0.000005 -0.000441
vn -1.000000 -0.000008 -0.000440
vn -1.000000 -0.000005 -0.000441
vn -1.000000 -0.000005 -0.000441
vn -1.000000 -0.000005 -0.000441
vn -1.000000 -0.000005 -0.000441
vn -1.000000 -0.000005 -0.000441
vn -1.000000 -0.000005 -0.000441
vn -1.000000 -0.000005 -0.000441
vn -1.000000 -0.000005 -0.000441
vn -1.000000 -0.000005 -0.000441
vn -1.000000 -0.000005 -0.000441
vn -1.000000 -0.000005 -0.000441
vn -0.000000 0.000000 1.000000
vn -0.000000 0.000000 1.000000
vn -0.000000 0.000000 1.000000
vn -0.000000 0.000000 1.000000
vn -0.000000 0.000000 1.000000
vn -0.000000 0.000000 1.000000
vn -0.000000 0.000000 1.000000
vn -0.000000 0.000000 1.000000
vn -0.000000 0.000000 1.000000
vn -0.000000 0.000000 1.000000
vn -0.000000 0.000000 1.000000
vn -0.000000 0.000000 1.000000
s off
g Base_13_polySurface371 group1065
usemtl Base_13_initialShadingGroup2
f 1/1/1 2/2/2 14/3/3
f 14/3/4 2/2/5 13/4/6
f 2/2/7 3/5/8 13/4/9
f 3/5/10 4/6/11 13/4/12
f 4/6/13 5/7/14 13/4/15
f 13/4/16 5/7/17 12/8/18
f 5/7/19 6/9/20 12/8/21
f 12/8/22 6/9/23 11/10/24
f 11/10/25 6/9/26 10/11/27
f 7/12/28 8/13/29 6/9/30
f 9/14/31 10/11/32 8/13/33
f 6/9/34 8/13/35 10/11/36
f 8/15/37 15/16/38 9/17/39
f 15/16/40 16/18/41 9/17/42
f 17/19/43 18/20/44 16/18/45
f 12/21/46 11/22/47 19/23/48
f 10/24/49 9/17/50 11/22/51
f 9/17/52 16/18/53 11/22/54
f 11/22/55 16/18/56 19/23/57
f 16/18/58 18/20/59 19/23/60
f 4/25/61 7/26/62 6/27/63 5/28/64
f 20/29/65 21/30/66 22/31/67
f 16/32/68 15/33/69 22/34/70 21/35/71
f 17/36/72 1/37/73 18/38/74
f 1/37/75 14/39/76 18/38/77
f 13/40/78 12/41/79 14/39/80
f 12/41/81 19/42/82 14/39/83
f 14/39/84 19/42/85 18/38/86
f 22/43/87 15/44/88 20/45/89
f 15/44/90 8/46/91 20/45/92
f 8/46/93 7/47/94 20/45/95
f 7/47/96 4/48/97 20/45/98
f 4/48/99 3/49/100 20/45/101
f 3/49/102 2/50/103 20/45/104
f 21/51/105 20/52/106 16/53/107
f 16/53/108 20/52/109 17/54/110
f 17/54/111 20/52/112 1/55/113
f 2/56/114 1/55/115 20/52/116
