# This file uses centimeters as units for non-parametric coordinates.

mtllib Rail_40.mtl
g Rail_41_default1
v -608.444245 2.170861 255.234243
v -616.929536 2.170861 263.719534
v -609.593476 17.170860 256.383505
v -615.780244 17.170860 262.570272
v -626.564057 17.170860 239.412954
v -632.750825 17.170860 245.599722
v -625.414765 2.170861 238.263693
v -633.900056 2.170861 246.748953
vt 0.375000 0.000000
vt 0.625000 0.000000
vt 0.625000 0.250000
vt 0.375000 0.250000
vt 0.625000 0.500000
vt 0.375000 0.500000
vt 0.625000 0.750000
vt 0.375000 0.750000
vt 0.625000 1.000000
vt 0.375000 1.000000
vt 0.875000 0.000000
vt 0.875000 0.250000
vt 0.125000 0.000000
vt 0.125000 0.250000
vn 0.707107 0.000000 0.707107
vn 0.707107 0.000000 0.707107
vn 0.707107 0.000000 0.707107
vn 0.707107 0.000000 0.707107
vn 0.000000 1.000000 0.000000
vn 0.000000 1.000000 0.000000
vn 0.000000 1.000000 0.000000
vn 0.000000 1.000000 0.000000
vn -0.707107 0.000000 -0.707107
vn -0.707107 0.000000 -0.707107
vn -0.707107 0.000000 -0.707107
vn -0.707107 0.000000 -0.707107
vn 0.000000 -1.000000 0.000000
vn 0.000000 -1.000000 0.000000
vn 0.000000 -1.000000 0.000000
vn 0.000000 -1.000000 0.000000
vn -0.702992 0.107722 0.702992
vn -0.702992 0.107722 0.702992
vn -0.702992 0.107722 0.702992
vn -0.702992 0.107722 0.702992
vn 0.702992 0.107722 -0.702992
vn 0.702992 0.107722 -0.702992
vn 0.702992 0.107722 -0.702992
vn 0.702992 0.107722 -0.702992
s off
g Rail_41_group90 Rail_41_polySurface24 Rail_41_polySurface153 Rail_41_polySurface1 group412
usemtl Rail_41_initialShadingGroup
f 1/1/1 3/4/2 4/3/3 2/2/4
f 3/4/5 5/6/6 6/5/7 4/3/8
f 5/6/9 7/8/10 8/7/11 6/5/12
f 7/8/13 1/10/14 2/9/15 8/7/16
f 2/2/17 4/3/18 6/12/19 8/11/20
f 7/13/21 5/14/22 3/4/23 1/1/24
