# This file uses centimeters as units for non-parametric coordinates.

mtllib Rail_73.mtl
g default
v 186.318589 2.170861 662.479824
v 194.803871 2.170861 670.965105
v 187.467845 17.170861 663.629080
v 193.654614 17.170861 669.815849
v 204.438408 17.170861 646.658517
v 210.625177 17.170861 652.845286
v 203.289152 2.170861 645.509261
v 211.774433 2.170861 653.994543
vt 0.375000 0.000000
vt 0.625000 0.000000
vt 0.625000 0.250000
vt 0.375000 0.250000
vt 0.625000 0.500000
vt 0.375000 0.500000
vt 0.625000 0.750000
vt 0.375000 0.750000
vt 0.625000 1.000000
vt 0.375000 1.000000
vt 0.875000 0.000000
vt 0.875000 0.250000
vt 0.125000 0.000000
vt 0.125000 0.250000
vn -0.707107 0.000000 0.707107
vn -0.707107 0.000000 0.707107
vn -0.707107 0.000000 0.707107
vn -0.707107 0.000000 0.707107
vn 0.000000 1.000000 0.000000
vn 0.000000 1.000000 0.000000
vn 0.000000 1.000000 0.000000
vn 0.000000 1.000000 0.000000
vn 0.707107 0.000000 -0.707107
vn 0.707107 0.000000 -0.707107
vn 0.707107 0.000000 -0.707107
vn 0.707107 0.000000 -0.707107
vn 0.000000 -1.000000 0.000000
vn 0.000000 -1.000000 0.000000
vn 0.000000 -1.000000 0.000000
vn 0.000000 -1.000000 0.000000
vn 0.702992 0.107722 0.702992
vn 0.702992 0.107722 0.702992
vn 0.702992 0.107722 0.702992
vn 0.702992 0.107722 0.702992
vn -0.702992 0.107722 -0.702992
vn -0.702992 0.107722 -0.702992
vn -0.702992 0.107722 -0.702992
vn -0.702992 0.107722 -0.702992
s off
g polySurface49 group86 polySurface24
usemtl initialShadingGroup
f 1/1/1 2/2/2 4/3/3 3/4/4
f 3/4/5 4/3/6 6/5/7 5/6/8
f 5/6/9 6/5/10 8/7/11 7/8/12
f 7/8/13 8/7/14 2/9/15 1/10/16
f 2/2/17 8/11/18 6/12/19 4/3/20
f 7/13/21 1/1/22 3/4/23 5/14/24
