# This file uses centimeters as units for non-parametric coordinates.

mtllib Rail_103.mtl
g Rail_103_default1
v 215.234024 2.170861 -566.520020
v 215.234024 2.170861 -554.520020
v 215.234024 17.170860 -564.894714
v 215.234024 17.170860 -556.145325
v 182.062241 17.170860 -564.894714
v 182.062241 17.170860 -556.145325
v 182.062241 2.170861 -566.520020
v 182.062241 2.170861 -554.520020
vt 0.375000 0.000000
vt 0.625000 0.000000
vt 0.625000 0.250000
vt 0.375000 0.250000
vt 0.625000 0.500000
vt 0.375000 0.500000
vt 0.625000 0.750000
vt 0.375000 0.750000
vt 0.625000 1.000000
vt 0.375000 1.000000
vt 0.875000 0.000000
vt 0.875000 0.250000
vt 0.125000 0.000000
vt 0.125000 0.250000
vn 1.000000 0.000000 0.000000
vn 1.000000 0.000000 0.000000
vn 1.000000 0.000000 0.000000
vn 1.000000 0.000000 0.000000
vn 0.000000 1.000000 0.000000
vn 0.000000 1.000000 0.000000
vn 0.000000 1.000000 0.000000
vn 0.000000 1.000000 0.000000
vn -1.000000 0.000000 0.000000
vn -1.000000 0.000000 0.000000
vn -1.000000 0.000000 0.000000
vn -1.000000 0.000000 0.000000
vn 0.000000 -1.000000 0.000000
vn 0.000000 -1.000000 0.000000
vn 0.000000 -1.000000 0.000000
vn 0.000000 -1.000000 0.000000
vn 0.000000 0.107722 0.994181
vn 0.000000 0.107722 0.994181
vn 0.000000 0.107722 0.994181
vn 0.000000 0.107722 0.994181
vn 0.000000 0.107722 -0.994181
vn 0.000000 0.107722 -0.994181
vn 0.000000 0.107722 -0.994181
vn 0.000000 0.107722 -0.994181
s off
g Rail_103_group56 Rail_103_group65 Rail_103_group75 Rail_103_group77 Rail_103_group97 Rail_103_group99 Rail_103_polySurface24 Rail_103_polySurface175 Rail_103_polySurface1 group488
usemtl Rail_103_initialShadingGroup
f 1/1/1 3/4/2 4/3/3 2/2/4
f 3/4/5 5/6/6 6/5/7 4/3/8
f 5/6/9 7/8/10 8/7/11 6/5/12
f 7/8/13 1/10/14 2/9/15 8/7/16
f 2/2/17 4/3/18 6/12/19 8/11/20
f 7/13/21 5/14/22 3/4/23 1/1/24
g default
v 215.234024 2.170861 -566.520020
v 215.234024 2.170861 -554.520020
v 215.234024 17.170860 -564.894714
v 215.234024 17.170860 -556.145325
v 182.062241 17.170860 -564.894714
v 182.062241 17.170860 -556.145325
v 182.062241 2.170861 -566.520020
v 182.062241 2.170861 -554.520020
vt 0.375000 0.000000
vt 0.625000 0.000000
vt 0.625000 0.250000
vt 0.375000 0.250000
vt 0.625000 0.500000
vt 0.375000 0.500000
vt 0.625000 0.750000
vt 0.375000 0.750000
vt 0.625000 1.000000
vt 0.375000 1.000000
vt 0.875000 0.000000
vt 0.875000 0.250000
vt 0.125000 0.000000
vt 0.125000 0.250000
vn 1.000000 0.000000 0.000000
vn 1.000000 0.000000 0.000000
vn 1.000000 0.000000 0.000000
vn 1.000000 0.000000 0.000000
vn 0.000000 1.000000 0.000000
vn 0.000000 1.000000 0.000000
vn 0.000000 1.000000 0.000000
vn 0.000000 1.000000 0.000000
vn -1.000000 0.000000 0.000000
vn -1.000000 0.000000 0.000000
vn -1.000000 0.000000 0.000000
vn -1.000000 0.000000 0.000000
vn 0.000000 -1.000000 0.000000
vn 0.000000 -1.000000 0.000000
vn 0.000000 -1.000000 0.000000
vn 0.000000 -1.000000 0.000000
vn 0.000000 0.107722 0.994181
vn 0.000000 0.107722 0.994181
vn 0.000000 0.107722 0.994181
vn 0.000000 0.107722 0.994181
vn 0.000000 0.107722 -0.994181
vn 0.000000 0.107722 -0.994181
vn 0.000000 0.107722 -0.994181
vn 0.000000 0.107722 -0.994181
s off
g Rail_103_polySurface1 group488
f 9/15/25 11/18/26 12/17/27 10/16/28
f 11/18/29 13/20/30 14/19/31 12/17/32
f 13/20/33 15/22/34 16/21/35 14/19/36
f 15/22/37 9/24/38 10/23/39 16/21/40
f 10/16/41 12/17/42 14/26/43 16/25/44
f 15/27/45 13/28/46 11/18/47 9/15/48
