# This file uses centimeters as units for non-parametric coordinates.

mtllib Ramp_02.mtl
g Ramp_02_default1
v -337.323639 0.000000 250.000000
v -437.323639 0.000000 250.000000
v -337.323639 100.000000 150.000000
v -437.323639 100.000000 150.000000
v -337.323639 0.000000 150.000000
v -437.323639 0.000000 150.000000
vt 0.375000 0.125000
vt 0.625000 0.125000
vt 0.375000 0.500000
vt 0.625000 0.500000
vt 0.375000 0.750000
vt 0.625000 0.750000
vt 0.375000 1.000000
vt 0.625000 1.000000
vt 0.875000 0.000000
vt 0.875000 0.250000
vt 0.125000 0.000000
vt 0.125000 0.250000
vn 0.000000 0.707107 0.707107
vn 0.000000 0.707107 0.707107
vn 0.000000 0.707107 0.707107
vn 0.000000 0.707107 0.707107
vn 0.000000 0.000000 -1.000000
vn 0.000000 0.000000 -1.000000
vn 0.000000 0.000000 -1.000000
vn 0.000000 0.000000 -1.000000
vn 0.000000 -1.000000 0.000000
vn 0.000000 -1.000000 0.000000
vn 0.000000 -1.000000 0.000000
vn 0.000000 -1.000000 0.000000
vn -1.000000 0.000000 -0.000000
vn -1.000000 0.000000 -0.000000
vn -1.000000 0.000000 -0.000000
vn 1.000000 0.000000 0.000000
vn 1.000000 0.000000 0.000000
vn 1.000000 0.000000 0.000000
s off
g Ramp_02_group123 Ramp_02_pCube145 Ramp_02_polySurface1 group299
usemtl Ramp_02_initialShadingGroup
f 1/1/1 3/3/2 4/4/3 2/2/4
f 3/3/5 5/5/6 6/6/7 4/4/8
f 5/5/9 1/7/10 2/8/11 6/6/12
f 2/2/13 4/10/14 6/9/15
f 5/11/16 3/12/17 1/1/18
g default
v -337.323639 0.000000 250.000000
v -437.323639 0.000000 250.000000
v -337.323639 100.000000 150.000000
v -437.323639 100.000000 150.000000
v -337.323639 0.000000 150.000000
v -437.323639 0.000000 150.000000
vt 0.375000 0.125000
vt 0.625000 0.125000
vt 0.375000 0.500000
vt 0.625000 0.500000
vt 0.375000 0.750000
vt 0.625000 0.750000
vt 0.375000 1.000000
vt 0.625000 1.000000
vt 0.875000 0.000000
vt 0.875000 0.250000
vt 0.125000 0.000000
vt 0.125000 0.250000
vn 0.000000 0.707107 0.707107
vn 0.000000 0.707107 0.707107
vn 0.000000 0.707107 0.707107
vn 0.000000 0.707107 0.707107
vn 0.000000 0.000000 -1.000000
vn 0.000000 0.000000 -1.000000
vn 0.000000 0.000000 -1.000000
vn 0.000000 0.000000 -1.000000
vn 0.000000 -1.000000 0.000000
vn 0.000000 -1.000000 0.000000
vn 0.000000 -1.000000 0.000000
vn 0.000000 -1.000000 0.000000
vn -1.000000 0.000000 -0.000000
vn -1.000000 0.000000 -0.000000
vn -1.000000 0.000000 -0.000000
vn 1.000000 0.000000 0.000000
vn 1.000000 0.000000 0.000000
vn 1.000000 0.000000 0.000000
s off
g Ramp_02_polySurface1 group299
f 7/13/19 9/15/20 10/16/21 8/14/22
f 9/15/23 11/17/24 12/18/25 10/16/26
f 11/17/27 7/19/28 8/20/29 12/18/30
f 8/14/31 10/22/32 12/21/33
f 11/23/34 9/24/35 7/13/36
