# This file uses centimeters as units for non-parametric coordinates.

mtllib Top_02.mtl
g default
v -437.323639 49.000004 69.000008
v -437.323639 86.235054 69.000000
v -437.323639 100.000000 69.000000
v -346.000000 49.000011 69.000000
v -412.675293 49.000004 69.000000
v -346.000000 100.000000 69.000000
v -346.000000 81.000000 69.000000
v -346.000000 74.666656 69.000000
v -346.000000 49.000008 88.250000
v -346.000000 49.000011 79.531174
v -346.000000 49.000008 100.999985
v -346.000000 100.000000 125.000000
v -346.000000 49.000000 125.000000
v -346.000000 49.000000 122.044937
v -437.323639 49.000008 125.000015
v -437.323639 56.940666 125.000015
v -437.323639 49.000011 122.044945
v -437.323639 86.710083 125.000000
v -437.323639 49.000015 79.531174
v -437.323639 100.000000 125.000000
v -360.218994 49.000000 125.000000
vt 0.390669 0.892250
vt 0.413500 0.892250
vt 0.390669 0.906250
vt 0.625000 0.386949
vt 0.625000 0.349737
vt 0.375000 0.386949
vt 0.827500 0.122500
vt 0.687500 0.122500
vt 0.190813 0.012250
vt 0.188633 0.012250
vt 0.194000 0.012250
vt 0.190812 0.012250
vt 0.199261 0.012250
vt 0.194000 0.012250
vt 0.375000 0.349737
vt 0.498754 0.349737
vt 0.573729 0.349737
vt 0.413500 0.906250
vt 0.413500 0.906250
vt 0.413500 0.737750
vt 0.390669 0.725000
vt 0.413500 0.725000
vt 0.409945 0.737750
vt 0.390669 0.737750
vt 0.390669 0.735765
vt 0.390669 0.728323
vt 0.390669 0.725000
vt 0.413500 0.737750
vt 0.409945 0.907223
vt 0.413643 0.907223
vt 0.390669 0.907223
vt 0.409945 0.907223
vt 0.387500 0.302769
vt 0.625000 0.302769
vt 0.677769 0.250000
vt 0.677769 0.216775
vt 0.677769 0.216775
vt 0.677769 0.142352
vt 0.677769 0.142352
vt 0.677769 0.122500
vt 0.200000 0.012250
vt 0.200000 0.025000
vt 0.413500 0.012250
vt 0.396831 0.012250
vt 0.390669 0.025000
vt 0.390669 0.021559
vt 0.390669 0.012250
vt 0.390669 0.025000
vt 0.413500 0.018667
vt 0.413500 0.020250
vt 0.413500 0.025000
vt 0.186000 0.018667
vt 0.186000 0.012250
vt 0.186000 0.020250
vt 0.186000 0.018667
vt 0.186000 0.025000
vt 0.186000 0.020250
vt 0.862180 0.215588
vt 0.862180 0.250000
vt 0.862180 0.122500
vt 0.862180 0.215588
vt 0.625000 0.487180
vt 0.387500 0.487180
vt 0.414171 0.888782
vt 0.396831 0.888782
vt 0.396831 0.888782
vt 0.390669 0.888782
vn 0.000000 -0.000000 -1.000000
vn 0.000000 -0.000000 -1.000000
vn 0.000000 -0.000000 -1.000000
vn 0.000000 -0.000000 -1.000000
vn 0.000000 -0.000000 -1.000000
vn 0.000000 0.000000 -1.000000
vn 0.000000 0.000000 -1.000000
vn 0.000000 0.000000 -1.000000
vn 0.000000 0.000000 -1.000000
vn 0.000000 0.000000 -1.000000
vn 1.000000 0.000000 0.000000
vn 1.000000 0.000000 0.000000
vn 1.000000 0.000000 0.000000
vn 1.000000 0.000000 0.000000
vn 1.000000 0.000002 0.000000
vn 1.000000 0.000002 0.000000
vn 1.000000 0.000002 0.000000
vn 1.000000 0.000002 0.000000
vn 1.000000 0.000000 0.000000
vn 1.000000 0.000000 0.000000
vn 1.000000 0.000000 0.000000
vn 1.000000 0.000000 0.000000
vn 1.000000 0.000000 0.000000
vn 1.000000 0.000000 0.000000
vn -1.000000 0.000000 0.000000
vn -1.000000 0.000000 0.000000
vn -1.000000 0.000000 0.000000
vn -1.000000 0.000002 0.000000
vn -1.000000 0.000002 0.000000
vn -1.000000 0.000002 0.000000
vn -1.000000 0.000002 0.000000
vn -1.000000 0.000000 0.000000
vn -1.000000 0.000000 0.000000
vn -1.000000 0.000000 0.000000
vn -1.000000 0.000000 0.000000
vn -1.000000 0.000000 0.000000
vn -1.000000 0.000000 0.000000
vn -1.000000 0.000000 0.000000
vn -1.000000 0.000000 0.000000
vn -0.000000 -1.000000 -0.000000
vn -0.000000 -1.000000 -0.000000
vn -0.000000 -1.000000 -0.000000
vn -0.000000 -1.000000 -0.000000
vn -0.000000 -1.000000 -0.000000
vn -0.000000 -1.000000 -0.000000
vn 0.000000 1.000000 0.000000
vn 0.000000 1.000000 0.000000
vn 0.000000 1.000000 0.000000
vn 0.000000 1.000000 0.000000
vn -0.000000 -1.000000 -0.000001
vn -0.000000 -1.000000 -0.000001
vn -0.000000 -1.000000 -0.000001
vn -0.000000 -1.000000 -0.000001
vn 0.000000 -1.000000 0.000000
vn 0.000000 -1.000000 0.000000
vn 0.000000 -1.000000 0.000000
vn 0.000000 -1.000000 0.000000
vn 0.000000 -1.000000 0.000000
vn 0.000000 -1.000000 0.000000
vn -0.000000 -1.000000 0.000002
vn -0.000000 -1.000000 0.000002
vn -0.000000 -1.000000 0.000002
vn -0.000000 -1.000000 0.000002
vn 0.000000 0.000000 1.000000
vn 0.000000 0.000000 1.000000
vn 0.000000 0.000000 1.000000
vn 0.000000 0.000000 1.000000
vn 0.000000 0.000000 1.000000
vn 0.000000 0.000000 1.000000
vn 0.000000 0.000000 1.000000
vn 0.000000 0.000000 1.000000
vn 0.000000 0.000000 1.000000
s off
g polySurface5
usemtl Climbable_03_initialShadingGroup4
f 1/47/1 2/46/2 3/45/3 4/43/4 5/44/5
f 6/51/6 7/50/7 8/49/8 4/43/9 3/48/10
usemtl Climbable_05_initialShadingGroup4
f 4/53/11 8/52/12 9/9/13 10/10/14
f 8/55/15 7/54/16 11/11/17 9/12/18
f 7/57/19 6/56/20 12/42/21 13/41/22 14/13/23 11/14/24
usemtl Top_01_initialShadingGroup4
f 15/40/25 16/39/26 17/8/27
f 16/38/28 18/37/29 19/7/30 17/8/31
f 3/59/32 2/58/33 19/7/34 18/36/35 20/35/36
f 2/61/37 1/60/38 19/7/39
f 19/4/40 10/5/41 9/17/42 11/16/43 14/15/44 17/6/45
f 6/63/46 3/62/47 20/34/48 12/33/49
f 21/32/50 15/31/51 17/3/52 14/18/53
f 13/30/54 21/29/55 14/19/56
f 5/65/57 4/64/58 10/2/59
f 1/67/60 5/66/61 10/2/62 19/1/63
usemtl Climbable_04_initialShadingGroup4
f 13/28/64 20/27/65 18/26/66 16/25/67 15/24/68 21/23/69
f 12/22/70 20/21/71 13/20/72
