# This file uses centimeters as units for non-parametric coordinates.

mtllib Base_02.mtl
g default
v 294.119507 -105.000000 -552.000000
v 84.000000 -105.000000 -552.000000
v 84.000000 -105.000000 -721.900024
v 228.117096 -105.000000 -721.899963
v 84.000000 0.000000 -552.000000
v 425.071411 0.000000 -552.000000
v 84.000000 0.000000 -721.900024
v 359.068939 0.000000 -721.899963
vt 0.589767 0.082000
vt 0.521000 0.082000
vt 0.521000 0.055750
vt 0.529698 0.372120
vt 0.626950 0.373050
vt 0.874861 0.000000
vt 0.874861 0.247641
vt 0.563475 0.500000
vt 0.426529 0.957525
vt 0.390500 0.957525
vt 0.390500 1.000000
vt 0.443030 1.000000
vt 0.475768 0.026250
vt 0.443030 0.000000
vt 0.390500 0.000000
vt 0.390500 0.026250
vt 0.639487 0.247642
vt 0.639487 0.000000
vt 0.650285 0.349872
vt 0.529699 0.348720
vt 0.540326 0.592597
vt 0.551993 0.592597
vt 0.575143 0.500000
vt 0.557029 0.055750
vn 0.000000 -1.000000 -0.000000
vn 0.000000 -1.000000 -0.000000
vn 0.000000 -1.000000 -0.000000
vn 0.000000 -1.000000 -0.000000
vn 0.000000 0.000000 1.000000
vn 0.000000 0.000000 1.000000
vn 0.000000 0.000000 1.000000
vn 0.000000 0.000000 1.000000
vn -1.000000 0.000000 0.000000
vn -1.000000 0.000000 0.000000
vn -1.000000 0.000000 0.000000
vn -1.000000 0.000000 0.000000
vn 0.000000 1.000000 0.000000
vn 0.000000 1.000000 0.000000
vn 0.000000 1.000000 0.000000
vn 0.000000 1.000000 0.000000
vn 0.607869 -0.758110 -0.236144
vn 0.607869 -0.758110 -0.236144
vn 0.607869 -0.758110 -0.236144
vn 0.607869 -0.758110 -0.236144
vn 0.000000 -0.000000 -1.000000
vn 0.000000 -0.000000 -1.000000
vn 0.000000 -0.000000 -1.000000
vn 0.000000 -0.000000 -1.000000
s off
g polySurface319
usemtl initialShadingGroup
f 1/12/1 2/11/2 3/10/3 4/9/4
f 5/16/5 2/15/6 1/14/7 6/13/8
f 3/6/9 2/18/10 5/17/11 7/7/12
f 5/20/13 6/19/14 8/5/15 7/4/16
f 6/23/17 1/22/18 4/21/19 8/8/20
f 4/24/21 3/3/22 7/2/23 8/1/24
