# This file uses centimeters as units for non-parametric coordinates.

mtllib Base_21.mtl
g default
v 220.000000 -56.000000 -111.996948
v 220.000000 -56.000000 69.000000
v 51.999985 -56.000000 69.000000
v 52.000000 -56.000000 -111.996948
v 52.000000 0.000000 69.000000
v 220.000000 0.000000 69.000000
v 52.000000 0.000000 -111.996948
v 220.000000 0.000000 -111.996948
vt 0.853695 0.081343
vt 0.625000 0.081343
vt 0.526675 0.081343
vt 0.516599 0.287886
vt 0.577782 0.287886
vt 0.375000 0.000000
vt 0.329751 0.000000
vt 0.375000 0.014000
vt 0.329751 0.014000
vt 0.577345 0.263929
vt 0.625000 0.037960
vt 0.382250 0.954751
vt 0.382250 1.000000
vt 0.424250 1.000000
vt 0.424250 0.954751
vt 0.424250 0.014000
vt 0.424250 0.000000
vt 0.382250 0.000000
vt 0.382250 0.014000
vt 0.526675 0.037960
vt 0.719298 0.081343
vt 0.719298 0.037960
vt 0.853695 0.037960
vt 0.516599 0.263909
vn 0.000000 -1.000000 0.000000
vn 0.000000 -1.000000 -0.000000
vn 0.000000 -1.000000 -0.000000
vn 0.000000 -1.000000 -0.000000
vn 0.000000 0.000000 1.000000
vn 0.000000 0.000000 1.000000
vn 0.000000 0.000000 1.000000
vn 0.000000 0.000000 1.000000
vn 0.000000 0.000000 -1.000000
vn 0.000000 0.000000 -1.000000
vn 0.000000 0.000000 -1.000000
vn 0.000000 0.000000 -1.000000
vn -1.000000 0.000000 -0.000000
vn -1.000000 0.000000 -0.000000
vn -1.000000 0.000000 -0.000000
vn -1.000000 0.000000 0.000000
vn 0.000000 1.000000 0.000000
vn 0.000000 1.000000 0.000000
vn 0.000000 1.000000 0.000000
vn 0.000000 1.000000 0.000000
vn 1.000000 0.000000 0.000000
vn 1.000000 0.000000 0.000000
vn 1.000000 0.000000 0.000000
vn 1.000000 0.000000 0.000000
s 1
g polySurface355
usemtl initialShadingGroup
f 1/15/1 2/14/2 4/12/3
f 4/12/3 2/14/2 3/13/4
s 2
f 5/19/5 3/18/6 6/16/7
f 6/16/7 3/18/6 2/17/8
s 3
f 1/11/9 4/20/10 8/2/11
f 8/2/11 4/20/10 7/3/12
s 4
f 4/23/13 3/22/14 7/1/15
f 7/1/15 3/22/14 5/21/16
s 5
f 5/24/17 6/10/18 7/4/19
f 7/4/19 6/10/18 8/5/20
s 6
f 6/8/21 2/6/22 8/9/23
f 8/9/23 2/6/22 1/7/24
