# This file uses centimeters as units for non-parametric coordinates.

mtllib Base)16.mtl
g default
v -51.999863 -55.999996 -111.996948
v -51.999878 -56.000000 69.000000
v -220.000000 -56.000000 69.000000
v -220.000000 -56.000000 -111.996948
v -220.000000 0.000000 69.000000
v -52.000000 0.000000 69.000000
v -220.000000 0.000000 -111.996948
v -52.000000 0.000000 -111.996948
vt 0.473325 0.081343
vt 0.375000 0.081343
vt 0.422218 0.287886
vt 0.483401 0.287886
vt 0.146305 0.081343
vt 0.670249 0.014000
vt 0.625000 0.014000
vt 0.670249 -0.000000
vt 0.375000 0.037960
vt 0.422218 0.263927
vt 0.580750 0.954751
vt 0.580750 1.000000
vt 0.622750 1.000000
vt 0.622750 0.954751
vt 0.622750 0.014000
vt 0.622750 0.000000
vt 0.580750 0.000000
vt 0.580750 0.014000
vt 0.473325 0.037960
vt 0.625000 0.000000
vt 0.483401 0.263909
vt 0.146305 0.037960
vt 0.280702 0.037960
vt 0.280702 0.081343
vn 0.000000 -1.000000 0.000000
vn 0.000000 -1.000000 0.000000
vn 0.000000 -1.000000 0.000000
vn 0.000000 -1.000000 0.000000
vn 0.000000 0.000000 1.000000
vn 0.000000 0.000000 1.000000
vn 0.000000 0.000000 1.000000
vn 0.000000 0.000000 1.000000
vn 0.000000 0.000000 -1.000000
vn 0.000000 0.000000 -1.000000
vn 0.000000 0.000000 -1.000000
vn 0.000000 0.000000 -1.000000
vn -1.000000 0.000000 0.000000
vn -1.000000 0.000000 0.000000
vn -1.000000 0.000000 0.000000
vn -1.000000 0.000000 0.000000
vn 0.000000 1.000000 0.000000
vn 0.000000 1.000000 0.000000
vn 0.000000 1.000000 0.000000
vn 0.000000 1.000000 0.000000
vn 1.000000 0.000002 0.000000
vn 1.000000 0.000002 0.000000
vn 1.000000 0.000002 0.000000
vn 1.000000 0.000003 0.000000
s 1
g polySurface358
usemtl initialShadingGroup
f 1/14/1 2/13/2 4/11/3
f 4/11/3 2/13/2 3/12/4
s 2
f 5/18/5 3/17/6 6/15/7
f 6/15/7 3/17/6 2/16/8
s 3
f 1/19/9 4/9/10 8/1/11
f 8/1/11 4/9/10 7/2/12
s 4
f 4/8/13 3/20/14 7/6/15
f 7/6/15 3/20/14 5/7/16
s 5
f 5/10/17 6/21/18 7/3/19
f 7/3/19 6/21/18 8/4/20
s 6
f 6/24/21 2/23/22 8/5/23
f 8/5/23 2/23/22 1/22/24
