# This file uses centimeters as units for non-parametric coordinates.

mtllib BRail_92.mtl
g default
v 221.686036 -0.153884 624.482231
v 232.801464 -0.153884 635.597659
v 223.191521 19.495606 625.987716
v 231.295978 19.495606 634.092173
v 232.277891 19.495606 616.901346
v 240.382348 19.495606 625.005804
v 230.772405 -0.153884 615.395861
v 241.887834 -0.153884 626.511289
vt 0.375000 0.000000
vt 0.625000 0.000000
vt 0.625000 0.250000
vt 0.375000 0.250000
vt 0.625000 0.500000
vt 0.375000 0.500000
vt 0.625000 0.750000
vt 0.375000 0.750000
vt 0.625000 1.000000
vt 0.375000 1.000000
vt 0.875000 0.000000
vt 0.875000 0.250000
vt 0.125000 0.000000
vt 0.125000 0.250000
vn -0.707107 0.000000 0.707107
vn -0.707107 0.000000 0.707107
vn -0.707107 0.000000 0.707107
vn -0.707107 0.000000 0.707107
vn 0.000000 1.000000 0.000000
vn 0.000000 1.000000 0.000000
vn 0.000000 1.000000 0.000000
vn 0.000000 1.000000 0.000000
vn 0.707107 0.000000 -0.707107
vn 0.707107 0.000000 -0.707107
vn 0.707107 0.000000 -0.707107
vn 0.707107 0.000000 -0.707107
vn 0.000000 -1.000000 0.000000
vn 0.000000 -1.000000 0.000000
vn 0.000000 -1.000000 0.000000
vn 0.000000 -1.000000 0.000000
vn 0.702992 0.107722 0.702992
vn 0.702992 0.107722 0.702992
vn 0.702992 0.107722 0.702992
vn 0.702992 0.107722 0.702992
vn -0.702992 0.107722 -0.702992
vn -0.702992 0.107722 -0.702992
vn -0.702992 0.107722 -0.702992
vn -0.702992 0.107722 -0.702992
s off
g polySurface52 group86 polySurface24
usemtl initialShadingGroup
f 1/1/1 2/2/2 4/3/3 3/4/4
f 3/4/5 4/3/6 6/5/7 5/6/8
f 5/6/9 6/5/10 8/7/11 7/8/12
f 7/8/13 8/7/14 2/9/15 1/10/16
f 2/2/17 8/11/18 6/12/19 4/3/20
f 7/13/21 1/1/22 3/4/23 5/14/24
