# This file uses centimeters as units for non-parametric coordinates.

mtllib Climbable_04.mtl
g default
v -437.323639 49.000011 125.000015
v -437.323639 100.000000 125.000000
v -337.323639 100.000000 125.000000
v -337.323639 0.000000 125.000000
v -346.000000 0.000000 125.000000
v -346.000000 49.000000 125.000000
v -437.323639 0.000000 125.000015
v -337.323639 0.000000 150.000000
v -337.323639 100.000000 150.000000
v -437.323639 100.000000 150.000000
v -437.323639 0.000000 150.000000
vt 0.375000 0.000000
vt 0.625000 0.000000
vt 0.375000 0.250000
vt 0.625000 0.250000
vt 0.375000 1.000000
vt 0.625000 1.000000
vt 0.238051 0.181522
vt 0.275263 0.181522
vt 0.238051 0.250000
vt 0.687500 0.000000
vt 0.687500 0.122500
vt 0.396691 0.937500
vt 0.625000 0.937500
vt 0.413500 0.737750
vt 0.413500 0.750000
vt 0.415669 0.750000
vt 0.415669 0.725000
vt 0.390669 0.725000
vt 0.390669 0.737750
vt 0.275263 0.250000
vt 0.625000 0.312500
vt 0.375000 0.312500
vt 0.687500 0.250000
vt 0.375000 0.937500
vt 0.312500 0.250000
vt 0.312500 0.000000
vn -0.000000 -0.000000 -1.000000
vn -0.000000 -0.000000 -1.000000
vn -0.000000 -0.000000 -1.000000
vn 0.000000 0.000000 -1.000000
vn 0.000000 0.000000 -1.000000
vn 0.000000 0.000000 -1.000000
vn -0.000000 0.000000 -1.000000
vn -0.000000 0.000000 -1.000000
vn -0.000000 0.000000 -1.000000
vn -0.000000 0.000000 -1.000000
vn 0.000000 0.000000 1.000000
vn 0.000000 0.000000 1.000000
vn 0.000000 0.000000 1.000000
vn 0.000000 0.000000 1.000000
vn 0.000000 1.000000 0.000000
vn 0.000000 1.000000 0.000000
vn 0.000000 1.000000 0.000000
vn 0.000000 1.000000 0.000000
vn -1.000000 0.000000 0.000000
vn -1.000000 0.000000 0.000000
vn -1.000000 0.000000 0.000000
vn -1.000000 0.000000 0.000000
vn -1.000000 0.000000 0.000000
vn 0.000000 -1.000000 0.000000
vn 0.000000 -1.000000 0.000000
vn 0.000000 -1.000000 0.000000
vn 0.000000 -1.000000 0.000000
vn 0.000000 -1.000000 0.000000
vn 1.000000 0.000000 0.000000
vn 1.000000 0.000000 0.000000
vn 1.000000 0.000000 0.000000
vn 1.000000 0.000000 0.000000
s 1
g polySurface309
usemtl initialShadingGroup
f 1/19/1 2/18/2 6/14/3
f 4/16/4 5/15/5 3/17/6
f 5/15/5 6/14/3 3/17/6
f 2/18/2 3/17/6 6/14/3
s off
f 1/9/7 6/20/8 5/8/9 7/7/10
f 8/1/11 9/3/12 10/4/13 11/2/14
f 3/22/15 2/21/16 10/4/17 9/3/18
s 3
f 2/23/19 1/11/20 10/4/21
f 10/4/21 1/11/20 11/2/22
f 1/11/20 7/10/23 11/2/22
s 4
f 4/24/24 8/5/25 5/12/26
f 8/5/25 11/6/27 5/12/26
f 5/12/26 11/6/27 7/13/28
s off
f 4/26/29 3/25/30 9/3/31 8/1/32
