# This file uses centimeters as units for non-parametric coordinates.

mtllib Floor_17.mtl
g default
v 231.000000 -81.000000 69.000000
v 231.000000 -56.000000 69.000000
v 231.000000 -55.999985 -262.000000
v 231.000000 -81.000000 -262.000000
v 287.000000 -55.999985 -262.000000
v 287.000000 -55.999969 69.000000
v 287.000000 -80.999985 69.000000
v 287.000000 -80.999985 -262.000000
vt 0.375000 0.349737
vt 0.247758 0.081343
vt 0.358586 0.081343
vt 0.358586 0.074746
vt 0.625000 0.462541
vt 0.375000 0.462541
vt 0.724737 0.100410
vt 0.749341 0.100410
vt 0.292250 0.103000
vt 0.375000 0.103000
vt 0.292250 0.109250
vt 0.625000 0.349737
vt 0.247758 0.074746
vt 0.375000 0.109250
vt 0.749341 0.151639
vt 0.427000 0.917250
vt 0.441000 0.917250
vt 0.441000 1.000000
vt 0.285000 0.023250
vt 0.285000 0.029500
vt 0.367750 0.029500
vt 0.367750 0.023250
vt 0.427000 1.000000
vt 0.724737 0.151639
vn -1.000000 0.000000 0.000000
vn -1.000000 0.000000 0.000000
vn -1.000000 0.000000 0.000000
vn -1.000000 0.000000 0.000000
vn 1.000000 0.000000 0.000000
vn 1.000000 0.000000 0.000000
vn 1.000000 0.000000 0.000000
vn 1.000000 0.000000 0.000000
vn 0.000000 -1.000000 0.000000
vn 0.000000 -1.000000 0.000000
vn 0.000000 -1.000000 0.000000
vn 0.000000 -1.000000 0.000000
vn -0.000000 0.000000 -1.000000
vn -0.000000 0.000000 -1.000000
vn -0.000000 0.000000 -1.000000
vn 0.000000 0.000000 -1.000000
vn 0.000000 1.000000 0.000000
vn -0.000000 1.000000 -0.000000
vn -0.000000 1.000000 0.000000
vn -0.000001 1.000000 -0.000000
vn 0.000000 0.000000 1.000000
vn -0.000000 0.000000 1.000000
vn -0.000000 0.000000 1.000000
vn -0.000000 0.000000 1.000000
s 1
g polySurface399
usemtl initialShadingGroup
f 1/22/1 2/21/2 4/19/3
f 4/19/3 2/21/2 3/20/4
s 2
f 6/14/5 7/10/6 5/11/7
f 5/11/7 7/10/6 8/9/8
s 3
f 1/6/9 4/1/10 7/5/11
f 7/5/11 4/1/10 8/12/12
s 4
f 4/4/13 3/3/14 8/13/15
f 8/13/15 3/3/14 5/2/16
s 5
f 3/16/17 2/23/18 5/17/19
f 5/17/19 2/23/18 6/18/20
s 6
f 2/24/21 1/7/22 6/15/23
f 6/15/23 1/7/22 7/8/24
