# This file uses centimeters as units for non-parametric coordinates.

mtllib Floor_03.mtl
g default
v -158.000000 -130.000000 353.000000
v -158.000000 -293.661255 353.000000
v -287.000000 -190.226242 353.000000
v -287.000000 -130.000000 353.000000
v -158.000000 -80.999985 499.944580
v -158.000000 -81.000000 500.000000
v -158.000000 -173.249023 500.000000
v -158.000000 -130.000000 499.944702
v -158.000000 -80.999985 353.000000
v -287.000000 -81.000000 353.000000
v -273.049316 -81.000000 500.000000
v -287.000000 -81.000000 486.344116
vt 0.224737 0.250000
vt 0.275263 0.250000
vt 0.275263 0.000000
vt 0.224737 0.250000
vt 0.224737 0.000000
vt 0.261321 0.000000
vt 0.261321 0.250000
vt 0.404000 0.837736
vt 0.404000 0.801000
vt 0.436250 0.801000
vt 0.246086 0.182750
vt 0.212750 0.182750
vt 0.212750 0.170500
vt 0.663743 0.571432
vt 0.436250 0.834336
vt 0.463762 0.621000
vt 0.432762 0.837750
vt 0.666218 0.571432
vt 0.407250 0.545250
vt 0.407250 0.560307
vt 0.375000 0.586165
vt 0.375000 0.545250
vt 0.161736 0.204750
vt 0.125000 0.204750
vt 0.125000 0.163835
vt 0.161750 0.193938
vt 0.161750 0.217000
vt 0.161736 0.217000
vt 0.224737 0.000000
vt 0.645880 0.652784
vt 0.592694 0.758973
vt 0.615498 0.667756
vt 0.435000 0.621000
vt 0.435000 0.644062
vt 0.404000 0.837750
vt 0.212750 0.155443
vn 0.000000 0.000000 -1.000000
vn 0.000000 0.000000 -1.000000
vn 0.000000 0.000000 -1.000000
vn 0.000000 0.000000 -1.000000
vn 1.000000 0.000000 0.000000
vn 1.000000 0.000000 0.000000
vn 1.000000 0.000000 0.000000
vn 1.000000 0.000000 0.000000
vn 1.000000 0.000000 0.000000
vn 1.000000 0.000000 0.000000
vn 1.000000 0.000000 0.000000
vn 1.000000 0.000000 0.000000
vn 1.000000 0.000000 0.000000
vn 1.000000 0.000000 0.000000
vn 0.000000 0.000000 -1.000000
vn 0.000000 0.000000 -1.000000
vn 0.000000 0.000000 -1.000000
vn 0.000000 0.000000 -1.000000
vn -0.527116 -0.657398 0.538495
vn -0.527116 -0.657398 0.538495
vn -0.527116 -0.657398 0.538495
vn -0.527116 -0.657398 0.538495
vn -0.527116 -0.657398 0.538495
vn 0.000000 0.000000 1.000000
vn 0.000000 0.000000 1.000000
vn 0.000000 0.000000 1.000000
vn 0.000000 1.000000 0.000000
vn -0.000000 1.000000 0.000000
vn -0.000000 1.000000 0.000000
vn -0.000000 1.000000 0.000000
vn -0.000000 1.000000 0.000000
vn -0.000000 1.000000 0.000000
vn -1.000000 0.000000 0.000000
vn -1.000000 0.000000 0.000000
vn -1.000000 0.000000 0.000000
vn -1.000000 0.000000 0.000000
s off
g polySurface424
usemtl initialShadingGroup
f 1/22/1 2/21/2 3/20/3 4/19/4
s 1
f 5/28/5 6/27/6 8/23/7
f 6/27/6 7/26/8 8/23/7
f 8/23/7 7/26/8 1/24/9
f 7/26/8 2/25/10 1/24/9
s off
f 5/1/11 8/29/12 1/6/13 9/7/14
f 10/2/15 9/4/16 1/5/17 4/3/18
s 2
f 2/31/19 7/30/20 3/32/21
f 3/32/21 7/30/20 12/14/22
f 7/30/20 11/18/23 12/14/22
s off
f 7/34/24 6/33/25 11/16/26
s 3
f 6/35/27 5/8/28 11/17/29
f 9/9/30 10/10/31 5/8/28
f 10/10/31 12/15/32 5/8/28
f 5/8/28 12/15/32 11/17/29
s off
f 4/13/33 3/36/34 12/11/35 10/12/36
