# This file uses centimeters as units for non-parametric coordinates.

mtllib Floor_12.mtl
g default
v -287.000000 -130.000000 173.999878
v -287.000000 -336.667175 174.000000
v -287.000000 -321.412445 125.000000
v -287.000000 -130.000000 125.000000
v -287.000000 -126.000000 125.000000
v -287.000000 -80.999985 125.000000
v -287.000000 -80.999985 168.000000
v -287.000000 -80.999985 173.999878
v -479.000000 -81.000031 125.000000
v -355.000000 -130.000000 125.000000
v -355.000000 -129.890121 125.000000
v -479.000000 -129.890121 125.000000
v -479.000000 -126.000000 125.000000
v -479.000000 -167.546524 125.000000
v -479.000000 -182.801254 174.000000
v -479.000000 -81.000000 174.000000
vt 0.224737 0.000000
vt 0.174210 0.000225
vt 0.224737 0.000225
vt 0.252445 0.000000
vt 0.252445 0.100410
vt 0.662750 0.054527
vt 0.650500 0.041300
vt 0.412750 0.109767
vt 0.415324 0.661296
vt 0.558000 0.760750
vt 0.558000 0.762250
vt 0.510000 0.762250
vt 0.510000 0.750000
vt 0.558000 0.750000
vt 0.174210 0.100410
vt 0.428750 0.114167
vt 0.412750 0.118250
vt 0.428750 0.118250
vt 0.662750 0.066750
vt 0.650500 0.066750
vt 0.411500 0.249000
vt 0.411500 0.249027
vt 0.380500 0.249027
vt 0.380500 0.239613
vt 0.428500 0.249000
vt 0.662750 0.055500
vt 0.662750 0.045113
vt 0.174210 0.008197
vt 0.252445 0.008197
vt 0.415324 0.647836
vt 0.702000 0.124500
vt 0.703500 0.124500
vt 0.714250 0.124500
vt 0.714250 0.113250
vt 0.714250 0.112250
vt 0.714250 0.064397
vt 0.702000 0.060583
vt 0.702000 0.112250
vt 0.428500 0.201147
vt 0.449265 0.797060
vt 0.449265 0.783600
vt 0.428750 0.096944
vn 1.000000 -0.000000 0.000000
vn 1.000000 -0.000000 0.000000
vn 1.000000 -0.000000 0.000000
vn 1.000000 0.000000 0.000000
vn 1.000000 0.000000 0.000000
vn 1.000000 0.000000 0.000000
vn 1.000000 0.000000 0.000000
vn 1.000000 0.000000 0.000000
vn 0.000000 0.000000 -1.000000
vn -0.000000 0.000000 -1.000000
vn -0.000000 0.000000 -1.000000
vn 0.000000 0.000000 -1.000000
vn 0.000000 0.000000 -1.000000
vn 0.000000 0.000000 -1.000000
vn -0.000000 0.000000 -1.000000
vn 0.000000 0.000000 -1.000000
vn -1.000000 0.000000 0.000000
vn -1.000000 0.000000 0.000000
vn -1.000000 0.000000 0.000000
vn -1.000000 0.000000 0.000000
vn -1.000000 0.000000 0.000000
vn -1.000000 0.000000 0.000000
vn -0.000000 1.000000 0.000000
vn -0.000000 1.000000 -0.000001
vn -0.000000 1.000000 0.000000
vn -0.000000 1.000000 -0.000001
vn -0.000000 1.000000 -0.000001
vn 0.000000 0.000000 -1.000000
vn 0.000000 0.000000 -1.000000
vn 0.000000 0.000000 -1.000000
vn 0.000000 0.000000 -1.000000
vn 0.000000 0.000000 -1.000000
vn 0.000000 0.000000 -1.000000
vn -0.607679 -0.758286 -0.236070
vn -0.607679 -0.758286 -0.236070
vn -0.607679 -0.758286 -0.236070
vn -0.607679 -0.758286 -0.236070
vn 0.000000 0.000001 1.000000
vn 0.000001 0.000000 1.000000
vn 0.000001 0.000000 1.000000
vn 0.000001 0.000000 1.000000
vn 0.000001 0.000000 1.000000
s 1
g polySurface396
usemtl initialShadingGroup
f 2/37/1 3/36/2 1/38/3
f 3/36/2 4/35/4 1/38/3
f 1/38/3 4/35/4 8/31/5
f 4/35/4 5/34/6 8/31/5
f 8/31/5 5/34/6 7/32/7
f 5/34/6 6/33/8 7/32/7
s 2
f 9/15/9 6/5/10 13/28/11
f 4/4/12 10/1/13 5/29/14
f 10/1/13 11/3/15 5/29/14
f 12/2/16 13/28/11 11/3/15
f 13/28/11 6/5/10 11/3/15
f 6/5/10 5/29/14 11/3/15
s 4
f 15/7/17 16/20/18 14/27/19
f 14/27/19 16/20/18 12/6/20
f 12/6/20 16/20/18 13/26/21
f 16/20/18 9/19/22 13/26/21
s 5
f 6/14/23 9/13/24 7/10/25
f 16/12/26 8/11/27 9/13/24
f 9/13/24 8/11/27 7/10/25
s 6
f 4/25/28 3/39/29 10/21/30
f 12/23/31 11/22/32 14/24/33
f 11/22/32 10/21/30 14/24/33
f 3/39/29 14/24/33 10/21/30
s off
f 3/41/34 2/40/35 15/9/36 14/30/37
s 8
f 2/42/38 1/16/39 15/8/40
f 15/8/40 1/16/39 16/17/41
f 1/16/39 8/18/42 16/17/41
