# This file uses centimeters as units for non-parametric coordinates.

mtllib Floor_01.mtl
g default
v 273.049316 -81.000000 500.000000
v 95.354309 -223.479691 500.000000
v 95.351044 -81.000000 500.000000
v 95.317230 -80.999985 673.976501
vt 0.260477 0.250000
vt 0.388329 0.881244
vt 0.388338 0.837750
vt 0.697745 0.571432
vt 0.616845 0.113273
vt 0.822928 -0.018626
vt 0.419339 0.656620
vt 0.463762 0.621000
vt 0.536574 -0.012145
vt 0.666218 0.571432
vt 0.634806 0.697081
vt 0.432762 0.837750
vn 0.000000 0.000000 -1.000000
vn 0.000000 0.000000 -1.000000
vn 0.000000 0.000000 -1.000000
vn -1.000000 -0.000023 -0.000194
vn -1.000000 -0.000023 -0.000194
vn -1.000000 -0.000023 -0.000194
vn 0.527116 -0.657398 0.538495
vn 0.527116 -0.657398 0.538495
vn 0.527116 -0.657398 0.538495
vn 0.000000 1.000000 -0.000000
vn 0.000000 1.000000 -0.000000
vn 0.000000 1.000000 -0.000000
s off
g polySurface408
usemtl initialShadingGroup
f 1/8/1 2/7/2 3/1/3
f 2/9/4 4/6/5 3/5/6
f 2/11/7 1/10/8 4/4/9
f 1/12/10 3/3/11 4/2/12
