# This file uses centimeters as units for non-parametric coordinates.

mtllib Ledge_01.mtl
g default
v -116.000000 -25.183231 -295.080522
v -116.000000 -25.183231 -444.857797
v -116.000015 0.000007 -444.857813
v -116.000000 0.000000 -295.080553
v -219.999954 0.000007 -295.080522
v -220.000015 0.000007 -444.857813
v -220.000000 -25.183231 -444.857797
v -220.000000 -25.183231 -295.080522
vt 0.641414 0.081343
vt 0.752242 0.081343
vt 0.752242 0.061817
vt 0.641414 0.061817
vt 0.358586 0.061817
vt 0.247758 0.061817
vt 0.247758 0.081343
vt 0.358586 0.081343
vt 0.275263 0.250000
vt 0.275263 0.000000
vt 0.224737 0.000000
vt 0.224737 0.250000
vt 0.775263 0.250000
vt 0.775263 0.000000
vt 0.724737 0.000000
vt 0.724737 0.250000
vt 0.625000 0.849737
vt 0.375000 0.849737
vt 0.375000 0.900263
vt 0.625000 0.900263
vt 0.625000 0.349737
vt 0.375000 0.349737
vt 0.375000 0.400263
vt 0.625000 0.400263
vn 1.000000 0.000001 -0.000000
vn 1.000000 0.000001 -0.000000
vn 1.000000 0.000001 -0.000000
vn 1.000000 0.000001 -0.000000
vn -1.000000 0.000001 0.000000
vn -1.000000 0.000001 0.000000
vn -1.000000 0.000001 0.000000
vn -1.000000 0.000001 0.000000
vn 0.000000 0.000001 1.000000
vn 0.000000 0.000001 1.000000
vn 0.000000 0.000001 1.000000
vn 0.000000 0.000001 1.000000
vn 0.000000 -0.000001 -1.000000
vn 0.000000 -0.000001 -1.000000
vn 0.000000 -0.000001 -1.000000
vn 0.000000 -0.000001 -1.000000
vn 0.000000 -1.000000 0.000000
vn 0.000000 -1.000000 0.000000
vn 0.000000 -1.000000 0.000000
vn 0.000000 -1.000000 0.000000
vn 0.000000 1.000000 0.000000
vn 0.000000 1.000000 0.000000
vn 0.000000 1.000000 0.000000
vn 0.000000 1.000000 0.000000
s off
g polySurface192 group110
usemtl initialShadingGroup
f 1/4/1 2/3/2 3/2/3 4/1/4
f 5/8/5 6/7/6 7/6/7 8/5/8
f 5/12/9 8/11/10 1/10/11 4/9/12
f 3/16/13 2/15/14 7/14/15 6/13/16
f 2/20/17 1/19/18 8/18/19 7/17/20
f 6/24/21 5/23/22 4/22/23 3/21/24
