# This file uses centimeters as units for non-parametric coordinates.

mtllib Base_17_B.mtl
g default
v 93.886703 -223.925995 500.000000
v 272.234985 -81.000000 500.000000
v 93.886101 -81.000000 500.000000
v 93.962799 -81.000000 674.109009
vt 0.086124 0.086124
vt 0.392345 0.086124
vt 0.086124 0.392345
vt 0.564593 0.086124
vt 0.870813 0.086124
vt 0.564593 0.392345
vt 0.086124 0.564593
vt 0.392345 0.564593
vt 0.086124 0.870813
vt 0.564593 0.564593
vt 0.870813 0.564593
vt 0.564593 0.870813
vn 0.000000 0.000000 -1.000000
vn 0.000000 0.000000 -1.000000
vn 0.000000 0.000000 -1.000000
vn -1.000000 -0.000004 0.000441
vn -1.000000 -0.000004 0.000441
vn -1.000000 -0.000004 0.000441
vn 0.000000 1.000000 0.000000
vn 0.000000 1.000000 0.000000
vn 0.000000 1.000000 0.000000
vn 0.526645 -0.657167 0.539238
vn 0.526645 -0.657167 0.539238
vn 0.526645 -0.657167 0.539238
s off
g polySurface405_0
usemtl lambert25SG
f 2/1/1 1/3/2 3/2/3
f 1/4/4 4/6/5 3/5/6
f 2/7/7 3/9/8 4/8/9
f 2/10/10 4/12/11 1/11/12
