# This file uses centimeters as units for non-parametric coordinates.

mtllib Base_21_A.mtl
g default
v -287.000000 -130.000000 174.000000
v -287.000000 -336.666992 174.000000
v -287.000000 -321.411987 125.000000
v -287.000000 -130.000000 125.000000
v -287.000000 -126.000000 125.000000
v -287.000000 -81.000000 125.000000
v -287.000000 -81.000000 168.000000
v -287.000000 -81.000000 174.000000
v -479.000000 -81.000000 125.000000
v -355.000000 -130.000000 125.000000
v -355.000000 -129.889999 125.000000
v -479.000000 -129.889999 125.000000
v -479.000000 -126.000000 125.000000
v -479.000000 -167.546997 125.000000
v -479.000000 -182.800995 174.000000
v -479.000000 -81.000000 174.000000
vt 0.029752 0.165289
vt 0.135537 0.165289
vt 0.029752 0.271074
vt 0.029752 0.330579
vt 0.135537 0.330579
vt 0.029752 0.436364
vt 0.029752 0.495868
vt 0.135537 0.495868
vt 0.029752 0.601653
vt 0.029752 0.661157
vt 0.135537 0.661157
vt 0.029752 0.766942
vt 0.029752 0.826446
vt 0.135537 0.826446
vt 0.029752 0.932231
vt 0.195041 0.165289
vt 0.300826 0.165289
vt 0.195041 0.271074
vt 0.360331 0.165289
vt 0.466116 0.165289
vt 0.360331 0.271074
vt 0.525620 0.165289
vt 0.631405 0.165289
vt 0.525620 0.271074
vt 0.690909 0.165289
vt 0.796694 0.165289
vt 0.690909 0.271074
vt 0.856198 0.165289
vt 0.961983 0.165289
vt 0.856198 0.271074
vt 0.195041 0.330579
vt 0.300826 0.330579
vt 0.195041 0.436364
vt 0.195041 0.495868
vt 0.300826 0.495868
vt 0.195041 0.601653
vt 0.195041 0.661157
vt 0.300826 0.661157
vt 0.195041 0.766942
vt 0.195041 0.826446
vt 0.300826 0.826446
vt 0.195041 0.932231
vt 0.360331 0.330579
vt 0.466116 0.330579
vt 0.360331 0.436364
vt 0.525620 0.330579
vt 0.631405 0.330579
vt 0.525620 0.436364
vt 0.690909 0.330579
vt 0.796694 0.330579
vt 0.690909 0.436364
vt 0.856198 0.330579
vt 0.961983 0.330579
vt 0.856198 0.436364
vt 0.360331 0.495868
vt 0.466116 0.495868
vt 0.360331 0.601653
vt 0.360331 0.661157
vt 0.466116 0.661157
vt 0.360331 0.766942
vt 0.360331 0.826446
vt 0.466116 0.826446
vt 0.360331 0.932231
vt 0.525620 0.495868
vt 0.631405 0.495868
vt 0.525620 0.601653
vt 0.690909 0.495868
vt 0.796694 0.495868
vt 0.690909 0.601653
vt 0.014876 0.014876
vt 0.120661 0.014876
vt 0.120661 0.120661
vt 0.014876 0.120661
vt 0.856198 0.495868
vt 0.961983 0.495868
vt 0.856198 0.601653
vt 0.525620 0.661157
vt 0.631405 0.661157
vt 0.525620 0.766942
vt 0.525620 0.826446
vt 0.631405 0.826446
vt 0.525620 0.932231
vn 1.000000 0.000000 0.000000
vn 1.000000 0.000000 0.000000
vn 1.000000 0.000000 0.000000
vn 1.000000 0.000000 0.000000
vn 1.000000 0.000000 0.000000
vn 1.000000 0.000000 0.000000
vn 1.000000 0.000000 0.000000
vn 1.000000 0.000000 0.000000
vn 1.000000 0.000000 0.000000
vn 1.000000 0.000000 0.000000
vn 1.000000 0.000000 0.000000
vn 1.000000 0.000000 0.000000
vn 1.000000 0.000000 0.000000
vn 1.000000 0.000000 0.000000
vn 1.000000 0.000000 0.000000
vn 1.000000 0.000000 0.000000
vn 1.000000 0.000000 0.000000
vn 1.000000 0.000000 0.000000
vn 0.000000 0.000000 -1.000000
vn 0.000000 0.000000 -1.000000
vn 0.000000 0.000000 -1.000000
vn 0.000000 0.000000 -1.000000
vn 0.000000 0.000000 -1.000000
vn 0.000000 0.000000 -1.000000
vn 0.000000 0.000000 -1.000000
vn 0.000000 0.000000 -1.000000
vn 0.000000 0.000000 -1.000000
vn 0.000000 0.000000 -1.000000
vn 0.000000 0.000000 -1.000000
vn 0.000000 0.000000 -1.000000
vn 0.000000 0.000000 -1.000000
vn 0.000000 0.000000 -1.000000
vn 0.000000 0.000000 -1.000000
vn 0.000000 0.000000 -1.000000
vn 0.000000 0.000000 -1.000000
vn 0.000000 0.000000 -1.000000
vn -1.000000 0.000000 0.000000
vn -1.000000 0.000000 0.000000
vn -1.000000 0.000000 0.000000
vn -1.000000 0.000000 0.000000
vn -1.000000 0.000000 0.000000
vn -1.000000 0.000000 0.000000
vn -1.000000 0.000000 0.000000
vn -1.000000 0.000000 0.000000
vn -1.000000 0.000000 0.000000
vn -1.000000 0.000000 0.000000
vn -1.000000 0.000000 0.000000
vn -1.000000 0.000000 0.000000
vn 0.000000 1.000000 0.000000
vn 0.000000 1.000000 0.000000
vn 0.000000 1.000000 0.000000
vn 0.000000 1.000000 0.000000
vn 0.000000 1.000000 0.000000
vn 0.000000 1.000000 0.000000
vn 0.000000 1.000000 0.000000
vn 0.000000 1.000000 0.000000
vn 0.000000 1.000000 0.000000
vn 0.000000 0.000000 -1.000000
vn 0.000000 0.000000 -1.000000
vn 0.000000 0.000000 -1.000000
vn 0.000000 0.000000 -1.000000
vn 0.000000 0.000000 -1.000000
vn 0.000000 0.000000 -1.000000
vn 0.000000 0.000000 -1.000000
vn 0.000000 0.000000 -1.000000
vn 0.000000 0.000000 -1.000000
vn 0.000000 0.000000 -1.000000
vn 0.000000 0.000000 -1.000000
vn 0.000000 0.000000 -1.000000
vn -0.607678 -0.758287 -0.236067
vn -0.607678 -0.758287 -0.236067
vn -0.607678 -0.758287 -0.236067
vn -0.607678 -0.758287 -0.236067
vn 0.000000 0.000000 1.000000
vn 0.000000 0.000000 1.000000
vn 0.000000 0.000000 1.000000
vn 0.000000 0.000000 1.000000
vn 0.000000 0.000000 1.000000
vn 0.000000 0.000000 1.000000
vn 0.000000 0.000000 1.000000
vn 0.000000 0.000000 1.000000
vn 0.000000 0.000000 1.000000
s off
g Floor_12:polySurface396_0
usemtl lambert36SG
f 2/1/1 3/2/2 1/3/3
f 3/4/4 4/5/5 1/6/6
f 1/7/7 4/8/8 8/9/9
f 4/10/10 5/11/11 8/12/12
f 8/13/13 5/14/14 7/15/15
f 5/16/16 6/17/17 7/18/18
f 9/19/19 6/20/20 13/21/21
f 4/22/22 10/23/23 5/24/24
f 10/25/25 11/26/26 5/27/27
f 12/28/28 13/29/29 11/30/30
f 13/31/31 6/32/32 11/33/33
f 6/34/34 5/35/35 11/36/36
f 15/37/37 16/38/38 14/39/39
f 14/40/40 16/41/41 12/42/42
f 12/43/43 16/44/44 13/45/45
f 16/46/46 9/47/47 13/48/48
f 6/49/49 9/50/50 7/51/51
f 16/52/52 8/53/53 9/54/54
f 9/55/55 8/56/56 7/57/57
f 4/58/58 3/59/59 10/60/60
f 12/61/61 11/62/62 14/63/63
f 11/64/64 10/65/65 14/66/66
f 3/67/67 14/68/68 10/69/69
f 3/70/70 2/71/71 15/72/72 14/73/73
f 2/74/74 1/75/75 15/76/76
f 15/77/77 1/78/78 16/79/79
f 1/80/80 8/81/81 16/82/82
