# This file uses centimeters as units for non-parametric coordinates.

mtllib Base_02_B.mtl
g default
v 220.000000 -105.000000 -551.997009
v 220.000000 -105.000000 -551.900024
v 294.087006 -105.000000 -551.900024
v 228.046005 -105.000000 -721.900024
v 84.000000 -105.000000 -721.900024
v 84.000000 -105.000000 -551.997009
v 425.109985 0.000000 -551.900024
v 220.000000 0.000000 -551.900024
v 84.000000 0.000000 -721.900024
v 84.000000 0.000000 -551.997009
v 359.069000 0.000000 -721.900024
v 220.000000 0.000000 -551.997009
vt 0.255754 0.255754
vt 0.419437 0.255754
vt 0.255754 0.419437
vt 0.511509 0.255754
vt 0.675192 0.255754
vt 0.511509 0.419437
vt 0.767263 0.255754
vt 0.930946 0.255754
vt 0.767263 0.419437
vt 0.255754 0.511509
vt 0.419437 0.511509
vt 0.255754 0.675192
vt 0.186701 0.023018
vt 0.186701 0.186701
vt 0.023018 0.186701
vt 0.023018 0.023018
vt 0.652174 0.023018
vt 0.815857 0.023018
vt 0.815857 0.186701
vt 0.652174 0.186701
vt 0.023018 0.232737
vt 0.186701 0.232737
vt 0.186701 0.396419
vt 0.023018 0.396419
vt 0.023018 0.442455
vt 0.186701 0.442455
vt 0.186701 0.606138
vt 0.023018 0.606138
vt 0.255754 0.767263
vt 0.419437 0.767263
vt 0.255754 0.930946
vt 0.511509 0.511509
vt 0.675192 0.511509
vt 0.511509 0.675192
vt 0.767263 0.511509
vt 0.930946 0.511509
vt 0.767263 0.675192
vt 0.511509 0.767263
vt 0.675192 0.767263
vt 0.511509 0.930946
vt 0.232737 0.023018
vt 0.396419 0.023018
vt 0.396419 0.186701
vt 0.232737 0.186701
vt 0.442455 0.023018
vt 0.606138 0.023018
vt 0.606138 0.186701
vt 0.442455 0.186701
vn 0.000000 -1.000000 0.000000
vn 0.000000 -1.000000 0.000000
vn 0.000000 -1.000000 0.000000
vn 0.000000 -1.000000 0.000000
vn 0.000000 -1.000000 0.000000
vn 0.000000 -0.000000 0.000000
vn 0.000000 -1.000000 0.000000
vn 0.000000 -1.000000 0.000000
vn 0.000000 -1.000000 0.000000
vn 0.000000 -1.000000 0.000000
vn 0.000000 -1.000000 0.000000
vn 0.000000 -1.000000 0.000000
vn 0.000000 0.000000 1.000000
vn 0.000000 0.000000 1.000000
vn 0.000000 0.000000 1.000000
vn 0.000000 0.000000 1.000000
vn -1.000000 0.000000 0.000000
vn -1.000000 0.000000 0.000000
vn -1.000000 0.000000 0.000000
vn -1.000000 0.000000 0.000000
vn 0.000000 0.000000 -1.000000
vn 0.000000 0.000000 -1.000000
vn 0.000000 0.000000 -1.000000
vn 0.000000 0.000000 -1.000000
vn 0.607679 -0.758286 -0.236069
vn 0.607679 -0.758286 -0.236069
vn 0.607679 -0.758286 -0.236069
vn 0.607679 -0.758286 -0.236069
vn 0.000000 1.000000 0.000000
vn 0.000000 1.000000 0.000000
vn 0.000000 1.000000 0.000000
vn 0.000000 1.000000 0.000000
vn 0.000000 1.000000 0.000000
vn 0.000000 1.000000 0.000000
vn 0.000000 1.000000 0.000000
vn 0.000000 1.000000 0.000000
vn 0.000000 1.000000 0.000000
vn 0.000000 1.000000 0.000000
vn 0.000000 1.000000 0.000000
vn 0.000000 1.000000 0.000000
vn -1.000000 0.000000 0.000000
vn -1.000000 0.000000 0.000000
vn -1.000000 0.000000 0.000000
vn -1.000000 0.000000 0.000000
vn 0.000000 0.000000 1.000000
vn 0.000000 0.000000 1.000000
vn 0.000000 0.000000 1.000000
vn 0.000000 0.000000 1.000000
s off
g polySurface324_0
usemtl lambert50SG
f 3/1/1 2/3/2 4/2/3
f 2/4/4 1/6/5 4/5/6
f 4/7/7 1/9/8 5/8/9
f 1/10/10 6/12/11 5/11/12
f 7/13/13 8/16/14 2/15/15 3/14/16
f 6/17/17 10/20/18 9/19/19 5/18/20
f 5/21/21 9/24/22 11/23/23 4/22/24
f 4/25/25 11/28/26 7/27/27 3/26/28
f 7/29/29 11/31/30 8/30/31
f 8/32/32 11/34/33 12/33/34
f 11/35/35 9/37/36 12/36/37
f 12/38/38 9/40/39 10/39/40
f 2/41/41 8/44/42 12/43/43 1/42/44
f 1/45/45 12/48/46 10/47/47 6/46/48
