# This file uses centimeters as units for non-parametric coordinates.

mtllib Base_26_A.mtl
g Floor_28:default1
v -231.000000 -130.000000 297.000000
v -231.000000 -281.000000 297.000000
v -231.000000 -381.752991 174.000000
v -231.000000 -130.000000 174.000000
v -95.397598 -389.727997 297.000000
v -231.000000 -81.000000 297.000000
v -158.000000 -81.000000 297.000000
v -158.000000 -130.000000 297.000000
v -157.945007 -130.000000 297.000000
v -157.945007 -81.000000 297.000000
v -102.000000 -81.000000 297.000000
v -95.389900 -81.000000 297.000000
v -95.391502 -130.000000 297.000000
v -231.000000 -81.000000 174.000000
v -95.412903 -81.000000 174.000000
v -95.423798 -490.460999 174.000000
vt 0.014218 0.014218
vt 0.115324 0.014218
vt 0.115324 0.115324
vt 0.014218 0.115324
vt 0.143760 0.014218
vt 0.244866 0.014218
vt 0.244866 0.115324
vt 0.143760 0.115324
vt 0.273302 0.014218
vt 0.374408 0.014218
vt 0.374408 0.115324
vt 0.273302 0.115324
vt 0.402844 0.014218
vt 0.503949 0.014218
vt 0.503949 0.115324
vt 0.402844 0.115324
vt 0.028436 0.157978
vt 0.129542 0.157978
vt 0.028436 0.259084
vt 0.028436 0.315956
vt 0.129542 0.315956
vt 0.028436 0.417062
vt 0.028436 0.473934
vt 0.129542 0.473934
vt 0.028436 0.575040
vt 0.028436 0.631912
vt 0.129542 0.631912
vt 0.028436 0.733017
vt 0.028436 0.789889
vt 0.129542 0.789889
vt 0.028436 0.890995
vt 0.186414 0.157978
vt 0.287520 0.157978
vt 0.186414 0.259084
vt 0.344392 0.157978
vt 0.445498 0.157978
vt 0.344392 0.259084
vt 0.502370 0.157978
vt 0.603476 0.157978
vt 0.502370 0.259084
vt 0.660348 0.157978
vt 0.761453 0.157978
vt 0.660348 0.259084
vt 0.818325 0.157978
vt 0.919431 0.157978
vt 0.818325 0.259084
vt 0.186414 0.315956
vt 0.287520 0.315956
vt 0.186414 0.417062
vt 0.186414 0.473934
vt 0.287520 0.473934
vt 0.186414 0.575040
vt 0.186414 0.631912
vt 0.287520 0.631912
vt 0.186414 0.733017
vt 0.186414 0.789889
vt 0.287520 0.789889
vt 0.186414 0.890995
vt 0.344392 0.315956
vt 0.546604 0.315956
vt 0.344392 0.518167
vt 0.603476 0.315956
vt 0.704581 0.315956
vt 0.603476 0.417062
vt 0.761453 0.315956
vt 0.963665 0.315956
vt 0.761453 0.518167
vt 0.344392 0.575040
vt 0.546604 0.575040
vt 0.344392 0.777251
vt 0.344392 0.834123
vt 0.445498 0.834123
vt 0.344392 0.935229
vt 0.603476 0.575040
vt 0.805687 0.575040
vt 0.603476 0.777251
vn -1.000000 0.000000 0.000000
vn -1.000000 0.000000 0.000000
vn -1.000000 0.000000 0.000000
vn -1.000000 0.000000 0.000000
vn -0.000000 0.000000 1.000000
vn -0.000000 0.000000 1.000000
vn -0.000000 0.000000 1.000000
vn 0.000000 0.000000 1.000000
vn 0.000000 0.000000 1.000000
vn 0.000000 0.000000 1.000000
vn 0.000000 0.000000 1.000000
vn 0.000000 0.000000 1.000000
vn 0.000000 0.000000 1.000000
vn 0.000000 0.000000 1.000000
vn 0.000000 0.000000 1.000000
vn 0.000000 0.000000 1.000000
vn 0.000000 0.000000 1.000000
vn 0.000000 0.000000 1.000000
vn 0.000000 0.000000 1.000000
vn 0.000000 0.000000 1.000000
vn 0.000000 0.000000 1.000000
vn 0.000000 0.000000 1.000000
vn 0.000000 0.000000 1.000000
vn 0.000000 0.000000 1.000000
vn 0.000000 0.000000 1.000000
vn 0.000000 0.000000 1.000000
vn 0.000000 0.000000 1.000000
vn 0.000000 0.000000 1.000000
vn 0.000000 0.000000 1.000000
vn 0.000000 0.000000 1.000000
vn 0.000000 0.000000 1.000000
vn -1.000000 0.000000 0.000000
vn -1.000000 0.000000 0.000000
vn -1.000000 0.000000 0.000000
vn -1.000000 0.000000 0.000000
vn 0.000000 1.000000 0.000000
vn 0.000000 1.000000 0.000000
vn 0.000000 1.000000 0.000000
vn 0.000000 1.000000 0.000000
vn 0.000000 1.000000 0.000000
vn 0.000000 1.000000 0.000000
vn 0.000000 1.000000 0.000144
vn 0.000000 1.000000 0.000144
vn 0.000000 1.000000 0.000144
vn 0.000000 1.000000 0.000000
vn 0.000000 1.000000 0.000000
vn 0.000000 1.000000 0.000000
vn 0.000000 1.000000 -0.000000
vn 0.000000 1.000000 -0.000000
vn 0.000000 1.000000 -0.000000
vn 0.000000 0.000000 1.000000
vn 0.000000 0.000000 1.000000
vn 0.000000 0.000000 1.000000
vn 0.000000 0.000000 1.000000
vn 0.000000 0.000000 -1.000000
vn 0.000000 0.000000 -1.000000
vn 0.000000 0.000000 -1.000000
vn 0.000000 0.000000 -1.000000
vn 0.000000 0.000000 -1.000000
vn 0.000000 0.000000 -1.000000
vn 0.000000 0.000000 -1.000000
vn 0.000000 0.000000 -1.000000
vn 0.000000 0.000000 -1.000000
vn -0.527114 -0.657398 0.538497
vn -0.527114 -0.657398 0.538497
vn -0.527114 -0.657398 0.538497
vn -0.527114 -0.657398 0.538497
vn 1.000000 -0.000027 -0.000191
vn 1.000000 -0.000027 -0.000191
vn 1.000000 -0.000027 -0.000191
vn 1.000000 -0.000033 -0.000187
vn 1.000000 -0.000033 -0.000187
vn 1.000000 -0.000033 -0.000187
vn 1.000000 -0.000023 -0.000183
vn 1.000000 -0.000023 -0.000183
vn 1.000000 -0.000023 -0.000183
s off
g Floor_28:Floor_10_polySurface426 Floor_28:group249_0 Floor_28:polySurface1
usemtl lambert28SG
f 1/8/1 4/5/2 3/6/3 2/7/4
f 5/17/5 13/18/6 2/19/7
f 6/20/8 1/21/9 7/22/10
f 7/23/11 1/24/12 8/25/13
f 1/26/14 2/27/15 8/28/16
f 10/29/17 9/30/18 11/31/19
f 12/32/20 11/33/21 13/34/22
f 11/35/23 9/36/24 13/37/25
f 8/38/26 2/39/27 9/40/28
f 2/41/29 13/42/30 9/43/31
f 14/1/32 4/2/33 1/3/34 6/4/35
f 6/44/36 7/45/37 14/46/38
f 14/47/39 7/48/40 15/49/41
f 7/50/42 10/51/43 15/52/44
f 12/53/45 15/54/46 11/55/47
f 15/56/48 10/57/49 11/58/50
f 7/14/51 8/15/52 9/16/53 10/13/54
f 16/59/55 3/60/56 15/61/57
f 14/62/58 15/63/59 4/64/60
f 4/65/61 15/66/62 3/67/63
f 3/9/64 16/10/65 5/11/66 2/12/67
f 16/68/68 15/69/69 5/70/70
f 12/71/71 13/72/72 15/73/73
f 5/74/74 15/75/75 13/76/76
