# This file uses centimeters as units for non-parametric coordinates.

mtllib Base_18_B.mtl
g default
v 158.000000 -130.000000 353.000000
v 158.000000 -293.661011 353.000000
v 287.000000 -190.225998 353.000000
v 287.000000 -130.000000 353.000000
v 158.000000 -81.000000 499.945007
v 158.000000 -81.000000 500.000000
v 158.000000 -173.248993 500.000000
v 158.000000 -130.000000 499.945007
v 158.000000 -81.000000 353.000000
v 287.000000 -81.000000 353.000000
v 273.049011 -81.000000 500.000000
v 287.000000 -81.000000 486.343994
vt 0.757720 0.173397
vt 0.605701 0.173397
vt 0.605701 0.021378
vt 0.757720 0.021378
vt 0.042755 0.237530
vt 0.194774 0.237530
vt 0.042755 0.389549
vt 0.042755 0.475059
vt 0.194774 0.475059
vt 0.042755 0.627078
vt 0.042755 0.712589
vt 0.194774 0.712589
vt 0.042755 0.864608
vt 0.280285 0.237530
vt 0.432304 0.237530
vt 0.280285 0.389549
vt 0.368171 0.021378
vt 0.368171 0.173397
vt 0.216152 0.173397
vt 0.216152 0.021378
vt 0.173397 0.173397
vt 0.021378 0.173397
vt 0.021378 0.021378
vt 0.173397 0.021378
vt 0.517815 0.237530
vt 0.669834 0.237530
vt 0.517815 0.389549
vt 0.755344 0.237530
vt 0.907363 0.237530
vt 0.755344 0.389549
vt 0.280285 0.475059
vt 0.432304 0.475059
vt 0.280285 0.627078
vt 0.280285 0.712589
vt 0.432304 0.712589
vt 0.280285 0.864608
vt 0.517815 0.475059
vt 0.669834 0.475059
vt 0.517815 0.627078
vt 0.755344 0.475059
vt 0.907363 0.475059
vt 0.755344 0.627078
vt 0.517815 0.712589
vt 0.669834 0.712589
vt 0.517815 0.864608
vt 0.755344 0.712589
vt 0.907363 0.712589
vt 0.755344 0.864608
vt 0.410926 0.021378
vt 0.562945 0.021378
vt 0.562945 0.173397
vt 0.410926 0.173397
vn 0.000000 0.000000 -1.000000
vn 0.000000 0.000000 -1.000000
vn 0.000000 0.000000 -1.000000
vn 0.000000 0.000000 -1.000000
vn -1.000000 0.000000 0.000000
vn -1.000000 0.000000 0.000000
vn -1.000000 0.000000 0.000000
vn -1.000000 0.000000 0.000000
vn -1.000000 0.000000 0.000000
vn -1.000000 0.000000 0.000000
vn -1.000000 -0.000000 0.000000
vn -1.000000 -0.000000 0.000000
vn -1.000000 -0.000000 0.000000
vn -1.000000 0.000000 0.000000
vn -1.000000 0.000000 0.000000
vn -1.000000 0.000000 0.000000
vn -1.000000 0.000000 0.000000
vn -1.000000 0.000000 0.000000
vn -1.000000 0.000000 0.000000
vn -1.000000 0.000000 0.000000
vn 0.000000 0.000000 -1.000000
vn 0.000000 0.000000 -1.000000
vn 0.000000 0.000000 -1.000000
vn 0.000000 0.000000 -1.000000
vn 0.527116 -0.657398 0.538494
vn 0.527116 -0.657398 0.538494
vn 0.527116 -0.657398 0.538494
vn 0.527116 -0.657398 0.538494
vn 0.527116 -0.657398 0.538494
vn 0.527116 -0.657398 0.538494
vn 0.527113 -0.657395 0.538501
vn 0.527114 -0.657395 0.538501
vn 0.527114 -0.657395 0.538501
vn 0.000000 0.000000 1.000000
vn 0.000000 0.000000 1.000000
vn 0.000000 0.000000 1.000000
vn 0.000000 1.000000 0.000000
vn 0.000000 1.000000 0.000000
vn 0.000000 1.000000 0.000000
vn 0.000000 1.000000 0.000000
vn 0.000000 1.000000 0.000000
vn 0.000000 1.000000 0.000000
vn 0.000000 1.000000 0.000000
vn 0.000000 1.000000 0.000000
vn 0.000000 1.000000 0.000000
vn 0.000000 1.000000 0.000000
vn 0.000000 1.000000 0.000000
vn 0.000000 1.000000 0.000000
vn 1.000000 0.000000 0.000000
vn 1.000000 0.000000 0.000000
vn 1.000000 0.000000 0.000000
vn 1.000000 0.000000 0.000000
s off
g polySurface424_0
usemtl lambert48SG
f 1/1/1 4/4/2 3/3/3 2/2/4
f 5/5/5 8/7/6 6/6/7
f 6/8/8 8/10/9 7/9/10
f 8/11/11 1/13/12 7/12/13
f 7/14/14 1/16/15 2/15/16
f 5/17/17 9/20/18 1/19/19 8/18/20
f 10/21/21 4/24/22 1/23/23 9/22/24
f 2/25/25 3/27/26 7/26/27
f 3/28/28 12/30/29 7/29/30
f 7/31/31 12/33/32 11/32/33
f 7/34/34 11/36/35 6/35/36
f 6/37/37 11/39/38 5/38/39
f 9/40/40 5/42/41 10/41/42
f 10/43/43 5/45/44 12/44/45
f 5/46/46 11/48/47 12/47/48
f 4/49/49 10/52/50 12/51/51 3/50/52
