# This file uses centimeters as units for non-parametric coordinates.

mtllib Base_15_B.mtl
g default
v 231.000000 -8.000000 69.000000
v 52.000000 -7.999980 69.000000
v 52.000000 -8.000010 125.000000
v 231.000000 -8.000000 125.000000
v 346.000000 -8.000030 125.000000
v 346.000000 0.000031 125.000000
v 346.000000 0.000000 69.000000
v 346.000000 -8.000000 69.000000
v 52.000000 0.000000 125.000000
v 52.000000 0.000000 69.000000
v 220.000000 0.000000 69.000000
v 287.000000 0.000031 69.000000
v 287.000000 -8.000000 69.000000
vt 0.016423 0.016423
vt 0.133212 0.016423
vt 0.133212 0.133212
vt 0.016423 0.133212
vt 0.582117 0.133212
vt 0.465328 0.133212
vt 0.465328 0.016423
vt 0.582117 0.016423
vt 0.032847 0.182482
vt 0.266423 0.182482
vt 0.032847 0.416058
vt 0.032847 0.481752
vt 0.266423 0.481752
vt 0.032847 0.715328
vt 0.032847 0.781022
vt 0.149635 0.781022
vt 0.032847 0.897810
vt 0.332117 0.182482
vt 0.448905 0.182482
vt 0.332117 0.299270
vt 0.432482 0.016423
vt 0.432482 0.133212
vt 0.315693 0.133212
vt 0.315693 0.016423
vt 0.514599 0.182482
vt 0.631387 0.182482
vt 0.514599 0.299270
vt 0.697080 0.182482
vt 0.813869 0.182482
vt 0.697080 0.299270
vt 0.332117 0.364964
vt 0.448905 0.364964
vt 0.332117 0.481752
vt 0.332117 0.547445
vt 0.448905 0.547445
vt 0.332117 0.664234
vt 0.514599 0.364964
vt 0.748175 0.364964
vt 0.514599 0.598540
vt 0.332117 0.729927
vt 0.448905 0.729927
vt 0.332117 0.846715
vt 0.166058 0.133212
vt 0.166058 0.016423
vt 0.282847 0.016423
vt 0.282847 0.133212
vt 0.813869 0.364964
vt 0.930657 0.364964
vt 0.813869 0.481752
vt 0.514599 0.664234
vt 0.631387 0.664234
vt 0.514599 0.781022
vt 0.514599 0.846715
vt 0.631387 0.846715
vt 0.514599 0.963504
vt 0.697080 0.664234
vt 0.813869 0.664234
vt 0.697080 0.781022
vn -0.000000 -1.000000 -0.000000
vn -0.000000 -1.000000 -0.000000
vn -0.000000 -1.000000 -0.000000
vn -0.000000 -1.000000 -0.000000
vn 1.000000 0.000000 0.000000
vn 1.000000 0.000000 0.000000
vn 1.000000 0.000000 0.000000
vn 1.000000 0.000000 0.000000
vn -0.000000 1.000000 -0.000001
vn -0.000000 1.000000 -0.000001
vn -0.000000 1.000000 -0.000001
vn 0.000001 1.000000 0.000003
vn 0.000001 1.000000 0.000003
vn 0.000001 1.000000 0.000003
vn -0.000000 1.000000 -0.000001
vn -0.000000 1.000000 -0.000001
vn -0.000000 1.000000 -0.000001
vn 0.000000 1.000000 0.000000
vn 0.000000 1.000000 0.000000
vn 0.000000 1.000000 0.000000
vn -0.000000 0.000000 -1.000000
vn -0.000000 0.000000 -1.000000
vn -0.000000 0.000000 -1.000000
vn -0.000000 0.000000 -1.000000
vn -0.000000 -1.000000 0.000000
vn -0.000000 -1.000000 0.000000
vn -0.000000 -1.000000 0.000000
vn 0.000000 -1.000000 -0.000001
vn 0.000000 -1.000000 -0.000001
vn 0.000000 -1.000000 -0.000001
vn 0.000000 -1.000000 -0.000001
vn 0.000000 -1.000000 -0.000001
vn 0.000000 -1.000000 -0.000001
vn 0.000000 0.000000 1.000000
vn 0.000000 0.000000 1.000000
vn 0.000000 0.000000 1.000000
vn -0.000000 0.000000 1.000000
vn -0.000000 0.000000 1.000000
vn -0.000000 0.000000 1.000000
vn 0.000000 0.000000 1.000000
vn 0.000000 0.000000 1.000000
vn 0.000000 0.000000 1.000000
vn -1.000000 0.000000 0.000000
vn -1.000000 0.000000 0.000000
vn -1.000000 0.000000 0.000000
vn -1.000000 0.000000 0.000000
vn 0.000000 0.000000 -1.000000
vn 0.000000 0.000000 -1.000000
vn 0.000000 0.000000 -1.000000
vn 0.000000 0.000000 -1.000000
vn 0.000000 0.000000 -1.000000
vn 0.000000 0.000000 -1.000000
vn 0.000000 0.000000 -1.000000
vn 0.000000 0.000000 -1.000000
vn 0.000000 0.000000 -1.000000
vn 0.000000 0.000000 -1.000000
vn 0.000000 0.000000 -1.000000
vn 0.000000 0.000000 -1.000000
s off
g polySurface382_0
usemtl lambert19SG
f 1/1/1 4/4/2 3/3/3 2/2/4
f 5/5/5 8/8/6 7/7/7 6/6/8
f 6/9/9 7/11/10 9/10/11
f 7/12/12 12/14/13 9/13/14
f 12/15/15 11/17/16 9/16/17
f 9/18/18 11/20/19 10/19/20
f 7/21/21 8/24/22 13/23/23 12/22/24
f 4/25/25 1/27/26 5/26/27
f 1/28/28 13/30/29 5/29/30
f 5/31/31 13/33/32 8/32/33
f 3/34/34 4/36/35 9/35/36
f 9/37/37 4/39/38 6/38/39
f 4/40/40 5/42/41 6/41/42
f 3/43/43 9/46/44 10/45/45 2/44/46
f 2/47/47 10/49/48 1/48/49
f 10/50/50 11/52/51 1/51/52
f 11/53/53 12/55/54 1/54/55
f 1/56/56 12/58/57 13/57/58
