# This file uses centimeters as units for non-parametric coordinates.

mtllib Base_06_B.mtl
g default
v 220.000000 0.000000 -111.997002
v 220.000000 -0.000004 69.000000
v 220.000000 -56.000000 69.000000
v 220.000000 -56.000000 -111.997002
v 231.000000 -8.000000 69.000000
v 231.000000 -56.000000 69.000000
v 287.000000 0.000031 69.000000
v 287.000000 -8.000000 69.000000
v 220.000000 -56.000000 -341.000000
v 287.000000 -56.000000 69.000000
v 287.000000 -56.000000 -262.000000
v 231.000000 -56.000000 -262.000000
v 231.000000 -56.000000 -302.000000
v 287.000000 -56.000000 -302.000000
v 287.000000 -56.000000 -341.000000
v 287.000000 -56.000000 -396.899994
v 231.000000 -56.000000 -396.899994
v 231.000000 -56.000000 -341.000000
v 220.000000 -56.000000 -396.899994
v 287.000000 0.000000 -396.899994
v 220.000000 0.000000 -396.899994
vt 0.011920 0.011920
vt 0.096689 0.011920
vt 0.096689 0.096689
vt 0.011920 0.096689
vt 0.023841 0.132450
vt 0.108609 0.132450
vt 0.023841 0.217219
vt 0.023841 0.264901
vt 0.108609 0.264901
vt 0.023841 0.349669
vt 0.023841 0.397351
vt 0.108609 0.397351
vt 0.023841 0.482119
vt 0.023841 0.529801
vt 0.108609 0.529801
vt 0.023841 0.614570
vt 0.023841 0.662252
vt 0.108609 0.662252
vt 0.023841 0.747020
vt 0.023841 0.794702
vt 0.108609 0.794702
vt 0.023841 0.879470
vt 0.156291 0.132450
vt 0.241060 0.132450
vt 0.156291 0.217219
vt 0.288742 0.132450
vt 0.373510 0.132450
vt 0.288742 0.217219
vt 0.421192 0.132450
vt 0.505960 0.132450
vt 0.421192 0.217219
vt 0.553642 0.132450
vt 0.638411 0.132450
vt 0.553642 0.217219
vt 0.686093 0.132450
vt 0.770861 0.132450
vt 0.686093 0.217219
vt 0.818543 0.132450
vt 0.903311 0.132450
vt 0.818543 0.217219
vt 0.156291 0.264901
vt 0.241060 0.264901
vt 0.156291 0.349669
vt 0.156291 0.397351
vt 0.241060 0.397351
vt 0.156291 0.482119
vt 0.156291 0.529801
vt 0.241060 0.529801
vt 0.156291 0.614570
vt 0.422517 0.011920
vt 0.422517 0.096689
vt 0.337748 0.096689
vt 0.337748 0.011920
vt 0.313907 0.011920
vt 0.313907 0.096689
vt 0.229139 0.096689
vt 0.229139 0.011920
vt 0.156291 0.662252
vt 0.241060 0.662252
vt 0.156291 0.747020
vt 0.156291 0.794702
vt 0.241060 0.794702
vt 0.156291 0.879470
vt 0.288742 0.264901
vt 0.373510 0.264901
vt 0.288742 0.349669
vt 0.205298 0.011920
vt 0.205298 0.096689
vt 0.120530 0.096689
vt 0.120530 0.011920
vt 0.288742 0.397351
vt 0.458278 0.397351
vt 0.288742 0.566887
vt 0.288742 0.614570
vt 0.458278 0.614570
vt 0.288742 0.784106
vt 0.421192 0.264901
vt 0.505960 0.264901
vt 0.421192 0.349669
vt 0.553642 0.264901
vt 0.638411 0.264901
vt 0.553642 0.349669
vt 0.686093 0.264901
vt 0.770861 0.264901
vt 0.686093 0.349669
vt 0.818543 0.264901
vt 0.903311 0.264901
vt 0.818543 0.349669
vt 0.505960 0.397351
vt 0.675497 0.397351
vt 0.505960 0.566887
vt 0.723179 0.397351
vt 0.892715 0.397351
vt 0.723179 0.566887
vt 0.505960 0.614570
vt 0.675497 0.614570
vt 0.505960 0.784106
vt 0.723179 0.614570
vt 0.892715 0.614570
vt 0.723179 0.784106
vt 0.288742 0.831788
vt 0.373510 0.831788
vt 0.288742 0.916556
vt 0.505960 0.831788
vt 0.590728 0.831788
vt 0.505960 0.916556
vn -1.000000 0.000000 0.000000
vn -1.000000 0.000000 0.000000
vn -1.000000 0.000000 0.000000
vn -1.000000 0.000000 0.000000
vn 0.000000 0.000000 1.000000
vn 0.000000 0.000000 1.000000
vn 0.000000 0.000000 1.000000
vn 0.000000 0.000000 1.000000
vn 0.000000 0.000000 1.000000
vn 0.000000 0.000000 1.000000
vn -0.000000 0.000000 1.000000
vn -0.000000 0.000000 1.000000
vn -0.000000 0.000000 1.000000
vn 0.000000 0.000000 1.000000
vn 0.000000 0.000000 1.000000
vn 0.000000 0.000000 1.000000
vn 0.000000 -1.000000 0.000000
vn 0.000000 -1.000000 0.000000
vn 0.000000 -1.000000 0.000000
vn 0.000000 -1.000000 0.000000
vn 0.000000 -1.000000 0.000000
vn 0.000000 -1.000000 0.000000
vn 0.000000 -1.000000 0.000000
vn 0.000000 -1.000000 0.000000
vn 0.000000 -1.000000 0.000000
vn 0.000000 -1.000000 0.000000
vn 0.000000 -1.000000 0.000000
vn 0.000000 -1.000000 0.000000
vn 0.000000 -1.000000 0.000000
vn 0.000000 -1.000000 0.000000
vn 0.000000 -1.000000 0.000000
vn 0.000000 -1.000000 0.000000
vn 0.000000 -1.000000 0.000000
vn 0.000000 -1.000000 0.000000
vn 0.000000 -1.000000 0.000000
vn 0.000000 -1.000000 0.000000
vn 0.000000 -1.000000 0.000000
vn 0.000000 -1.000000 0.000000
vn 0.000000 -1.000000 0.000000
vn 0.000000 -1.000000 0.000000
vn 0.000000 -1.000000 0.000000
vn 0.000000 -1.000000 0.000000
vn 0.000000 -1.000000 0.000000
vn 0.000000 -1.000000 0.000000
vn 0.000000 -1.000000 0.000000
vn 0.000000 -1.000000 0.000000
vn 0.000000 -1.000000 0.000000
vn 0.000000 -1.000000 0.000000
vn 0.000000 -1.000000 0.000000
vn 0.000000 -1.000000 0.000000
vn 0.000000 -1.000000 0.000000
vn 0.000000 -1.000000 0.000000
vn 0.000000 -1.000000 0.000000
vn 0.000000 -1.000000 0.000000
vn 0.000000 -1.000000 0.000000
vn 0.000000 -1.000000 0.000000
vn 0.000000 -1.000000 0.000000
vn 0.000000 0.000000 -1.000000
vn 0.000000 0.000000 -1.000000
vn 0.000000 0.000000 -1.000000
vn 0.000000 0.000000 -1.000000
vn 0.000000 0.000000 -1.000000
vn 0.000000 0.000000 -1.000000
vn 0.000000 0.000000 -1.000000
vn 0.000000 0.000000 -1.000000
vn 0.000000 0.000000 -1.000000
vn 0.000000 0.000000 1.000000
vn 0.000000 0.000000 1.000000
vn 0.000000 0.000000 1.000000
vn 0.000000 0.000000 1.000000
vn -0.000001 1.000000 -0.000000
vn -0.000001 1.000000 -0.000000
vn -0.000001 1.000000 -0.000000
vn 0.000000 1.000000 0.000000
vn 0.000000 1.000000 0.000000
vn 0.000000 1.000000 0.000000
vn 0.000000 1.000000 0.000000
vn 0.000000 1.000000 0.000000
vn 0.000000 1.000000 0.000000
vn -1.000000 0.000000 0.000000
vn -1.000000 0.000000 0.000000
vn -1.000000 0.000000 0.000000
vn -1.000000 0.000000 0.000000
vn -1.000000 0.000000 0.000000
vn -1.000000 0.000000 0.000000
vn -1.000000 0.000000 0.000000
vn -1.000000 0.000000 0.000000
vn -1.000000 0.000000 0.000000
vn 1.000000 0.000000 0.000000
vn 1.000000 0.000000 0.000000
vn 1.000000 0.000000 0.000000
vn 1.000000 0.000000 0.000000
vn 1.000000 0.000000 0.000000
vn 1.000000 0.000000 0.000000
vn 1.000000 0.000001 0.000000
vn 1.000000 0.000001 0.000000
vn 1.000000 0.000001 0.000000
vn 1.000000 0.000000 0.000000
vn 1.000000 0.000000 0.000000
vn 1.000000 0.000000 0.000000
vn 1.000000 0.000000 0.000000
vn 1.000000 0.000000 0.000000
vn 1.000000 0.000000 0.000000
vn 1.000000 0.000000 0.000000
vn 1.000000 0.000000 0.000000
vn 1.000000 0.000000 0.000000
s off
g polySurface346_0
usemtl lambert15SG
f 1/1/1 4/4/2 3/3/3 2/2/4
f 6/5/5 5/7/6 3/6/7
f 3/8/8 5/10/9 2/9/10
f 2/11/11 5/13/12 7/12/13
f 5/14/14 8/16/15 7/15/16
f 9/17/17 18/19/18 4/18/19
f 3/20/20 4/22/21 6/21/22
f 10/23/23 6/25/24 11/24/25
f 6/26/26 4/28/27 11/27/28
f 11/29/29 4/31/30 12/30/31
f 14/32/32 13/34/33 15/33/34
f 16/35/35 15/37/36 17/36/37
f 17/38/38 15/40/39 18/39/40
f 15/41/41 13/43/42 18/42/43
f 18/44/44 13/46/45 4/45/46
f 4/47/47 13/49/48 12/48/49
f 17/50/50 18/53/51 9/52/52 19/51/53
f 11/54/54 12/57/55 13/56/56 14/55/57
f 16/58/58 17/60/59 20/59/60
f 21/61/61 20/63/62 19/62/63
f 20/64/64 17/66/65 19/65/66
f 10/67/67 8/70/68 5/69/69 6/68/70
f 7/71/71 20/73/72 2/72/73
f 2/74/74 20/76/75 1/75/76
f 1/77/77 20/79/78 21/78/79
f 4/80/80 1/82/81 9/81/82
f 19/83/83 9/85/84 21/84/85
f 9/86/86 1/88/87 21/87/88
f 7/89/89 8/91/90 20/90/91
f 20/92/92 8/94/93 16/93/94
f 16/95/95 8/97/96 15/96/97
f 15/98/98 8/100/99 14/99/100
f 14/101/101 8/103/102 11/102/103
f 8/104/104 10/106/105 11/105/106
