# This file uses centimeters as units for non-parametric coordinates.

mtllib Base_10_B.mtl
g default
v 231.000000 -56.000000 -262.000000
v 231.000000 -56.000000 69.000000
v 231.000000 -81.000000 69.000000
v 231.000000 -81.000000 -262.000000
v 287.000000 -56.000000 69.000000
v 287.000000 -56.000000 -262.000000
v 287.000000 -81.000000 -262.000000
v 287.000000 -81.000000 69.000000
vt 0.044665 0.044665
vt 0.203474 0.044665
vt 0.044665 0.203474
vt 0.292804 0.044665
vt 0.451613 0.044665
vt 0.292804 0.203474
vt 0.540943 0.044665
vt 0.699752 0.044665
vt 0.540943 0.203474
vt 0.789082 0.044665
vt 0.947891 0.044665
vt 0.789082 0.203474
vt 0.044665 0.292804
vt 0.203474 0.292804
vt 0.044665 0.451613
vt 0.044665 0.540943
vt 0.203474 0.540943
vt 0.044665 0.699752
vt 0.044665 0.789082
vt 0.203474 0.789082
vt 0.044665 0.947891
vt 0.292804 0.292804
vt 0.451613 0.292804
vt 0.292804 0.451613
vt 0.540943 0.292804
vt 0.699752 0.292804
vt 0.540943 0.451613
vt 0.789082 0.292804
vt 0.947891 0.292804
vt 0.789082 0.451613
vt 0.292804 0.540943
vt 0.451613 0.540943
vt 0.292804 0.699752
vt 0.292804 0.789082
vt 0.451613 0.789082
vt 0.292804 0.947891
vn -1.000000 0.000000 0.000000
vn -1.000000 0.000000 0.000000
vn -1.000000 0.000000 0.000000
vn -1.000000 0.000000 0.000000
vn -1.000000 0.000000 0.000000
vn -1.000000 0.000000 0.000000
vn 1.000000 0.000000 0.000000
vn 1.000000 0.000000 0.000000
vn 1.000000 0.000000 0.000000
vn 1.000000 0.000000 0.000000
vn 1.000000 0.000000 0.000000
vn 1.000000 0.000000 0.000000
vn 0.000000 0.000000 1.000000
vn 0.000000 0.000000 1.000000
vn 0.000000 0.000000 1.000000
vn 0.000000 0.000000 1.000000
vn 0.000000 0.000000 1.000000
vn 0.000000 0.000000 1.000000
vn 0.000000 1.000000 0.000000
vn 0.000000 1.000000 0.000000
vn 0.000000 1.000000 0.000000
vn 0.000000 1.000000 0.000000
vn 0.000000 1.000000 0.000000
vn 0.000000 1.000000 0.000000
vn 0.000000 0.000000 -1.000000
vn 0.000000 0.000000 -1.000000
vn 0.000000 0.000000 -1.000000
vn 0.000000 0.000000 -1.000000
vn 0.000000 0.000000 -1.000000
vn 0.000000 0.000000 -1.000000
vn 0.000000 -1.000000 0.000000
vn 0.000000 -1.000000 0.000000
vn 0.000000 -1.000000 0.000000
vn 0.000000 -1.000000 0.000000
vn 0.000000 -1.000000 0.000000
vn 0.000000 -1.000000 0.000000
s off
g polySurface402_0
usemtl lambert37SG
f 2/1/1 1/3/2 3/2/3
f 1/4/4 4/6/5 3/5/6
f 7/7/7 6/9/8 8/8/9
f 6/10/10 5/12/11 8/11/12
f 3/13/13 8/15/14 2/14/15
f 8/16/16 5/18/17 2/17/18
f 2/19/19 5/21/20 1/20/21
f 5/22/22 6/24/23 1/23/24
f 1/25/25 6/27/26 4/26/27
f 6/28/28 7/30/29 4/29/30
f 7/31/31 8/33/32 4/32/33
f 8/34/34 3/36/35 4/35/36
