# This file uses centimeters as units for non-parametric coordinates.

mtllib Base_11_A.mtl
g default
v -479.000000 0.000000 125.000000
v -479.000000 0.000000 174.000000
v -479.000000 -182.800995 174.000000
v -479.000000 -150.113007 69.000000
v -479.000000 -129.889999 69.000000
v -479.000000 -129.889999 125.000000
v -479.000000 -56.000000 69.000000
v -479.000000 0.000015 69.000000
v -707.106995 0.000000 174.000000
v -666.317017 0.000000 69.000000
v -596.437012 -56.000000 69.000000
vt 0.032847 0.032847
vt 0.149635 0.032847
vt 0.032847 0.149635
vt 0.215328 0.032847
vt 0.332117 0.032847
vt 0.215328 0.149635
vt 0.397810 0.032847
vt 0.514599 0.032847
vt 0.397810 0.149635
vt 0.580292 0.032847
vt 0.697080 0.032847
vt 0.580292 0.149635
vt 0.762774 0.032847
vt 0.879562 0.032847
vt 0.762774 0.149635
vt 0.032847 0.215328
vt 0.149635 0.215328
vt 0.032847 0.332117
vt 0.032847 0.397810
vt 0.149635 0.397810
vt 0.032847 0.514599
vt 0.032847 0.580292
vt 0.149635 0.580292
vt 0.032847 0.697080
vt 0.032847 0.762774
vt 0.149635 0.762774
vt 0.032847 0.879562
vt 0.215328 0.215328
vt 0.332117 0.215328
vt 0.215328 0.332117
vt 0.397810 0.215328
vt 0.514599 0.215328
vt 0.397810 0.332117
vt 0.580292 0.215328
vt 0.697080 0.215328
vt 0.580292 0.332117
vt 0.762774 0.215328
vt 0.879562 0.215328
vt 0.762774 0.332117
vt 0.215328 0.397810
vt 0.332117 0.397810
vt 0.215328 0.514599
vt 0.215328 0.580292
vt 0.332117 0.580292
vt 0.215328 0.697080
vt 0.215328 0.762774
vt 0.332117 0.762774
vt 0.215328 0.879562
vt 0.397810 0.397810
vt 0.514599 0.397810
vt 0.397810 0.514599
vt 0.580292 0.397810
vt 0.697080 0.397810
vt 0.580292 0.514599
vn 1.000000 0.000000 0.000000
vn 1.000000 0.000000 0.000000
vn 1.000000 0.000000 0.000000
vn 1.000000 0.000000 0.000000
vn 1.000000 0.000000 0.000000
vn 1.000000 0.000000 0.000000
vn 1.000000 0.000000 0.000000
vn 1.000000 0.000000 0.000000
vn 1.000000 0.000000 0.000000
vn 1.000000 0.000000 0.000000
vn 1.000000 0.000000 0.000000
vn 1.000000 0.000000 0.000000
vn 1.000000 0.000000 0.000000
vn 1.000000 0.000000 0.000000
vn 1.000000 0.000000 0.000000
vn 1.000000 0.000000 0.000000
vn 1.000000 0.000000 0.000000
vn 1.000000 0.000000 0.000000
vn 1.000000 0.000000 0.000000
vn 1.000000 0.000000 0.000000
vn 1.000000 0.000000 0.000000
vn 0.000000 0.000000 1.000000
vn 0.000000 0.000000 1.000000
vn 0.000000 0.000000 1.000000
vn 0.000000 1.000000 0.000000
vn 0.000000 1.000000 0.000000
vn 0.000000 1.000000 0.000000
vn 0.000000 1.000000 0.000000
vn 0.000000 1.000000 0.000000
vn 0.000000 1.000000 0.000000
vn -0.000000 1.000000 0.000000
vn -0.000000 1.000000 0.000000
vn -0.000000 1.000000 0.000000
vn 0.000000 0.000000 -1.000000
vn 0.000000 0.000000 -1.000000
vn 0.000000 0.000000 -1.000000
vn 0.000000 0.000000 -1.000000
vn 0.000000 0.000000 -1.000000
vn 0.000000 0.000000 -1.000000
vn 0.000000 0.000000 -1.000000
vn 0.000000 0.000000 -1.000000
vn 0.000000 0.000000 -1.000000
vn 0.000000 0.000000 -1.000000
vn 0.000000 0.000000 -1.000000
vn 0.000000 0.000000 -1.000000
vn -0.607678 -0.758287 -0.236068
vn -0.607678 -0.758287 -0.236068
vn -0.607678 -0.758287 -0.236068
vn -0.607672 -0.758288 -0.236081
vn -0.607672 -0.758288 -0.236081
vn -0.607672 -0.758288 -0.236081
vn -0.607683 -0.758284 -0.236065
vn -0.607683 -0.758284 -0.236065
vn -0.607683 -0.758284 -0.236065
s off
g Base_57:polySurface352_0
usemtl lambert16SG
f 1/1/1 2/2/2 6/3/3
f 2/4/4 3/5/5 6/6/6
f 5/7/7 6/8/8 4/9/9
f 3/10/10 4/11/11 6/12/12
f 8/13/13 1/14/14 7/15/15
f 1/16/16 6/17/17 7/18/18
f 7/19/19 6/20/20 5/21/21
f 3/22/22 2/23/23 9/24/24
f 9/25/25 2/26/26 10/27/27
f 2/28/28 1/29/29 10/30/30
f 1/31/31 8/32/32 10/33/33
f 10/34/34 8/35/35 11/36/36
f 4/37/37 11/38/38 5/39/39
f 5/40/40 11/41/41 7/42/42
f 11/43/43 8/44/44 7/45/45
f 9/46/46 10/47/47 3/48/48
f 10/49/49 11/50/50 3/51/51
f 4/52/52 3/53/53 11/54/54
