# This file uses centimeters as units for non-parametric coordinates.

mtllib BRail_08.mtl
g BRail_08_default1
v 77.993187 -0.153884 -1399.982300
v 92.668694 -0.153884 -1405.615723
v 79.980858 19.495605 -1400.745239
v 90.681023 19.495605 -1404.852661
v 84.585907 19.495605 -1388.748779
v 95.286079 19.495605 -1392.856079
v 82.598244 -0.153884 -1387.985718
v 97.273743 -0.153884 -1393.619141
vt 0.375000 0.000000
vt 0.625000 0.000000
vt 0.625000 0.250000
vt 0.375000 0.250000
vt 0.625000 0.500000
vt 0.375000 0.500000
vt 0.625000 0.750000
vt 0.375000 0.750000
vt 0.625000 1.000000
vt 0.375000 1.000000
vt 0.875000 0.000000
vt 0.875000 0.250000
vt 0.125000 0.000000
vt 0.125000 0.250000
vn -0.358368 0.000000 -0.933580
vn -0.358368 0.000000 -0.933580
vn -0.358368 0.000000 -0.933580
vn -0.358368 0.000000 -0.933580
vn 0.000000 1.000000 0.000000
vn 0.000000 1.000000 0.000000
vn 0.000000 1.000000 0.000000
vn 0.000000 1.000000 0.000000
vn 0.358368 0.000000 0.933580
vn 0.358368 0.000000 0.933580
vn 0.358368 0.000000 0.933580
vn 0.358368 0.000000 0.933580
vn 0.000000 -1.000000 0.000000
vn 0.000000 -1.000000 0.000000
vn 0.000000 -1.000000 0.000000
vn 0.000000 -1.000000 0.000000
vn 0.928148 0.107722 -0.356283
vn 0.928148 0.107722 -0.356283
vn 0.928148 0.107722 -0.356283
vn 0.928148 0.107722 -0.356283
vn -0.928148 0.107722 0.356283
vn -0.928148 0.107722 0.356283
vn -0.928148 0.107722 0.356283
vn -0.928148 0.107722 0.356283
s off
g BRail_08_group89 BRail_08_group91 BRail_08_group95 BRail_08_polySurface24 BRail_08_polySurface144 BRail_08_polySurface1 group14
usemtl BRail_08_initialShadingGroup
f 1/1/1 3/4/2 4/3/3 2/2/4
f 3/4/5 5/6/6 6/5/7 4/3/8
f 5/6/9 7/8/10 8/7/11 6/5/12
f 7/8/13 1/10/14 2/9/15 8/7/16
f 2/2/17 4/3/18 6/12/19 8/11/20
f 7/13/21 5/14/22 3/4/23 1/1/24
g default
v 77.993187 -0.153884 -1399.982300
v 92.668694 -0.153884 -1405.615723
v 79.980858 19.495605 -1400.745239
v 90.681023 19.495605 -1404.852661
v 84.585907 19.495605 -1388.748779
v 95.286079 19.495605 -1392.856079
v 82.598244 -0.153884 -1387.985718
v 97.273743 -0.153884 -1393.619141
vt 0.375000 0.000000
vt 0.625000 0.000000
vt 0.625000 0.250000
vt 0.375000 0.250000
vt 0.625000 0.500000
vt 0.375000 0.500000
vt 0.625000 0.750000
vt 0.375000 0.750000
vt 0.625000 1.000000
vt 0.375000 1.000000
vt 0.875000 0.000000
vt 0.875000 0.250000
vt 0.125000 0.000000
vt 0.125000 0.250000
vn -0.358368 0.000000 -0.933580
vn -0.358368 0.000000 -0.933580
vn -0.358368 0.000000 -0.933580
vn -0.358368 0.000000 -0.933580
vn 0.000000 1.000000 0.000000
vn 0.000000 1.000000 0.000000
vn 0.000000 1.000000 0.000000
vn 0.000000 1.000000 0.000000
vn 0.358368 0.000000 0.933580
vn 0.358368 0.000000 0.933580
vn 0.358368 0.000000 0.933580
vn 0.358368 0.000000 0.933580
vn 0.000000 -1.000000 0.000000
vn 0.000000 -1.000000 0.000000
vn 0.000000 -1.000000 0.000000
vn 0.000000 -1.000000 0.000000
vn 0.928148 0.107722 -0.356283
vn 0.928148 0.107722 -0.356283
vn 0.928148 0.107722 -0.356283
vn 0.928148 0.107722 -0.356283
vn -0.928148 0.107722 0.356283
vn -0.928148 0.107722 0.356283
vn -0.928148 0.107722 0.356283
vn -0.928148 0.107722 0.356283
s off
g BRail_08_polySurface1 group14
f 9/15/25 11/18/26 12/17/27 10/16/28
f 11/18/29 13/20/30 14/19/31 12/17/32
f 13/20/33 15/22/34 16/21/35 14/19/36
f 15/22/37 9/24/38 10/23/39 16/21/40
f 10/16/41 12/17/42 14/26/43 16/25/44
f 15/27/45 13/28/46 11/18/47 9/15/48
