# This file uses centimeters as units for non-parametric coordinates.

mtllib Float_01_G.mtl
g Float_06_Float_06_default1
v 388.226379 56.147373 -741.226379
v 475.773621 56.147373 -741.226379
v 475.773621 56.147373 -828.773621
v 388.226379 56.147373 -828.773621
v 432.000000 34.138248 -785.000000
g Float_06_default1
v 388.226379 56.147373 -741.226379
v 475.773621 56.147373 -741.226379
v 475.773621 56.147373 -828.773621
v 388.226379 56.147373 -828.773621
v 432.000000 34.138248 -785.000000
vt 0.500000 0.000000
vt 0.250000 0.250000
vt 0.500000 0.500000
vt 0.750000 0.250000
vt 0.250000 0.500000
vt 0.375000 0.500000
vt 0.500000 0.500000
vt 0.625000 0.500000
vt 0.750000 0.500000
vt 0.500000 1.000000
vt 0.500000 0.000000
vt 0.250000 0.250000
vt 0.500000 0.500000
vt 0.750000 0.250000
vt 0.250000 0.500000
vt 0.375000 0.500000
vt 0.500000 0.500000
vt 0.625000 0.500000
vt 0.750000 0.500000
vt 0.500000 1.000000
vn 0.000000 1.000000 0.000000
vn 0.000000 1.000000 0.000000
vn 0.000000 1.000000 0.000000
vn 0.000000 1.000000 0.000000
vn 0.000000 -0.893426 0.449210
vn 0.000000 -0.893426 0.449210
vn 0.000000 -0.893426 0.449210
vn 0.449210 -0.893426 0.000000
vn 0.449210 -0.893426 0.000000
vn 0.449210 -0.893426 0.000000
vn 0.000000 -0.893426 -0.449210
vn 0.000000 -0.893426 -0.449210
vn 0.000000 -0.893426 -0.449210
vn -0.449209 -0.893427 0.000000
vn -0.449209 -0.893427 0.000000
vn -0.449209 -0.893427 0.000000
vn 0.000000 1.000000 0.000000
vn 0.000000 1.000000 0.000000
vn 0.000000 1.000000 0.000000
vn 0.000000 1.000000 0.000000
vn 0.000000 -0.893426 0.449210
vn 0.000000 -0.893426 0.449210
vn 0.000000 -0.893426 0.449210
vn 0.449210 -0.893426 0.000000
vn 0.449210 -0.893426 0.000000
vn 0.449210 -0.893426 0.000000
vn 0.000000 -0.893426 -0.449210
vn 0.000000 -0.893426 -0.449210
vn 0.000000 -0.893426 -0.449210
vn -0.449209 -0.893427 0.000000
vn -0.449209 -0.893427 0.000000
vn -0.449209 -0.893427 0.000000
s off
g Float_06_Float_06_group125 Float_06_Float_06_pPyramid23 Float_06_Float_06_polySurface1 Float_06_group236 Float_06_polySurface1 group1309
usemtl Float_06_Float_06_initialShadingGroup2
f 1/1/1 2/2/2 3/3/3 4/4/4
f 1/5/5 5/10/6 2/6/7
f 2/6/8 5/10/9 3/7/10
f 3/7/11 5/10/12 4/8/13
f 4/8/14 5/10/15 1/9/16
g Float_06_Float_06_polySurface1 Float_06_group236 Float_06_polySurface1 group1309
f 6/11/17 7/12/18 8/13/19 9/14/20
f 6/15/21 10/20/22 7/16/23
f 7/16/24 10/20/25 8/17/26
f 8/17/27 10/20/28 9/18/29
f 9/18/30 10/20/31 6/19/32
