# This file uses centimeters as units for non-parametric coordinates.

mtllib Metal_01_P.mtl
g default
v -84.000000 49.000000 -1092.950439
v 84.000000 49.000000 -1092.950439
g Climbable_01_default1
v 84.000000 105.000000 -1092.950439
g default
v -84.000000 105.000000 -1092.950439
v 84.000000 105.000000 -1151.199463
g Climbable_02:Climbable_02_default1
v -84.000000 105.000000 -1151.199463
g default
v 84.000000 49.000000 -1151.199463
v -84.000000 49.000000 -1151.199463
vt 0.375000 0.500000
vt 0.625000 0.500000
vt 0.375000 0.633333
vt 0.625000 0.633333
vt 0.521000 0.796496
vt 0.479000 0.796496
vt 0.189797 0.116667
vt 0.189797 0.250000
vt 0.810203 0.250000
vt 0.810203 0.116667
vt 0.375000 0.435203
vt 0.625000 0.435203
vt 0.625000 0.250000
vt 0.375000 0.250000
vt 0.625000 0.116667
vt 0.375000 0.116667
vt 0.625000 0.312908
vt 0.375000 0.312908
vt 0.687908 0.116667
vt 0.687908 0.250000
vt 0.312092 0.250000
vt 0.312092 0.116667
vt 0.479000 0.817287
vt 0.521000 0.817287
vn 0.000000 0.000000 1.000000
vn 0.000000 0.000000 1.000000
vn 0.000000 0.000000 1.000000
vn 0.000000 0.000000 1.000000
vn 0.000000 1.000000 0.000000
vn 0.000000 1.000000 0.000000
vn 0.000000 1.000000 0.000000
vn 0.000000 1.000000 0.000000
vn 1.000000 0.000000 0.000000
vn 1.000000 0.000000 0.000000
vn 1.000000 0.000000 0.000000
vn 1.000000 0.000000 0.000000
vn -1.000000 0.000000 0.000000
vn -1.000000 0.000000 0.000000
vn -1.000000 0.000000 0.000000
vn -1.000000 0.000000 0.000000
vn 0.000000 -1.000000 0.000000
vn 0.000000 -1.000000 0.000000
vn 0.000000 -1.000000 0.000000
vn 0.000000 -1.000000 0.000000
vn 0.000000 0.000000 -1.000000
vn 0.000000 0.000000 -1.000000
vn 0.000000 0.000000 -1.000000
vn 0.000000 0.000000 -1.000000
s off
g Climbable_01_polySurface314 Climbable_01_polySurface461 polySurface448
usemtl lambert3SG
f 1/16/1 2/15/2 3/13/3 4/14/4
g polySurface448
f 4/18/5 3/17/6 5/12/7 6/11/8
f 3/20/9 2/19/10 7/10/11 5/9/12
f 1/22/13 4/21/14 6/8/15 8/7/16
f 2/24/17 1/23/18 8/6/19 7/5/20
g Climbable_02:Climbable_02_polySurface314 Climbable_02:Climbable_02_polySurface460 Climbable_02:Climbable_02_polySurface461 Climbable_02:group1286 polySurface448
f 7/4/21 8/3/22 6/1/23 5/2/24
