# This file uses centimeters as units for non-parametric coordinates.

mtllib Metal_01_L.mtl
g default
v 346.000000 100.000000 69.000000
v 438.000000 100.000000 69.000000
v 346.000000 49.000011 69.000000
v 347.708679 49.000000 69.000000
v 438.000000 86.235054 69.000000
v 438.000000 49.000004 69.000008
v 368.515137 49.000004 69.000000
v 349.335510 49.000000 69.000000
v 346.000000 69.135796 125.000000
v 346.000000 49.000000 125.000000
v 438.000000 100.000000 125.000000
v 346.000000 100.000000 125.000000
v 438.000000 56.940666 125.000015
v 438.000000 86.710083 125.000000
v 417.911591 49.000008 125.000015
v 438.000000 49.000008 125.000015
v 438.000000 49.000015 79.531174
v 438.000000 49.000011 122.044945
v 346.000000 49.000000 108.690010
vt 0.586500 0.025000
vt 0.609500 0.025000
vt 0.586500 0.012250
vt 0.586927 0.012250
vt 0.609500 0.025000
vt 0.609500 0.021559
vt 0.609500 0.012250
vt 0.592129 0.012250
vt 0.587334 0.012250
vt 0.586500 0.732716
vt 0.586500 0.737750
vt 0.609500 0.725000
vt 0.586500 0.725000
vt 0.609500 0.735765
vt 0.609500 0.728323
vt 0.609500 0.725000
vt 0.586500 0.737750
vt 0.604478 0.737750
vt 0.609500 0.737750
vt 0.591248 0.888782
vt 0.609500 0.888782
vt 0.609500 0.892250
vt 0.586209 0.888782
vt 0.591247 0.888782
vt 0.609500 0.906250
vt 0.585782 0.888782
vt 0.586209 0.888782
vt 0.609500 0.907223
vt 0.604223 0.907223
vt 0.585333 0.888782
vt 0.585782 0.888782
vt 0.604223 0.907223
vt 0.585333 0.907223
vt 0.585333 0.901852
vt 0.677769 0.142352
vt 0.677769 0.122500
vt 0.687500 0.122500
vt 0.677769 0.216775
vt 0.677769 0.142352
vt 0.827500 0.122500
vt 0.862180 0.215588
vt 0.862180 0.250000
vt 0.677769 0.250000
vt 0.677769 0.216775
vt 0.862180 0.122500
vt 0.862180 0.215588
vt 0.625000 0.487180
vt 0.383332 0.487180
vt 0.383332 0.302769
vt 0.625000 0.302769
vt 0.814000 0.025000
vt 0.814000 0.012250
vt 0.804078 0.012250
vt 0.800000 0.017284
vt 0.800000 0.025000
vt 0.800000 0.012250
vt 0.800000 0.017284
vt 0.804078 0.012250
vn 0.000000 0.000000 -1.000000
vn 0.000000 0.000000 -1.000000
vn 0.000000 0.000000 -1.000000
vn 0.000000 0.000000 -1.000000
vn 0.000000 0.000000 -1.000000
vn 0.000000 0.000000 -1.000000
vn 0.000000 0.000000 -1.000000
vn 0.000000 0.000000 -1.000000
vn 0.000000 0.000000 -1.000000
vn 0.000000 0.000000 -1.000000
vn 0.000000 0.000000 1.000000
vn 0.000000 0.000000 1.000000
vn 0.000000 0.000000 1.000000
vn 0.000000 0.000000 1.000000
vn 0.000000 0.000000 1.000000
vn 0.000000 0.000000 1.000000
vn 0.000000 0.000000 1.000000
vn 0.000000 0.000000 1.000000
vn 0.000000 0.000000 1.000000
vn 0.000000 0.000000 1.000000
vn 0.000000 -1.000000 0.000001
vn 0.000000 -1.000000 0.000001
vn 0.000000 -1.000000 0.000001
vn 0.000000 -1.000000 0.000000
vn 0.000000 -1.000000 0.000000
vn 0.000000 -1.000000 0.000000
vn 0.000000 -1.000000 0.000000
vn 0.000000 -1.000000 0.000000
vn 0.000000 -1.000000 0.000000
vn 0.000000 -1.000000 0.000000
vn 0.000000 -1.000000 0.000000
vn 0.000000 -1.000000 0.000000
vn 0.000000 -1.000000 0.000000
vn 0.000000 -1.000000 0.000000
vn 0.000000 -1.000000 0.000000
vn 0.000000 -1.000000 0.000000
vn 0.000000 -1.000000 0.000000
vn 1.000000 0.000000 0.000000
vn 1.000000 0.000000 0.000000
vn 1.000000 0.000000 0.000000
vn 1.000000 0.000000 0.000000
vn 1.000000 0.000000 0.000000
vn 1.000000 0.000000 0.000000
vn 1.000000 0.000000 0.000000
vn 1.000000 0.000000 0.000000
vn 1.000000 0.000000 0.000000
vn 1.000000 0.000000 0.000000
vn 1.000000 0.000000 0.000000
vn 1.000000 0.000000 0.000000
vn 1.000000 0.000000 0.000000
vn 1.000000 0.000000 0.000000
vn 1.000000 0.000000 0.000000
vn 0.000000 1.000000 0.000000
vn 0.000000 1.000000 0.000000
vn 0.000000 1.000000 0.000000
vn 0.000000 1.000000 0.000000
vn -1.000000 0.000000 0.000000
vn -1.000000 0.000000 0.000000
vn -1.000000 0.000000 0.000000
vn -1.000000 0.000000 0.000000
vn -1.000000 0.000000 0.000000
vn -1.000000 0.000000 0.000000
vn -1.000000 0.000000 0.000000
vn -1.000000 0.000000 0.000000
s off
g Top_03:polySurface8
usemtl lambert3SG
f 1/1/1 2/2/2 3/3/3
f 4/4/4 3/3/5 2/5/6 5/6/7 6/7/8 7/8/9 8/9/10
f 9/10/11 10/11/12 11/12/13 12/13/14
f 13/14/15 14/15/16 11/16/17 10/17/18 15/18/19 16/19/20
f 7/20/21 6/21/22 17/22/23
f 8/23/24 7/24/25 17/22/26 18/25/27
f 4/26/28 8/27/29 18/25/30 16/28/31 15/29/32
f 3/30/33 4/31/34 15/32/35 10/33/36 19/34/37
f 13/35/38 16/36/39 18/37/40
f 14/38/41 13/39/42 18/37/43 17/40/44
f 5/41/45 2/42/46 11/43/47 14/44/48 17/40/49
f 6/45/50 5/46/51 17/40/52
f 2/47/53 1/48/54 12/49/55 11/50/56
f 1/51/57 3/52/58 19/53/59 9/54/60 12/55/61
f 10/56/62 9/57/63 19/58/64
