# This file uses centimeters as units for non-parametric coordinates.

mtllib Metal_01_G.mtl
g default
v -437.323639 49.000011 125.000015
v -437.323639 100.000000 125.000000
v -337.323639 100.000000 125.000000
v -337.323639 0.000000 125.000000
v -346.000000 0.000000 125.000000
v -346.000000 49.000000 125.000000
v -437.323639 0.000000 125.000015
v -337.323639 0.000000 150.000000
v -337.323639 100.000000 150.000000
v -437.323639 100.000000 150.000000
v -437.323639 0.000000 150.000000
vt 0.390669 0.737750
vt 0.390669 0.725000
vt 0.413500 0.737750
vt 0.415669 0.750000
vt 0.413500 0.750000
vt 0.415669 0.725000
vt 0.238051 0.250000
vt 0.275263 0.250000
vt 0.275263 0.181522
vt 0.238051 0.181522
vt 0.375000 0.000000
vt 0.375000 0.250000
vt 0.625000 0.250000
vt 0.625000 0.000000
vt 0.375000 0.312500
vt 0.625000 0.312500
vt 0.687500 0.250000
vt 0.687500 0.122500
vt 0.687500 0.000000
vt 0.375000 0.937500
vt 0.375000 1.000000
vt 0.396691 0.937500
vt 0.625000 1.000000
vt 0.625000 0.937500
vt 0.312500 0.000000
vt 0.312500 0.250000
vn 0.000000 0.000000 -1.000000
vn 0.000000 0.000000 -1.000000
vn 0.000000 0.000000 -1.000000
vn 0.000000 0.000000 -1.000000
vn 0.000000 0.000000 -1.000000
vn 0.000000 0.000000 -1.000000
vn 0.000000 0.000000 -1.000000
vn 0.000000 0.000000 -1.000000
vn 0.000000 0.000000 -1.000000
vn 0.000000 0.000000 -1.000000
vn 0.000000 0.000000 -1.000000
vn 0.000000 0.000000 -1.000000
vn 0.000000 0.000000 -1.000000
vn 0.000000 0.000000 -1.000000
vn 0.000000 0.000000 -1.000000
vn 0.000000 0.000000 -1.000000
vn 0.000000 0.000000 1.000000
vn 0.000000 0.000000 1.000000
vn 0.000000 0.000000 1.000000
vn 0.000000 0.000000 1.000000
vn 0.000000 1.000000 0.000000
vn 0.000000 1.000000 0.000000
vn 0.000000 1.000000 0.000000
vn 0.000000 1.000000 0.000000
vn -1.000000 0.000000 0.000000
vn -1.000000 0.000000 0.000000
vn -1.000000 0.000000 0.000000
vn -1.000000 0.000000 0.000000
vn -1.000000 0.000000 0.000000
vn -1.000000 0.000000 0.000000
vn -1.000000 0.000000 0.000000
vn -1.000000 0.000000 0.000000
vn -1.000000 0.000000 0.000000
vn 0.000000 -1.000000 0.000000
vn 0.000000 -1.000000 0.000000
vn 0.000000 -1.000000 0.000000
vn 0.000000 -1.000000 0.000000
vn 0.000000 -1.000000 0.000000
vn 0.000000 -1.000000 0.000000
vn 0.000000 -1.000000 0.000000
vn 0.000000 -1.000000 0.000000
vn 0.000000 -1.000000 0.000000
vn 1.000000 0.000000 0.000000
vn 1.000000 0.000000 0.000000
vn 1.000000 0.000000 0.000000
vn 1.000000 0.000000 0.000000
s off
g Climbable_04_polySurface310 group1288
usemtl lambert3SG
f 1/1/1 2/2/2 6/3/3
f 4/4/4 5/5/5 3/6/6
f 5/5/7 6/3/8 3/6/9
f 2/2/10 3/6/11 6/3/12
f 1/7/13 6/8/14 5/9/15 7/10/16
f 8/11/17 9/12/18 10/13/19 11/14/20
f 3/15/21 2/16/22 10/13/23 9/12/24
f 2/17/25 1/18/26 10/13/27
f 10/13/28 1/18/29 11/14/30
f 1/18/31 7/19/32 11/14/33
f 4/20/34 8/21/35 5/22/36
f 8/21/37 11/23/38 5/22/39
f 5/22/40 11/23/41 7/24/42
f 4/25/43 3/26/44 9/12/45 8/11/46
