# This file uses centimeters as units for non-parametric coordinates.

mtllib Freeze_Trap.mtl
g default
v 14.201770 0.049542 -9.467846
v 14.201770 0.049542 -14.201770
v 9.467846 0.049542 -14.201770
v 11.834808 3.396931 -11.834808
vt 0.250000 0.250000
vt 0.500000 0.500000
vt 0.750000 0.250000
vt 0.375000 0.500000
vt 0.500000 0.500000
vt 0.625000 0.500000
vt 0.500000 1.000000
vt 0.000000 0.500000
vt 1.000000 0.500000
vt 0.500000 0.000000
vn 0.816497 0.577350 0.000000
vn 0.816497 0.577350 0.000000
vn 0.816497 0.577350 0.000000
vn 0.000000 0.577350 -0.816497
vn 0.000000 0.577350 -0.816497
vn 0.000000 0.577350 -0.816497
vn 0.000000 -1.000000 0.000000
vn 0.000000 -1.000000 0.000000
vn 0.000000 -1.000000 0.000000
vn -0.707107 0.000000 0.707107
vn -0.707107 0.000000 0.707107
vn -0.707107 0.000000 0.707107
s off
g pPyramid13 group49
usemtl initialShadingGroup
f 1/4/1 2/5/2 4/7/3
f 2/5/4 3/6/5 4/7/6
f 1/1/7 3/3/8 2/2/9
f 3/8/10 1/9/11 4/10/12
g default
v -14.201769 0.049542 9.467846
v -14.201770 0.049542 14.201769
v -9.467847 0.049542 14.201770
v -11.834808 3.396931 11.834808
vt 0.250000 0.250000
vt 0.500000 0.500000
vt 0.750000 0.250000
vt 0.375000 0.500000
vt 0.500000 0.500000
vt 0.625000 0.500000
vt 0.500000 1.000000
vt 0.000000 0.500000
vt 1.000000 0.500000
vt 0.500000 0.000000
vn -0.816497 0.577350 -0.000000
vn -0.816497 0.577350 -0.000000
vn -0.816497 0.577350 -0.000000
vn -0.000000 0.577350 0.816496
vn -0.000000 0.577350 0.816497
vn -0.000000 0.577350 0.816496
vn 0.000000 -1.000000 0.000000
vn 0.000000 -1.000000 0.000000
vn 0.000000 -1.000000 0.000000
vn 0.707107 0.000000 -0.707107
vn 0.707107 0.000000 -0.707107
vn 0.707107 0.000000 -0.707107
s off
g group49 pPyramid16
usemtl initialShadingGroup
f 5/14/13 6/15/14 8/17/15
f 6/15/16 7/16/17 8/17/18
f 5/11/19 7/13/20 6/12/21
f 7/18/22 5/19/23 8/20/24
g default
v 9.467847 0.049542 14.201770
v 14.201770 0.049542 14.201769
v 14.201769 0.049542 9.467846
v 11.834808 3.396931 11.834808
vt 0.250000 0.250000
vt 0.500000 0.500000
vt 0.750000 0.250000
vt 0.375000 0.500000
vt 0.500000 0.500000
vt 0.625000 0.500000
vt 0.500000 1.000000
vt 0.000000 0.500000
vt 1.000000 0.500000
vt 0.500000 0.000000
vn 0.000000 0.577350 0.816497
vn 0.000000 0.577350 0.816496
vn 0.000000 0.577350 0.816496
vn 0.816497 0.577350 -0.000000
vn 0.816497 0.577350 -0.000000
vn 0.816497 0.577350 -0.000000
vn 0.000000 -1.000000 0.000000
vn 0.000000 -1.000000 0.000000
vn 0.000000 -1.000000 0.000000
vn -0.707107 0.000000 -0.707107
vn -0.707107 0.000000 -0.707107
vn -0.707107 0.000000 -0.707107
s off
g group49 pPyramid14
usemtl initialShadingGroup
f 9/24/25 10/25/26 12/27/27
f 10/25/28 11/26/29 12/27/30
f 9/21/31 11/23/32 10/22/33
f 11/28/34 9/29/35 12/30/36
g default
v -9.467846 0.049542 -14.201769
v -14.201769 0.049542 -14.201770
v -14.201770 0.049542 -9.467846
v -11.834808 3.396931 -11.834808
vt 0.250000 0.250000
vt 0.500000 0.500000
vt 0.750000 0.250000
vt 0.375000 0.500000
vt 0.500000 0.500000
vt 0.625000 0.500000
vt 0.500000 1.000000
vt 0.000000 0.500000
vt 1.000000 0.500000
vt 0.500000 0.000000
vn 0.000000 0.577350 -0.816497
vn 0.000000 0.577350 -0.816497
vn 0.000000 0.577350 -0.816497
vn -0.816497 0.577350 -0.000000
vn -0.816497 0.577350 -0.000000
vn -0.816497 0.577350 -0.000000
vn 0.000000 -1.000000 0.000000
vn 0.000000 -1.000000 0.000000
vn 0.000000 -1.000000 0.000000
vn 0.707107 0.000000 0.707107
vn 0.707107 0.000000 0.707107
vn 0.707107 0.000000 0.707107
s off
g group49 pPyramid15
usemtl initialShadingGroup
f 13/34/37 14/35/38 16/37/39
f 14/35/40 15/36/41 16/37/42
f 13/31/43 15/33/44 14/32/45
f 15/38/46 13/39/47 16/40/48
g default
v -6.045763 1.515099 6.048570
v 6.044538 1.515099 6.048570
v -6.045763 1.515099 -6.041731
v 6.044538 1.515099 -6.041731
v -0.000613 1.515098 6.048563
v -0.000613 1.515098 -6.041728
v 6.044530 1.515098 0.003419
v -6.045756 1.515098 0.003419
v -0.000613 0.039102 0.063394
v 0.059362 0.039541 0.003419
v -0.000613 0.039541 0.003419
v -0.060587 0.039541 0.003419
v -0.000613 0.039278 -0.056559
v 0.000005 0.009218 -8.767791
v 8.778418 0.037060 0.004186
v -0.002718 0.009218 8.773301
v -8.773760 0.037060 0.003450
v -12.000620 0.015097 -5.996584
v -6.000620 0.015097 -11.996589
v -12.000620 0.015097 6.003427
v -6.000620 0.015097 12.003427
v 5.999395 0.015097 -11.996589
v 11.999395 0.015097 -5.996588
v 5.999395 0.015097 12.003427
v 11.999395 0.015097 6.003419
v 7.265378 0.010297 7.247331
v 7.264654 0.029235 -7.254195
v -7.258879 0.108909 -7.254195
v -7.258879 0.012542 7.262269
v -4.917468 0.015925 5.006883
v -4.904597 0.015926 -4.907317
v 5.008276 0.015925 5.007066
v 4.996519 0.015926 -4.907656
v 3.021955 1.515098 3.025995
v 3.021963 1.515098 -3.019156
v -3.023188 1.515098 -3.019156
v -3.023188 1.515098 3.025995
v 0.009680 0.039177 0.053102
v -0.000613 0.039230 0.045823
v -0.000613 0.054129 -0.116789
v 6.044538 1.562037 -6.041731
v 3.021963 7.095613 -3.019156
v 6.044530 1.562037 0.003419
v -0.000613 1.562037 -6.041728
v 6.044538 1.562037 6.048570
v 3.021955 7.095613 3.025995
v 6.044530 1.562037 0.003419
v -0.000613 1.562037 6.048563
v -6.045763 1.562037 -6.041731
v -3.023188 7.095613 -3.019156
v -0.000613 1.562037 -6.041728
v -6.045756 1.562037 0.003419
v -6.045763 1.562037 6.048570
v -3.023188 7.095613 3.025995
v -6.045756 1.562037 0.003419
v -0.000613 1.562037 6.048563
vt 0.375000 0.250000
vt 0.625000 0.250000
vt 0.375000 0.500000
vt 0.625000 0.500000
vt 0.875000 0.250000
vt 0.125000 0.250000
vt 0.500000 0.250000
vt 0.500000 0.500000
vt 0.625000 0.375000
vt 0.500000 0.375000
vt 0.750000 0.250000
vt 0.250000 0.250000
vt 0.375000 0.375000
vt 0.500000 0.250000
vt 0.625000 0.375000
vt 0.375000 0.375000
vt 0.500000 0.500000
vt 0.500000 0.750000
vt 0.625000 0.875000
vt 0.750000 0.000000
vt 0.500000 0.000000
vt 0.500000 1.000000
vt 0.250000 0.000000
vt 0.375000 0.875000
vt 0.187500 0.000000
vt 0.375000 0.812500
vt 0.437500 0.750000
vt 0.312500 0.000000
vt 0.375000 0.937500
vt 0.437500 0.000000
vt 0.437500 1.000000
vt 0.562500 0.750000
vt 0.812500 0.000000
vt 0.625000 0.812500
vt 0.562500 0.000000
vt 0.562500 1.000000
vt 0.687500 0.000000
vt 0.625000 0.937500
vt 0.625000 0.104826
vt 0.625000 0.625000
vt 0.875000 0.125000
vt 0.125000 0.125000
vt 0.375000 0.625000
vt 0.375000 0.125000
vt 0.448310 0.974155
vt 0.448443 0.775778
vt 0.551703 0.974148
vt 0.551580 0.775790
vt 0.000000 0.000000
vt 1.000000 0.000000
vt 0.824378 0.122450
vt 0.000000 0.000000
vt 0.852873 0.000000
vt 1.000000 0.162405
vt 0.000000 0.000000
vt 1.000000 0.000000
vt 0.835803 0.125422
vt 0.000000 0.000000
vt 1.000000 0.000000
vt 0.166050 0.123177
vt 0.000000 0.000000
vt 1.000000 0.000000
vt 0.176501 0.133550
vt 0.145550 0.000000
vt 1.000000 0.000000
vt 0.000000 0.174146
vt 0.089621 0.000000
vt 1.000000 0.000000
vt 0.000000 0.330303
vt 0.000000 0.000000
vt 0.909506 0.000000
vt 1.000000 0.329725
vt 0.562500 0.312500
vt 0.562500 0.437500
vt 0.437500 0.437500
vt 0.437500 0.312500
vt 0.500000 0.286625
vt 0.521455 0.271455
vt 0.500000 0.500000
vt 0.562500 0.437500
vt 0.625000 0.375000
vt 0.625000 0.500000
vt 0.625000 0.250000
vt 0.562500 0.312500
vt 0.437500 0.437500
vt 0.500000 0.500000
vt 0.375000 0.500000
vt 0.500000 0.250000
vt 0.437500 0.312500
vt 0.375000 0.375000
vt 0.375000 0.250000
vn -0.000110 -0.999999 -0.001615
vn -0.000110 -0.999999 -0.001615
vn -0.000110 -0.999999 -0.001615
vn 0.001564 -0.999999 0.000124
vn 0.001564 -0.999999 0.000124
vn 0.001564 -0.999999 0.000124
vn 0.000280 -0.999996 -0.002794
vn 0.000280 -0.999996 -0.002794
vn 0.000280 -0.999996 -0.002794
vn 0.007015 -0.999975 0.001109
vn 0.007015 -0.999975 0.001109
vn 0.007015 -0.999975 0.001109
vn -0.001177 -0.999976 -0.006810
vn -0.001177 -0.999976 -0.006810
vn -0.001177 -0.999976 -0.006810
vn -0.046776 -0.998878 0.007349
vn -0.046776 -0.998878 0.007349
vn -0.046776 -0.998878 0.007349
vn 0.007319 -0.998872 -0.046917
vn 0.007319 -0.998872 -0.046917
vn 0.007319 -0.998872 -0.046917
vn -0.001139 -0.999999 -0.000295
vn -0.001139 -0.999999 -0.000295
vn -0.001139 -0.999999 -0.000295
vn 0.001129 -0.999999 -0.000278
vn 0.001129 -0.999999 -0.000278
vn 0.001129 -0.999999 -0.000278
vn -0.002765 -0.999996 0.000273
vn -0.002765 -0.999996 0.000273
vn -0.002765 -0.999996 0.000273
vn 0.680833 0.709013 -0.183758
vn 0.680833 0.709013 -0.183758
vn 0.680833 0.709013 -0.183758
vn 0.183392 0.707508 -0.682495
vn 0.183392 0.707508 -0.682495
vn 0.183392 0.707508 -0.682495
vn 0.000437 -0.999992 -0.003895
vn 0.000437 -0.999992 -0.003895
vn 0.000437 -0.999992 -0.003895
vn 0.000492 -0.999992 0.003924
vn 0.000492 -0.999992 0.003924
vn 0.000492 -0.999992 0.003924
vn 0.241418 0.962198 0.126062
vn 0.241418 0.962198 0.126062
vn 0.241418 0.962198 0.126062
vn -0.188766 0.729599 -0.657307
vn -0.188766 0.729599 -0.657307
vn -0.188766 0.729599 -0.657307
vn -0.657165 0.729719 -0.188795
vn -0.657165 0.729719 -0.188795
vn -0.657165 0.729719 -0.188795
vn -0.001137 -0.999999 0.000293
vn -0.001137 -0.999999 0.000293
vn -0.001137 -0.999999 0.000293
vn 0.001129 -0.999999 0.000277
vn 0.001129 -0.999999 0.000277
vn 0.001129 -0.999999 0.000277
vn 0.130746 0.961619 -0.241236
vn 0.130746 0.961619 -0.241236
vn 0.130746 0.961619 -0.241236
vn -0.130772 0.961616 -0.241235
vn -0.130772 0.961616 -0.241235
vn -0.130772 0.961615 -0.241235
vn -0.000485 -0.999992 0.003921
vn -0.000485 -0.999992 0.003921
vn -0.000485 -0.999992 0.003921
vn -0.000431 -0.999992 -0.003892
vn -0.000431 -0.999992 -0.003892
vn -0.000431 -0.999992 -0.003892
vn -0.241408 0.962168 0.126309
vn -0.241408 0.962168 0.126309
vn -0.241408 0.962168 0.126309
vn 0.000000 -1.000000 -0.000002
vn 0.000000 -1.000000 -0.000002
vn 0.000000 -1.000000 -0.000002
vn 0.000000 -1.000000 -0.000002
vn 0.000000 -1.000000 -0.000002
vn 0.000000 -1.000000 -0.000002
vn 0.000000 -1.000000 -0.000002
vn 0.000000 -1.000000 -0.000002
vn -0.687910 0.702558 0.182186
vn -0.687910 0.702558 0.182186
vn -0.687910 0.702558 0.182186
vn -0.182215 0.702675 0.687783
vn -0.182215 0.702675 0.687783
vn -0.182215 0.702675 0.687783
vn -0.241408 0.962168 -0.126310
vn -0.241408 0.962168 -0.126310
vn -0.241408 0.962168 -0.126310
vn 0.130856 0.961605 0.241232
vn 0.130856 0.961605 0.241232
vn 0.130856 0.961605 0.241232
vn 0.687476 0.702958 0.182284
vn 0.687476 0.702958 0.182284
vn 0.687476 0.702958 0.182284
vn 0.181198 0.698500 0.692290
vn 0.181198 0.698500 0.692290
vn 0.181198 0.698500 0.692290
vn -0.130766 0.961616 0.241235
vn -0.130766 0.961616 0.241235
vn -0.130766 0.961616 0.241235
vn 0.877612 0.479373 0.000001
vn 0.877612 0.479373 0.000001
vn 0.877612 0.479373 0.000001
vn 0.475582 0.879672 0.000001
vn 0.475582 0.879672 0.000001
vn 0.475582 0.879672 0.000001
vn 0.241416 0.962195 -0.126094
vn 0.241416 0.962195 -0.126094
vn 0.241416 0.962195 -0.126094
vn 0.475582 0.879671 -0.000001
vn 0.475582 0.879672 -0.000001
vn 0.475582 0.879672 -0.000001
vn 0.877611 0.479373 -0.000001
vn 0.877611 0.479373 -0.000001
vn 0.877611 0.479373 -0.000001
vn 0.000000 0.999973 0.007326
vn 0.000000 0.999973 0.007326
vn 0.000000 0.999973 0.007326
vn 0.000000 0.999973 0.007326
vn 0.000000 0.999990 -0.004388
vn 0.000000 0.999990 -0.004388
vn 0.000000 0.999990 -0.004388
vn 0.000000 0.999990 -0.004388
vn 0.000000 0.999990 -0.004388
vn 0.000000 0.999990 -0.004388
vn 0.000000 0.999973 0.007326
vn 0.000000 0.999973 0.007326
vn 0.000000 0.999973 0.007326
vn 0.000000 0.479373 -0.877612
vn 0.000000 0.479373 -0.877611
vn 0.000000 0.479373 -0.877611
vn 0.000000 0.875327 -0.483531
vn 0.000000 0.875327 -0.483531
vn 0.000000 0.875327 -0.483531
vn -0.000000 0.875327 -0.483531
vn -0.000000 0.875327 -0.483531
vn -0.000000 0.875327 -0.483531
vn -0.000001 0.479373 -0.877611
vn -0.000001 0.479373 -0.877611
vn -0.000001 0.479373 -0.877611
vn -0.000001 0.479373 0.877612
vn -0.000001 0.479373 0.877612
vn -0.000001 0.479373 0.877612
vn -0.000001 0.875228 0.483712
vn -0.000001 0.875228 0.483712
vn -0.000001 0.875228 0.483712
vn 0.000001 0.875228 0.483711
vn 0.000001 0.875228 0.483711
vn 0.000001 0.875228 0.483711
vn -0.476375 0.879242 -0.000001
vn -0.476375 0.879242 -0.000001
vn -0.476375 0.879242 -0.000001
vn -0.476375 0.879242 0.000001
vn -0.476375 0.879242 0.000001
vn -0.476375 0.879242 0.000001
vn 0.232920 0.944224 -0.232786
vn 0.232920 0.944224 -0.232786
vn 0.232920 0.944224 -0.232786
vn 0.232920 0.944224 -0.232786
vn -0.877612 0.479372 -0.000001
vn -0.877612 0.479372 -0.000001
vn -0.877612 0.479372 -0.000001
vn -0.877612 0.479373 0.000001
vn -0.877612 0.479373 0.000001
vn -0.877612 0.479373 0.000001
vn 0.232792 0.944254 0.232792
vn 0.232792 0.944254 0.232792
vn 0.232792 0.944254 0.232792
vn 0.000001 0.479373 0.877612
vn 0.000001 0.479373 0.877612
vn 0.000001 0.479372 0.877612
vn 0.232792 0.944254 -0.232792
vn 0.232792 0.944254 -0.232792
vn 0.232792 0.944254 -0.232792
vn -0.232849 0.944254 -0.232737
vn -0.232849 0.944254 -0.232737
vn -0.232849 0.944254 -0.232737
vn -0.232849 0.944254 -0.232737
vn 0.236756 0.943315 0.232601
vn 0.236756 0.943315 0.232601
vn 0.236756 0.943315 0.232601
vn -0.232833 0.944254 0.232752
vn -0.232833 0.944254 0.232752
vn -0.232833 0.944254 0.232752
vn -0.232833 0.944254 0.232752
vn -0.232833 0.944254 0.232752
vn -0.232866 0.944224 -0.232842
vn -0.232866 0.944224 -0.232842
vn -0.232866 0.944224 -0.232842
vn -0.232866 0.944224 -0.232842
vn -0.232829 0.944236 0.232829
vn -0.232829 0.944236 0.232829
vn -0.232829 0.944236 0.232829
vn 0.232868 0.944236 0.232788
vn 0.232868 0.944236 0.232788
vn 0.232868 0.944236 0.232788
vn 0.232868 0.944236 0.232788
vn -0.000001 0.999973 0.007327
vn -0.000001 0.999973 0.007327
vn -0.000001 0.999973 0.007327
vn 0.000001 0.999973 0.007327
vn 0.000001 0.999973 0.007327
vn 0.000001 0.999973 0.007327
vn -0.707108 0.000000 0.707106
vn -0.707108 0.000000 0.707106
vn -0.707108 0.000000 0.707106
vn -0.707108 0.000000 0.707106
vn 1.000000 0.000000 0.000001
vn 1.000000 0.000000 0.000001
vn 1.000000 0.000000 0.000001
vn 1.000000 0.000000 0.000001
vn -0.000001 0.000000 -1.000000
vn -0.000001 0.000000 -1.000000
vn -0.000001 0.000000 -1.000000
vn -0.000001 0.000000 -1.000000
vn -0.707106 0.000000 0.707107
vn -0.707106 0.000000 0.707107
vn -0.707106 0.000000 0.707107
vn -0.707106 0.000000 0.707107
vn 1.000000 0.000000 -0.000001
vn 1.000000 0.000000 -0.000001
vn 1.000000 0.000000 -0.000001
vn 1.000000 0.000000 -0.000001
vn -0.707107 0.000000 -0.707107
vn -0.707107 0.000000 -0.707107
vn -0.707107 0.000000 -0.707107
vn -0.707107 0.000000 -0.707107
vn -0.707107 0.000000 -0.707107
vn -0.707107 0.000000 -0.707107
vn -0.707107 0.000000 -0.707107
vn -0.707107 0.000000 -0.707107
vn -0.000001 0.000000 1.000000
vn -0.000001 0.000000 1.000000
vn -0.000001 0.000000 1.000000
vn -0.000001 0.000000 1.000000
vn 0.707106 0.000000 0.707107
vn 0.707106 0.000000 0.707107
vn 0.707106 0.000000 0.707107
vn 0.707106 0.000000 0.707107
vn 0.000001 0.000000 -1.000000
vn 0.000001 0.000000 -1.000000
vn 0.000001 0.000000 -1.000000
vn 0.000001 0.000000 -1.000000
vn -1.000000 0.000000 0.000001
vn -1.000000 0.000000 0.000001
vn -1.000000 0.000000 0.000001
vn -1.000000 0.000000 0.000001
vn 0.707108 0.000000 0.707106
vn 0.707108 0.000000 0.707106
vn 0.707108 0.000000 0.707106
vn 0.707108 0.000000 0.707106
vn 0.707108 0.000000 -0.707106
vn 0.707108 0.000000 -0.707106
vn 0.707108 0.000000 -0.707106
vn 0.707108 0.000000 -0.707106
vn -1.000000 0.000000 -0.000001
vn -1.000000 0.000000 -0.000001
vn -1.000000 0.000000 -0.000001
vn -1.000000 0.000000 -0.000001
vn 0.000001 0.000000 1.000000
vn 0.000001 0.000000 1.000000
vn 0.000001 0.000000 1.000000
vn 0.000001 0.000000 1.000000
vn 0.707106 0.000000 -0.707108
vn 0.707106 0.000000 -0.707108
vn 0.707106 0.000000 -0.707108
vn 0.707106 0.000000 -0.707108
s off
g group49 pCube51
usemtl initialShadingGroup
f 36/89/49 46/90/50 45/91/51
f 37/92/52 45/93/53 46/94/54
f 48/98/55 41/99/56 42/100/57
f 49/101/58 38/102/59 43/103/60
f 43/104/61 39/105/62 49/106/63
f 44/107/64 35/108/65 47/109/66
f 34/110/67 44/111/68 47/112/69
f 37/71/70 46/85/71 32/62/72
f 48/87/73 40/76/74 32/62/75
f 40/95/76 48/96/77 42/97/78
f 43/80/79 38/72/80 20/44/81
f 39/73/82 43/81/83 20/45/84
f 48/87/85 31/59/86 41/78/87
f 31/59/88 49/88/89 39/74/90
f 20/45/91 31/60/92 39/73/93
f 44/82/94 34/65/95 19/46/96
f 35/67/97 44/83/98 19/43/99
f 47/86/100 35/67/101 30/58/102
f 38/72/103 49/88/104 30/58/105
f 19/43/106 30/58/107 35/67/108
f 30/58/109 20/44/110 38/72/111
f 47/86/112 33/64/113 34/66/114
f 33/64/115 46/85/116 36/69/117
f 33/63/118 19/46/119 34/65/120
f 47/86/121 30/58/122 49/88/123 31/59/124 48/87/125 32/62/126 46/85/127 33/64/128
f 45/84/129 37/70/130 17/41/131
f 36/68/132 45/84/133 17/41/134
f 17/41/135 33/63/136 36/68/137
f 32/61/138 17/41/139 37/70/140
f 40/75/141 42/79/142 18/42/143
f 42/79/144 41/77/145 18/42/146
f 18/42/147 32/61/148 40/75/149
f 57/122/150 58/120/151 59/121/152
f 31/60/153 20/45/154 23/51/155
f 31/60/156 18/42/157 41/77/158
f 18/42/159 31/60/160 23/51/161
f 62/124/162 61/123/163 63/121/164
f 55/117/165 54/118/166 26/55/167 27/50/168
f 29/57/169 28/56/170 27/50/171
f 26/55/172 29/57/173 27/50/174
f 28/56/175 55/117/176 27/50/177
f 65/127/178 66/125/179 67/126/180
f 30/58/181 19/43/182 22/48/183
f 20/44/184 30/58/185 22/48/186
f 58/120/187 57/122/188 60/126/189
f 61/123/190 62/124/191 64/128/192
f 32/61/193 18/42/194 21/47/195
f 17/41/196 32/61/197 21/47/198
f 33/63/199 17/41/200 24/52/201
f 19/46/202 33/63/203 24/52/204
f 21/47/205 25/54/206 28/56/207 53/116/208
f 69/131/209 70/129/210 71/130/211
f 66/125/212 65/127/213 68/130/214
f 28/56/215 52/115/216 24/53/217
f 70/129/218 69/131/219 72/128/220
f 53/116/221 28/56/222 24/53/223
f 50/113/224 23/49/225 26/55/226 54/118/227
f 56/119/228 28/56/229 29/57/230
f 26/55/231 23/49/232 51/114/233 56/119/234 29/57/235
f 25/54/236 21/47/237 50/113/238 54/118/239
f 56/119/240 51/114/241 22/48/242
f 28/56/243 56/119/244 22/48/245 52/115/246
f 55/117/247 28/56/248 25/54/249
f 54/118/250 55/117/251 25/54/252
f 51/114/253 23/49/254 59/121/255 58/120/256
f 23/49/257 20/44/258 57/122/259 59/121/260
f 20/42/261 22/49/262 60/121/263 57/123/264
f 22/49/265 51/113/266 58/124/267 60/121/268
f 18/115/269 23/48/270 63/126/271 61/125/272
f 23/48/273 50/43/274 62/127/275 63/126/276
f 50/44/277 21/48/278 64/126/279 62/122/280
f 21/48/281 18/114/282 61/120/283 64/126/284
f 52/113/285 22/47/286 67/128/287 66/124/288
f 22/47/289 19/42/290 65/123/291 67/128/292
f 19/116/293 24/53/294 68/130/295 65/129/296
f 24/53/297 52/41/298 66/131/299 68/130/300
f 53/43/301 24/53/302 71/130/303 70/127/304
f 24/53/305 17/115/306 69/125/307 71/130/308
f 17/41/309 21/47/310 72/128/311 69/131/312
f 21/47/313 53/116/314 70/129/315 72/128/316
