# This file uses centimeters as units for non-parametric coordinates.

mtllib Base_18.mtl
g default
v 231.000000 -81.000000 125.000000
v 52.000000 -81.000000 125.000000
v 52.000000 0.000000 125.000000
v 346.000000 0.000000 125.000000
v 346.000000 -8.000000 125.000000
v 231.000000 -8.000000 125.000000
v 231.000000 -81.000000 173.999878
v 95.412918 -80.999985 174.000000
v 52.000000 -81.000000 174.000000
v 287.000000 -80.999985 125.000000
v 287.000000 -80.999985 168.000000
v 287.000000 -80.999985 173.999878
v 355.000000 -81.000000 125.000000
v 479.000000 -81.000000 125.000000
v 479.000000 -81.000000 174.000000
v 355.000000 0.000000 125.000000
v 461.000000 0.000015 125.000000
v 479.000000 0.000015 125.000000
v 479.000000 0.000000 174.000000
v 52.000000 0.000000 174.000000
v 95.410767 0.000000 174.000000
vt 0.533733 0.250000
vt 0.485786 0.997262
vt 0.641332 0.081343
vt 0.362785 0.997963
vt 0.516599 0.250000
vt 0.275263 0.181522
vt 0.232071 0.181522
vt 0.275263 0.250000
vt 0.224737 0.250000
vt 0.250659 0.100410
vt 0.220782 0.266393
vt 0.224737 0.266393
vt 0.275263 0.100410
vt 0.460618 0.125000
vt 0.622329 0.256541
vt 0.625511 0.256543
vt 0.662988 0.255475
vt 0.337250 0.087000
vt 0.349500 0.087000
vt 0.669352 0.256569
vt 0.669352 0.250000
vt 0.224737 0.181522
vt 0.492583 0.125000
vt 0.422250 0.731750
vt 0.451000 0.731750
vt 0.451000 0.729750
vt 0.377500 0.729750
vt 0.377500 0.750000
vt 0.422250 0.750000
vt 0.436250 0.762250
vt 0.436250 0.760750
vt 0.436250 0.750000
vt 0.422250 0.750000
vt 0.377500 0.750000
vt 0.377500 0.762250
vt 0.388353 0.762250
vt 0.422250 0.762250
vt 0.436250 0.760750
vt 0.436250 0.762250
vt 0.484250 0.762250
vt 0.484250 0.750000
vt 0.453250 0.750000
vt 0.436250 0.750000
vt 0.275263 0.068324
vt 0.224737 0.068324
vt 0.337250 0.066750
vt 0.349500 0.066750
vt 0.220782 0.100410
vt 0.516599 0.256491
vt 0.641332 0.018593
vt 0.677716 0.018593
vt 0.677716 0.081343
vt 0.484852 0.832563
vt 0.361613 0.792457
vt 0.492583 0.118250
vt 0.476583 0.118250
vt 0.471917 0.118250
vt 0.460618 0.118250
vn 0.000000 0.000000 -1.000000
vn 0.000000 0.000000 -1.000000
vn 0.000000 0.000000 -1.000000
vn 0.000000 0.000000 -1.000000
vn 0.000000 0.000000 -1.000000
vn 0.000000 0.000000 -1.000000
vn 0.000000 -1.000000 0.000000
vn 0.000000 -1.000000 0.000000
vn 0.000000 -1.000000 0.000000
vn 0.000000 -1.000000 0.000000
vn -0.000000 -1.000000 0.000000
vn 0.000000 -1.000000 0.000000
vn 0.000000 -1.000000 0.000000
vn 0.000000 -1.000000 0.000000
vn -0.000000 -1.000000 0.000000
vn -0.000000 -1.000000 0.000000
vn -0.000000 -1.000000 0.000000
vn 0.000000 -1.000000 0.000000
vn -0.000000 -1.000000 0.000000
vn -0.000000 -1.000000 0.000000
vn 0.000000 0.000000 -1.000000
vn 0.000000 0.000000 -1.000000
vn 0.000000 0.000000 -1.000000
vn 0.000000 0.000000 -1.000000
vn 0.000000 0.000000 -1.000000
vn 1.000000 0.000000 0.000000
vn 1.000000 0.000000 0.000000
vn 1.000000 0.000000 0.000000
vn 1.000000 0.000000 0.000000
vn 0.000000 0.000000 -1.000000
vn -0.000000 0.000000 -1.000000
vn 0.000000 0.000000 -1.000000
vn -0.000000 0.000000 -1.000000
vn -0.000000 0.000000 -1.000000
vn 0.000000 0.000000 -1.000000
vn 0.000000 0.000000 -1.000000
vn 0.000000 1.000000 0.000000
vn 0.000000 1.000000 0.000000
vn 0.000000 1.000000 0.000000
vn 0.000000 1.000000 0.000000
vn -0.000000 1.000000 0.000000
vn -0.000000 1.000000 0.000000
vn 0.000000 1.000000 0.000000
vn -0.000000 1.000000 0.000000
vn -1.000000 0.000000 0.000000
vn -1.000000 0.000000 0.000000
vn -1.000000 0.000000 0.000000
vn -1.000000 0.000000 0.000000
vn 0.000000 0.000000 1.000000
vn 0.000000 0.000000 1.000000
vn 0.000000 0.000000 1.000000
vn 0.000000 0.000000 1.000000
vn -0.000001 0.000000 1.000000
vn -0.000000 -0.000001 1.000000
vn -0.000000 -0.000001 1.000000
vn 0.000000 -0.000001 1.000000
vn 0.000000 -0.000001 1.000000
vn 0.000001 0.000000 1.000000
s 1
g polySurface364
usemtl initialShadingGroup
f 1/29/1 2/28/2 6/24/3
f 4/26/4 5/25/5 3/27/6
f 5/25/5 6/24/3 3/27/6
f 2/28/2 3/27/6 6/24/3
s 3
f 9/35/7 2/34/8 8/36/9
f 2/34/8 1/33/10 8/36/9
f 8/36/9 1/33/10 7/37/11
f 7/37/11 1/33/10 12/30/12
f 12/30/12 1/33/10 11/31/13
f 1/33/10 10/32/14 11/31/13
s 4
f 10/43/15 13/42/16 11/38/17
f 14/41/18 15/40/19 13/42/16
f 12/39/20 11/38/17 15/40/19
f 13/42/16 15/40/19 11/38/17
s 5
f 14/45/21 13/44/22 18/22/23
f 18/22/23 13/44/22 17/7/24
f 13/44/22 16/6/25 17/7/24
s off
f 15/47/26 14/46/27 18/18/28 19/19/29
s 6
f 13/48/30 10/10/31 16/11/32
f 1/13/33 6/8/34 10/10/31
f 4/12/35 16/11/32 5/9/36
f 16/11/32 10/10/31 5/9/36
f 10/10/31 6/8/34 5/9/36
s 8
f 3/49/37 20/5/38 4/15/39
f 20/5/38 21/1/40 4/15/39
f 21/1/40 19/21/41 4/15/39
f 4/15/39 19/21/41 16/16/42
f 18/20/43 17/17/44 19/21/41
f 19/21/41 17/17/44 16/16/42
s off
f 3/52/45 2/51/46 9/50/47 20/3/48
f 9/54/49 8/53/50 21/2/51 20/4/52
s 9
f 15/55/53 19/23/54 12/56/55
f 19/23/54 21/14/56 12/56/55
f 12/56/55 21/14/56 7/57/57
f 8/58/58 7/57/57 21/14/56
