# This file uses centimeters as units for non-parametric coordinates.

mtllib BRail_93.mtl
g default
v 243.822424 -0.153884 602.345843
v 254.937852 -0.153884 613.461271
v 245.327909 19.495606 603.851328
v 253.432366 19.495606 611.955785
v 254.414279 19.495606 594.764959
v 262.518736 19.495606 602.869416
v 252.908793 -0.153884 593.259473
v 264.024221 -0.153884 604.374901
vt 0.375000 0.000000
vt 0.625000 0.000000
vt 0.625000 0.250000
vt 0.375000 0.250000
vt 0.625000 0.500000
vt 0.375000 0.500000
vt 0.625000 0.750000
vt 0.375000 0.750000
vt 0.625000 1.000000
vt 0.375000 1.000000
vt 0.875000 0.000000
vt 0.875000 0.250000
vt 0.125000 0.000000
vt 0.125000 0.250000
vn -0.707107 0.000000 0.707107
vn -0.707107 0.000000 0.707107
vn -0.707107 0.000000 0.707107
vn -0.707107 0.000000 0.707107
vn 0.000000 1.000000 0.000000
vn 0.000000 1.000000 0.000000
vn 0.000000 1.000000 0.000000
vn 0.000000 1.000000 0.000000
vn 0.707107 0.000000 -0.707107
vn 0.707107 0.000000 -0.707107
vn 0.707107 0.000000 -0.707107
vn 0.707107 0.000000 -0.707107
vn 0.000000 -1.000000 0.000000
vn 0.000000 -1.000000 0.000000
vn 0.000000 -1.000000 0.000000
vn 0.000000 -1.000000 0.000000
vn 0.702992 0.107722 0.702992
vn 0.702992 0.107722 0.702992
vn 0.702992 0.107722 0.702992
vn 0.702992 0.107722 0.702992
vn -0.702992 0.107722 -0.702992
vn -0.702992 0.107722 -0.702992
vn -0.702992 0.107722 -0.702992
vn -0.702992 0.107722 -0.702992
s off
g polySurface44 group86 polySurface24
usemtl initialShadingGroup
f 1/1/1 2/2/2 4/3/3 3/4/4
f 3/4/5 4/3/6 6/5/7 5/6/8
f 5/6/9 6/5/10 8/7/11 7/8/12
f 7/8/13 8/7/14 2/9/15 1/10/16
f 2/2/17 8/11/18 6/12/19 4/3/20
f 7/13/21 1/1/22 3/4/23 5/14/24
