# This file uses centimeters as units for non-parametric coordinates.

mtllib Brail_105.mtl
g BRail_105_default1
v 665.825562 -0.153884 110.655449
v 680.501038 -0.153884 105.022057
v 667.813232 19.495605 109.892456
v 678.513367 19.495605 105.785049
v 672.418274 19.495605 121.889030
v 683.118408 19.495605 117.781616
v 670.430603 -0.153884 122.652023
v 685.106079 -0.153884 117.018623
vt 0.375000 0.000000
vt 0.625000 0.000000
vt 0.625000 0.250000
vt 0.375000 0.250000
vt 0.625000 0.500000
vt 0.375000 0.500000
vt 0.625000 0.750000
vt 0.375000 0.750000
vt 0.625000 1.000000
vt 0.375000 1.000000
vt 0.875000 0.000000
vt 0.875000 0.250000
vt 0.125000 0.000000
vt 0.125000 0.250000
vn -0.358368 0.000000 -0.933580
vn -0.358368 0.000000 -0.933580
vn -0.358368 0.000000 -0.933580
vn -0.358368 0.000000 -0.933580
vn 0.000000 1.000000 0.000000
vn 0.000000 1.000000 0.000000
vn 0.000000 1.000000 0.000000
vn 0.000000 1.000000 0.000000
vn 0.358368 0.000000 0.933580
vn 0.358368 0.000000 0.933580
vn 0.358368 0.000000 0.933580
vn 0.358368 0.000000 0.933580
vn 0.000000 -1.000000 0.000000
vn 0.000000 -1.000000 0.000000
vn 0.000000 -1.000000 0.000000
vn 0.000000 -1.000000 0.000000
vn 0.928148 0.107722 -0.356283
vn 0.928148 0.107722 -0.356283
vn 0.928148 0.107722 -0.356283
vn 0.928148 0.107722 -0.356283
vn -0.928148 0.107722 0.356283
vn -0.928148 0.107722 0.356283
vn -0.928148 0.107722 0.356283
vn -0.928148 0.107722 0.356283
s off
g BRail_105_group89 BRail_105_group91 BRail_105_group94 BRail_105_polySurface24 BRail_105_polySurface148 BRail_105_polySurface1 group145
usemtl BRail_105_initialShadingGroup
f 1/1/1 3/4/2 4/3/3 2/2/4
f 3/4/5 5/6/6 6/5/7 4/3/8
f 5/6/9 7/8/10 8/7/11 6/5/12
f 7/8/13 1/10/14 2/9/15 8/7/16
f 2/2/17 4/3/18 6/12/19 8/11/20
f 7/13/21 5/14/22 3/4/23 1/1/24
g default
v 665.825562 -0.153884 110.655449
v 680.501038 -0.153884 105.022057
v 667.813232 19.495605 109.892456
v 678.513367 19.495605 105.785049
v 672.418274 19.495605 121.889030
v 683.118408 19.495605 117.781616
v 670.430603 -0.153884 122.652023
v 685.106079 -0.153884 117.018623
vt 0.375000 0.000000
vt 0.625000 0.000000
vt 0.625000 0.250000
vt 0.375000 0.250000
vt 0.625000 0.500000
vt 0.375000 0.500000
vt 0.625000 0.750000
vt 0.375000 0.750000
vt 0.625000 1.000000
vt 0.375000 1.000000
vt 0.875000 0.000000
vt 0.875000 0.250000
vt 0.125000 0.000000
vt 0.125000 0.250000
vn -0.358368 0.000000 -0.933580
vn -0.358368 0.000000 -0.933580
vn -0.358368 0.000000 -0.933580
vn -0.358368 0.000000 -0.933580
vn 0.000000 1.000000 0.000000
vn 0.000000 1.000000 0.000000
vn 0.000000 1.000000 0.000000
vn 0.000000 1.000000 0.000000
vn 0.358368 0.000000 0.933580
vn 0.358368 0.000000 0.933580
vn 0.358368 0.000000 0.933580
vn 0.358368 0.000000 0.933580
vn 0.000000 -1.000000 0.000000
vn 0.000000 -1.000000 0.000000
vn 0.000000 -1.000000 0.000000
vn 0.000000 -1.000000 0.000000
vn 0.928148 0.107722 -0.356283
vn 0.928148 0.107722 -0.356283
vn 0.928148 0.107722 -0.356283
vn 0.928148 0.107722 -0.356283
vn -0.928148 0.107722 0.356283
vn -0.928148 0.107722 0.356283
vn -0.928148 0.107722 0.356283
vn -0.928148 0.107722 0.356283
s off
g BRail_105_polySurface1 group145
f 9/15/25 11/18/26 12/17/27 10/16/28
f 11/18/29 13/20/30 14/19/31 12/17/32
f 13/20/33 15/22/34 16/21/35 14/19/36
f 15/22/37 9/24/38 10/23/39 16/21/40
f 10/16/41 12/17/42 14/26/43 16/25/44
f 15/27/45 13/28/46 11/18/47 9/15/48
