# This file uses centimeters as units for non-parametric coordinates.

mtllib Climbable_06.mtl
g default
v 346.000000 0.000000 125.000000
v 338.000000 0.000000 125.000000
v 338.000000 100.000000 125.000000
v 438.000000 100.000000 125.000000
v 438.000000 49.000011 125.000015
v 346.000000 49.000000 125.000000
v 338.000000 0.000000 150.000000
v 438.000000 0.000000 150.000000
v 438.000000 100.000000 150.000000
v 338.000000 100.000000 150.000000
v 438.000000 0.000000 125.000015
vt 0.375000 0.000000
vt 0.625000 0.000000
vt 0.375000 0.250000
vt 0.625000 0.250000
vt 0.375000 1.000000
vt 0.625000 1.000000
vt 0.275263 0.250000
vt 0.238051 0.250000
vt 0.275263 0.181522
vt 0.238051 0.181522
vt 0.687500 0.000000
vt 0.687500 0.122500
vt 0.625000 0.937500
vt 0.396691 0.937500
vt 0.586500 0.737750
vt 0.609500 0.737750
vt 0.609500 0.725000
vt 0.584500 0.725000
vt 0.584500 0.750000
vt 0.586500 0.750000
vt 0.687500 0.250000
vt 0.375000 0.312500
vt 0.625000 0.312500
vt 0.312500 0.000000
vt 0.312500 0.250000
vt 0.375000 0.937500
vn 0.000000 0.000000 -1.000000
vn 0.000000 0.000000 -1.000000
vn 0.000000 -0.000000 -1.000000
vn 0.000000 0.000000 -1.000000
vn 0.000000 -0.000000 -1.000000
vn 0.000000 -0.000000 -1.000000
vn 0.000000 0.000000 1.000000
vn 0.000000 0.000000 1.000000
vn 0.000000 0.000000 1.000000
vn 0.000000 0.000000 1.000000
vn 0.000000 0.000000 -1.000000
vn 0.000000 0.000000 -1.000000
vn 0.000000 0.000000 -1.000000
vn 0.000000 0.000000 -1.000000
vn 1.000000 -0.000000 0.000000
vn 1.000000 -0.000000 0.000000
vn 1.000000 -0.000000 0.000000
vn 1.000000 0.000000 0.000000
vn 1.000000 0.000000 0.000000
vn 0.000000 1.000000 0.000000
vn 0.000000 1.000000 0.000000
vn 0.000000 1.000000 0.000000
vn 0.000000 1.000000 0.000000
vn -1.000000 0.000000 0.000000
vn -1.000000 0.000000 0.000000
vn -1.000000 0.000000 0.000000
vn -1.000000 0.000000 0.000000
vn 0.000000 -1.000000 0.000000
vn 0.000000 -1.000000 0.000000
vn 0.000000 -1.000000 0.000000
vn 0.000000 -1.000000 0.000000
vn 0.000000 -1.000000 0.000000
s 1
g polySurface311
usemtl initialShadingGroup
f 1/20/1 2/19/2 6/15/3
f 2/19/2 3/18/4 6/15/3
f 3/18/4 4/17/5 6/15/3
f 4/17/5 5/16/6 6/15/3
s off
f 7/1/7 8/2/8 9/4/9 10/3/10
f 11/10/11 1/9/12 6/7/13 5/8/14
s 2
f 4/21/15 9/4/16 5/12/17
f 9/4/16 8/2/18 5/12/17
f 5/12/17 8/2/18 11/11/19
s off
f 4/23/20 3/22/21 10/3/22 9/4/23
f 3/25/24 2/24/25 7/1/26 10/3/27
s 3
f 2/26/28 1/14/29 7/5/30
f 7/5/30 1/14/29 8/6/31
f 1/14/29 11/13/32 8/6/31
