# This file uses centimeters as units for non-parametric coordinates.

mtllib Exterior_02.mtl
g default
v 707.041046 -80.999985 502.882446
v 707.023651 -81.000000 593.882446
v 700.402832 -81.000000 593.882446
v 700.402832 -80.999985 502.882446
v 515.402832 -80.999985 772.882446
v 196.316162 -81.000015 772.882446
v 707.085602 -80.999985 272.905945
v 707.051788 -81.000000 446.882446
v 644.458130 -81.000000 446.882446
v 644.458130 -80.999985 446.937866
v 644.402832 -80.999985 446.937866
v 644.402832 -80.999985 593.882446
v 515.402832 -81.000000 593.882446
v 515.402832 -80.999985 649.882446
v 571.402832 -80.999985 649.882446
v 571.402832 -81.000000 772.882446
v 707.012939 -80.999985 649.882446
v 706.989899 -80.999985 772.882446
v 706.992065 0.000000 772.882446
v 95.296143 0.000000 772.882446
v 707.106689 0.000000 174.000000
vt 0.388340 0.823750
vt 0.388345 0.801000
vt 0.390000 0.801000
vt 0.390000 0.823750
vt 0.403986 0.837736
vt 0.404000 0.837736
vt 0.403986 0.837750
vt 0.404000 0.801000
vt 0.436250 0.801000
vt 0.422250 0.787000
vt 0.422250 0.756250
vt 0.436250 0.787000
vt 0.436250 0.756250
vt 0.516022 0.756250
vt 0.388338 0.837750
vt 0.388329 0.881244
vt 0.422250 0.756250
vt 0.422250 0.787000
vt 0.388353 0.756250
vt 0.388347 0.787000
vt 0.436250 0.787000
vt 0.436250 0.801000
vt 0.404000 0.801000
vt 0.404000 0.837736
vt 0.403986 0.837736
vt 0.403986 0.837750
vt 0.388338 0.837750
vt 0.388340 0.823750
vt 0.390000 0.823750
vt 0.390000 0.801000
vt 0.388345 0.801000
vt 0.535277 0.625000
vt 0.510022 0.645250
vt 0.382353 0.625000
vt 0.430250 0.645250
vt 0.416250 0.645250
vt 0.382353 0.645250
vt 0.750000 0.250000
vt 0.533733 0.250000
vt 0.532948 0.032948
vt 0.697745 0.571432
vt 0.607142 0.571432
vt 0.625000 0.500000
vt 0.733526 0.500000
vt 1.000000 0.000000
vt 0.290598 0.454038
vt 0.822928 -0.018626
vt 0.616845 0.113273
vt 0.550511 0.155729
vt 0.442717 0.224720
vt 0.376383 0.267176
vt 0.242605 0.379053
vn 0.000000 -1.000000 0.000000
vn 0.000000 -1.000000 0.000000
vn 0.000000 -1.000000 0.000000
vn 0.000000 -1.000000 0.000000
vn 0.000000 -1.000000 0.000311
vn 0.000001 -1.000000 0.000001
vn 0.000000 -1.000000 0.000000
vn 0.000000 -1.000000 0.000000
vn 0.000000 -1.000000 0.000000
vn 0.000001 -1.000000 0.000001
vn 0.000000 -1.000000 0.000000
vn 0.000000 -1.000000 0.000000
vn 0.000000 -1.000000 0.000000
vn 0.000000 -1.000000 0.000000
vn 0.000000 -1.000000 0.000000
vn 0.000000 -1.000000 0.000000
vn 0.000000 -1.000000 0.000000
vn 0.000000 -1.000000 0.000000
vn 0.000000 -1.000000 0.000000
vn 0.000000 -1.000000 0.000000
vn 0.000000 -1.000000 0.000000
vn 0.000000 -1.000000 0.000000
vn 0.000000 -1.000000 0.000000
vn 0.000000 -1.000000 0.000000
vn 0.000000 -1.000000 0.000000
vn 0.000000 -1.000000 0.000000
vn 0.000001 -1.000000 0.000001
vn 0.000000 -1.000000 0.000000
vn 0.000001 -1.000000 0.000001
vn 0.000000 -1.000000 0.000000
vn 0.000000 -1.000000 0.000000
vn 0.000000 -1.000000 0.000000
vn 0.000000 -1.000000 0.000000
vn 0.000000 -1.000000 0.000000
vn 0.000000 -1.000000 0.000000
vn 0.000000 -1.000000 0.000000
vn 0.000000 -1.000000 0.000000
vn 0.000000 -1.000000 0.000000
vn 0.000000 -1.000000 0.000000
vn 0.000000 -1.000000 0.000000
vn 0.000000 -1.000000 0.000000
vn 0.000000 -1.000000 0.000000
vn 0.000000 -1.000000 0.000000
vn 0.000000 -1.000000 0.000000
vn 0.000000 -1.000000 0.000000
vn 0.000000 -1.000000 0.000000
vn 0.000000 -1.000000 0.000000
vn 0.000000 -1.000000 0.000000
vn 0.000000 -1.000000 0.000000
vn 0.000000 -1.000000 0.000000
vn 0.000000 -1.000000 0.000000
vn 0.000000 -1.000000 0.000000
vn 0.000000 -1.000000 0.000282
vn 0.000000 -1.000000 0.000000
vn 0.000000 -1.000000 0.000000
vn 0.000000 -1.000000 0.000000
vn 0.000000 -1.000000 0.000000
vn 0.000000 -1.000000 0.000000
vn 0.000000 -1.000000 0.000000
vn 0.000000 -1.000000 0.000000
vn 0.000000 -1.000000 0.000000
vn 0.000000 -1.000000 0.000000
vn 0.000000 -1.000000 0.000000
vn 0.000000 -1.000000 0.000000
vn 0.000000 -1.000000 0.000000
vn 0.000000 -1.000000 0.000000
vn 0.000000 -1.000000 0.000000
vn 0.000000 -1.000000 0.000001
vn 0.000000 -1.000000 0.000000
vn 0.000000 -1.000000 0.000000
vn 0.000000 -1.000000 0.000000
vn 0.000000 -1.000000 0.000000
vn 0.000000 -1.000000 0.000000
vn -0.000000 0.000000 1.000000
vn -0.000000 0.000000 1.000000
vn -0.000000 0.000000 1.000000
vn -0.000000 0.000000 1.000000
vn -0.000000 0.000000 1.000000
vn -0.000000 0.000000 1.000000
vn -0.000000 0.000000 1.000000
vn -0.000000 0.000000 1.000000
vn -0.000000 0.000000 1.000000
vn -0.000000 0.000000 1.000000
vn -0.000000 0.000000 1.000000
vn -0.000000 0.000000 1.000000
vn 0.000000 1.000000 0.000000
vn 0.000000 1.000000 0.000000
vn 0.000000 1.000000 0.000000
vn -0.527116 -0.657398 -0.538495
vn -0.527116 -0.657398 -0.538495
vn -0.527116 -0.657398 -0.538495
vn -0.527116 -0.657398 -0.538495
vn 1.000000 -0.000027 0.000191
vn 1.000000 -0.000028 0.000190
vn 1.000000 -0.000027 0.000191
vn 1.000000 -0.000027 0.000191
vn 1.000000 -0.000028 0.000190
vn 1.000000 -0.000045 0.000194
vn 1.000000 -0.000045 0.000194
vn 1.000000 -0.000028 0.000190
vn 1.000000 -0.000034 0.000192
vn 1.000000 -0.000034 0.000192
vn 1.000000 -0.000028 0.000190
vn 1.000000 -0.000033 0.000191
vn 1.000000 -0.000033 0.000191
vn 1.000000 -0.000028 0.000190
vn 1.000000 -0.000030 0.000190
vn 1.000000 -0.000027 0.000187
vn 1.000000 -0.000030 0.000190
vn 1.000000 -0.000028 0.000190
s off
g Base_12_polySurface368 group1064
usemtl Base_12_initialShadingGroup2
f 1/1/1 2/2/2 3/3/3 4/4/4
f 10/5/5 11/6/6 9/7/7
f 12/8/8 13/9/9 11/6/10
f 15/10/11 16/11/12 14/12/13
f 16/11/14 5/13/15 14/12/16
f 5/13/17 6/14/18 14/12/19
f 8/15/20 9/7/21 7/16/22
f 7/16/23 9/7/24 6/14/25
f 9/7/26 11/6/27 6/14/28
f 11/6/29 13/9/30 6/14/31
f 6/14/32 13/9/33 14/12/34
f 16/17/35 15/18/36 18/19/37
f 18/19/38 15/18/39 17/20/40
f 14/21/41 13/22/42 15/18/43
f 13/22/44 12/23/45 15/18/46
f 15/18/47 12/23/48 17/20/49
f 11/24/50 10/25/51 12/23/52
f 9/26/53 8/27/54 10/25/55
f 8/27/56 1/28/57 10/25/58
f 1/28/59 4/29/60 10/25/61
f 10/25/62 4/29/63 12/23/64
f 4/29/65 3/30/66 12/23/67
f 2/31/68 17/20/69 3/30/70
f 17/20/71 12/23/72 3/30/73
f 20/32/74 6/33/75 19/34/76
f 6/33/77 5/35/78 19/34/79
f 5/35/80 16/36/81 19/34/82
f 16/36/83 18/37/84 19/34/85
f 20/38/86 19/39/87 21/40/88
f 7/41/89 6/42/90 20/43/91 21/44/92
f 21/45/93 19/46/94 7/47/95
f 7/47/96 19/46/97 8/48/98
f 8/48/99 19/46/100 1/49/101
f 1/49/102 19/46/103 2/50/104
f 2/50/105 19/46/106 17/51/107
f 18/52/108 17/51/109 19/46/110
