# This file uses centimeters as units for non-parametric coordinates.

mtllib Float_02.mtl
g default
v -388.226366 56.147374 -741.226378
v -475.773624 56.147374 -741.226368
v -475.773630 56.147374 -828.773626
v -388.226372 56.147374 -828.773628
v -432.000000 34.138250 -785.000000
vt 0.500000 0.000000
vt 0.250000 0.250000
vt 0.500000 0.500000
vt 0.750000 0.250000
vt 0.250000 0.500000
vt 0.375000 0.500000
vt 0.500000 0.500000
vt 0.625000 0.500000
vt 0.750000 0.500000
vt 0.500000 1.000000
vn -0.000000 1.000000 -0.000000
vn -0.000000 1.000000 -0.000000
vn -0.000000 1.000000 -0.000000
vn -0.000000 1.000000 -0.000000
vn 0.000000 -0.893426 0.449210
vn 0.000000 -0.893426 0.449210
vn 0.000000 -0.893426 0.449210
vn -0.449210 -0.893426 0.000000
vn -0.449210 -0.893426 0.000000
vn -0.449210 -0.893426 0.000000
vn -0.000000 -0.893426 -0.449210
vn -0.000000 -0.893426 -0.449210
vn -0.000000 -0.893426 -0.449210
vn 0.449209 -0.893426 -0.000000
vn 0.449209 -0.893426 -0.000000
vn 0.449209 -0.893426 -0.000000
s off
g pPyramid23 group124
usemtl initialShadingGroup
f 1/1/1 4/4/2 3/3/3 2/2/4
f 1/5/5 2/6/6 5/10/7
f 2/6/8 3/7/9 5/10/10
f 3/7/11 4/8/12 5/10/13
f 4/8/14 1/9/15 5/10/16
