# This file uses centimeters as units for non-parametric coordinates.

mtllib Float_04.mtl
g default
v -126.159254 125.602462 -848.159281
v -329.840723 125.602462 -848.159259
v -329.840737 125.602462 -1051.840728
v -126.159268 125.602462 -1051.840732
v -228.000000 74.397538 -950.000000
vt 0.500000 0.000000
vt 0.250000 0.250000
vt 0.500000 0.500000
vt 0.750000 0.250000
vt 0.250000 0.500000
vt 0.375000 0.500000
vt 0.500000 0.500000
vt 0.625000 0.500000
vt 0.750000 0.500000
vt 0.500000 1.000000
vn -0.000000 1.000000 -0.000000
vn -0.000000 1.000000 -0.000000
vn -0.000000 1.000000 -0.000000
vn -0.000000 1.000000 -0.000000
vn 0.000000 -0.893426 0.449210
vn 0.000000 -0.893426 0.449210
vn 0.000000 -0.893426 0.449210
vn -0.449210 -0.893426 0.000000
vn -0.449210 -0.893426 0.000000
vn -0.449210 -0.893426 0.000000
vn -0.000000 -0.893426 -0.449210
vn -0.000000 -0.893426 -0.449210
vn -0.000000 -0.893426 -0.449210
vn 0.449210 -0.893426 -0.000000
vn 0.449210 -0.893426 -0.000000
vn 0.449210 -0.893426 -0.000000
s off
g pPyramid20
usemtl initialShadingGroup
f 1/1/1 4/4/2 3/3/3 2/2/4
f 1/5/5 2/6/6 5/10/7
f 2/6/8 3/7/9 5/10/10
f 3/7/11 4/8/12 5/10/13
f 4/8/14 1/9/15 5/10/16
