# This file uses centimeters as units for non-parametric coordinates.

mtllib Floor_02.mtl
g default
v -93.886673 -223.925842 500.000000
v -272.235229 -81.000000 500.000000
v -93.886139 -80.999985 500.000000
v -93.962799 -81.000000 674.108521
vt 0.239869 0.250000
vt 0.606278 0.838750
vt 0.606259 0.882277
vt 0.164788 0.000000
vt 0.382107 0.113861
vt 0.302693 0.571471
vt 0.470441 0.621000
vt 0.515028 0.656731
vt 0.488723 -0.051406
vt 0.561691 0.838750
vt 0.365614 0.697582
vt 0.334086 0.571471
vn 0.000000 0.000000 -1.000000
vn 0.000000 0.000000 -1.000000
vn 0.000000 0.000000 -1.000000
vn 1.000000 -0.000004 0.000440
vn 1.000000 -0.000004 0.000440
vn 1.000000 -0.000004 0.000440
vn -0.000000 1.000000 0.000000
vn -0.000000 1.000000 0.000000
vn -0.000000 1.000000 0.000000
vn -0.526644 -0.657167 0.539239
vn -0.526644 -0.657167 0.539239
vn -0.526644 -0.657167 0.539239
s off
g polySurface405
usemtl initialShadingGroup
f 2/7/1 3/1/2 1/8/3
f 1/9/4 3/5/5 4/4/6
f 2/10/7 4/3/8 3/2/9
f 2/12/10 1/11/11 4/6/12
