# This file uses centimeters as units for non-parametric coordinates.

mtllib Floor_15.mtl
g default
v 231.000000 -56.000000 69.000000
v 231.000000 -56.000000 125.000000
v 52.000000 -56.000000 125.000000
v 52.000000 -56.000000 69.000000
v 231.000000 -8.000000 125.000000
v 231.000000 -8.000000 69.000000
v 52.000000 -8.000000 69.000000
v 52.000000 -8.000000 125.000000
vt 0.641414 0.081343
vt 0.752242 0.081343
vt 0.377750 0.000000
vt 0.377750 0.012000
vt 0.752242 0.073661
vt 0.382250 0.000000
vt 0.719298 0.037960
vt 0.422250 0.731750
vt 0.385250 0.873250
vt 0.385250 0.859250
vt 0.430000 0.859250
vt 0.430000 0.873250
vt 0.382250 0.012000
vt 0.719298 0.075146
vt 0.677716 0.075146
vt 0.377500 0.731750
vt 0.384500 0.912750
vt 0.384500 0.926750
vt 0.429250 0.926750
vt 0.429250 0.912750
vt 0.641414 0.073661
vt 0.677716 0.037960
vt 0.422250 0.743750
vt 0.377500 0.743750
vn 0.000000 -1.000000 0.000000
vn 0.000000 -1.000000 0.000000
vn 0.000000 -1.000000 0.000000
vn 0.000000 -1.000000 0.000000
vn 0.000000 1.000000 0.000000
vn 0.000000 1.000000 0.000000
vn 0.000000 1.000000 0.000000
vn 0.000000 1.000000 0.000000
vn 1.000000 0.000000 0.000000
vn 1.000000 0.000000 0.000000
vn 1.000000 0.000000 0.000000
vn 1.000000 0.000000 0.000000
vn 0.000000 0.000000 -1.000000
vn 0.000000 0.000000 -1.000000
vn 0.000000 0.000000 -1.000000
vn 0.000000 0.000000 -1.000000
vn -1.000000 0.000000 0.000000
vn -1.000000 0.000000 0.000000
vn -1.000000 0.000000 0.000000
vn -1.000000 0.000000 0.000000
vn 0.000000 0.000000 1.000000
vn 0.000000 0.000000 1.000000
vn 0.000000 0.000000 1.000000
vn 0.000000 0.000000 1.000000
s 1
g polySurface440
usemtl initialShadingGroup
f 4/17/1 1/20/2 3/18/3
f 3/18/3 1/20/2 2/19/4
s 2
f 5/12/5 6/11/6 8/9/7
f 8/9/7 6/11/6 7/10/8
s 3
f 5/1/9 2/21/10 6/2/11
f 6/2/11 2/21/10 1/5/12
s 4
f 6/4/13 1/3/14 7/13/15
f 7/13/15 1/3/14 4/6/16
s 5
f 4/7/17 3/22/18 7/14/19
f 7/14/19 3/22/18 8/15/20
s 6
f 3/24/21 2/23/22 8/16/23
f 8/16/23 2/23/22 5/8/24
