# This file uses centimeters as units for non-parametric coordinates.

mtllib Floor_23.mtl
g default
v 52.000008 -130.000000 125.000000
v 52.000000 -130.000000 174.000000
v 52.000000 -81.000000 125.000000
v 231.000000 -81.000000 125.000000
v 231.000000 -130.000000 173.999878
v 231.000000 -81.000000 173.999878
v 52.000000 -81.000000 174.000000
v 231.000000 -130.000000 125.000000
vt 0.641414 0.061817
vt 0.272913 0.000000
vt 0.272913 0.250000
vt 0.422250 0.762250
vt 0.377500 0.762250
vt 0.422250 0.750000
vt 0.471917 0.114167
vt 0.471917 0.118250
vt 0.641414 0.069659
vt 0.641332 0.018593
vt 0.361613 0.792457
vt 0.558000 0.249000
vt 0.596250 0.343750
vt 0.596250 0.356000
vt 0.625000 0.500000
vt 0.862750 0.237750
vt 0.875000 0.237750
vt 0.580250 0.500000
vt 0.377500 0.750000
vt 0.551500 0.356000
vt 0.551500 0.343750
vt 0.513250 0.249000
vt 0.677716 0.018593
vt 0.374100 0.733526
vn -1.000000 -0.000000 -0.000000
vn -1.000000 -0.000000 -0.000000
vn -1.000000 -0.000000 -0.000000
vn -1.000000 0.000000 0.000000
vn 0.000000 0.000000 -1.000000
vn 0.000000 0.000000 -1.000000
vn 0.000000 0.000000 -1.000000
vn 0.000000 0.000000 -1.000000
vn 1.000000 0.000000 0.000000
vn 1.000000 0.000000 0.000000
vn 1.000000 0.000000 0.000000
vn 1.000000 0.000000 0.000000
vn 0.000000 1.000000 0.000000
vn 0.000000 1.000000 0.000000
vn 0.000000 1.000000 0.000000
vn 0.000000 1.000000 0.000000
vn 0.000000 -1.000000 0.000000
vn 0.000000 -1.000000 0.000000
vn 0.000000 -1.000000 0.000000
vn 0.000000 -1.000000 0.000000
vn 0.000001 0.000000 1.000000
vn 0.000001 0.000000 1.000000
vn 0.000001 0.000000 1.000000
vn 0.000001 0.000000 1.000000
s 1
g polySurface448
usemtl initialShadingGroup
f 1/17/1 2/16/2 3/23/3
f 3/23/3 2/16/2 7/10/4
s 2
f 1/22/5 3/15/6 8/12/7
f 8/12/7 3/15/6 4/18/8
s 3
f 6/3/9 5/2/10 4/9/11
f 4/9/11 5/2/10 8/1/12
s 4
f 7/5/13 6/4/14 3/19/15
f 3/19/15 6/4/14 4/6/16
s 5
f 5/13/17 2/21/18 8/14/19
f 8/14/19 2/21/18 1/20/20
s 6
f 2/24/21 5/7/22 7/11/23
f 7/11/23 5/7/22 6/8/24
