# This file uses centimeters as units for non-parametric coordinates.

v -95.380829 -130.000000 353.000000
v -95.363403 -130.000000 444.000000
v -102.000000 -130.000000 444.000000
v -102.000000 -130.000000 353.000000
v -102.000000 -81.000000 353.000000
v -102.000000 -80.999985 444.000000
v -95.361786 -80.999985 444.000000
v -95.379181 -81.000000 353.000000
vt 0.739521 0.250000
vt 0.739520 0.000000
vt 0.260484 0.000000
vt 0.260484 0.250000
vt 0.262048 0.250000
vt 0.737952 0.000000
vt 0.738679 0.250000
vt 0.761335 0.000000
vt 0.390000 0.823750
vt 0.388340 0.823750
vt 0.388345 0.801000
vt 0.390000 0.801000
vt 0.406473 0.168091
vt 0.442717 0.224720
vt 0.550511 0.155729
vt 0.514267 0.099100
vt 0.737952 0.250000
vt 0.761335 0.250000
vt 0.388500 0.967500
vt 0.388500 0.990250
vt 0.386841 0.990250
vt 0.386845 0.967500
vt 0.262048 0.000000
vt 0.738679 0.000000
vn 0.000000 -1.000000 0.000000
vn 0.000000 -1.000000 0.000000
vn 0.000000 -1.000000 0.000000
vn 0.000000 -1.000000 0.000000
vn 0.000000 1.000000 -0.000000
vn 0.000000 1.000000 -0.000000
vn 0.000000 1.000000 -0.000000
vn 0.000000 1.000000 -0.000000
vn 0.000000 0.000000 -1.000000
vn 0.000000 0.000000 -1.000000
vn 0.000000 0.000000 -1.000000
vn 0.000000 0.000000 -1.000000
vn -1.000000 0.000000 0.000000
vn -1.000000 0.000000 0.000000
vn -1.000000 0.000000 0.000000
vn -1.000000 0.000000 0.000000
vn 0.000000 0.000000 1.000000
vn 0.000000 0.000000 1.000000
vn 0.000000 0.000000 1.000000
vn 0.000000 0.000000 1.000000
vn 1.000000 -0.000033 -0.000191
vn 1.000000 -0.000033 -0.000191
vn 1.000000 -0.000033 -0.000191
vn 1.000000 -0.000033 -0.000191
s off
f 1/22/1 2/21/2 3/20/3 4/19/4
f 5/12/5 6/9/6 7/10/7 8/11/8
f 1/3/9 4/23/10 5/5/11 8/4/12
f 4/24/13 3/8/14 6/18/15 5/7/16
f 3/6/17 2/2/18 7/1/19 6/17/20
f 2/16/21 1/13/22 8/14/23 7/15/24
