# This file uses centimeters as units for non-parametric coordinates.

v -158.000000 -130.000000 499.944702
v -158.000000 -130.000000 500.000000
v -157.944702 -130.000000 500.000000
v -157.944702 -130.000000 499.944702
v -231.000000 -381.752594 174.000000
v -231.000000 -130.000000 174.000000
v -231.000000 -130.000000 297.000000
v -231.000000 -280.999542 297.000000
v -287.000000 -336.850586 174.000000
v -287.000000 -130.000000 174.000000
v -287.000000 -130.000000 353.000000
v -287.000000 -130.000000 297.000000
v -287.000000 -190.226227 353.000000
v -95.363403 -130.000000 444.000000
v -95.380829 -130.000000 353.000000
v -102.000000 -130.000000 353.000000
v -102.000000 -130.000000 444.000000
v -158.000000 -130.000000 353.000000
v -158.000000 -130.000000 297.000000
v -157.944702 -130.000000 297.000000
v -102.000000 -130.000000 297.000000
v -95.391541 -130.000000 297.000000
v -95.397583 -389.728485 297.000000
v -95.355942 -130.000000 483.000000
v -95.352692 -130.000000 500.000000
v -95.354309 -223.479691 500.000000
v -158.000000 -173.249023 500.000000
v -158.000000 -293.661194 353.000000
v -158.000000 -130.000000 483.000000
vt 0.375000 0.849737
vt 0.375000 0.900263
vt 0.654676 0.849723
vt 0.654628 0.863665
vt 0.625000 0.886321
vt 0.654550 0.886321
vt 0.654502 0.900263
vt 0.375247 0.900263
vt 0.375247 0.849737
vt 0.375000 0.886321
vt 0.049107 0.827803
vt 0.049107 0.849737
vt 0.375000 0.897913
vt 0.625000 0.897913
vt 0.340139 0.210547
vt 0.406473 0.168091
vt 0.514267 0.099100
vt 0.580601 0.056644
vt 0.430250 0.657500
vt 0.416250 0.657500
vt 0.198750 0.170500
vt 0.168000 0.170500
vt 0.168000 0.118787
vt 0.430250 0.709213
vt 0.625000 0.849737
vt 0.550735 0.797060
vt 0.419339 0.656620
vt 0.419338 0.633250
vt 0.634806 0.697081
vt 0.536574 -0.012145
vt 0.125000 0.204750
vt 0.125000 0.163835
vt 0.161750 0.193938
vt 0.161736 0.204750
vt 0.407250 0.545250
vt 0.407250 0.560307
vt 0.375000 0.586165
vt 0.375000 0.545250
vt 0.212750 0.155443
vt 0.212750 0.170500
vt 0.625000 0.827803
vt 0.615498 0.667756
vt 0.645880 0.652784
vt 0.592694 0.758973
vt 0.435000 0.644062
vt 0.655750 0.204750
vt 0.625000 0.204750
vt 0.625000 0.167000
vt 0.655750 0.141812
vt 0.592750 0.204750
vt 0.591098 0.204750
vt 0.591099 0.139818
vt 0.625000 0.167000
vt 0.625000 0.204750
vt 0.606750 0.204750
vt 0.606736 0.204750
vt 0.561366 0.843692
vt 0.540835 0.836658
vt 0.585338 0.747807
vt 0.148025 -0.089617
vt 0.625000 0.900263
vt 0.375000 0.849737
vt 0.416250 0.720438
vt 0.388500 0.990250
vt 0.388500 0.967500
vt 0.386845 0.967500
vt 0.386841 0.990250
vt 0.157500 0.204750
vt 0.625000 0.863665
vt 0.654661 0.853955
vt 0.375000 0.853955
vt 0.560464 0.069533
vt 0.592014 0.358764
vt 0.592014 0.358750
vt 0.592000 0.358750
vt 0.592000 0.358764
vt 0.375247 0.849723
vt 0.435000 0.633250
vt 0.434986 0.633250
vt 0.161750 0.204750
vn 0.000000 1.000000 0.000000
vn 0.000000 1.000000 0.000000
vn 0.000000 1.000000 0.000000
vn 0.000000 1.000000 0.000000
vn 1.000000 0.000000 0.000000
vn 1.000000 0.000000 0.000000
vn 1.000000 0.000000 0.000000
vn 1.000000 0.000000 0.000000
vn 0.000000 0.000000 -1.000000
vn 0.000000 0.000000 -1.000000
vn 0.000000 0.000000 -1.000000
vn 0.000000 0.000000 -1.000000
vn -1.000000 0.000000 0.000000
vn -1.000000 0.000000 0.000000
vn -1.000000 0.000000 0.000000
vn -1.000000 0.000000 0.000000
vn -1.000000 0.000000 0.000000
vn 0.000000 1.000000 0.000000
vn 0.000000 1.000000 0.000000
vn 0.000000 1.000000 0.000000
vn 0.000000 1.000000 0.000000
vn 0.000000 1.000000 0.000000
vn 0.000000 1.000000 0.000000
vn 0.000000 1.000000 0.000000
vn 0.000000 1.000000 0.000000
vn 0.000000 1.000000 0.000000
vn 0.000000 1.000000 0.000000
vn 0.000000 1.000000 0.000000
vn 0.000000 0.000000 -1.000000
vn 0.000000 0.000000 -1.000000
vn 0.000000 0.000000 -1.000000
vn 0.000000 0.000000 -1.000000
vn 0.000000 0.000000 -1.000000
vn 0.000000 0.000000 -1.000000
vn 0.000000 0.000000 -1.000000
vn 1.000000 -0.000022 -0.000193
vn 1.000000 -0.000022 -0.000193
vn 1.000000 -0.000022 -0.000193
vn 1.000000 -0.000022 -0.000193
vn 1.000000 -0.000022 -0.000193
vn 1.000000 -0.000022 -0.000193
vn 1.000000 -0.000022 -0.000193
vn -0.527116 -0.657398 0.538495
vn -0.527116 -0.657398 0.538495
vn -0.527116 -0.657398 0.538495
vn -0.527116 -0.657398 0.538495
vn -0.527116 -0.657398 0.538495
vn -0.527116 -0.657398 0.538495
vn -0.527116 -0.657398 0.538495
vn -0.527116 -0.657398 0.538495
vn -0.000000 0.000000 1.000000
vn -0.000000 0.000000 1.000000
vn -0.000000 0.000000 1.000000
vn -0.000000 0.000000 1.000000
vn 0.000000 1.000000 -0.000000
vn 0.000000 1.000000 -0.000000
vn 0.000000 1.000000 -0.000000
vn 0.000000 1.000000 -0.000000
vn 0.000000 1.000000 -0.000000
vn 0.000000 1.000000 -0.000000
vn 0.000000 1.000000 -0.000000
vn 0.000000 1.000000 -0.000000
vn 0.000000 1.000000 -0.000000
vn 0.000000 1.000000 -0.000000
vn 0.000000 1.000000 -0.000000
vn 0.000000 1.000000 -0.000000
vn 0.000000 1.000000 -0.000000
vn 0.000000 1.000000 -0.000000
vn 0.000000 1.000000 -0.000000
vn 0.000000 0.000000 1.000000
vn 0.000000 0.000000 1.000000
vn 0.000000 0.000000 1.000000
vn 0.000000 0.000000 1.000000
vn 0.000000 0.000000 1.000000
vn -1.000000 0.000000 0.000000
vn -1.000000 0.000000 0.000000
vn -1.000000 0.000000 0.000000
vn -1.000000 0.000000 0.000000
vn -1.000000 0.000000 0.000000
vn -1.000000 0.000000 0.000000
s off
f 1/76/1 2/75/2 3/74/3 4/73/4
f 5/49/5 6/46/6 7/47/7 8/48/8
f 5/63/9 9/24/10 10/19/11 6/20/12
f 11/40/13 12/21/14 10/22/15 9/23/16 13/39/17
f 14/67/18 15/66/19 16/65/20 17/64/21
f 6/13/22 10/14/23 12/25/24 11/41/25 18/11/26 19/12/27 7/62/28
f 20/56/29 21/50/30 22/51/31 23/52/32 8/53/33 7/54/34 19/55/35
f 15/16/36 14/17/37 24/72/38 25/18/39 26/30/40 23/60/41 22/15/42
f 8/59/43 23/57/44 26/29/45 27/43/46 28/44/47 13/42/48 9/26/49 5/58/50
f 18/38/51 11/35/52 13/36/53 28/37/54
f 21/61/55 20/8/56 19/2/57 18/10/58 29/71/59 1/1/60 4/9/61 3/77/62 25/3/63 24/70/64 14/4/65 17/69/66 16/5/67 15/6/68 22/7/69
f 3/79/70 2/78/71 27/45/72 26/27/73 25/28/74
f 2/80/75 1/34/76 29/68/77 18/31/78 28/32/79 27/33/80
