# This file uses centimeters as units for non-parametric coordinates.

v 52.000000 -105.000000 -111.996948
v 52.000000 -104.999992 -112.000000
v 52.000000 -125.999992 -112.000000
v 52.000000 -126.000000 125.000000
v 52.000000 -105.000000 125.000000
v 220.000000 -105.000000 -112.000015
v 220.000000 -56.000000 -112.000000
v 231.000000 -55.999992 -112.000000
v 231.000000 -126.000000 -112.000000
v 52.002693 -105.000000 -112.000000
v 231.000000 -126.000000 39.000000
v 231.000000 -126.000000 -90.000000
v 231.000000 -81.000000 -90.000000
v 231.000000 -81.000000 39.000000
v 231.000000 -81.000000 125.000000
v 231.000000 -126.000000 125.000000
v 231.000000 -126.000000 98.000000
v 231.000000 -81.000000 69.000000
v 231.000000 -56.000000 69.000000
v 231.000000 -56.000000 125.000000
v 52.000000 -56.000000 69.000000
v 52.000000 -56.000000 125.000000
v 220.000000 -56.000000 69.000000
v 52.000000 -56.000000 -111.996948
v 220.000000 -56.000000 -111.996948
v 220.000000 -105.000000 -111.996948
v 52.000000 -81.000000 125.000000
vt 0.625000 0.000000
vt 0.853695 0.000000
vt 0.526675 0.000000
vt 0.275263 0.250000
vt 0.224737 0.250000
vt 0.811614 0.069659
vt 0.709250 1.071226
vt 0.667250 1.071226
vt 0.625000 0.037960
vt 0.752242 0.073661
vt 0.625000 0.037960
vt 0.424250 0.954751
vt 0.427000 1.000000
vt 0.424250 1.000000
vt 0.382250 0.954751
vt 0.526675 0.037960
vt 0.853695 0.037960
vt 0.641414 0.069659
vt 0.677716 0.018593
vt 0.558000 0.250000
vt 0.558000 0.271500
vt 0.558000 0.303750
vt 0.275263 0.020408
vt 0.224737 0.020408
vt 0.811614 0.062457
vt 0.641414 0.062457
vt 0.328000 0.012000
vt 0.328000 0.023250
vt 0.360250 0.023250
vt 0.367750 0.023250
vt 0.367750 0.029500
vt 0.752242 0.069659
vt 0.694849 0.062457
vt 0.558000 0.256750
vt 0.426500 0.912750
vt 0.429250 0.912750
vt 0.429250 0.926750
vt 0.384500 0.926750
vt 0.384500 0.912750
vt 0.382250 1.000000
vt 0.719298 0.037960
vt 0.677716 0.037960
vt 0.641414 0.073661
vt 0.625000 0.493750
vt 0.580250 0.493750
vt 0.580250 0.500000
vt 0.580250 0.511250
vt 0.625000 0.511250
vt 0.625000 0.506000
vt 0.625000 0.500000
vt 0.677716 0.000000
vt 0.513250 0.250000
vt 0.815750 0.213750
vt 0.815750 0.208500
vt 0.875000 0.208500
vt 0.875000 0.213750
vt 0.874999 0.213750
vt 0.624999 0.536250
vt 0.625000 0.536250
vt 0.625000 0.541500
vt 0.580250 0.541500
vt 0.580250 0.524000
vt 0.583000 0.524000
vt 0.583000 0.536250
vt 0.558000 0.309250
vt 0.513250 0.309250
vt 0.322500 0.029500
vt 0.322500 0.012000
vt 0.424250 0.954750
vt 0.427000 0.954750
vt 0.625002 0.000000
vt 0.625002 0.037960
vt 0.667251 1.071225
vt 0.709250 1.071225
vt 0.667251 1.071225
vt 0.667250 1.071225
vn -1.000000 0.000000 0.000000
vn -1.000000 0.000000 0.000000
vn -1.000000 0.000000 0.000000
vn -1.000000 0.000000 0.000000
vn -1.000000 0.000000 0.000000
vn 0.000000 -0.000000 -1.000000
vn 0.000000 -0.000000 -1.000000
vn 0.000000 -0.000000 -1.000000
vn 0.000000 -0.000000 -1.000000
vn 0.000000 -0.000000 -1.000000
vn 0.000000 -0.000000 -1.000000
vn 0.000000 -0.000000 -1.000000
vn 1.000000 0.000000 0.000000
vn 1.000000 0.000000 0.000000
vn 1.000000 0.000000 0.000000
vn 1.000000 0.000000 0.000000
vn 1.000000 0.000000 0.000000
vn 1.000000 0.000000 0.000000
vn 1.000000 0.000000 0.000000
vn 1.000000 0.000000 0.000000
vn 1.000000 0.000000 0.000000
vn 1.000000 0.000000 0.000000
vn 1.000000 0.000000 0.000000
vn 1.000000 0.000000 0.000000
vn 0.000000 1.000000 0.000000
vn 0.000000 1.000000 0.000000
vn 0.000000 1.000000 0.000000
vn 0.000000 1.000000 0.000000
vn 0.000000 1.000000 0.000000
vn 0.000000 0.000000 -1.000000
vn 0.000000 0.000000 -1.000000
vn 0.000000 0.000000 -1.000000
vn 0.000000 0.000000 -1.000000
vn -1.000000 0.000000 0.000000
vn -1.000000 0.000000 0.000000
vn -1.000000 0.000000 0.000000
vn -1.000000 0.000000 0.000000
vn -1.000000 0.000000 0.000000
vn -1.000000 0.000000 0.000000
vn 0.000000 0.000000 1.000000
vn 0.000000 0.000000 1.000000
vn 0.000000 0.000000 1.000000
vn 0.000000 0.000000 1.000000
vn 0.000000 0.000000 1.000000
vn 0.000000 0.000000 1.000000
vn 0.000000 0.000000 1.000000
vn -0.000000 -1.000000 0.000000
vn -0.000000 -1.000000 0.000000
vn -0.000000 -1.000000 0.000000
vn -0.000000 -1.000000 0.000000
vn -0.000000 -1.000000 0.000000
vn -0.000000 -1.000000 0.000000
vn -0.000000 -1.000000 0.000000
vn 1.000000 0.000000 0.000000
vn 1.000000 0.000000 0.000000
vn 1.000000 0.000000 0.000000
vn 1.000000 0.000000 0.000000
vn 1.000000 0.000000 0.000000
vn 1.000000 0.000000 0.000000
vn 1.000000 0.000000 0.000000
vn -0.000000 1.000000 0.000000
vn -0.000000 1.000000 0.000000
vn -0.000000 1.000000 0.000000
vn -0.000000 1.000000 0.000000
vn -0.000000 1.000000 0.000000
vn -0.000000 1.000000 0.000000
vn -0.000000 1.000000 0.000000
vn -1.000000 0.000000 0.000000
vn -1.000000 0.000000 0.000000
vn -1.000000 0.000000 0.000000
vn -1.000000 0.000000 0.000000
vn 0.000000 0.999993 -0.003800
vn 0.000000 0.999993 -0.003800
vn 0.000000 0.999993 -0.003800
vn 0.000000 0.999993 -0.003800
vn 0.002831 0.999996 0.000000
s off
f 1/57/1 2/56/2 3/55/3 4/54/4 5/53/5
f 6/64/6 7/63/7 8/62/8 9/61/9 3/60/10 2/59/11 10/58/12
f 11/24/13 12/23/14 13/4/15 14/5/16
f 15/18/17 16/26/18 17/33/19 11/25/20 14/6/21 18/32/22 19/10/23 20/43/24
f 21/39/25 22/38/26 20/37/27 19/36/28 23/35/29
f 24/16/30 25/9/31 26/1/32 1/3/33
f 5/51/34 27/19/35 22/42/36 21/41/37 24/17/38 1/2/39
f 5/49/40 4/48/41 16/47/42 15/46/43 20/45/44 22/44/45 27/50/46
f 4/52/47 3/66/48 9/65/49 12/22/50 11/21/51 17/34/52 16/20/53
f 9/68/54 8/67/55 19/31/56 18/30/57 14/29/58 13/28/59 12/27/60
f 8/70/61 7/69/62 25/12/63 24/15/64 21/40/65 23/14/66 19/13/67
f 7/72/68 6/71/69 26/1/70 25/11/71
s 1
f 6/74/72 10/73/73 1/8/74 26/7/75
f 2/76/76 1/8/74 10/75/73
