# This file uses centimeters as units for non-parametric coordinates.

v 95.352692 -130.000000 500.000000
v 95.354309 -223.479691 500.000000
v 273.049316 -81.000000 500.000000
v 157.944702 -81.000000 500.000000
v 157.944702 -130.000000 500.000000
v 102.000000 -81.000000 353.000000
v 95.379181 -81.000000 353.000000
v 95.361786 -80.999985 444.000000
v 102.000000 -80.999985 444.000000
v 287.000000 -81.000000 486.344116
v 287.000000 -81.000000 353.000000
v 158.000000 -80.999985 353.000000
v 158.000000 -80.999985 499.944580
v 157.944702 -80.999985 499.944580
v 231.000000 -80.999985 297.000000
v 231.000000 -81.000000 174.000000
v 95.412933 -80.999985 174.000000
v 95.389893 -80.999985 297.000000
v 102.000000 -80.999985 297.000000
v 157.944702 -80.999985 297.000000
v 158.000000 -81.000000 297.000000
v 95.391541 -130.000000 297.000000
v 102.000000 -130.000000 297.000000
v 157.944702 -130.000000 297.000000
v 95.423798 -490.460510 174.000000
v 287.000000 -336.850586 174.000000
v 95.363403 -130.000000 444.000000
v 95.380829 -130.000000 353.000000
v 102.000000 -130.000000 353.000000
v 157.944702 -130.000000 499.944702
v 158.000000 -130.000000 499.944702
v 158.000000 -130.000000 353.000000
v 158.000000 -130.000000 297.000000
v 102.000000 -130.000000 444.000000
v 287.000000 -130.000000 353.000000
v 231.000000 -130.000000 297.000000
v 287.000000 -130.000000 297.000000
v 287.000000 -130.000000 174.000000
v 231.000000 -130.000000 174.000000
vt 0.516869 0.932525
vt 0.000000 0.000000
vt 0.641414 0.081343
vt 0.641414 0.061817
vt 0.739521 0.250000
vt 0.739520 0.000000
vt 0.739514 0.250000
vt 0.739513 0.000000
vt 0.260484 0.000000
vt 0.260484 0.250000
vt 0.641414 0.081343
vt 0.641414 0.061817
vt 0.358586 0.061817
vt 0.358586 0.081343
vt 0.224737 0.000000
vt 0.224737 0.250000
vt 0.375000 0.849737
vt 0.375000 0.900263
vt 0.262048 0.250000
vt 0.262048 0.000000
vt 0.737952 0.000000
vt 0.641524 0.061817
vt 0.358476 0.061817
vt 0.641524 0.061817
vt 0.375247 0.849723
vt 0.654676 0.849723
vt 0.654628 0.863665
vt 0.625000 0.863665
vt 0.625000 0.886321
vt 0.654550 0.886321
vt 0.654502 0.900263
vt 0.625000 0.900263
vt 0.375247 0.900263
vt 0.375247 0.849737
vt 0.738679 0.250000
vt 0.738679 0.000000
vt 0.761335 0.000000
vt 0.737952 0.250000
vt 0.724737 0.000000
vt 0.737952 0.000000
vt 0.275263 0.250000
vt 0.275263 0.000000
vt 0.224737 0.250000
vt 0.775263 0.000000
vt 0.775263 0.250000
vt 0.224737 0.000000
vt 0.375000 0.886321
vt 0.261321 0.000000
vt 0.261321 0.250000
vt 0.224737 0.250000
vt 0.625000 0.827803
vt 0.049107 0.827803
vt 0.049107 0.849737
vt 0.375000 0.849737
vt 0.224737 0.000000
vt 0.746671 0.250000
vt 0.746671 0.000000
vt 0.382356 0.747615
vt 0.272913 0.250000
vt 0.272913 0.000000
vt 0.375000 0.897913
vt 0.625000 0.897913
vt 0.390000 0.823750
vt 0.388340 0.823750
vt 0.388345 0.801000
vt 0.390000 0.801000
vt 0.403986 0.837736
vt 0.404000 0.837736
vt 0.404000 0.801000
vt 0.436250 0.801000
vt 0.403986 0.837750
vt 0.404000 0.787000
vt 0.403986 0.787000
vt 0.390000 0.787000
vt 0.388347 0.787000
vt 0.388353 0.756250
vt 0.422250 0.756250
vt 0.422250 0.787000
vt 0.724737 0.250000
vt 0.340139 0.210547
vt 0.406473 0.168091
vt 0.442717 0.224720
vt 0.550511 0.155729
vt 0.514267 0.099100
vt 0.580601 0.056644
vt 0.242605 0.379053
vt 0.376383 0.267176
vt 0.737952 0.250000
vt 0.641524 0.081343
vt 0.358476 0.081343
vt 0.641524 0.081343
vt 0.761335 0.250000
vt 0.430250 0.657500
vt 0.416250 0.657500
vt 0.416250 0.645250
vt 0.382353 0.645250
vt 0.198750 0.170500
vt 0.168000 0.170500
vt 0.168000 0.118787
vt 0.246086 0.182750
vt 0.212750 0.182750
vt 0.212750 0.170500
vt 0.430250 0.709213
vt 0.625000 0.849737
vt 0.663743 0.571432
vt 0.550735 0.797060
vt 0.436250 0.834336
vt 0.434986 0.633250
vt 0.434986 0.621000
vt 0.463762 0.621000
vt 0.419339 0.656620
vt 0.419338 0.633250
vt 0.432762 0.837750
vt 0.634806 0.697081
vt 0.666218 0.571432
vt 0.536574 -0.012145
vn 0.000000 0.000000 1.000000
vn 0.000000 0.000000 1.000000
vn 0.000000 0.000000 1.000000
vn 0.000000 0.000000 1.000000
vn 0.000000 0.000000 1.000000
vn 0.000000 1.000000 -0.000000
vn 0.000000 1.000000 -0.000000
vn 0.000000 1.000000 -0.000000
vn 0.000000 1.000000 -0.000000
vn 0.000000 1.000000 0.000000
vn 0.000000 1.000000 0.000000
vn 0.000000 1.000000 0.000000
vn 0.000000 1.000000 0.000000
vn 0.000000 1.000000 0.000000
vn 0.000000 1.000000 0.000000
vn 0.000000 1.000000 0.000000
vn 0.000000 1.000000 -0.000000
vn 0.000000 1.000000 -0.000000
vn 0.000000 1.000000 -0.000000
vn 0.000000 1.000000 -0.000000
vn 0.000000 1.000000 -0.000000
vn 0.000000 1.000000 -0.000000
vn 0.000000 1.000000 -0.000000
vn 0.000000 0.000000 1.000000
vn 0.000000 0.000000 1.000000
vn 0.000000 0.000000 1.000000
vn 0.000000 0.000000 1.000000
vn 0.000000 0.000000 1.000000
vn 0.000000 0.000000 1.000000
vn 0.527116 -0.657398 0.538495
vn 0.527116 -0.657398 0.538495
vn 0.527116 -0.657398 0.538495
vn 0.527116 -0.657398 0.538495
vn 0.527116 -0.657398 0.538495
vn -1.000000 -0.000024 -0.000191
vn -1.000000 -0.000024 -0.000191
vn -1.000000 -0.000024 -0.000191
vn -1.000000 -0.000024 -0.000191
vn -1.000000 -0.000024 -0.000191
vn -1.000000 -0.000024 -0.000191
vn -1.000000 -0.000024 -0.000191
vn -1.000000 -0.000024 -0.000191
vn -1.000000 -0.000024 -0.000191
vn -1.000000 -0.000024 -0.000191
vn 0.000000 0.000000 -1.000000
vn 0.000000 0.000000 -1.000000
vn 0.000000 0.000000 -1.000000
vn 0.000000 0.000000 -1.000000
vn 0.000000 1.000000 0.000000
vn 0.000000 1.000000 0.000000
vn 0.000000 1.000000 0.000000
vn 0.000000 1.000000 0.000000
vn 0.000000 1.000000 0.000000
vn 0.000000 1.000000 0.000000
vn 0.000000 1.000000 0.000000
vn 0.000000 1.000000 0.000000
vn 0.000000 1.000000 0.000000
vn 0.000000 1.000000 0.000000
vn 0.000000 1.000000 0.000000
vn 0.000000 1.000000 0.000000
vn 0.000000 1.000000 0.000000
vn 0.000000 0.000000 1.000000
vn 0.000000 0.000000 1.000000
vn 0.000000 0.000000 1.000000
vn 0.000000 0.000000 1.000000
vn 0.000000 0.000000 1.000000
vn 0.000000 0.000000 1.000000
vn 0.000000 0.000000 1.000000
vn 0.000000 0.000000 1.000000
vn -0.000000 0.000000 -1.000000
vn -0.000000 0.000000 -1.000000
vn -0.000000 0.000000 -1.000000
vn -0.000000 0.000000 -1.000000
vn -1.000000 -0.000000 0.000000
vn -1.000000 -0.000000 0.000000
vn -1.000000 -0.000000 0.000000
vn -1.000000 -0.000000 0.000000
vn 0.000000 -0.000002 -1.000000
vn 0.000000 -0.000002 -1.000000
vn 0.000000 -0.000002 -1.000000
vn 0.000000 -0.000002 -1.000000
vn -1.000000 0.000000 0.000000
vn -1.000000 0.000000 0.000000
vn -1.000000 0.000000 0.000000
vn -1.000000 0.000000 0.000000
vn 1.000000 0.000000 0.000000
vn 1.000000 0.000000 0.000000
vn 1.000000 0.000000 0.000000
vn 1.000000 0.000000 0.000000
vn 0.000000 0.000000 1.000000
vn 0.000000 0.000000 1.000000
vn 0.000000 0.000000 1.000000
vn 0.000000 0.000000 1.000000
vn 0.000000 1.000000 0.000000
vn 0.000000 1.000000 0.000000
vn 0.000000 1.000000 0.000000
vn 0.000000 1.000000 0.000000
vn 0.000000 1.000000 0.000000
vn 0.000000 1.000000 0.000000
vn 0.000000 1.000000 0.000000
vn 1.000000 0.000000 0.000000
vn 1.000000 0.000000 0.000000
vn 1.000000 0.000000 0.000000
vn 1.000000 0.000000 0.000000
vn 0.000000 0.000000 -1.000000
vn 0.000000 0.000000 -1.000000
vn 0.000000 0.000000 -1.000000
vn 0.000000 0.000000 -1.000000
vn 0.000000 0.000000 -1.000000
vn 0.000000 0.000000 -1.000000
vn 1.000000 -0.000000 0.000000
vn 1.000000 -0.000000 0.000000
vn 1.000000 -0.000000 0.000000
vn 1.000000 -0.000000 0.000000
vn 1.000000 -0.000000 0.000000
vn 1.000000 -0.000000 0.000000
s off
f 1/112/1 2/111/2 3/110/3 4/109/4 5/108/5
f 6/66/6 7/65/7 8/64/8 9/63/9
f 4/71/10 3/113/11 10/107/12 11/70/13 12/69/14 13/68/15 14/67/16
f 15/78/17 16/77/18 17/76/19 18/75/20 19/74/21 20/73/22 21/72/23
f 19/38/24 18/7/25 22/8/26 23/40/27 24/39/28 20/79/29
f 3/115/30 2/114/31 25/1/32 26/106/33 10/105/34
f 2/116/35 1/85/36 27/84/37 8/83/38 7/82/39 28/81/40 22/80/41 18/87/42 17/86/43 25/2/44
f 7/10/45 6/19/46 29/20/47 28/9/48
f 1/26/49 5/25/50 30/34/51 31/17/52 32/47/53 33/18/54 24/33/55 23/32/56 22/31/57 28/30/58 29/29/59 34/28/60 27/27/61
f 9/88/62 8/5/63 27/6/64 34/21/65
f 21/11/66 20/89/67 24/24/68 33/12/69
f 11/41/70 35/42/71 32/46/72 12/43/73
f 13/16/74 12/49/75 32/48/76 31/15/77
f 14/90/78 13/14/79 31/13/80 30/23/81
f 5/4/82 4/3/83 14/91/84 30/22/85
f 6/35/86 9/92/87 34/37/88 29/36/89
f 15/56/90 21/45/91 33/44/92 36/57/93
f 37/104/94 38/62/95 39/61/96 36/54/97 33/53/98 32/52/99 35/51/100
f 16/59/101 15/50/102 36/55/103 39/60/104
f 38/93/105 26/103/106 25/58/107 17/96/108 16/95/109 39/94/110
f 35/102/111 11/101/112 10/100/113 26/99/114 38/98/115 37/97/116
