# This file uses centimeters as units for non-parametric coordinates.

v 52.000000 -8.000000 125.000000
v 52.000000 -8.000000 69.000000
v 220.000000 -7.999985 69.000000
v 231.000000 -8.000000 69.000000
v 231.000000 -8.000000 125.000000
v 346.000000 -8.000000 69.000000
v 287.000000 -8.000000 69.000000
v 287.000000 0.000031 69.000000
v 346.000000 0.000000 69.000000
v 52.000000 0.000000 125.000000
v 346.000000 0.000000 125.000000
v 220.000000 0.000000 69.000000
v 52.000000 0.000000 69.000000
v 346.000000 -8.000000 125.000000
vt 0.752242 0.081343
vt 0.641414 0.081343
vt 0.625000 0.349737
vt 0.375000 0.349737
vt 0.375000 0.400263
vt 0.625000 0.400263
vt 0.752242 0.080142
vt 0.641414 0.080142
vt 0.389750 0.123250
vt 0.375000 0.123250
vt 0.375000 0.121250
vt 0.389750 0.121250
vt 0.622329 0.263954
vt 0.622329 0.256541
vt 0.601470 0.263941
vt 0.625000 0.374341
vt 0.391750 0.012000
vt 0.391750 0.014000
vt 0.375000 0.014000
vt 0.377750 0.012000
vt 0.577345 0.263929
vt 0.424250 0.014000
vt 0.382250 0.014000
vt 0.516599 0.263909
vt 0.719298 0.081343
vt 0.422250 0.731750
vt 0.377500 0.729750
vt 0.451000 0.729750
vt 0.451000 0.731750
vt 0.677716 0.081343
vt 0.516599 0.256491
vt 0.430000 0.873250
vt 0.430000 0.859250
vt 0.427250 0.859250
vt 0.385250 0.859250
vt 0.385250 0.873250
vt 0.375000 0.012000
vt 0.382250 0.012000
vt 0.424250 0.012000
vt 0.677716 0.075146
vt 0.719298 0.075146
vt 0.377500 0.731750
vn -0.000000 -1.000000 -0.000000
vn -0.000000 -1.000000 -0.000000
vn -0.000000 -1.000000 -0.000000
vn -0.000000 -1.000000 -0.000000
vn -0.000000 -1.000000 -0.000000
vn 0.000000 0.000000 -1.000000
vn 0.000000 0.000000 -1.000000
vn 0.000000 0.000000 -1.000000
vn 0.000000 0.000000 -1.000000
vn 0.000000 1.000000 0.000000
vn 0.000000 1.000000 0.000000
vn 0.000000 1.000000 0.000000
vn 0.000000 1.000000 0.000000
vn 0.000000 1.000000 0.000000
vn 0.000000 1.000000 0.000000
vn 1.000000 0.000000 0.000000
vn 1.000000 0.000000 0.000000
vn 1.000000 0.000000 0.000000
vn 1.000000 0.000000 0.000000
vn 0.000000 -1.000000 0.000000
vn 0.000000 -1.000000 0.000000
vn 0.000000 -1.000000 0.000000
vn 0.000000 -1.000000 0.000000
vn 0.000000 -1.000000 0.000000
vn 0.000000 0.000000 -1.000000
vn 0.000000 0.000000 -1.000000
vn 0.000000 0.000000 -1.000000
vn 0.000000 0.000000 -1.000000
vn 0.000000 0.000000 -1.000000
vn 0.000000 0.000000 -1.000000
vn 0.000000 0.000000 -1.000000
vn 0.000000 0.000000 -1.000000
vn 0.000000 0.000000 -1.000000
vn -1.000000 0.000000 0.000000
vn -1.000000 0.000000 0.000000
vn -1.000000 0.000000 0.000000
vn -1.000000 0.000000 0.000000
vn 0.000000 0.000000 1.000000
vn 0.000000 0.000000 1.000000
vn 0.000000 0.000000 1.000000
vn 0.000000 0.000000 1.000000
vn 0.000000 0.000000 1.000000
s off
f 1/36/1 2/35/2 3/34/3 4/33/4 5/32/5
f 6/12/6 7/11/7 8/10/8 9/9/9
f 10/31/10 11/14/11 9/13/12 8/15/13 12/21/14 13/24/15
f 11/2/16 14/8/17 6/7/18 9/1/19
f 14/5/20 5/4/21 4/3/22 7/16/23 6/6/24
f 4/20/25 3/37/26 12/19/27 8/18/28 7/17/29
f 3/39/30 2/38/31 13/23/32 12/22/33
f 2/41/34 1/40/35 10/30/36 13/25/37
f 1/42/38 5/26/39 14/29/40 11/28/41 10/27/42
