# This file uses centimeters as units for non-parametric coordinates.

v 346.000000 0.000000 50.000015
v 338.000000 0.000000 50.000000
v 338.000000 100.000000 50.000000
v 346.000000 100.000000 50.000000
v 338.000000 0.000000 150.000000
v 338.000000 100.000000 150.000000
v 346.000000 100.000000 150.000000
v 346.000000 0.000000 149.999985
v 346.000000 0.000000 125.000000
v 346.000000 0.000000 69.000015
vt 0.375000 0.250000
vt 0.375000 0.500000
vt 0.125000 0.250000
vt 0.395000 0.500000
vt 0.375000 0.750000
vt 0.395000 0.750000
vt 0.125000 0.000000
vt 0.375000 0.000000
vt 0.395000 0.000000
vt 0.375000 0.000000
vt 0.395000 0.250000
vt 0.395000 0.250000
vt 0.395000 0.500000
vt 0.814000 0.000000
vt 0.800000 0.000000
vt 0.793750 0.000000
vt 0.793750 0.025000
vt 0.818750 0.025000
vt 0.818750 0.000000
vt 0.625000 0.831250
vt 0.625000 0.825000
vt 0.625000 0.811000
vt 0.625000 0.806250
vt 0.623000 0.806250
vt 0.623000 0.831250
vn 0.000001 -0.000000 -1.000000
vn 0.000001 -0.000000 -1.000000
vn 0.000001 -0.000000 -1.000000
vn 0.000001 -0.000000 -1.000000
vn -1.000000 0.000000 0.000000
vn -1.000000 0.000000 0.000000
vn -1.000000 0.000000 0.000000
vn -1.000000 0.000000 0.000000
vn 0.000000 -0.000000 1.000000
vn 0.000000 -0.000000 1.000000
vn 0.000000 -0.000000 1.000000
vn 0.000000 -0.000000 1.000000
vn 0.000000 1.000000 0.000000
vn 0.000000 1.000000 0.000000
vn 0.000000 1.000000 0.000000
vn 0.000000 1.000000 0.000000
vn 1.000000 -0.000000 0.000000
vn 1.000000 -0.000000 0.000000
vn 1.000000 -0.000000 0.000000
vn 1.000000 -0.000000 0.000000
vn 1.000000 -0.000000 0.000000
vn 1.000000 -0.000000 0.000000
vn 0.000000 -1.000000 0.000000
vn 0.000000 -1.000000 0.000000
vn 0.000000 -1.000000 0.000000
vn 0.000000 -1.000000 0.000000
vn 0.000000 -1.000000 0.000000
vn 0.000000 -1.000000 0.000000
s off
f 1/6/1 2/5/2 3/2/3 4/4/4
f 5/8/5 6/1/6 3/3/7 2/7/8
f 7/11/9 6/1/10 5/10/11 8/9/12
f 4/13/13 3/2/14 6/1/15 7/12/16
f 1/19/17 4/18/18 7/17/19 8/16/20 9/15/21 10/14/22
f 5/25/23 2/24/24 1/23/25 10/22/26 9/21/27 8/20/28
