# This file uses centimeters as units for non-parametric coordinates.

v 287.000000 -105.000000 -396.900024
v 354.372559 -105.000000 -396.900024
v 485.324371 0.000000 -396.900024
v 220.000000 0.000000 -396.900024
v 220.000000 -55.999985 -396.900024
v 231.000000 -56.000000 -396.900024
v 287.000000 -55.999985 -396.900024
v 220.000000 -105.000000 -551.900024
v 294.158325 -105.000000 -551.900024
v 287.000000 -105.000000 -397.000000
v 231.000000 -105.000000 -397.000000
v 220.000000 -105.000000 -397.000000
v 231.000000 -56.000000 -397.000000
v 287.000000 -55.999985 -397.000000
v 220.000000 -55.999985 -397.000000
v 425.110229 0.000000 -551.900024
v 220.000000 0.000000 -551.900024
vt 0.724737 0.000000
vt 0.724737 0.250000
vt 0.625000 0.349737
vt 0.375000 0.349737
vt 0.775263 0.250000
vt 0.775263 0.000000
vt 0.724737 0.250000
vt 0.733032 0.250000
vt 0.625000 0.358032
vt 0.625000 0.349737
vt 0.786934 0.037960
vt 0.874945 0.081343
vt 0.874945 0.000000
vt 0.475778 0.026250
vt 0.424500 0.026250
vt 0.424500 0.000000
vt 0.443040 0.000000
vt 0.575150 0.500000
vt 0.552000 0.592597
vt 0.577782 0.348706
vt 0.650299 0.349701
vt 0.441250 0.012250
vt 0.427250 0.012250
vt 0.424500 0.012250
vt 0.424500 0.026250
vt 0.490831 0.026250
vt 0.458093 0.000000
vt 0.441250 0.000000
vt 0.424500 0.999975
vt 0.427250 0.999975
vt 0.441250 0.999975
vt 0.441250 1.000000
vt 0.458093 1.000000
vt 0.443040 0.961250
vt 0.424500 0.961250
vt 0.375000 0.349790
vt 0.625000 0.349790
vt 0.624554 0.349737
vt 0.624554 0.358032
vt 0.671588 0.328412
vt 0.577782 0.327276
vt 0.585794 0.500000
vt 0.562645 0.592597
vt 0.786877 0.081343
vt 0.786877 0.037960
vt 0.786934 0.000000
vt 0.733032 0.000000
vt 0.724737 0.000000
vt 0.724790 0.250000
vt 0.724790 0.000000
vn 0.000000 0.000000 1.000000
vn 0.000000 0.000000 1.000000
vn 0.000000 0.000000 1.000000
vn 0.000000 0.000000 1.000000
vn 0.000000 0.000000 1.000000
vn 0.000000 0.000000 1.000000
vn 0.000000 0.000000 1.000000
vn 0.000000 -1.000000 0.000000
vn 0.000000 -1.000000 0.000000
vn 0.000000 -1.000000 0.000000
vn 0.000000 -1.000000 0.000000
vn 0.000000 -1.000000 0.000000
vn 0.000000 -1.000000 0.000000
vn 0.000000 -1.000000 0.000000
vn 0.000000 -1.000000 0.000000
vn 0.000000 -1.000000 0.000000
vn 0.000000 -1.000000 0.000000
vn 0.000000 -1.000000 0.000000
vn -0.000001 -1.000000 0.000000
vn -0.000001 -1.000000 0.000000
vn -0.000001 -1.000000 0.000000
vn -0.000001 -1.000000 0.000000
vn 0.000000 1.000000 0.000000
vn 0.000000 1.000000 0.000000
vn 0.000000 1.000000 0.000000
vn 0.000000 1.000000 0.000000
vn 0.607869 -0.758110 -0.236144
vn 0.607869 -0.758110 -0.236144
vn 0.607869 -0.758110 -0.236144
vn 0.607869 -0.758110 -0.236144
vn 0.000000 0.000000 -1.000000
vn 0.000000 0.000000 -1.000000
vn 0.000000 0.000000 -1.000000
vn 0.000000 0.000000 -1.000000
vn -1.000000 0.000000 0.000000
vn -1.000000 0.000000 0.000000
vn -1.000000 0.000000 0.000000
vn -1.000000 0.000000 0.000000
vn -1.000000 0.000000 0.000000
vn -1.000000 0.000000 0.000000
vn 0.000000 0.000000 1.000000
vn 0.000000 0.000000 1.000000
vn 0.000000 0.000000 1.000000
vn 0.000000 0.000000 1.000000
vn 0.000000 0.000000 1.000000
vn 0.000000 0.000000 1.000000
vn -1.000000 0.000000 0.000000
vn -1.000000 0.000000 0.000000
vn -1.000000 0.000000 0.000000
vn -1.000000 0.000000 0.000000
s off
f 1/28/1 2/27/2 3/26/3 4/25/4 5/24/5 6/23/6 7/22/7
f 8/35/8 9/34/9 2/33/10 1/32/11 10/31/12 11/30/13 12/29/14
f 7/37/15 6/36/16 13/4/17 14/3/18
f 6/39/19 5/38/20 15/10/21 13/9/22
f 4/41/23 3/40/24 16/21/25 17/20/26
f 2/43/27 9/19/28 16/18/29 3/42/30
f 9/17/31 8/16/32 17/15/33 16/14/34
f 8/13/35 12/46/36 15/11/37 5/45/38 4/44/39 17/12/40
f 12/48/41 11/47/42 10/6/43 14/5/44 13/8/45 15/7/46
f 10/1/47 1/50/48 7/49/49 14/2/50
