# This file uses centimeters as units for non-parametric coordinates.

v 287.000000 -8.000000 69.000000
v 287.000000 0.000031 69.000000
v 220.000000 0.000004 69.000000
v 220.000000 -56.000000 69.000000
v 231.000000 -56.000000 69.000000
v 231.000000 -8.000000 69.000000
v 220.000000 -56.000000 -111.996948
v 220.000000 0.000000 -111.996948
v 287.000000 -55.999985 -262.000000
v 287.000000 -55.999969 69.000000
v 220.000000 -56.000000 -341.000000
v 231.000000 -56.000000 -341.000000
v 231.000000 -56.000000 -302.000000
v 231.000000 -55.999985 -262.000000
v 287.000000 -55.999985 -302.000000
v 287.000000 -55.999985 -341.000000
v 231.000000 -56.000000 -396.900024
v 287.000000 -55.999985 -396.900024
v 220.000000 -55.999985 -396.900024
v 287.000000 0.000000 -396.900024
v 220.000000 0.000000 -396.900024
vt 0.625000 0.081343
vt 0.577782 0.287886
vt 0.625000 0.349737
vt 0.375000 0.400263
vt 0.625000 0.400263
vt 0.625000 0.400263
vt 0.375000 0.349737
vt 0.375000 0.358032
vt 0.755115 0.037960
vt 0.375000 0.379521
vt 0.625000 0.379521
vt 0.724737 0.250000
vt 0.786877 0.037960
vt 0.786877 0.081343
vt 0.625000 0.349790
vt 0.375000 0.349790
vt 0.624554 0.358032
vt 0.624554 0.349737
vt 0.577782 0.327276
vt 0.540500 0.214500
vt 0.540500 0.200500
vt 0.543250 0.200500
vt 0.557250 0.200500
vt 0.375000 0.121250
vt 0.375000 0.123250
vt 0.258525 0.123250
vt 0.258525 0.109250
vt 0.272500 0.109250
vt 0.282250 0.109250
vt 0.292250 0.109250
vt 0.601470 0.327563
vt 0.601470 0.263941
vt 0.749341 0.250000
vt 0.557250 0.214500
vt 0.375000 0.000000
vt 0.375000 1.000000
vt 0.377750 0.012000
vt 0.377750 0.000000
vt 0.375000 0.014000
vt 0.391750 0.014000
vt 0.391750 0.012000
vt 0.329751 0.014000
vt 0.375000 0.014000
vt 0.329751 0.000000
vt 0.377750 0.917250
vt 0.377750 0.907250
vt 0.377750 0.897500
vt 0.375000 0.897500
vt 0.375000 0.954751
vt 0.377750 1.000000
vt 0.391750 1.000000
vt 0.391750 0.917250
vt 0.375000 0.349737
vt 0.375000 0.400263
vt 0.577345 0.263929
vt 0.749341 0.151639
vt 0.724737 0.151639
vt 0.375000 0.109250
vt 0.625000 0.037960
vn 0.000000 0.000000 1.000000
vn 0.000000 0.000000 1.000000
vn 0.000000 0.000000 1.000000
vn 0.000000 0.000000 1.000000
vn 0.000000 0.000000 1.000000
vn 0.000000 0.000000 1.000000
vn -1.000000 0.000000 0.000000
vn -1.000000 0.000000 0.000000
vn -1.000000 0.000000 0.000000
vn -1.000000 0.000000 0.000000
vn 0.000000 -1.000000 0.000000
vn 0.000000 -1.000000 0.000000
vn 0.000000 -1.000000 0.000000
vn 0.000000 -1.000000 0.000000
vn 0.000000 -1.000000 0.000000
vn 0.000000 -1.000000 0.000000
vn 0.000000 -1.000000 0.000000
vn 0.000000 -1.000000 0.000000
vn 0.000000 -1.000000 0.000000
vn 0.000000 -1.000000 0.000000
vn 0.000000 -1.000000 0.000000
vn 0.000000 -1.000000 0.000000
vn 0.000000 -1.000000 0.000000
vn 0.000000 -1.000000 0.000000
vn 0.000000 -1.000000 0.000000
vn 0.000000 -1.000000 0.000000
vn 0.000000 -1.000000 0.000000
vn 0.000000 -1.000000 0.000000
vn 0.000000 -1.000000 0.000000
vn -0.000001 -1.000000 -0.000000
vn -0.000001 -1.000000 -0.000000
vn -0.000001 -1.000000 -0.000000
vn -0.000001 -1.000000 -0.000000
vn 0.000000 0.000000 -1.000000
vn 0.000000 0.000000 -1.000000
vn 0.000000 0.000000 -1.000000
vn 0.000000 0.000000 -1.000000
vn 0.000000 0.000000 -1.000000
vn -0.000000 1.000000 -0.000000
vn -0.000000 1.000000 -0.000000
vn -0.000000 1.000000 -0.000000
vn -0.000000 1.000000 -0.000000
vn -0.000000 1.000000 -0.000000
vn 0.000000 0.000000 1.000000
vn 0.000000 0.000000 1.000000
vn 0.000000 0.000000 1.000000
vn 0.000000 0.000000 1.000000
vn 1.000000 0.000000 0.000000
vn 1.000000 0.000000 0.000000
vn 1.000000 0.000000 0.000000
vn 1.000000 0.000000 0.000000
vn 1.000000 0.000000 0.000000
vn 1.000000 0.000000 0.000000
vn 1.000000 0.000000 0.000000
vn 1.000000 0.000000 0.000000
vn -1.000000 -0.000000 0.000000
vn -1.000000 -0.000000 0.000000
vn -1.000000 -0.000000 0.000000
vn -1.000000 -0.000000 0.000000
vn -1.000000 -0.000000 0.000000
s off
f 1/41/1 2/40/2 3/39/3 4/35/4 5/38/5 6/37/6
f 7/44/7 4/35/8 3/43/9 8/42/10
f 9/52/11 10/51/12 5/50/13 4/36/14 7/49/15 11/48/16 12/47/17 13/46/18 14/45/19
f 15/3/20 9/5/21 14/4/22 13/53/23
f 16/11/24 15/6/25 13/54/26 12/10/27 17/16/28 18/15/29
f 19/18/30 17/17/31 12/8/32 11/7/33
f 20/34/34 18/23/35 17/22/36 19/21/37 21/20/38
f 8/2/39 3/55/40 2/32/41 20/31/42 21/19/43
f 5/57/44 10/56/45 1/33/46 6/12/47
f 2/25/48 1/24/49 10/58/50 9/30/51 15/29/52 16/28/53 18/27/54 20/26/55
f 11/9/56 7/59/57 8/1/58 21/14/59 19/13/60
