# This file uses centimeters as units for non-parametric coordinates.

v -51.999756 -81.000000 125.000000
v -51.999756 -105.000000 124.999741
v -51.999985 -126.000000 125.000000
v -231.000000 -126.000000 125.000000
v -231.000000 -81.000000 125.000000
v -52.000000 -130.000000 174.000000
v -51.999977 -130.000000 125.000000
v -51.999756 -105.000000 174.000000
v -231.000000 -130.000000 168.000000
v -231.000000 -130.000000 173.999878
v -231.000000 -80.999985 173.999878
v -231.000000 -80.999985 168.000000
v -93.742523 -130.000000 174.000000
v -93.742310 -80.999985 174.000000
v -51.999817 -81.000000 174.000000
v -231.000000 -130.000000 125.000000
vt 0.275263 0.250000
vt 0.275263 0.000000
vt 0.272913 0.250000
vt 0.272913 0.000000
vt 0.572000 0.750000
vt 0.616750 0.750000
vt 0.616750 0.762250
vt 0.606314 0.762250
vt 0.572000 0.762250
vt 0.572000 0.760750
vt 0.004768 0.835212
vt 0.123302 0.793816
vt 0.358668 0.018593
vt 0.322284 0.018593
vt 0.433417 0.114167
vt 0.433417 0.118250
vt 0.444855 0.118250
vt 0.442500 0.250000
vt 0.618250 0.023250
vt 0.607500 0.023250
vt 0.607500 0.011000
vt 0.618250 0.012000
vt 0.480750 0.343750
vt 0.515064 0.343750
vt 0.480750 0.356000
vt 0.480750 0.345250
vt 0.004199 0.735525
vt 0.444855 0.114167
vt 0.442500 0.249000
vt 0.618250 0.011000
vt 0.580250 0.500000
vt 0.580250 0.511250
vt 0.625000 0.511250
vt 0.625000 0.506000
vt 0.625000 0.500000
vt 0.862750 0.244000
vt 0.875000 0.244000
vt 0.875000 0.238750
vt 0.875000 0.237750
vt 0.862750 0.237750
vt 0.487250 0.249000
vt 0.487250 0.250000
vt 0.525500 0.343750
vt 0.525500 0.356000
vt 0.122955 0.732925
vt 0.110143 0.734952
vt 0.358668 0.000000
vt 0.322284 0.000000
vn -0.000001 0.000000 -1.000000
vn -0.000001 0.000000 -1.000000
vn -0.000001 0.000000 -1.000000
vn -0.000001 0.000000 -1.000000
vn -0.000001 0.000000 -1.000000
vn 1.000000 -0.000009 -0.000000
vn 1.000000 -0.000009 -0.000000
vn 1.000000 -0.000009 -0.000000
vn 1.000000 -0.000009 -0.000000
vn 1.000000 -0.000009 -0.000000
vn -1.000000 0.000000 0.000000
vn -1.000000 0.000000 0.000000
vn -1.000000 0.000000 0.000000
vn -1.000000 0.000000 0.000000
vn -0.000001 0.000000 1.000000
vn -0.000001 0.000000 1.000000
vn -0.000001 0.000000 1.000000
vn -0.000001 0.000000 1.000000
vn 0.000000 1.000000 -0.000000
vn 0.000000 1.000000 -0.000000
vn 0.000000 1.000000 -0.000000
vn 0.000000 1.000000 -0.000000
vn 0.000000 1.000000 -0.000000
vn 0.000000 1.000000 -0.000000
vn -1.000000 0.000000 0.000000
vn -1.000000 0.000000 0.000000
vn -1.000000 0.000000 0.000000
vn -1.000000 0.000000 0.000000
vn -1.000000 0.000000 0.000000
vn 0.000000 0.000000 -1.000000
vn 0.000000 0.000000 -1.000000
vn 0.000000 0.000000 -1.000000
vn 0.000000 0.000000 -1.000000
vn 0.000000 -1.000000 0.000000
vn 0.000000 -1.000000 0.000000
vn 0.000000 -1.000000 0.000000
vn 0.000000 -1.000000 0.000000
vn 0.000000 -1.000000 0.000000
vn 0.000000 -1.000000 0.000000
vn 0.000000 0.000000 1.000000
vn 0.000000 0.000000 1.000000
vn 0.000000 0.000000 1.000000
vn 0.000000 0.000000 1.000000
vn 0.000000 0.000000 1.000000
vn 1.000000 0.000001 0.000001
vn 1.000000 0.000001 0.000001
vn 1.000000 0.000001 0.000001
vn 1.000000 0.000001 0.000001
s off
f 1/35/1 2/34/2 3/33/3 4/32/4 5/31/5
f 6/40/6 7/39/7 3/38/8 2/37/9 8/36/10
f 9/2/11 10/4/12 11/3/13 12/1/14
f 10/15/15 13/28/16 14/17/17 11/16/18
f 12/10/19 11/9/20 14/8/21 15/7/22 1/6/23 5/5/24
f 5/19/25 4/22/26 16/30/27 9/21/28 12/20/29
f 3/42/30 7/41/31 16/29/32 4/18/33
f 7/44/34 6/43/35 13/24/36 10/23/37 9/26/38 16/25/39
f 6/46/40 8/45/41 15/12/42 14/11/43 13/27/44
f 2/48/45 1/14/46 15/13/47 8/47/48
