# This file uses centimeters as units for non-parametric coordinates.

v -52.000000 -126.000008 -112.000000
v -52.000000 -104.999977 -112.000000
v -51.999756 -105.000000 -111.996948
v -51.999878 -56.000000 -111.996948
v -51.999878 -56.000000 69.000000
v -51.999832 -55.999996 125.000000
v -51.999756 -81.000000 125.000000
v -52.000000 -104.999985 125.000000
v -51.999985 -126.000000 125.000000
v -231.000000 -80.999992 -112.000000
v -231.000000 -55.999977 -112.000000
v -220.000000 -56.000000 -112.000000
v -220.000000 -105.000000 -112.000000
v -231.000000 -126.000000 -112.000000
v -220.000000 -56.000000 -111.996948
v -220.000000 -105.000000 -111.996948
v -220.000000 -56.000000 69.000000
v -231.000000 -126.000000 -90.000000
v -231.000000 -126.000000 39.000000
v -231.000000 -80.999985 39.000000
v -231.000000 -80.999985 -90.000000
v -231.000000 -55.999969 69.000000
v -231.000000 -56.000000 125.000000
v -231.000000 -126.000000 98.000015
v -231.000000 -126.000000 125.000000
v -231.000000 -81.000000 125.000000
vt 0.375000 0.000000
vt 0.473325 0.000000
vt 0.224737 0.250000
vt 0.224737 0.250000
vt 0.275263 0.250000
vt 0.641250 1.071226
vt 0.599250 1.071226
vt 0.375000 0.037960
vt 0.375000 0.037960
vt 0.580750 0.954751
vt 0.622750 0.954751
vt 0.622750 1.000000
vt 0.580750 1.000000
vt 0.473325 0.037960
vt 0.442500 0.250000
vt 0.442500 0.303750
vt 0.442500 0.271500
vt 0.224737 0.020408
vt 0.224737 0.020408
vt 0.275263 0.020408
vt 0.618250 0.023250
vt 0.618250 0.012000
vt 0.625000 0.012000
vt 0.639750 0.012000
vt 0.639750 0.023250
vt 0.672000 0.023250
vt 0.632250 0.029500
vt 0.442500 0.256750
vt 0.574500 0.912750
vt 0.577250 0.867501
vt 0.577250 0.912750
vt 0.619250 0.912750
vt 0.619250 0.926750
vt 0.574500 0.926750
vt 0.618250 0.029500
vt 0.580250 0.500000
vt 0.580250 0.493750
vt 0.625000 0.493750
vt 0.625000 0.500000
vt 0.625000 0.506000
vt 0.625000 0.511250
vt 0.580250 0.511250
vt 0.487250 0.250000
vt 0.815750 0.208500
vt 0.815750 0.213750
vt 0.815750 0.219750
vt 0.815750 0.226000
vt 0.829750 0.226000
vt 0.874999 0.226000
vt 0.874999 0.213750
vt 0.875000 0.213750
vt 0.875000 0.208500
vt 0.580250 0.541500
vt 0.625000 0.541500
vt 0.625000 0.536250
vt 0.583000 0.536250
vt 0.583000 0.524000
vt 0.580250 0.524000
vt 0.580250 0.530250
vt 0.599250 1.071225
vt 0.641250 1.071225
vt 0.374998 0.037960
vt 0.374998 0.000000
vt 0.574500 0.867500
vt 0.577250 0.867500
vt 0.677500 0.023250
vt 0.677500 0.029500
vt 0.233354 0.020408
vt 0.233354 0.250000
vt 0.487250 0.309250
vt 0.442500 0.309250
vn 1.000000 -0.000002 0.000000
vn 1.000000 -0.000002 0.000000
vn 1.000000 -0.000002 0.000000
vn 1.000000 -0.000002 0.000000
vn 1.000000 -0.000002 0.000000
vn 1.000000 -0.000002 0.000000
vn 1.000000 -0.000002 0.000000
vn 1.000000 -0.000002 0.000000
vn 1.000000 -0.000002 0.000000
vn 0.000000 0.000000 -1.000000
vn 0.000000 0.000000 -1.000000
vn 0.000000 0.000000 -1.000000
vn 0.000000 0.000000 -1.000000
vn 0.000000 0.000000 -1.000000
vn 0.000000 0.000000 -1.000000
vn 0.000000 0.000000 -1.000000
vn 0.000000 0.000000 -1.000000
vn 0.000000 0.000000 -1.000000
vn 0.000000 0.000000 -1.000000
vn 0.000000 0.000000 -1.000000
vn 0.000000 1.000000 0.000000
vn 0.000000 1.000000 0.000000
vn 0.000000 1.000000 0.000000
vn 0.000000 1.000000 0.000000
vn -1.000000 0.000000 0.000000
vn -1.000000 0.000000 0.000000
vn -1.000000 0.000000 0.000000
vn -1.000000 0.000000 0.000000
vn -0.000000 0.999993 0.003809
vn -0.000000 0.999993 0.003809
vn -0.000000 0.999993 0.003809
vn -0.000000 0.999993 0.003809
vn 1.000000 0.000000 0.000000
vn 1.000000 0.000000 0.000000
vn 1.000000 0.000000 0.000000
vn 1.000000 0.000000 0.000000
vn 0.000000 1.000000 0.000000
vn 0.000000 1.000000 0.000000
vn 0.000000 1.000000 0.000000
vn 0.000000 1.000000 0.000000
vn 0.000000 1.000000 0.000000
vn 0.000000 1.000000 0.000000
vn 0.000000 1.000000 0.000000
vn 0.000000 1.000000 0.000000
vn -1.000000 0.000000 0.000000
vn -1.000000 0.000000 0.000000
vn -1.000000 0.000000 0.000000
vn -1.000000 0.000000 0.000000
vn -1.000000 0.000000 0.000000
vn -1.000000 0.000000 0.000000
vn -1.000000 0.000000 0.000000
vn -1.000000 0.000000 0.000000
vn -1.000000 0.000000 0.000000
vn -1.000000 0.000000 0.000000
vn -1.000000 0.000000 0.000000
vn -1.000000 0.000000 0.000000
vn -1.000000 0.000000 0.000000
vn -1.000000 0.000000 0.000000
vn -0.000000 -1.000000 0.000000
vn -0.000000 -1.000000 0.000000
vn -0.000000 -1.000000 0.000000
vn -0.000000 -1.000000 0.000000
vn -0.000000 -1.000000 0.000000
vn -0.000000 -1.000000 0.000000
vn -0.000000 -1.000000 0.000000
vn 0.000000 0.000000 1.000000
vn 0.000000 0.000000 1.000000
vn 0.000000 0.000000 1.000000
vn 0.000000 0.000000 1.000000
vn 0.000000 0.000000 1.000000
vn 0.000000 0.000000 1.000000
vn 0.000000 0.000000 1.000000
s off
f 1/52/1 2/51/2 3/50/3 4/49/4 5/48/5 6/47/6 7/46/7 8/45/8 9/44/9
f 10/59/10 11/58/11 12/57/12 13/56/13 2/55/14 1/54/15 14/53/16
f 15/9/17 4/14/18 3/2/19 16/1/20
f 17/13/21 5/12/22 4/11/23 15/10/24
f 18/20/25 19/19/26 20/3/27 21/5/28
f 3/6/29 2/61/30 13/60/31 16/7/32
f 13/63/33 12/62/34 15/8/35 16/1/36
f 12/65/37 11/64/38 22/29/39 23/34/40 6/33/41 5/32/42 17/31/43 15/30/44
f 11/67/45 10/66/46 21/26/47 20/25/48 19/24/49 24/23/50 25/22/51 26/21/52 23/35/53 22/27/54
f 10/69/55 14/68/56 18/18/57 21/4/58
f 14/71/59 1/70/60 9/43/61 25/15/62 24/28/63 19/17/64 18/16/65
f 9/41/66 8/40/67 7/39/68 6/38/69 23/37/70 26/36/71 25/42/72
