# This file uses centimeters as units for non-parametric coordinates.

v -231.000000 -130.000000 173.999878
v -93.742531 -130.000000 174.000000
v 95.414207 -130.000000 174.000000
v 231.000000 -130.000000 173.999878
v 231.000000 -130.000000 168.000000
v 231.000000 -130.000000 125.000000
v -231.000000 -130.000000 125.000000
v -231.000000 -130.000000 168.000000
v 287.000000 -130.000000 173.999878
v 287.000000 -130.000000 168.000000
v -287.000000 -130.000000 168.000000
v -287.000000 -130.000000 173.999878
v -287.000000 -130.000000 125.000000
v -287.000000 -321.412445 125.000000
v -287.000000 -336.667175 174.000000
v -91.220520 -478.307190 125.000000
v -93.744141 -491.539490 174.000000
v 92.854980 -477.257263 125.000015
v 95.423828 -490.460510 174.000000
v 287.000000 -321.587585 125.000015
v 287.000000 -336.850586 174.000000
v 287.000000 -130.000000 125.000000
vt 0.375000 0.900263
vt 0.625000 0.900263
vt 0.183036 0.875659
vt 0.183036 0.900263
vt 0.375000 0.900263
vt 0.375000 0.875659
vt 0.375000 0.900263
vt 0.183036 0.877445
vt 0.375000 0.877445
vt 0.444855 0.084038
vt 0.460619 0.084128
vt 0.625000 0.897913
vt 0.375000 0.897913
vt 0.156251 0.900263
vt 0.156251 0.877445
vt 0.994866 0.101966
vt 1.000000 0.000000
vt 0.516869 0.932525
vt 0.480131 0.000000
vt 0.000000 0.000000
vt 0.483428 0.933713
vt 0.428750 0.114167
vt 0.433417 0.114167
vt 0.471917 0.114167
vt 0.476583 0.114167
vt 0.477445 0.161923
vt 0.523464 0.162186
vt 0.572000 0.249000
vt 0.558000 0.249000
vt 0.442500 0.249000
vt 0.428500 0.249000
vt 0.973080 0.000000
vt 0.968084 0.099221
vt 0.516415 0.920881
vt 0.483874 0.922037
vt 0.285750 0.112250
vt 0.285750 0.064353
vt 0.298000 0.060537
vt 0.298000 0.112250
vt 0.296500 0.112250
vt 0.550735 0.797060
vt 0.550735 0.783600
vt 0.476583 0.096929
vt 0.572000 0.201103
vt 0.714250 0.112250
vt 0.703500 0.112250
vt 0.702000 0.112250
vt 0.702000 0.060583
vt 0.714250 0.064397
vt 0.428500 0.201147
vt 0.428750 0.096944
vt 0.449265 0.783600
vt 0.449265 0.797060
vt 0.480750 0.345250
vt 0.480750 0.356000
vt 0.596250 0.356000
vt 0.596250 0.345250
vt 0.596250 0.343750
vt 0.562354 0.343750
vt 0.515064 0.343750
vt 0.480750 0.343750
vt 0.183036 0.900263
vt 0.460618 0.114167
vt 0.004199 0.735525
vt 0.484287 0.732930
vt 0.444855 0.114167
vn 0.000000 1.000000 0.000000
vn 0.000000 1.000000 0.000000
vn 0.000000 1.000000 0.000000
vn 0.000000 1.000000 0.000000
vn 0.000000 1.000000 0.000000
vn 0.000000 1.000000 0.000000
vn 0.000000 1.000000 0.000000
vn 0.000000 1.000000 0.000000
vn 0.000000 1.000000 0.000000
vn 0.000000 1.000000 0.000000
vn 0.000000 1.000000 0.000000
vn 0.000000 1.000000 0.000000
vn 0.000000 1.000000 0.000000
vn 0.000000 1.000000 0.000000
vn 0.000000 1.000000 0.000000
vn 0.000000 1.000000 0.000000
vn 0.000000 1.000000 0.000000
vn 0.000000 1.000000 0.000000
vn -1.000000 0.000000 0.000000
vn -1.000000 0.000000 0.000000
vn -1.000000 0.000000 0.000000
vn -1.000000 0.000000 0.000000
vn -1.000000 0.000000 0.000000
vn -0.607679 -0.758286 -0.236071
vn -0.607679 -0.758286 -0.236071
vn -0.607679 -0.758286 -0.236071
vn -0.607679 -0.758286 -0.236071
vn 0.005507 -0.965474 -0.260439
vn 0.005507 -0.965474 -0.260440
vn 0.005507 -0.965474 -0.260439
vn 0.005507 -0.965475 -0.260440
vn 0.607869 -0.758110 -0.236144
vn 0.607869 -0.758110 -0.236144
vn 0.607869 -0.758110 -0.236144
vn 0.607869 -0.758110 -0.236144
vn 1.000000 0.000000 0.000000
vn 1.000000 0.000000 0.000000
vn 1.000000 0.000000 0.000000
vn 1.000000 0.000000 0.000000
vn 1.000000 0.000000 0.000000
vn 0.000000 1.000000 0.000000
vn 0.000000 1.000000 0.000000
vn 0.000000 1.000000 0.000000
vn 0.000000 1.000000 0.000000
vn 0.000000 0.000000 1.000000
vn 0.000000 0.000000 1.000000
vn 0.000000 0.000000 1.000000
vn 0.000000 0.000000 1.000000
vn 0.000000 0.000000 1.000000
vn 0.000000 0.000000 1.000000
vn 0.000000 0.000000 1.000000
vn 0.000000 0.000000 1.000000
vn 0.000000 0.000000 1.000000
vn -0.000000 0.000000 1.000000
vn -0.000000 0.000000 1.000000
vn -0.000000 0.000000 1.000000
vn -0.000000 0.000000 1.000000
vn -0.000000 0.000000 1.000000
vn 0.000000 -0.000000 -1.000000
vn 0.000000 -0.000000 -1.000000
vn 0.000000 -0.000000 -1.000000
vn 0.000000 -0.000000 -1.000000
vn 0.000000 -0.000000 -1.000000
vn 0.000000 -0.000000 -1.000000
vn 0.000000 -0.000000 -1.000000
vn 0.000000 -0.000000 -1.000000
s off
f 1/61/1 2/60/2 3/59/3 4/58/4 5/57/5 6/56/6 7/55/7 8/54/8
f 9/12/9 10/2/10 5/1/11 4/13/12
f 11/8/13 12/15/14 1/14/15 8/62/16 7/7/17 13/9/18
f 14/49/19 15/48/20 12/47/21 11/46/22 13/45/23
f 15/53/24 14/52/25 16/35/26 17/21/27
f 16/33/28 18/32/29 19/17/30 17/16/31
f 20/42/32 21/41/33 19/18/34 18/34/35
f 10/40/36 9/39/37 21/38/38 20/37/39 22/36/40
f 10/3/41 22/6/42 6/5/43 5/4/44
f 4/24/45 3/63/46 19/11/47 21/43/48 9/25/49
f 3/65/50 2/64/51 17/20/52 19/19/53
f 2/66/54 1/23/55 12/22/56 15/51/57 17/10/58
f 7/30/59 6/29/60 22/28/61 20/44/62 18/27/63 16/26/64 14/50/65 13/31/66
