# This file uses centimeters as units for non-parametric coordinates.

v -52.000000 -84.000000 125.000000
v -231.000031 -84.000000 125.000000
v -231.000000 -84.000000 168.000000
v -231.000000 -84.000000 173.999878
v -93.742325 -84.000000 174.000000
v -51.999809 -84.000000 174.000000
v -231.000000 -126.000000 125.000000
v -51.999756 -105.000000 124.999725
v -52.000000 -126.000000 125.000000
v -51.999756 -105.000000 174.000000
v -52.000000 -130.000000 174.000000
v -51.999992 -130.000000 125.000000
v -231.000000 -130.000000 173.999878
v -93.742523 -130.000000 174.000000
v -231.000000 -130.000000 168.000000
v -231.000000 -130.000000 125.000000
vt 0.358668 0.000000
vt 0.122955 0.732925
vt 0.275263 0.000000
vt 0.272913 0.000000
vt 0.433417 0.114167
vt 0.442500 0.250000
vt 0.607500 0.011000
vt 0.618250 0.012000
vt 0.480750 0.343750
vt 0.515064 0.343750
vt 0.480750 0.356000
vt 0.480750 0.345250
vt 0.004199 0.735525
vt 0.444855 0.114167
vt 0.442500 0.249000
vt 0.618250 0.011000
vt 0.625000 0.487750
vt 0.614564 0.487750
vt 0.580250 0.487750
vt 0.580250 0.489250
vt 0.580250 0.500000
vt 0.625000 0.500000
vt 0.625000 0.510500
vt 0.625000 0.505250
vt 0.625000 0.500000
vt 0.580250 0.500000
vt 0.580250 0.510500
vt 0.875000 0.244750
vt 0.875000 0.239500
vt 0.875000 0.238500
vt 0.862750 0.238500
vt 0.862750 0.244750
vt 0.433417 0.118000
vt 0.444855 0.118000
vt 0.275263 0.234694
vt 0.272913 0.234694
vt 0.618250 0.022500
vt 0.607500 0.022500
vt 0.487250 0.249000
vt 0.487250 0.250000
vt 0.525500 0.343750
vt 0.525500 0.356000
vt 0.110143 0.734952
vt -0.052150 0.651714
vt 0.123259 0.786204
vt 0.358668 0.016269
vt 0.322284 0.016269
vt 0.322283 0.000000
vn 0.000000 1.000000 -0.000000
vn 0.000000 1.000000 -0.000000
vn 0.000000 1.000000 -0.000000
vn 0.000000 1.000000 -0.000000
vn 0.000000 1.000000 -0.000000
vn 0.000000 1.000000 -0.000000
vn -0.000001 0.000000 -1.000000
vn -0.000001 0.000000 -1.000000
vn -0.000001 0.000000 -1.000000
vn -0.000001 0.000000 -1.000000
vn -0.000001 0.000000 -1.000000
vn 1.000000 -0.000010 -0.000000
vn 1.000000 -0.000010 -0.000000
vn 1.000000 -0.000010 -0.000000
vn 1.000000 -0.000010 -0.000000
vn 1.000000 -0.000010 -0.000000
vn -0.000001 0.000000 1.000000
vn -0.000001 0.000000 1.000000
vn -0.000001 0.000000 1.000000
vn -0.000001 0.000000 1.000000
vn -1.000000 0.000000 0.000000
vn -1.000000 0.000000 0.000000
vn -1.000000 0.000000 0.000000
vn -1.000000 0.000000 0.000000
vn -1.000000 -0.000000 0.000000
vn -1.000000 -0.000000 0.000000
vn -1.000000 -0.000000 0.000000
vn -1.000000 -0.000000 0.000000
vn -1.000000 -0.000000 0.000000
vn 0.000000 0.000000 -1.000000
vn 0.000000 0.000000 -1.000000
vn 0.000000 0.000000 -1.000000
vn 0.000000 0.000000 -1.000000
vn 0.000000 -1.000000 -0.000000
vn 0.000000 -1.000000 -0.000000
vn 0.000000 -1.000000 -0.000000
vn 0.000000 -1.000000 -0.000000
vn 0.000000 -1.000000 -0.000000
vn 0.000000 -1.000000 -0.000000
vn 0.000000 0.000000 1.000000
vn 0.000000 0.000000 1.000000
vn 0.000000 0.000000 1.000000
vn 0.000000 0.000000 1.000000
vn 0.000000 0.000000 1.000000
vn 1.000000 0.000007 -0.000002
vn 1.000000 0.000007 -0.000002
vn 1.000000 0.000007 -0.000002
vn 1.000000 0.000007 -0.000002
s off
f 1/22/1 2/21/2 3/20/3 4/19/4 5/18/5 6/17/6
f 7/27/7 2/26/8 1/25/9 8/24/10 9/23/11
f 10/32/12 11/31/13 12/30/14 9/29/15 8/28/16
f 5/34/17 4/33/18 13/5/19 14/14/20
f 4/36/21 3/35/22 15/3/23 13/4/24
f 3/38/25 2/37/26 7/8/27 16/16/28 15/7/29
f 9/40/30 12/39/31 16/15/32 7/6/33
f 12/42/34 11/41/35 14/10/36 13/9/37 15/12/38 16/11/39
f 6/45/40 5/44/41 14/13/42 11/43/43 10/2/44
f 8/48/45 1/47/46 6/46/47 10/1/48
