# This file uses centimeters as units for non-parametric coordinates.

v 158.000000 -130.000000 353.000000
v 158.000000 -293.661194 353.000000
v 158.000000 -173.249023 500.000000
v 158.000000 -81.000000 500.000000
v 158.000000 -80.999985 499.944580
v 158.000000 -130.000000 499.944702
v 287.000000 -130.000000 353.000000
v 287.000000 -190.226227 353.000000
v 287.000000 -81.000000 353.000000
v 158.000000 -80.999985 353.000000
v 273.049316 -81.000000 500.000000
v 287.000000 -81.000000 486.344116
vt 0.224737 0.000000
vt 0.224737 0.250000
vt 0.275263 0.250000
vt 0.275263 0.000000
vt 0.224737 0.250000
vt 0.224737 0.000000
vt 0.261321 0.000000
vt 0.261321 0.250000
vt 0.404000 0.837736
vt 0.404000 0.801000
vt 0.436250 0.801000
vt 0.246086 0.182750
vt 0.212750 0.182750
vt 0.212750 0.170500
vt 0.663743 0.571432
vt 0.436250 0.834336
vt 0.463762 0.621000
vt 0.432762 0.837750
vt 0.666218 0.571432
vt 0.161736 0.204750
vt 0.161736 0.217000
vt 0.161750 0.217000
vt 0.161750 0.193938
vt 0.125000 0.163835
vt 0.125000 0.204750
vt 0.375000 0.545250
vt 0.375000 0.586165
vt 0.407250 0.560307
vt 0.407250 0.545250
vt 0.404000 0.837750
vt 0.435000 0.644062
vt 0.435000 0.621000
vt 0.615498 0.667756
vt 0.592694 0.758973
vt 0.645880 0.652784
vt 0.212750 0.155443
vn -1.000000 0.000000 0.000000
vn -1.000000 0.000000 0.000000
vn -1.000000 0.000000 0.000000
vn -1.000000 0.000000 0.000000
vn -1.000000 0.000000 0.000000
vn -1.000000 0.000000 0.000000
vn -0.000000 0.000000 -1.000000
vn -0.000000 0.000000 -1.000000
vn -0.000000 0.000000 -1.000000
vn -0.000000 0.000000 -1.000000
vn -0.000000 0.000000 -1.000000
vn -0.000000 0.000000 -1.000000
vn -0.000000 0.000000 -1.000000
vn -0.000000 0.000000 -1.000000
vn -1.000000 -0.000000 0.000000
vn -1.000000 -0.000000 0.000000
vn -1.000000 -0.000000 0.000000
vn -1.000000 -0.000000 0.000000
vn 0.000000 1.000000 0.000000
vn 0.000000 1.000000 0.000000
vn 0.000000 1.000000 0.000000
vn 0.000000 1.000000 0.000000
vn 0.000000 1.000000 0.000000
vn 0.000000 1.000000 0.000000
vn 0.000000 0.000000 1.000000
vn 0.000000 0.000000 1.000000
vn 0.000000 0.000000 1.000000
vn 0.527116 -0.657398 0.538495
vn 0.527116 -0.657398 0.538495
vn 0.527116 -0.657398 0.538495
vn 0.527116 -0.657398 0.538495
vn 0.527116 -0.657398 0.538495
vn 1.000000 0.000000 0.000000
vn 1.000000 0.000000 0.000000
vn 1.000000 0.000000 0.000000
vn 1.000000 0.000000 0.000000
s off
f 1/25/1 2/24/2 3/23/3 4/22/4 5/21/5 6/20/6
f 7/29/7 8/28/8 2/27/9 1/26/10
f 9/3/11 7/4/12 1/6/13 10/5/14
f 5/2/15 10/8/16 1/7/17 6/1/18
f 5/9/19 4/30/20 11/18/21 12/16/22 9/11/23 10/10/24
f 4/32/25 3/31/26 11/17/27
f 3/35/28 2/34/29 8/33/30 12/15/31 11/19/32
f 8/36/33 7/14/34 9/13/35 12/12/36
