# This file uses centimeters as units for non-parametric coordinates.

v -287.000000 -105.000000 -396.900024
v -354.301208 -105.000000 -396.900024
v -64.341522 -337.369324 -396.900024
v 65.494339 -336.628754 -396.900024
v 354.372559 -105.000000 -396.900024
v 287.000000 -105.000000 -396.900024
v -117.000000 -105.000000 -721.900024
v -84.000000 -105.000000 -721.900024
v 22.000061 -105.000000 -721.900024
v 84.000000 -105.000000 -721.900024
v 106.000000 -105.000000 -721.900024
v 228.117065 -105.000000 -721.899963
v 48.456207 -249.055969 -721.899963
v -47.603302 -249.603851 -721.900024
v -228.045776 -105.000000 -721.900085
v -294.087036 -105.000000 -551.900024
vt 0.488099 0.019599
vt 0.512114 0.019736
vt 0.521000 0.055750
vt 0.479000 0.055750
vt 0.491585 0.720239
vt 0.508566 0.719636
vt 0.507800 0.000000
vt 0.505193 0.051779
vt 0.540326 0.592597
vt 0.505500 0.055750
vt 0.557029 0.055750
vt 0.526500 0.055750
vt 0.442989 0.055750
vt 0.459687 0.592647
vt 0.448012 0.592647
vt 0.458093 1.000000
vt 0.562645 0.592597
vt 0.597239 0.918750
vt 0.625000 0.918750
vt 0.633250 0.918750
vt 0.659750 0.918750
vt 0.675250 0.918750
vt 0.680750 0.918750
vt 0.711279 0.918750
vt 0.565675 1.000000
vt 0.580728 0.961250
vt 0.470750 0.055750
vt 0.437368 0.592647
vt 0.557250 0.188250
vt 0.574093 0.188250
vt 0.501874 0.130343
vt 0.469415 0.130158
vt 0.396925 0.188250
vt 0.413750 0.188250
vt 0.682828 0.069985
vt 0.686352 0.000000
vt 0.488626 0.797680
vt 0.582500 1.000000
vt 0.441250 1.000000
vt 0.511578 0.796865
vn 0.000000 0.000000 1.000000
vn 0.000000 0.000000 1.000000
vn 0.000000 0.000000 1.000000
vn 0.000000 0.000000 1.000000
vn 0.000000 0.000000 1.000000
vn 0.000000 0.000000 1.000000
vn 0.000000 -0.000000 -1.000000
vn 0.000000 -0.000000 -1.000000
vn 0.000000 -0.000000 -1.000000
vn 0.000000 -0.000000 -1.000000
vn 0.000000 -0.000000 -1.000000
vn 0.000000 -0.000000 -1.000000
vn 0.000000 -0.000000 -1.000000
vn 0.000000 -0.000000 -1.000000
vn 0.000000 -0.000000 -1.000000
vn 0.005507 -0.965474 -0.260440
vn 0.005507 -0.965474 -0.260440
vn 0.005507 -0.965474 -0.260440
vn 0.005507 -0.965474 -0.260440
vn -0.607679 -0.758286 -0.236070
vn -0.607679 -0.758286 -0.236070
vn -0.607679 -0.758286 -0.236070
vn -0.607679 -0.758286 -0.236070
vn -0.607679 -0.758286 -0.236070
vn 0.000000 1.000000 -0.000000
vn 0.000000 1.000000 -0.000000
vn 0.000000 1.000000 -0.000000
vn 0.000000 1.000000 -0.000000
vn 0.000000 1.000000 -0.000000
vn 0.000000 1.000000 -0.000000
vn 0.000000 1.000000 -0.000000
vn 0.000000 1.000000 -0.000000
vn 0.000000 1.000000 -0.000000
vn 0.000000 1.000000 -0.000000
vn 0.000000 1.000000 -0.000000
vn 0.000000 1.000000 -0.000000
vn 0.607869 -0.758110 -0.236144
vn 0.607869 -0.758110 -0.236144
vn 0.607869 -0.758110 -0.236144
vn 0.607869 -0.758110 -0.236144
s off
f 1/34/1 2/33/2 3/32/3 4/31/4 5/30/5 6/29/6
f 7/27/7 8/4/8 9/10/9 10/3/10 11/12/11 12/11/12 13/2/13 14/1/14 15/13/15
f 4/36/16 3/35/17 14/8/18 13/7/19
f 3/37/20 2/28/21 16/15/22 15/14/23 14/5/24
f 12/24/25 11/23/26 10/22/27 9/21/28 8/20/29 7/19/30 15/18/31 16/26/32 2/25/33 1/38/34 6/39/35 5/16/36
f 5/17/37 4/40/38 13/6/39 12/9/40
