# This file uses centimeters as units for non-parametric coordinates.

v -84.000000 0.000000 -1151.199463
v 84.000000 0.000000 -1151.199463
v 84.000000 105.000000 -1151.199463
v -84.000000 105.000000 -1151.199463
v -84.000000 105.000000 -1207.074951
v 84.000000 105.000000 -1207.074951
v 84.000000 0.000000 -1207.074951
v -84.000000 0.000000 -1207.074951
v -84.000000 105.000000 -1092.950439
v 84.000000 105.000000 -1092.950439
v 84.000000 0.000000 -1092.950439
v -84.000000 0.000000 -1092.950439
v -84.000000 0.000000 -1037.074951
v -84.000000 105.000000 -1037.074951
v 84.000000 105.000000 -1037.074951
v 84.000000 0.000000 -1037.074951
vt 0.375000 0.000000
vt 0.625000 0.000000
vt 0.375000 0.250000
vt 0.625000 0.250000
vt 0.375000 0.500000
vt 0.625000 0.500000
vt 0.375000 0.750000
vt 0.625000 0.750000
vt 0.375000 1.000000
vt 0.625000 1.000000
vt 0.875000 0.000000
vt 0.875000 0.250000
vt 0.125000 0.000000
vt 0.125000 0.250000
vt 0.625000 0.000000
vt 0.375000 0.500000
vt 0.625000 0.500000
vt 0.625000 0.750000
vt 0.375000 0.750000
vt 0.625000 0.417830
vt 0.375000 0.417830
vt 0.792830 -0.000000
vt 0.792830 0.250000
vt 0.375000 0.832170
vt 0.625000 0.832170
vt 0.207170 0.250000
vt 0.207170 -0.000000
vt 0.375000 -0.000000
vt 0.625000 0.250000
vt 0.375000 0.250000
vt 0.292830 -0.000000
vt 0.292830 0.250000
vt 0.375000 0.332170
vt 0.625000 0.332170
vt 0.707170 0.250000
vt 0.707170 -0.000000
vt 0.625000 0.917830
vt 0.375000 0.917830
vn 0.000000 0.000000 1.000000
vn 0.000000 0.000000 1.000000
vn 0.000000 0.000000 1.000000
vn 0.000000 0.000000 1.000000
vn 0.000000 0.000000 -1.000000
vn 0.000000 0.000000 -1.000000
vn 0.000000 0.000000 -1.000000
vn 0.000000 0.000000 -1.000000
vn 0.000000 1.000000 0.000000
vn 0.000000 1.000000 0.000000
vn 0.000000 1.000000 0.000000
vn 0.000000 1.000000 0.000000
vn 1.000000 0.000000 0.000000
vn 1.000000 0.000000 0.000000
vn 1.000000 0.000000 0.000000
vn 1.000000 0.000000 0.000000
vn 0.000000 -1.000000 0.000000
vn 0.000000 -1.000000 0.000000
vn 0.000000 -1.000000 0.000000
vn 0.000000 -1.000000 0.000000
vn -1.000000 0.000000 0.000000
vn -1.000000 0.000000 0.000000
vn -1.000000 0.000000 0.000000
vn -1.000000 0.000000 0.000000
vn 0.000000 0.000000 -1.000000
vn 0.000000 0.000000 -1.000000
vn 0.000000 0.000000 -1.000000
vn 0.000000 0.000000 -1.000000
vn -1.000000 0.000000 0.000000
vn -1.000000 0.000000 0.000000
vn -1.000000 0.000000 0.000000
vn -1.000000 0.000000 0.000000
vn 0.000000 1.000000 0.000000
vn 0.000000 1.000000 0.000000
vn 0.000000 1.000000 0.000000
vn 0.000000 1.000000 0.000000
vn 1.000000 0.000000 0.000000
vn 1.000000 0.000000 0.000000
vn 1.000000 0.000000 0.000000
vn 1.000000 0.000000 0.000000
vn 0.000000 -1.000000 0.000000
vn 0.000000 -1.000000 0.000000
vn 0.000000 -1.000000 0.000000
vn 0.000000 -1.000000 0.000000
vn 0.000000 0.000000 1.000000
vn 0.000000 0.000000 1.000000
vn 0.000000 0.000000 1.000000
vn 0.000000 0.000000 1.000000
s off
f 1/19/1 2/18/2 3/17/3 4/16/4
f 5/5/5 6/6/6 7/8/7 8/7/8
f 4/21/9 3/20/10 6/6/11 5/5/12
f 3/23/13 2/22/14 7/11/15 6/12/16
f 2/25/17 1/24/18 8/7/19 7/8/20
f 1/27/21 4/26/22 5/14/23 8/13/24
f 9/30/25 10/29/26 11/15/27 12/28/28
f 9/32/29 12/31/30 13/1/31 14/3/32
f 10/34/33 9/33/34 14/3/35 15/4/36
f 11/36/37 10/35/38 15/4/39 16/2/40
f 12/38/41 11/37/42 16/10/43 13/9/44
f 13/1/45 16/2/46 15/4/47 14/3/48
