# This file uses centimeters as units for non-parametric coordinates.

v -231.000015 -126.000000 125.000000
v 231.000000 -126.000000 125.000000
v 231.000000 -126.000000 39.000000
v 231.000000 -126.000000 -90.000000
v 231.000000 -126.000000 -262.000000
v 231.000000 -126.000000 -302.000000
v -231.000000 -126.000000 -302.000000
v -231.000000 -126.000000 -262.000000
v -231.000000 -126.000000 -219.000000
v -231.000000 -126.000000 -90.000000
v -231.000000 -126.000000 39.000000
v -479.000000 -129.890121 125.000000
v -479.000000 -167.546524 125.000000
v -91.220535 -478.307159 125.000000
v 92.854996 -477.257233 125.000015
v 479.000000 -167.637863 125.000015
v 479.000000 -129.890121 125.000000
v 461.000000 -129.890121 125.000000
v 461.000000 -130.000000 125.000000
v 346.000000 -130.000000 125.000000
v 287.000000 -130.000000 125.000000
v 231.000000 -130.000000 125.000000
v -231.000000 -130.000000 125.000000
v -287.000000 -130.000000 125.000000
v -355.000000 -130.000000 125.000000
v -355.000000 -129.890121 125.000000
v -479.000000 -150.112534 69.000000
v -479.000000 -129.890121 69.000000
v -355.000000 -129.890121 69.000000
v -355.000000 -130.000000 69.000000
v -287.000000 -130.000000 69.000000
v -287.000000 -303.978394 69.000000
v -231.000000 -130.000000 -302.000000
v -287.000000 -130.000000 -302.000000
v -287.000000 -130.000000 -262.000000
v -231.000000 -130.000000 -262.000000
v -287.000000 -188.478500 -302.000000
v -287.000000 -130.000000 39.000000
v -287.000000 -130.000000 -90.000000
v -287.000000 -130.000000 -133.000000
v -287.000000 -130.000000 -219.000000
v 287.000000 -130.000000 -302.000000
v 231.000000 -130.000000 -302.000000
v 231.000000 -130.000000 -262.000000
v 287.000000 -130.000000 -262.000000
v 287.000000 -130.000000 -219.000000
v 231.000000 -130.000000 -219.000000
v 287.000000 -130.000000 -133.000000
v 231.000000 -130.000000 -133.000000
v 231.000000 -130.000000 -90.000000
v 287.000000 -130.000000 -90.000000
v 287.000000 -130.000000 39.000000
v 231.000000 -130.000000 39.000000
v 287.000000 -188.581207 -302.000000
v 287.000000 -130.000000 69.000000
v 287.000000 -304.144165 69.000000
v 479.000000 -129.890121 69.000000
v 479.000000 -150.194443 69.000000
v 346.000000 -130.000000 69.000000
v 461.000000 -130.000000 69.000000
v 461.000000 -129.890121 69.000000
v 70.469482 -362.200073 -302.000000
v -69.229126 -362.996887 -302.000000
v -231.000000 -130.000000 69.000000
v -231.000000 -130.000000 39.000000
v -231.000000 -130.000000 -90.000000
v -231.000000 -130.000000 -133.000000
v -231.000000 -130.000000 -219.000000
v 231.000000 -130.000000 69.000000
vt 0.275263 0.000000
vt 0.224737 0.000000
vt 0.275263 0.000000
vt 0.224737 0.000000
vt 0.275263 0.000000
vt 0.258421 0.000000
vt 0.241579 0.000000
vt 0.375000 0.900263
vt 0.625000 0.900263
vt 0.375000 0.849737
vt 0.625000 0.849737
vt 0.203462 -0.127551
vt 0.224737 -0.127551
vt 0.275263 0.000000
vt 0.625000 0.849737
vt 0.375000 0.900263
vt 0.375000 0.849737
vt 0.224737 0.000000
vt 0.625000 0.849737
vt 0.375000 0.900263
vt 0.625000 0.900263
vt 0.375000 0.849737
vt 0.625000 0.900263
vt 0.275263 0.000000
vt 0.375000 0.900263
vt 0.375000 0.883421
vt 0.625000 0.883421
vt 0.224737 0.000000
vt 0.207894 0.000000
vt 0.258421 0.000000
vt 0.375000 0.866579
vt 0.625000 0.866579
vt 0.275263 0.000000
vt 0.625000 0.849737
vt 0.375000 0.900263
vt 0.375000 0.849737
vt 0.224737 0.000000
vt 0.625000 0.900263
vt 0.625000 0.849737
vt 0.375000 0.849737
vt 0.247758 0.061817
vt 0.625000 0.849737
vt 0.375000 0.900263
vt 0.625000 0.900263
vt 0.625000 0.857071
vt 0.375000 0.857071
vt 0.358586 0.061833
vt 0.247758 0.061833
vt 0.375000 0.900263
vt 0.625000 0.900263
vt 0.758928 0.900263
vt 0.758928 0.875659
vt 0.625000 0.849737
vt 0.375000 0.849737
vt 0.811614 0.061817
vt 0.752242 0.061817
vt 0.641414 0.061817
vt 0.375000 0.849737
vt 0.358586 0.061817
vt 0.247758 0.061817
vt 0.625000 0.849737
vt 0.375000 0.849737
vt 0.375000 0.896844
vt 0.625000 0.896844
vt 0.758929 0.877445
vt 1.334821 0.877445
vt 1.526785 0.877445
vt 1.910714 0.877445
vt 2.102678 0.877445
vt 2.102678 0.900263
vt 1.910714 0.900263
vt 1.526785 0.900263
vt 1.334821 0.900263
vt 0.758928 0.900263
vt 0.625000 0.900263
vt 0.375000 0.900263
vt 0.641414 0.061817
vt 0.752242 0.061817
vt 0.811614 0.061817
vt 0.247758 0.061834
vt 0.358585 0.061834
vt 0.375000 0.090750
vt 0.375000 0.047214
vt 0.423000 0.090777
vt 0.418500 0.090777
vt 0.418500 0.090750
vt 0.389750 0.090750
vt 0.282250 0.090750
vt 0.375000 0.047214
vt 0.375000 0.090750
vt 0.367500 0.090750
vt 0.335250 0.090750
vt 0.324500 0.090750
vt 0.303000 0.090750
vt 0.292250 0.090750
vt 0.550735 0.768217
vt 0.625000 0.875659
vt 0.625000 0.900263
vt 0.625000 0.091500
vt 0.625000 0.048005
vt 0.717750 0.091500
vt 0.707750 0.091500
vt 0.697000 0.091500
vt 0.675500 0.091500
vt 0.664750 0.091500
vt 0.632500 0.091500
vt 0.625000 0.048005
vt 0.625000 0.091500
vt 0.608000 0.091500
vt 0.608000 0.091527
vt 0.625000 0.877445
vt 0.449265 0.768217
vt 0.337250 0.054527
vt 0.323250 0.054527
vt 0.323250 0.049451
vt 0.422982 0.085699
vt 0.584676 0.632453
vt 0.676750 0.054527
vt 0.662750 0.054527
vt 0.676750 0.049472
vt 0.577000 0.091527
vt 0.577000 0.086472
vt 0.625000 0.849737
vt 0.415324 0.632453
vt 0.558000 0.243750
vt 0.442500 0.243750
vt 0.428500 0.243750
vt 0.428500 0.229130
vt 0.482943 0.185501
vt 0.517867 0.185700
vt 0.572000 0.229105
vt 0.572000 0.243750
vt 0.282250 0.076105
vt 0.487762 0.820292
vt 0.449265 0.666305
vt 0.550735 0.666305
vt 0.512458 0.819415
vt 0.738490 0.000000
vt 0.734698 0.075301
vt 0.717750 0.076880
vt 0.442500 0.271500
vt 0.442500 0.303750
vt 0.442500 0.336000
vt 0.442500 0.346750
vt 0.442500 0.356750
vt 0.558000 0.356750
vt 0.558000 0.346750
vt 0.558000 0.303750
vt 0.558000 0.271500
vt 0.558000 0.250000
vt 0.442500 0.250000
vt 0.411500 0.249027
vt 0.411500 0.249000
vt 0.428500 0.249000
vt 0.442500 0.249000
vt 0.442500 0.250000
vt 0.558000 0.250000
vt 0.558000 0.249000
vt 0.572000 0.249000
vt 0.586750 0.249000
vt 0.615500 0.249000
vt 0.615500 0.249027
vt 0.620000 0.249027
vt 0.620000 0.239591
vt 0.523464 0.162186
vt 0.477445 0.161923
vt 0.380500 0.239613
vt 0.380500 0.249027
vt 0.516415 0.920881
vt 0.584676 0.647836
vt 0.968084 0.099221
vt 0.973080 0.000000
vt 0.415324 0.647836
vt 0.483874 0.922037
vt 0.662750 0.045113
vt 0.375000 0.877445
vt 0.811614 0.062457
vt 0.641414 0.062457
vt 0.275263 0.020408
vt 0.224737 0.020408
vt 0.275263 0.020408
vt 0.224737 0.020408
vt 0.275263 0.020408
vt 0.258421 0.020408
vt 0.224737 -0.107143
vt 0.203462 -0.107143
vt 0.558000 0.244750
vt 0.442500 0.244750
vt 0.224737 0.013514
vt 0.275263 0.013514
vt 0.207894 0.020408
vt 0.275263 0.020408
vt 0.224737 0.020408
vt 0.275263 0.020408
vt 0.811614 0.062457
vt 0.641414 0.062457
vt 0.375000 0.875659
vt 0.375000 0.849737
vt 0.358586 0.061817
vt 0.337250 0.045091
vn 0.000000 1.000000 -0.000000
vn 0.000000 1.000000 -0.000000
vn 0.000000 1.000000 -0.000000
vn 0.000000 1.000000 -0.000000
vn 0.000000 1.000000 -0.000000
vn 0.000000 1.000000 -0.000000
vn 0.000000 1.000000 -0.000000
vn 0.000000 1.000000 -0.000000
vn 0.000000 1.000000 -0.000000
vn 0.000000 1.000000 -0.000000
vn 0.000000 1.000000 -0.000000
vn -0.000000 0.000000 1.000000
vn -0.000000 0.000000 1.000000
vn -0.000000 0.000000 1.000000
vn -0.000000 0.000000 1.000000
vn -0.000000 0.000000 1.000000
vn -0.000000 0.000000 1.000000
vn -0.000000 0.000000 1.000000
vn -0.000000 0.000000 1.000000
vn -0.000000 0.000000 1.000000
vn -0.000000 0.000000 1.000000
vn -0.000000 0.000000 1.000000
vn -0.000000 0.000000 1.000000
vn -0.000000 0.000000 1.000000
vn -0.000000 0.000000 1.000000
vn -0.000000 0.000000 1.000000
vn -0.000000 0.000000 1.000000
vn -0.000000 0.000000 1.000000
vn 0.000000 0.000000 -1.000000
vn 0.000000 0.000000 -1.000000
vn 0.000000 0.000000 -1.000000
vn 0.000000 0.000000 -1.000000
vn 0.000000 0.000000 -1.000000
vn 0.000000 0.000000 -1.000000
vn 0.000000 1.000000 0.000000
vn 0.000000 1.000000 0.000000
vn 0.000000 1.000000 0.000000
vn 0.000000 1.000000 0.000000
vn -1.000000 0.000000 0.000000
vn -1.000000 0.000000 0.000000
vn -1.000000 0.000000 0.000000
vn -1.000000 0.000000 0.000000
vn -1.000000 0.000000 0.000000
vn -1.000000 0.000000 0.000000
vn -1.000000 0.000000 0.000000
vn -1.000000 0.000000 0.000000
vn -1.000000 0.000000 0.000000
vn 0.000000 1.000000 0.000000
vn 0.000000 1.000000 0.000000
vn 0.000000 1.000000 0.000000
vn 0.000000 1.000000 0.000000
vn 0.000000 1.000000 0.000000
vn 0.000000 1.000000 0.000000
vn 0.000000 1.000000 0.000000
vn 0.000000 1.000000 0.000000
vn 0.000000 1.000000 0.000000
vn 0.000000 1.000000 0.000000
vn 0.000000 1.000000 0.000000
vn 0.000000 1.000000 0.000000
vn 0.000000 1.000000 0.000000
vn 0.000000 1.000000 0.000000
vn 0.000000 1.000000 0.000000
vn 0.000000 1.000000 0.000000
vn 0.000000 1.000000 0.000000
vn 0.000000 1.000000 0.000000
vn 1.000000 0.000000 0.000000
vn 1.000000 0.000000 0.000000
vn 1.000000 0.000000 0.000000
vn 1.000000 0.000000 0.000000
vn 1.000000 0.000000 0.000000
vn 1.000000 0.000000 0.000000
vn 1.000000 0.000000 0.000000
vn 1.000000 0.000000 0.000000
vn 1.000000 0.000000 0.000000
vn 0.000000 0.000000 -1.000000
vn 0.000000 0.000000 -1.000000
vn 0.000000 0.000000 -1.000000
vn 0.000000 0.000000 -1.000000
vn 0.000000 0.000000 -1.000000
vn 0.000000 0.000000 -1.000000
vn 0.000000 0.000000 -1.000000
vn 0.607869 -0.758110 -0.236144
vn 0.607869 -0.758110 -0.236144
vn 0.607869 -0.758110 -0.236144
vn 0.607869 -0.758110 -0.236144
vn 0.607869 -0.758110 -0.236144
vn 0.607869 -0.758110 -0.236144
vn 0.005507 -0.965474 -0.260440
vn 0.005507 -0.965474 -0.260440
vn 0.005507 -0.965474 -0.260440
vn 0.005507 -0.965474 -0.260440
vn -0.607679 -0.758286 -0.236070
vn -0.607679 -0.758286 -0.236070
vn -0.607679 -0.758286 -0.236070
vn -0.607679 -0.758286 -0.236070
vn -0.607679 -0.758286 -0.236070
vn -0.607679 -0.758286 -0.236070
vn -1.000000 0.000000 0.000000
vn -1.000000 0.000000 0.000000
vn -1.000000 0.000000 0.000000
vn -1.000000 0.000000 0.000000
vn 0.000000 1.000000 0.000000
vn 0.000000 1.000000 0.000000
vn 0.000000 1.000000 0.000000
vn 0.000000 1.000000 0.000000
vn 1.000000 0.000000 0.000000
vn 1.000000 0.000000 0.000000
vn 1.000000 0.000000 0.000000
vn 1.000000 0.000000 0.000000
vn 0.000000 1.000000 0.000000
vn 0.000000 1.000000 0.000000
vn 0.000000 1.000000 0.000000
vn 0.000000 1.000000 0.000000
vn 0.000000 1.000000 0.000000
vn 0.000000 1.000000 0.000000
vn 0.000000 1.000000 0.000000
vn 0.000000 1.000000 0.000000
vn 0.000000 1.000000 0.000000
vn 0.000000 1.000000 0.000000
vn 0.000000 1.000000 0.000000
vn 0.000000 1.000000 0.000000
vn 0.000000 1.000000 0.000000
vn 0.000000 1.000000 0.000000
vn 0.000000 1.000000 0.000000
vn 0.000000 1.000000 0.000000
vn -1.000000 0.000000 -0.000000
vn -1.000000 0.000000 -0.000000
vn -1.000000 0.000000 -0.000000
vn -1.000000 0.000000 -0.000000
vn -1.000000 0.000000 -0.000000
vn -1.000000 0.000000 0.000000
vn -1.000000 0.000000 0.000000
vn -1.000000 0.000000 0.000000
vn -1.000000 0.000000 0.000000
vn -1.000000 0.000000 0.000000
vn -1.000000 0.000000 0.000000
vn -1.000000 0.000000 0.000000
vn -1.000000 0.000000 0.000000
vn -1.000000 0.000000 0.000000
vn -1.000000 0.000000 0.000000
vn -1.000000 0.000000 0.000000
vn -1.000000 0.000000 0.000000
vn -1.000000 0.000000 0.000000
vn -1.000000 0.000000 0.000000
vn -1.000000 0.000000 0.000000
vn -1.000000 0.000000 0.000000
vn -1.000000 0.000000 0.000000
vn 0.000000 0.000000 -1.000000
vn 0.000000 0.000000 -1.000000
vn 0.000000 0.000000 -1.000000
vn 0.000000 0.000000 -1.000000
vn 0.000000 0.000000 -1.000000
vn 0.000000 0.000000 -1.000000
vn 0.000000 0.000000 -1.000000
vn 0.000000 0.000000 -1.000000
vn 0.000000 0.000000 -1.000000
vn 0.000000 0.000000 -1.000000
vn 1.000000 0.000000 0.000000
vn 1.000000 0.000000 0.000000
vn 1.000000 0.000000 0.000000
vn 1.000000 0.000000 0.000000
vn 1.000000 0.000000 0.000000
vn 1.000000 0.000000 0.000000
vn 1.000000 0.000000 0.000000
vn 1.000000 0.000000 0.000000
vn 1.000000 0.000000 0.000000
vn 1.000000 0.000000 0.000000
vn 1.000000 0.000000 0.000000
vn 1.000000 0.000000 0.000000
vn 1.000000 0.000000 0.000000
vn 1.000000 0.000000 0.000000
vn 1.000000 0.000000 0.000000
vn 1.000000 0.000000 0.000000
vn 1.000000 0.000000 0.000000
vn 1.000000 0.000000 0.000000
vn 1.000000 0.000000 0.000000
vn 0.000000 1.000000 0.000000
vn 0.000000 1.000000 0.000000
vn 0.000000 1.000000 0.000000
vn 0.000000 1.000000 0.000000
vn 0.000000 1.000000 0.000000
vn 0.000000 1.000000 0.000000
vn 0.000000 1.000000 0.000000
vn 0.000000 1.000000 0.000000
vn 0.000000 1.000000 0.000000
vn 0.000000 1.000000 0.000000
vn 0.000000 1.000000 0.000000
vn 0.000000 1.000000 0.000000
vn -1.000000 0.000000 0.000000
vn -1.000000 0.000000 0.000000
vn -1.000000 0.000000 0.000000
vn -1.000000 0.000000 0.000000
vn 0.000000 1.000000 0.000000
vn 0.000000 1.000000 0.000000
vn 0.000000 1.000000 0.000000
vn 0.000000 1.000000 0.000000
vn 1.000000 0.000000 0.000000
vn 1.000000 0.000000 0.000000
vn 1.000000 0.000000 0.000000
vn 1.000000 0.000000 0.000000
s off
f 1/151/1 2/150/2 3/149/3 4/148/4 5/147/5 6/146/6 7/145/7 8/144/8 9/143/9 10/142/10 11/141/11
f 12/168/12 13/167/13 14/166/14 15/165/15 16/164/16 17/163/17 18/162/18 19/161/19 20/160/20 21/159/21 22/158/22 2/157/23 1/156/24 23/155/25 24/154/26 25/153/27 26/152/28
f 27/122/29 28/121/30 29/110/31 30/109/32 31/108/33 32/107/34
f 33/8/35 34/9/36 35/11/37 36/10/38
f 34/101/39 37/140/40 32/100/41 31/99/42 38/106/43 39/105/44 40/104/45 41/103/46 35/102/47
f 42/98/48 43/35/49 44/36/50 45/34/51
f 46/27/52 45/38/53 44/25/54 47/26/55
f 48/32/56 46/21/57 47/20/58 49/31/59 50/22/60 51/19/61
f 52/15/62 51/23/63 50/16/64 53/17/65
f 54/133/66 42/88/67 45/95/68 46/94/69 48/93/70 51/92/71 52/91/72 55/90/73 56/89/74
f 57/84/75 58/116/76 56/83/77 55/82/78 59/87/79 60/86/80 61/85/81
f 16/170/82 15/169/83 62/137/84 54/136/85 56/96/86 58/117/87
f 15/172/88 14/171/89 63/139/90 62/138/91
f 14/174/92 13/173/93 27/124/94 32/112/95 37/135/96 63/134/97
f 13/175/98 12/119/99 28/118/100 27/120/101
f 12/58/102 26/63/103 29/64/104 28/123/105
f 26/81/106 25/59/107 30/60/108 29/80/109
f 25/62/110 24/176/111 23/76/112 64/75/113 65/74/114 66/73/115 67/72/116 68/71/117 36/70/118 35/69/119 41/68/120 40/67/121 39/66/122 38/65/123 31/111/124 30/61/125
f 23/77/126 1/178/127 11/177/128 65/79/129 64/78/130
f 11/180/131 10/179/132 66/1/133 65/2/134
f 10/182/135 9/181/136 68/3/137 67/7/138 66/4/139
f 9/184/140 8/183/141 36/5/142 68/6/143
f 8/186/144 7/185/145 33/13/146 36/12/147
f 7/188/148 6/187/149 43/125/150 42/132/151 54/131/152 62/130/153 63/129/154 37/128/155 34/127/156 33/126/157
f 6/190/158 5/189/159 44/37/160 43/33/161
f 5/192/162 4/191/163 50/29/164 49/28/165 47/30/166 44/24/167
f 4/194/168 3/193/169 53/18/170 50/14/171
f 2/196/172 22/57/173 69/56/174 53/55/175 3/195/176
f 22/49/177 21/197/178 20/54/179 59/53/180 55/97/181 52/52/182 53/51/183 69/50/184
f 20/43/185 19/198/186 60/42/187 59/44/188
f 19/199/189 18/47/190 61/48/191 60/41/192
f 18/46/193 17/40/194 57/39/195 61/45/196
f 17/113/197 16/200/198 58/115/199 57/114/200
