# This file uses centimeters as units for non-parametric coordinates.

mtllib Rail_17.mtl
g default
v -16.229494 2.170861 -1564.371957
v -27.432459 2.170861 -1568.672373
v -17.746837 17.170861 -1564.954411
v -25.915117 17.170861 -1568.089920
v -26.347667 17.170861 -1542.548480
v -34.515948 17.170861 -1545.683989
v -24.830325 2.170861 -1541.966027
v -36.033290 2.170861 -1546.266443
vt 0.375000 0.000000
vt 0.625000 0.000000
vt 0.625000 0.250000
vt 0.375000 0.250000
vt 0.625000 0.500000
vt 0.375000 0.500000
vt 0.625000 0.750000
vt 0.375000 0.750000
vt 0.625000 1.000000
vt 0.375000 1.000000
vt 0.875000 0.000000
vt 0.875000 0.250000
vt 0.125000 0.000000
vt 0.125000 0.250000
vn 0.358368 0.000000 -0.933581
vn 0.358368 0.000000 -0.933581
vn 0.358368 0.000000 -0.933581
vn 0.358368 0.000000 -0.933581
vn 0.000000 1.000000 -0.000000
vn 0.000000 1.000000 -0.000000
vn 0.000000 1.000000 -0.000000
vn 0.000000 1.000000 -0.000000
vn -0.358368 0.000000 0.933581
vn -0.358368 0.000000 0.933581
vn -0.358368 0.000000 0.933581
vn -0.358368 0.000000 0.933581
vn 0.000000 -1.000000 0.000000
vn 0.000000 -1.000000 0.000000
vn 0.000000 -1.000000 0.000000
vn 0.000000 -1.000000 0.000000
vn -0.928148 0.107722 -0.356283
vn -0.928148 0.107722 -0.356283
vn -0.928148 0.107722 -0.356283
vn -0.928148 0.107722 -0.356283
vn 0.928148 0.107722 0.356283
vn 0.928148 0.107722 0.356283
vn 0.928148 0.107722 0.356283
vn 0.928148 0.107722 0.356283
s off
g polySurface155 group96 group93 group89 group90 polySurface24
usemtl initialShadingGroup
f 1/1/1 2/2/2 4/3/3 3/4/4
f 3/4/5 4/3/6 6/5/7 5/6/8
f 5/6/9 6/5/10 8/7/11 7/8/12
f 7/8/13 8/7/14 2/9/15 1/10/16
f 2/2/17 8/11/18 6/12/19 4/3/20
f 7/13/21 1/1/22 3/4/23 5/14/24
