# This file uses centimeters as units for non-parametric coordinates.

mtllib Rail_23.mtl
g default
v -82.265977 2.170861 -1391.768099
v -93.468943 2.170861 -1396.068514
v -83.783320 17.170861 -1392.350552
v -91.951600 17.170861 -1395.486061
v -92.384151 17.170861 -1369.944622
v -100.552431 17.170861 -1373.080131
v -90.866808 2.170861 -1369.362169
v -102.069773 2.170861 -1373.662584
vt 0.375000 0.000000
vt 0.625000 0.000000
vt 0.625000 0.250000
vt 0.375000 0.250000
vt 0.625000 0.500000
vt 0.375000 0.500000
vt 0.625000 0.750000
vt 0.375000 0.750000
vt 0.625000 1.000000
vt 0.375000 1.000000
vt 0.875000 0.000000
vt 0.875000 0.250000
vt 0.125000 0.000000
vt 0.125000 0.250000
vn 0.358368 0.000000 -0.933581
vn 0.358368 0.000000 -0.933581
vn 0.358368 0.000000 -0.933581
vn 0.358368 0.000000 -0.933581
vn 0.000000 1.000000 -0.000000
vn 0.000000 1.000000 -0.000000
vn 0.000000 1.000000 -0.000000
vn 0.000000 1.000000 -0.000000
vn -0.358368 0.000000 0.933581
vn -0.358368 0.000000 0.933581
vn -0.358368 0.000000 0.933581
vn -0.358368 0.000000 0.933581
vn 0.000000 -1.000000 0.000000
vn 0.000000 -1.000000 0.000000
vn 0.000000 -1.000000 0.000000
vn 0.000000 -1.000000 0.000000
vn -0.928148 0.107722 -0.356283
vn -0.928148 0.107722 -0.356283
vn -0.928148 0.107722 -0.356283
vn -0.928148 0.107722 -0.356283
vn 0.928148 0.107722 0.356283
vn 0.928148 0.107722 0.356283
vn 0.928148 0.107722 0.356283
vn 0.928148 0.107722 0.356283
s off
g polySurface272 group133 group134 group96 group93 group89 group90 polySurface24
usemtl initialShadingGroup
f 1/1/1 2/2/2 4/3/3 3/4/4
f 3/4/5 4/3/6 6/5/7 5/6/8
f 5/6/9 6/5/10 8/7/11 7/8/12
f 7/8/13 8/7/14 2/9/15 1/10/16
f 2/2/17 8/11/18 6/12/19 4/3/20
f 7/13/21 1/1/22 3/4/23 5/14/24
