# This file uses centimeters as units for non-parametric coordinates.

mtllib Rail_15.mtl
g default
v 6.006875 2.170861 -1622.299680
v -5.196090 2.170861 -1626.600096
v 4.489533 17.170861 -1622.882134
v -3.678747 17.170861 -1626.017643
v -4.111298 17.170861 -1600.476203
v -12.279578 17.170861 -1603.611712
v -2.593956 2.170861 -1599.893750
v -13.796921 2.170861 -1604.194166
vt 0.375000 0.000000
vt 0.625000 0.000000
vt 0.625000 0.250000
vt 0.375000 0.250000
vt 0.625000 0.500000
vt 0.375000 0.500000
vt 0.625000 0.750000
vt 0.375000 0.750000
vt 0.625000 1.000000
vt 0.375000 1.000000
vt 0.875000 0.000000
vt 0.875000 0.250000
vt 0.125000 0.000000
vt 0.125000 0.250000
vn 0.358368 0.000000 -0.933581
vn 0.358368 0.000000 -0.933581
vn 0.358368 0.000000 -0.933581
vn 0.358368 0.000000 -0.933581
vn 0.000000 1.000000 -0.000000
vn 0.000000 1.000000 -0.000000
vn 0.000000 1.000000 -0.000000
vn 0.000000 1.000000 -0.000000
vn -0.358368 0.000000 0.933581
vn -0.358368 0.000000 0.933581
vn -0.358368 0.000000 0.933581
vn -0.358368 0.000000 0.933581
vn 0.000000 -1.000000 0.000000
vn 0.000000 -1.000000 0.000000
vn 0.000000 -1.000000 0.000000
vn 0.000000 -1.000000 0.000000
vn -0.928148 0.107722 -0.356283
vn -0.928148 0.107722 -0.356283
vn -0.928148 0.107722 -0.356283
vn -0.928148 0.107722 -0.356283
vn 0.928148 0.107722 0.356283
vn 0.928148 0.107722 0.356283
vn 0.928148 0.107722 0.356283
vn 0.928148 0.107722 0.356283
s off
g polySurface159 group96 group93 group89 group90 polySurface24
usemtl initialShadingGroup
f 1/1/1 2/2/2 4/3/3 3/4/4
f 3/4/5 4/3/6 6/5/7 5/6/8
f 5/6/9 6/5/10 8/7/11 7/8/12
f 7/8/13 8/7/14 2/9/15 1/10/16
f 2/2/17 8/11/18 6/12/19 4/3/20
f 7/13/21 1/1/22 3/4/23 5/14/24
