# This file uses centimeters as units for non-parametric coordinates.

mtllib Ramp_08.mtl
g default
v -220.000000 -104.500000 -112.000000
v -52.000000 -104.500000 -112.000000
v -220.000000 0.500000 -112.000000
v -52.000000 0.500000 -112.000000
v -220.000000 -104.500000 -280.000000
v -52.000000 -104.500000 -280.000000
vt 0.375000 0.000000
vt 0.625000 0.000000
vt 0.375000 0.250000
vt 0.625000 0.250000
vt 0.375000 0.750000
vt 0.625000 0.750000
vt 0.375000 1.000000
vt 0.625000 1.000000
vt 0.875000 0.000000
vt 0.125000 0.000000
vn 0.000000 0.000000 1.000000
vn 0.000000 0.000000 1.000000
vn 0.000000 0.000000 1.000000
vn 0.000000 0.000000 1.000000
vn 0.000000 -1.000000 0.000000
vn 0.000000 -1.000000 0.000000
vn 0.000000 -1.000000 0.000000
vn 0.000000 -1.000000 0.000000
vn 1.000000 0.000000 0.000000
vn 1.000000 0.000000 0.000000
vn 1.000000 0.000000 0.000000
vn 0.000000 0.847998 -0.529999
vn 0.000000 0.847998 -0.529999
vn 0.000000 0.847998 -0.529999
vn 0.000000 0.847998 -0.529999
vn -1.000000 0.000000 0.000000
vn -1.000000 0.000000 0.000000
vn -1.000000 0.000000 0.000000
s off
g pCube49
usemtl initialShadingGroup
f 4/4/1 3/3/2 1/1/3 2/2/4
f 2/8/5 1/7/6 5/5/7 6/6/8
f 6/9/9 4/4/10 2/2/11
f 5/10/12 3/3/13 4/4/14 6/6/15
f 3/3/16 5/10/17 1/1/18
