# This file uses centimeters as units for non-parametric coordinates.

mtllib Ramp_09.mtl
g default
v -478.995193 -129.621806 69.117576
v -478.995193 -129.621806 125.117577
v -478.995193 0.000005 69.117576
v -478.995193 0.000005 125.117577
v -286.995193 -129.999999 69.117576
v -286.995193 -129.999999 125.117577
vt 0.375000 0.000000
vt 0.625000 0.000000
vt 0.375000 0.250000
vt 0.625000 0.250000
vt 0.375000 0.750000
vt 0.625000 0.750000
vt 0.375000 1.000000
vt 0.625000 1.000000
vt 0.875000 0.000000
vt 0.125000 0.000000
vn -1.000000 0.000000 -0.000000
vn -1.000000 0.000000 -0.000000
vn -1.000000 0.000000 -0.000000
vn -1.000000 0.000000 -0.000000
vn -0.001970 -0.999998 -0.000000
vn -0.001970 -0.999998 -0.000000
vn -0.001970 -0.999998 -0.000000
vn -0.001970 -0.999998 -0.000000
vn -0.000000 0.000000 1.000000
vn -0.000000 0.000000 1.000000
vn -0.000000 0.000000 1.000000
vn 0.560657 0.828048 0.000000
vn 0.560657 0.828048 0.000000
vn 0.560657 0.828048 0.000000
vn 0.560657 0.828048 0.000000
vn 0.000000 0.000000 -1.000000
vn 0.000000 0.000000 -1.000000
vn 0.000000 0.000000 -1.000000
s off
g pCube141 group119
usemtl initialShadingGroup
f 4/4/1 3/3/2 1/1/3 2/2/4
f 2/8/5 1/7/6 5/5/7 6/6/8
f 6/9/9 4/4/10 2/2/11
f 5/10/12 3/3/13 4/4/14 6/6/15
f 3/3/16 5/10/17 1/1/18
