# This file uses centimeters as units for non-parametric coordinates.

mtllib UD_Ramp_08.mtl
g UD_Ramp_08_default1
v 231.000000 -51.150120 -262.000000
v 287.000000 -51.150120 -262.000000
v 231.000000 -81.007263 -262.000000
v 287.000000 -81.007263 -262.000000
v 231.000000 -51.007263 -309.714294
v 287.000000 -51.007263 -309.714294
vt 0.375000 0.000000
vt 0.625000 0.000000
vt 0.375000 0.250000
vt 0.625000 0.250000
vt 0.375000 0.750000
vt 0.625000 0.750000
vt 0.375000 1.000000
vt 0.625000 1.000000
vt 0.875000 0.000000
vt 0.125000 0.000000
vn 0.000000 -0.000000 1.000000
vn 0.000000 -0.000000 1.000000
vn 0.000000 -0.000000 1.000000
vn 0.000000 -0.000000 1.000000
vn 0.000000 0.999996 0.002994
vn 0.000000 0.999996 0.002994
vn 0.000000 0.999996 0.002994
vn 0.000000 0.999996 0.002994
vn 1.000000 0.000000 0.000000
vn 1.000000 0.000000 0.000000
vn 1.000000 0.000000 0.000000
vn 0.000000 -0.846571 -0.532275
vn 0.000000 -0.846571 -0.532275
vn 0.000000 -0.846571 -0.532275
vn 0.000000 -0.846571 -0.532275
vn -1.000000 0.000000 0.000000
vn -1.000000 0.000000 0.000000
vn -1.000000 0.000000 0.000000
s off
g UD_Ramp_08_group114 UD_Ramp_08_pCube133 UD_Ramp_08_polySurface1 group282
usemtl UD_Ramp_08_initialShadingGroup2
f 4/4/1 2/2/2 1/1/3 3/3/4
f 2/8/5 6/6/6 5/5/7 1/7/8
f 6/9/9 2/2/10 4/4/11
f 5/10/12 6/6/13 4/4/14 3/3/15
f 3/3/16 1/1/17 5/10/18
